<?xml version="1.0" encoding="UTF-8"?>
<!-- Generator: Adobe Illustrator 25.2.0, SVG Export Plug-In . SVG Version: 6.00 Build 0)  -->
<svg xmlns="http://www.w3.org/2000/svg" xmlns:xlink="http://www.w3.org/1999/xlink" version="1.1" id="Livello_1" x="0px" y="0px" viewBox="0 0 800 747.7" style="enable-background:new 0 0 800 747.7;" xml:space="preserve">
<style type="text/css">
	.st0{fill:none;stroke:#231F20;stroke-width:2;stroke-linecap:round;stroke-linejoin:round;stroke-miterlimit:10;}
</style>
<g>
	<polyline class="st0" points="508.9,137 486.9,168.6 516.3,164.1 516.9,182.5 655.5,141.7 530.2,108.7 517.2,126.7  "></polyline>
	<path class="st0" d="M532.4,131.1"></path>
</g>
<path class="st0" d="M504.5,137c13.3,0.2,26.5,0.4,39.8,0.6c13.2,0.2,25.1-4.2,31.8-16.2c6.6-11.8,6-26.8-0.2-38.7  c-17.6-33.3-67.6-39.1-101.2-36.5c-37.3,2.9-75.8,20.6-99.3,50.2c-10,12.6-17.7,27.1-22.7,42.5c-10.2,31.3-9.6,66.3,3.3,96.7  c12.7,29.8,37,52.9,67.2,64.4c28.7,10.9,60.1,6.6,86.3-8.6c24.2-14.1,45.4-34.8,73.7-40.6c21.3-4.4,48.1,5.4,50.3,29.8  c1.6,17-6.7,35.1-19.8,45.4c-11.6,9.2-33.6,14.8-42.3-1c-8.9-16.1,7.7-33.8,20.9-41.1c13.7-7.6,28.7-11.4,44.4-10  c47.1,4.4,92.7,46.2,116.9,84.3c19.7,31,30.4,67.2,30.9,104c1.5,109.9-86.4,200.2-196.2,201.7c-44.1,0.6-90.8-13.9-125.8-41.3  c-24-18.8-41.7-45-68.6-60.2c-4.9-2.8-11.1-3.7-16.6-1.9c-7.3,2.4-10.1,9.5-6.3,16.1c8.3,14.4,23.9,23.5,36.7,33.2  c10,7.6,18,16.9,25.4,27c3.7,5.1,6.9,9.5,9.4,15.3c1.2,2.7,2.4,5.5,3.7,8.2c1.1,2.3,2.5,4.5,3.4,6.9c1.2,3.2-0.4,4.5-3.7,5.1  c-2.5,0.5-5.3,0.1-7.6-1.1c-7.9-4.1-11.2-13.7-15.6-20.8c-3.4-5.5-7.8-10.3-12.1-15.1c-2.1-2.4-5.1-5.6-8.1-8.6"></path>
<path class="st0" d="M277.3,495.1c-5.8,35.7,50.1,72.6,65.9,96.7c10.6,16.2,13.9,33.4-4,47.1c-29.1,22.2-62.3-9.5-95.4-9.5"></path>
<path class="st0" d="M383,629.6c2.6,3.7,5.5,7.5,7.4,11.2c2.5,4.9,4.5,10.1,6.1,15.3c1.4,4.5,2.5,9.2,3.9,13.7  c1,3.5,1.6,7.5,4.2,10.2c1.8,1.9,4.1,3.3,6.7,3.5c1.2,0.1,2.5-0.1,3.6-0.5c2.7-0.9,2.2-3.8,2.1-6.2c-0.2-3.4-0.5-6.8-0.9-10.2  c-0.9-6.8-2.5-13.5-4.7-20c-2.3-6.9-5.4-13.6-9.3-19.8"></path>
<path class="st0" d="M334.1,580.6c6.8,6.5,12.3,14.8,16,19.4c9.5,12,15.5,27.1,16.3,42.2c0.3,5.1,0,10.3-0.6,15.4  c-0.7,5-2.8,9.9-2.8,15c0,2.7,0.9,5.4,2.6,7.5c5.9,7.4,10.3-0.3,12.8-6.2c2.4-5.6,3.8-11.6,5-17.5c0.1-0.7,0.3-1.4,0.4-2.1  c0.9-4.4,1.3-8.9,1.1-13.4c-0.1-2.6-0.2-6.2-2-11.3"></path>
<path class="st0" d="M229.2,569.1c-1-3.2-2.3-6.6-2.6-7.5c-2.3-6.7-4-13.7-6.2-20.4c-6.2-19.6-11-41.6-21.7-59.4  c-7-11.5-21.7-8.5-29.7-18.3c-4.2-5.2-5.3-12.5-0.9-18.2c4.6-5.9,13.4-8.1,18.7-2.6c7.1,7.3,3.3,18.1-5.2,21.8  c-6.9,3-15.7,3.3-21.4-2.2c-8.2-7.7-7.5-20.8-1-29.2c9.4-12.2,32.2-22,46-11.2c14,11,3.5,34.2-11.9,35.4c-7.9,0.6-14.3-6.8-7.7-14.7  c5.4-6.5,19.2-9.1,26.6-4c10.7,7.4-1.4,19.3-5.8,26c-4.5,6.8-7.2,15.3-4.2,23.9"></path>
<path class="st0" d="M242.5,676.5c2,11.4-1.9,25-9.3,33.9"></path>
<path class="st0" d="M229.2,569c-3.6-13.3-3.7-23.3-0.1-34.4c3.6-11.1,12.8-19.3,19.1-28.9c4.1-6.2,7.1-12.7,6.2-20.3  c-1-9-5.6-17.1-6.8-26.1c-0.6-4.9,0.4-10.4,3.5-14.4c2.7-3.5,7.8-5.7,12.3-4.5c5.6,1.4,7.7,7.7,8,12.9c0.2,3.3-0.2,7-2.1,9.8  c-2.8,3.9-9,4.2-10.2-1.1c-3.6-14.9,22.7-23.8,30.5-11.7c5,7.7,0.7,21.8-8.4,24.4c-3.9,1.1-7-1.8-6.7-5.8  c0.6-6.6,10.6-11.2,16.2-12.4c8.5-1.9,18.2,4.4,19.1,13.3c1,9.4-8.7,18.4-18,17.6c-2.8-0.2-6.6-1.4-7-4.8c-0.4-3.3,2.6-5.9,5.4-7  c5.8-2.3,13.2,0.8,16.4,5.9c4,6.3-0.5,14-7,16.1c-8.1,2.6-16.4-1.1-24.3-3.2c-6.7-1.7-21.3,1.9-26.4,10.2"></path>
<path class="st0" d="M162.8,428.3c-15.5-13.9-26.2-40.8-13.1-64.3c8.2-14.6,23.4-25.3,39.9-25.4c17.1-0.1,32.5,11.2,40.3,26.6  c4.1,8.1,6.1,19,3.5,27.9c-2.7,9.5-14.6,18.1-22.9,10.1c-14-13.4-7-35.7,3-49.1c5.4-7.1,13.2-12.1,21.6-14.4  c21.4-5.9,40.1,5.3,48.2,26.5c2.8,7.3,3.6,16.1,1,23.5c-2.8,8.1-11.7,16.1-20.2,11.4c-6.5-3.6-9.6-12.1-9-19.5  c1.5-16,11.6-31.9,26.6-37.7c16.5-6.4,35.3,3,43.3,18.7c17.6,34.6-7.6,62.9-28,87.5c-1.7,2-3.3,4.1-4.8,6.2"></path>
<g>
	<g>
		<g>
			<path class="st0" d="M229.3,665.5c-2.2,0-4.1,0-5.9,0.1C225.2,665.6,227.2,665.6,229.3,665.5z"></path>
			<path class="st0" d="M227.1,643.3c-5.1,0.5-10.4,0.4-15.3,2c-2.5,0.8-4.5,1.8-4,4.8c0.6,4.1,4.6,4.4,8,4.4c0.4,0,0.9,0,1.5,0     c0,0,0,0,0,0c1.6,0,3.9-0.1,6.6-0.1c0.1,0,0.1,0,0.2,0c4.5-0.1,10.1-0.3,15.7-0.4c4.1-0.1,8.2-0.3,11.7-0.4"></path>
			<path class="st0" d="M252.5,665.5c-3.1,0-7.2,0-11.5,0c-3.7,0-7.6,0-11.2,0.1c-0.2,0-0.3,0-0.5,0c-2.1,0-4.1,0-5.9,0.1     c-0.1,0-0.1,0-0.2,0c-3.3,0-5.8,0-7,0c-2.9,0-6.3-0.9-6.9-4.3c-0.4-2.5,1.1-4.4,3.2-5.4c1.6-0.8,3.2-1.2,4.8-1.3c0,0,0,0,0,0     c2.1-0.3,4.4-0.2,6.6-0.1c0.1,0,0.1,0,0.2,0c1,0,2,0,3.1,0"></path>
		</g>
	</g>
	<path class="st0" d="M250.6,642c-4.3,0.2-8.3,0.4-11.9,0.7c-3.6,0.2-6.9,0.4-9.5,0.6c-0.7,0-1.4,0.1-2.1,0.1   c-4,0.2-8.5,0.5-12.3,1.1c-3.6,0.5-8.3,0.5-8.7-4.4c-0.3-4.3,5.9-4.8,9-5.7c2.6-0.8,10-2.1,15.3-3l3.6-0.6c1.1-0.1,2.1-0.3,3.1-0.4   "></path>
</g>
<g>
	<g>
		<g>
			<path class="st0" d="M243,617.7c2.4-0.3,4.4-0.6,6.5-0.8C247.5,617.1,245.3,617.4,243,617.7z"></path>
			<path class="st0" d="M217.7,621c3.3-0.5,7.8-1.1,12.6-1.7c4-0.5,8.3-1.1,12.2-1.5c0.2,0,0.3-0.1,0.5-0.1c2.3-0.3,4.5-0.5,6.5-0.8     c0.1,0,0.1,0,0.2,0c3.6-0.4,6.3-0.8,7.7-1c3.2-0.4,6.8-1.9,6.9-5.8c0.1-2.8-1.8-4.7-4.2-5.5c-1.8-0.6-3.6-0.8-5.5-0.8     c0,0,0,0,0,0c-2.4,0-4.8,0.5-7.3,0.8c-0.1,0-0.1,0-0.2,0c-1.1,0.2-2.2,0.3-3.4,0.4"></path>
		</g>
	</g>
	<path class="st0" d="M237.1,630.3c5.4-0.8,10.9-1.5,16.3-2.5c3.7-0.7,7.9-1.8,7.8-6.5c-0.1-3.4-1.5-3.9-4.4-4.3   c-2.6-0.3-4.8-0.3-7.2-0.1c-0.1,0-0.1,0-0.2,0c-2,0.2-4.1,0.5-6.5,0.8c-0.2,0-0.3,0-0.5,0.1c-0.7,0.1-1.4,0.2-2.2,0.3"></path>
	<path class="st0" d="M216.9,607.6c3.9-0.3,8.3-0.8,12.9-1.2c6.1-0.6,12.2-1.3,17.2-1.8c0.1,0,0.1,0,0.2,0c3-0.3,5.5-0.6,7.3-0.8   c0,0,0,0,0,0c0.7-0.1,1.2-0.2,1.6-0.2c3.7-0.5,8-1.4,8.1-6.1c0.1-3.4-2.2-4.2-5.1-4.7c-5.1-0.9-10.2-0.3-15.3-0.1   c-4.9,0.3-9.8,0.8-14.7,1.5c-3.2,0.4-5.2,0.8-8.7,1.3c-0.9,0.1-2.2,0.4-3.2,0.2c-1.2-0.2-1.7-1.8-0.8-2.8c1.1-1.3,6.9-4.6,8.4-5.5   c7.9-4.6,18.8-11,26.7-17.5c3.1-2.6,7.2-7.5,2.4-11c-1.7-1.2-3.8-1-5.7-0.4c-4.3,1.2-7.9,4.2-11.7,6.4c-4.3,2.4-8.5,4.9-12.8,7.4   c-6.5,3.7-13.6,6.5-19.9,10.6c-0.9,0.6-1.8,1.2-2.7,1.9c-7.8,5.7-10.9,14.4-14.4,22.9c-3.5,8.5-7.2,16.9-11.5,25.1   c-8.1,15.4-18.2,30-31.8,41.2c-3.2,2.7-6.7,5.1-10.2,7.4c-25.4,15.9-58.8,17.9-82.4-2.5c-13.6-11.7-22.4-31.6-20.4-49.4   c3.2-28.5,27.3-49.9,53.5-58.3c36-11.6,69.8,9.1,95.1,33c2.1,2,4.2,4.1,6.4,6.2"></path>
</g>
<path class="st0" d="M328.8,574.9c-8.4-8.5-19.1-16.7-24.1-27.9c-4.9-10.9-2.5-24.7,8.9-31c11.9-6.5,25.9-6,39-4.5  c13.7,1.6,27,3.4,40.8,3.9c18.6,0.6,34.7-3.4,42.1-23c7.3-19.2-2.7-32.2-14.8-47.4c-17.6-22.1-41.5-54-32.4-83.1  c6.9-22,31.8-38.7,54.3-26.1c20.9,11.7,26.2,38.8,22.4,58.9c-4.1,21.6-17.6,38-38.2,45.8c-18,6.8-47.8,2.4-57.4-17.4  c-7.3-15.1,0.1-30.6,12.4-39.4c28.8-20.8,58.4,5.7,83.8,21.7c16.6,10.4,38.7,11.8,55.2,2.5c13.6-7.7,23.3-24.3,21.6-39.9  c-1.7-15.4-15.6-30.2-30.3-33.8c-14.2-3.4-31.5,3.2-35,18.4c-2.2,9.4,3.2,19.6,11.7,24.5c20.5,11.6,40.6-8.3,54.9-18.9  c6.5-4.8,13.7-10.2,22.2-10.4c10.8-0.2,20.9,7.9,24.4,18.1c10.5,30.1-29.6,54.3-48,68.2c-11.1,8.4-22,20.1-23.4,34.7  c-3.4,35.2,40.9,53.7,69.4,56.9c5.5,0.6,10.9,1,16.4,1.1c7.3,0.2,14.6,0.6,21.9,0.3c6.5-0.3,13.8-0.8,19.4-4.5  c8.3-5.5,7.9-15.1,5.2-23.7c-4.9-15.5-14.4-30.1-24.2-42.9c-4-5.2-6.9-10.9-10.5-16.4c-3.3-5.1-6.7-10.1-10-15.2  c-1.5-2.3-3.7-5.4-2.9-8.4c0.9-3.2,5.1-4.2,7.9-3.5c4.8,1.2,8,5.9,10.5,9.9c2,3.3,3.4,7.2,6.4,9.8c2.3,2,6.5,1.7,8.5-0.7  c2-2.4,1.5-5.9,1.2-8.7c-0.4-4.4-1.9-8.2-3-12.4c-3.9-15.6-6.4-26.1-9.5-43.2c-0.4-2.3-0.5-5.2,0.6-7.3c1.6-3,5.1-4.2,7.8-2.5  c3,1.9,3.4,6.4,4.3,9.6c1.6,5.6,9.4,40.2,11.3,49.2c0.2,0.8,0.9,1.3,1.7,1.3c0.9,0,1.7-0.8,1.7-1.7c-0.2-7.7-1.1-36.5-0.9-43.7  c0.1-5.3-0.3-10.7,0.1-16.1c0.2-3.5,1.1-8.1,5.3-8.6c7.4-1,6.7,9.8,6.8,14.4c0.1,4.5,0.5,9,0.6,13.6l1.3,40c0,1,0.9,1.8,1.9,1.7  c0.9-0.1,1.6-0.8,1.7-1.7c0.9-11.8,3.4-46.9,4.4-56.7c0.4-3.9,0.9-11.3,6.2-11.5c2.3-0.1,4.5,1.4,4.9,3.7c1,5,0.3,10.7,0.2,15.7  c-0.1,5.5-1.9,36.9-2.1,49.5c0,0.9,0.6,1.5,1.5,1.6c0.8,0,1.5-0.5,1.6-1.3c1.4-7.6,7.2-38.5,8.7-45.6c0.8-3.7,1.1-9.2,3-12.6  c1.4-2.4,5-3.4,7.6-1c1.8,1.6,1.8,4.5,1.7,6.8c-0.1,3.9-0.5,7.7-1.1,11.6c-2.9,17.8-4.5,32.9-7.1,50.7c-2.4,16.3-6.3,32.8-4.1,49.3  c2.4,17.5,9.6,33.7,15.8,50.1c5.4,14.3,11.9,31.8,0,44.9c-13.2,14.5-34.7,13.1-52.4,11c-23.4-2.7-46.9-4.7-70.5-5.8  c-17.1-0.8-38,3.1-37.6,24.4c0.6,39-17.7,70-51.3,89.9c-35.4,20.9-79.3,26.8-119.7,23.1c-10.9-1-21.7-3.4-32.2-6.4  c-18.7-5.4-36.6-13.1-55-19.3c-18.3-6.3-36.9-10.8-56.4-11c-4.9-0.1-9.9,0-14.8-0.3c-3.4-0.2-7.3-0.7-7.8-4.9  c-0.3-3,0.9-3.7,3.4-4.3c2.3-0.6,4.3-0.8,6.4-0.9c0.1,0,0.1,0,0.2,0c0.5,0,0.9,0,1.4,0c0.9,0,1.9,0,2.9,0c0.5,0,1,0,1.6,0  c0.1,0,0.2,0,0.2,0c0.1,0,0.2,0,0.2,0c0.6,0,1.3,0,2,0"></path>
<g>
	
		<ellipse transform="matrix(0.5198 -0.8543 0.8543 0.5198 -314.0471 428.3763)" class="st0" cx="224" cy="493.5" rx="22.5" ry="8.6"></ellipse>
</g>
<g>
	
		<ellipse transform="matrix(0.7816 -0.6238 0.6238 0.7816 -283.9919 271.5044)" class="st0" cx="245.7" cy="541.3" rx="24.1" ry="9.2"></ellipse>
</g>
<g>
	
		<ellipse transform="matrix(0.2893 -0.9572 0.9572 0.2893 -372.2213 576.1006)" class="st0" cx="201.8" cy="538.7" rx="8.3" ry="20.4"></ellipse>
</g>
<g>
	<ellipse transform="matrix(0.8884 -0.4591 0.4591 0.8884 -215.143 162.9562)" class="st0" cx="227.6" cy="524" rx="2.8" ry="6.9"></ellipse>
</g>
<path class="st0" d="M125.4,322.4c-3-0.2-6.1-0.3-9.2-0.3c-57.1,0.9-102.6,48-101.7,105c0.9,57.1,48,102.6,105,101.7  c20.4-0.3,39.2-10.6,53-25.3c6.1-6.5,11-14.4,12.9-23.2c0.6-2.6,0.8-5.2,0.7-7.8"></path>
<g>
	<path class="st0" d="M202,145.7c-4.5-0.4-8.2-0.9-11.7-1.5c-10.2-1.8-29.9-5.2-34.2-16.6c-0.9-2.3-1.1-4.9-0.6-7.8   c0.6-3.3,6.5-1.7,8.9-1.5c9.5,0.7,22.2,2.3,35.2,4"></path>
	<path class="st0" d="M209.2,123.5c13.6,1.8,26.8,3.5,36.6,4.5"></path>
	<line class="st0" x1="209.2" y1="123.7" x2="209.2" y2="123.5"></line>
	<line class="st0" x1="208.9" y1="206.8" x2="209" y2="168.5"></line>
	<path class="st0" d="M195.4,203.7c-3.9,0.1-7.9,1-11,3.6c-4.5,3.8-2.3,7.9,1.5,11.1c4.1,3.5,8.6,6.5,12.9,9.6   c0.4,0.3,0.8,0.5,1.1,0.8c2.9,2.1,5.8,4.3,8.7,6.5"></path>
	<path class="st0" d="M199.4,178.9c0.2-0.2,0.4-0.4,0.5-0.7c6.8-8,14.5-16,22.7-18.8c17-5.9,31.7,10.5,32.8,26.2   c0.8,11.3-4,28.8-20,30.2c-9.6,0.9-17.9-5.2-26.6-9c-2.9-1.3-5.9-2.4-9-2.8c-0.2,0-0.4-0.1-0.5-0.1"></path>
	<path class="st0" d="M175.5,175.1c-3.1,3.7-6.2,7.4-8.9,11.4"></path>
	<path class="st0" d="M199.3,203.9L199.3,203.9c-0.4,0-0.7,0-1.1-0.1c-0.8-0.1-1.7-0.1-2.6-0.1"></path>
	<line class="st0" x1="199.6" y1="122.4" x2="199.6" y2="122.3"></line>
	<line class="st0" x1="200" y1="147.9" x2="200" y2="145.5"></line>
	
		<ellipse transform="matrix(3.625367e-03 -1 1 3.625367e-03 -82.0089 401.356)" class="st0" cx="160.4" cy="241.8" rx="4.5" ry="4.6"></ellipse>
	<line class="st0" x1="156.1" y1="127.7" x2="132.9" y2="127.6"></line>
	<line class="st0" x1="132.8" y1="142.3" x2="167.6" y2="142.4"></line>
	<line class="st0" x1="132.6" y1="202.7" x2="167.4" y2="202.9"></line>
	<line class="st0" x1="132.6" y1="217.4" x2="167.3" y2="217.6"></line>
</g>
<path class="st0" d="M125.4,322.4c27.4,1.1,55.2,5.8,82.5,1.1c22.8-3.9,44.2-15,61.4-30.5c42.5-38.4,56.6-98.1,37.2-151.9  c-18.1-50.2-66.8-87.5-119.8-92.9c-72.2-7.4-138.2,45.4-140.7,119c-0.7,20,3.3,40.2,12,58.2c14.4,29.4,44.5,52.9,75.9,63  c40.3,13,82.2,0.4,110.6-27.3c-4.3-2.8-8.5-5.7-12.6-8.8c-7.7-5.7-15.4-11.4-23.1-17.1l0,4.8c0,6.5-5.3,11.7-11.8,11.7l-74.5-0.3  c-6.5,0-11.8-5.3-11.8-11.7l0.5-132.9c0-6.8,5.6-12.3,12.4-12.3l73.3,0.3c6.8,0,12.4,5.6,12.4,12.3l-0.1,16.3  c-3.2-0.4-6.4-0.8-9.6-1.3l0-3.7c0-4.4-3.5-7.9-7.9-8l-62.1-0.2c-4.4,0-7.9,3.5-8,7.9l-0.4,105.8c0,4.4,3.5,7.9,7.9,8l62.1,0.2  c3.1,0,5.8-1.7,7.1-4.3c-4.3-3.1-8.8-6.2-12.9-9.6c-3.7-3.2-5.9-7.4-1.4-11.1c3.2-2.7,7.3-3.6,11.4-3.6l0.9,0c1,0,2,0,3,0.2  c0,0,0.1-25,0.1-25c-4,4.8-7.6,9.5-10.7,13.2c-3.6,4.2-9,6.6-14.5,6.5c-2.8,0-5.6-0.7-8.1-2.1c-4.5-2.4-2.7-5.2-0.4-8.7  c0.3-0.5,0.6-0.9,0.9-1.3l-33.9-0.1l0.1-31.1l42.7,0.2l-0.1,19.7c0.5-0.7,1.1-1.3,1.6-1.9c6.7-8,14.4-17.2,22.9-25.3  c19.1-18,42.4-30.2,67.5-9.1c6.6,5.5,11.2,12.9,13.5,21.2c6.1,22.6-2.6,44.8-11.6,65.3c-6,13.7-14.6,25.8-24.9,35.9  c7.8,5,15.5,10.2,24,13.9c48.1,20.9,98-18.1,121.6-57.7c17.4-29.2,28.8-62.1,50.7-88.5c43.8-53,112.7-85.7,181-67.3  c40.2,10.8,80.5,42.3,80.8,86.3c0.1,22.5-8.7,44.6-24.5,60.7c-20.7,21.2-48.2,25.9-76.5,26.1L490,235.2  c-25.5,0.2-46.3-21.7-46.4-48.9c-0.2-27.4,20.6-49.6,46.3-49.5l14.7,0.1"></path>
<path class="st0" d="M261.2,415.7c-2.1,6.9-8.5,11.9-16,12c-6.9,0.1-12.9-3.9-15.7-9.8"></path>
<path class="st0" d="M498.7,434.2c-2.4,7.9-9.7,13.6-18.3,13.8c-7.9,0.1-14.8-4.5-18-11.2"></path>
<path class="st0" d="M382.1,515.4"></path>
<path class="st0" d="M233,582.6c0.9,3.7,1.6,7.3,2.2,10.9"></path>
</svg>
