<?xml version="1.0" encoding="UTF-8"?>
<!-- Generator: Adobe Illustrator 25.2.0, SVG Export Plug-In . SVG Version: 6.00 Build 0)  -->
<svg xmlns="http://www.w3.org/2000/svg" xmlns:xlink="http://www.w3.org/1999/xlink" version="1.1" id="Livello_1" x="0px" y="0px" viewBox="0 0 800 747.7" style="enable-background:new 0 0 800 747.7;" xml:space="preserve">
<style type="text/css">
	.st0{fill:none;stroke:#231F20;stroke-width:2;stroke-linecap:round;stroke-linejoin:round;stroke-miterlimit:10;}
	.st1{fill:none;stroke:#000000;stroke-width:2;stroke-linecap:round;stroke-linejoin:round;stroke-miterlimit:10;}
</style>
<path class="st0" d="M251.5,474.4l0,7.6c0,6.7-5.4,12.2-12.2,12.3l-18.3,0.1"></path>
<line class="st0" x1="190.1" y1="494.4" x2="105.1" y2="494.7"></line>
<path class="st0" d="M81.1,487.8c-0.8-1.6-1.2-3.3-1.2-5.2l-0.5-118.5c0-6.8,5.4-12.2,12.2-12.3l147.1-0.6c6.7,0,12.2,5.4,12.3,12.2  l0.2,41.4"></path>
<line class="st0" x1="251.5" y1="476.1" x2="251.5" y2="464.1"></line>
<path class="st0" d="M240,460.4v10.4c0,3.3-2.6,6-5.9,6l-34.7,0.1l-20.2,0.1l-81.3,0.3c-3.3,0-6-2.7-6-6l-0.4-100.2  c0-3.3,2.6-6,5.9-6l136.3-0.5c3.3,0,6,2.6,6,5.9l0.1,21.5"></path>
<line class="st0" x1="239.8" y1="416.8" x2="239.9" y2="439.5"></line>
<g>
	<line class="st1" x1="675.2" y1="206.1" x2="711.6" y2="205.9"></line>
	<line class="st1" x1="658.4" y1="222.7" x2="694.8" y2="222.5"></line>
	<line class="st1" x1="641.7" y1="239.3" x2="678.1" y2="239.1"></line>
</g>
<g>
	<path class="st1" d="M68.5,308.3c-10.8-4.7-21.6,3.1-22.3,14.3"></path>
	<path class="st1" d="M77.9,278.9c-27.3-9.8-61.1,13.4-57.2,45"></path>
	<path class="st1" d="M73.6,294c-22.2-7.4-43,11.4-41,29.9"></path>
	<path class="st1" d="M79.8,264.6c-17.8-4.7-36.1-2.9-50.6,8.1c-15.4,11.7-25.2,31.9-22,49.5"></path>
</g>
<circle class="st0" cx="109.2" cy="379.9" r="6.9"></circle>
<polyline class="st0" points="195.6,383.5 204.2,383.5 204.1,375.6 128.4,375.9 128.4,383.8 194,383.5 "></polyline>
<g>
	<line class="st0" x1="102.8" y1="402.9" x2="163.4" y2="402.7"></line>
	<line class="st0" x1="102.8" y1="410" x2="135.5" y2="409.9"></line>
	<line class="st0" x1="102.8" y1="416.8" x2="146.6" y2="416.6"></line>
</g>
<polyline class="st0" points="216.7,442.7 216.7,431.6 192.7,431.6 192.8,451.9 205.6,451.8 "></polyline>
<g>
	<line class="st0" x1="102.9" y1="435.2" x2="163.5" y2="434.9"></line>
	<line class="st0" x1="102.9" y1="442.3" x2="135.7" y2="442.2"></line>
	<line class="st0" x1="102.9" y1="449.1" x2="146.7" y2="448.9"></line>
</g>
<g>
	
		<rect x="192.9" y="463.9" transform="matrix(1 -4.011577e-03 4.011577e-03 1 -1.8854 0.8254)" class="st0" width="23.9" height="13.1"></rect>
	<g>
		<line class="st0" x1="103" y1="467.5" x2="163.6" y2="467.2"></line>
	</g>
</g>
<path class="st0" d="M230,211.3c-2.9,15.9-13.9,29.8-30.2,35.8c-9.5,3.5-19.4,3.7-28.5,1.3"></path>
<line class="st0" x1="571.2" y1="229.1" x2="619" y2="270.7"></line>
<line class="st0" x1="542.2" y1="229.1" x2="493.4" y2="268.5"></line>
<path class="st0" d="M622.1,485.2c2.9,8.6,10.9,13.7,19.5,13.7c2.3,0,4.6-0.6,6.9-1.1c10.9-4,16.6-16,12.6-26.9  c-6.9-18.9-20.6-33.8-41.2-42.9c-10.3-4.6-22.9,0-28,10.3c-4.6,10.3,0,22.9,10.3,28C613,470.9,619.3,477.2,622.1,485.2z"></path>
<path class="st0" d="M736,474.9c-11.4-63.5-56.7-108.7-121.3-121.3c-11.4-2.3-22.3,5.2-24.6,16.6c-2.3,11.4,5.2,22.3,16.6,24.6  c48.1,9.2,79.5,41.2,88.1,87c1.7,10.3,10.9,17.2,20.6,17.2c1.1,0,2.3,0,3.4-0.6C730.3,496.6,737.7,485.8,736,474.9z"></path>
<path class="st0" d="M562,562.4c-18.9,0-34.9-15.5-34.9-34.9c0-18.9,15.5-34.9,34.9-34.9c11.4,0,21.2-9.2,21.2-21.2  s-9.2-21.2-21.2-21.2c-42.3,0-76.7,34.3-76.7,76.7s34.3,76.7,76.7,76.7c42.3,0,76.7-34.3,76.7-76.7c0-11.4-9.2-21.2-21.2-21.2  c-12,0-21.2,9.2-21.2,21.2C596.4,547,580.9,562.4,562,562.4z"></path>
<path class="st0" d="M614.8,181.3l-54.8,52c-1.4,1.3-3.5,1.3-4.9,0l-62.1-52"></path>
<g>
	<path class="st0" d="M240.4,455.4"></path>
</g>
<polyline class="st0" points="203.5,399.9 192.7,399.9 192.8,419.6 216.7,419.6 "></polyline>
<line class="st0" x1="217" y1="404.6" x2="216.7" y2="419.6"></line>
<g>
	<path class="st0" d="M313.2,448.2c24.6,9.7,53.9,11.4,73.7-9.8c28.3-30.3,9.9-72.3-24.6-87.9c-31.5-14.2-74.2-9.9-93.8-43.7   c-14-24.1-13.3-55.3-0.1-79.6c9.9-18.2,21.1-36.6,16.1-58.1c-11.8-50.7-64.6-49.4-101.9-23.1c-5.6,4-10.9,8.5-15.7,13.5   c-18,19-34.7,43.8-59.2,55c-2.5,1.2-5.1,2.2-7.9,3.1c-47.6,15-78.8-43.1-54.4-81.3c7.5-11.8,18.6-19.5,31.4-23.7   c36.1-11.9,85.6,4.2,105.7,33.4c0.3,0.5,0.7,1,1,1.5c1.7,2.7,3.3,5.6,4.6,8.6c14.7,34.3-7.9,73.7-46.9,70.5   c-12.8-1.1-24-5.4-33.5-12c-30.4-21.2-42.8-66-30.9-101.9c1.5-4.6,3.4-9.1,5.8-13.3c27.2-49.4,97.6-64,145.3-37   c30.8,17.4,54.5,44.3,82.3,65.7c4.8,3.7,9.6,7,14.3,9.8c78.9,47.4,147.7-18.9,220.5-53c9.1-4.3,18.7-7.4,28.7-9.6   c66.1-14.3,145.6,16.9,167.4,83.8c12.8,39.3,2.1,87.5-26.4,117.2c-30,31.3-76,35.6-117,35.9c-38.9,0.3-91.1,6.2-127.6-8.7   c-35.5-14.5-58.3-55-48.5-92.3c9.3-35.5,43.3-56.1,78.7-58c18.4-1,37.2,0.2,55.7,0.2c5.4,0,12.8-0.8,20.7-1.3   c17-1.1,36.5-1.1,44,9.7c2.4,3.4,4.3,8,4.3,13.5c0,15.1,0.7,65.6,0.9,89.8c0.1,6.7-5.3,12.1-11.9,12.2l-37.1,0.3l-84.6-1.4   c-5.6-0.1-10.1-4.6-10.1-10.2c0-21.3-0.1-52.2,0-69.7c0.1-28.3,13.4-24.6,37.9-24.7c21.8-0.1,42.9-4.2,56.6-19.4   c4.4-4.9,8-10.9,10.6-18.3c8.9-25.2,1.6-44.5-13.6-58.5c-26.9-24.7-78.5-33.4-109.9-30.6c-35.1,3.2-68.5,18.9-95.4,41.3   c-15.7,13-29.4,28.4-40.2,45.6c-1.3,2.1-2.5,4.2-3.7,6.3c-26.7,47.8-25,109.3,2.4,157.2c37.5,65.5,112.9,85.2,182.9,65.1   c52.7-15.2,107.2-45.1,163.4-31.6c63.9,15.3,110,77,116.4,140.9c6.5,65.9-27.6,129-80.8,166.5c-10.5,7.4-21.8,13.9-33.5,19.3   c-18.1,8.4-37.7,14.4-57.7,17.9c-72.8,12.7-151.4-8.8-187.4-79.8c-48.4-95.4,25.9-212.7,131.8-213.4c12,0,21.2,9.2,21.2,21.2   s-9.7,21.2-21.2,21.2c-58.4,0-105.9,47.5-105.9,105.9c0,58.4,47.5,105.3,105.3,105.9c58.4,0,105.9-47.5,105.9-105.9   c0-12,9.7-21.2,21.2-21.2c11.4,0,20.6,9.7,21.2,21.2c0,26.7-7.1,54.4-22.1,76.6c-18.6,27.5-41.7,50.8-69.9,68.4   c-0.4,0.2-0.7,0.5-1.1,0.7c-28,17.2-59.4,28.5-91.8,33.9c-32.8,5.5-66.5,5-99.1-1.1c-47.5-8.8-93.1-38.6-119.9-78.9   c-0.2-0.2-0.3-0.4-0.4-0.7c-25.6-38.8-26-83.4-8.3-124.2c1.8-4.3,3.9-8.5,6.1-12.6c6.6-12.3,11.6-25.6,14.1-39.4   c1.5-7.9,2.1-15.9,2-23.9c-0.2-8.2-1.2-16.4-3-24.3c-1.7-7.7-4.2-15.1-7.4-22.3c-2.6-5.8-5.7-11.4-9.2-16.8   c-2.8-4.3-5.8-8.5-9-12.5c-3.1-3.9-6.5-7.6-10-11.1c-3.5-3.5-7.1-6.7-11-9.8c-3.8-3.1-7.8-5.9-11.9-8.6c-4.1-2.6-8.3-5.1-12.6-7.3   c-4.3-2.2-8.7-4.2-13.2-6c-4.5-1.8-9.1-3.4-13.7-4.8c-4.7-1.4-9.4-2.6-14.2-3.5c-4.8-1-9.6-1.7-14.4-2.3c-4.8-0.6-9.7-0.9-14.6-1.1   c-4.9-0.2-9.8-0.1-14.7,0.1c-4.9,0.2-9.7,0.7-14.6,1.3c-4.8,0.6-9.7,1.5-14.4,2.5c-4.8,1-9.5,2.3-14.2,3.7   c-4.7,1.4-9.3,3.1-13.8,4.9c-4.5,1.8-9,3.9-13.3,6.1c-4.4,2.2-8.6,4.6-12.8,7.3c-4.1,2.6-8.1,5.4-12,8.4c-3.9,3-7.6,6.2-11.2,9.5   c-3.6,3.4-7,7-10.3,10.7c-3.3,3.8-6.3,7.7-9.2,11.8c-3.6,5.1-6.9,10.5-9.8,16.1c-3.5,6.6-6.4,13.5-8.8,20.6   c-2.4,7-4.3,14.3-5.6,21.6c-1.3,7.3-2.1,14.8-2.3,22.2c-0.2,6.3,0.3,12.6,1.3,18.9c1,6.3,2.5,12.5,4.5,18.6   c2,6.2,4.5,12.1,7.4,17.9c2.9,5.8,6.2,11.5,9.9,16.9c3.7,5.4,7.7,10.6,12.1,15.5c4.3,4.8,8.9,9.4,13.9,13.6   c4.8,4.1,9.9,7.9,15.3,11.3c5.3,3.4,10.9,6.3,16.8,8.5c6.1,2.4,12.5,4.1,19,5.3c6.6,1.2,13.3,1.7,20,1.6c6.6-0.1,13.2-0.9,19.6-2.4   c3-0.7,5.9-1.6,8.8-2.7c2.8-1.1,6.3-2.3,8.7-4.2c-1.2-2.9-3.5-5.7-5.2-8.2c-1.9-2.7-3.8-5.4-5.9-8c-4.2-5.2-9-9.9-14.3-14   c-5.2-4.1-10.9-7.7-16.7-10.8c-5.8-3.2-11.9-5.9-18-8.3c-6.2-2.4-12.5-4.6-18.9-6.5c-3.1-1-6.3-1.9-9.5-2.8c-3-0.8-6.2-1.1-9-2.5   c-2.6-1.2-4.4-3.5-3.6-6.5c0.6-2.3,2.7-4,4.7-5.1c5-2.8,11.2-1.9,16.5-0.6c6.3,1.6,12.5,3.9,18.7,5.8c7.1,2.2,14.3,4.5,21.4,6.6   c7,2,14.2,3.7,21.5,4.6c7.2,0.8,14.6,0.8,21.7-0.7c7-1.4,12.7-4.8,18.5-8.8c4.4-3.1,8.8-6.2,13.7-8.5c4.5-2.1,10-3.6,14.8-1.7   c2,0.8,4.7,2.4,5.6,4.6c0.7,1.8-0.4,3.5-1.5,4.8c-1.4,1.7-3.2,3-5,4.4c-1.9,1.5-3.3,3.1-4.9,4.9c-4.9,5.5-9.3,11.1-13.3,17.4   c-3.8,6.1-7.2,12.5-10.9,18.6c-3.6,5.8-7.6,11.4-12.7,15.9c-2.4,2.1-5.1,3.6-7.6,5.6c1.3,2.8,3.2,5.5,4.8,8.2   c1.6,2.7,3.1,5.4,4.7,8.1c3.2,5.4,6.4,10.8,10,15.9c6,8.5,13.1,16.2,21.1,22.8c8,6.6,17,12.1,26.6,16c10,4.1,20.8,6.4,31.7,6.6   c11.3,0.2,22.8-2,32.9-7.2c10.2-5.2,18.8-13.1,24.9-22.9c5.9-9.5,9-20.4,9.4-31.5c0.3-11.2-2.2-22.2-6.4-32.5   c-4.4-10.9-9.7-21.5-16-31.5c-6.1-9.7-13.2-18.6-21.5-26.5c-8.1-7.6-17.1-14.1-26.9-19.3c-5.2-2.7-10.6-5.3-16.2-7   c-5.8-1.7-11.8-2.5-17.8-2.8c-5.1-0.3-10.2-0.1-15.3-0.1c-2.6,0-5.1-0.3-6.2-3c-0.8-2.1,0.3-4.5,1.5-6.2c2.9-4.2,7.6-6.8,12.7-7.1   c4.7-0.3,9.5,0.7,14.2-0.2c5.3-1,9.6-4.2,10.7-9.7c1.1-5.4-1.4-10.7-4.4-15c-6.6-9.7-16.5-16.5-23.8-25.5   c-3.4-4.1-6.9-9.7-6.1-15.3c0.5-3.3,3.4-8.9,7.5-6.7c2.4,1.3,4.5,4.1,6.5,6.1c2.1,2.1,4.1,4.2,6.2,6.3c3.7,3.9,7.4,7.7,11,11.7   c7.3,7.9,14.3,16.2,22,23.7c7.6,7.5,15.9,14.3,25.4,19.2C296.7,440.9,304.8,444.9,313.2,448.2z"></path>
</g>
<g>
	<path class="st0" d="M234.5,410.3c-1.7-0.8-3.5-1.2-5.2-1.8c-1.8-0.6-3.5-1.1-5.3-1.7c-1-0.3-1.9-0.6-2.9-0.9l-14-4.6   c-4.7-1.8-9.5-4.1-12.4-7.3c-2.8-3-3.3-5.6-2.5-8.6c0-0.2,0.1-0.3,0.2-0.5c0.6-1.4,2.3-2,3.8-1.3c6.3,2.5,12.2,3.8,18.1,5.2"></path>
</g>
</svg>
