<?xml version="1.0" encoding="UTF-8"?>
<!-- Generator: Adobe Illustrator 25.2.0, SVG Export Plug-In . SVG Version: 6.00 Build 0)  -->
<svg xmlns="http://www.w3.org/2000/svg" xmlns:xlink="http://www.w3.org/1999/xlink" version="1.1" id="Livello_1" x="0px" y="0px" viewBox="0 0 800 747.7" style="enable-background:new 0 0 800 747.7;" xml:space="preserve">
<style type="text/css">
	.st0{fill:none;stroke:#231F20;stroke-width:2;stroke-linecap:round;stroke-linejoin:round;stroke-miterlimit:10;}
	.st1{fill:none;stroke:#000000;stroke-width:2;stroke-linecap:round;stroke-linejoin:round;stroke-miterlimit:10;}
</style>
<path class="st0" d="M100.8,551c-1.1,0.4-2.2,0.9-3.3,1.3c-3,1.2-5.9,2.5-8.9,3.8c-0.7,0.3-1.5,0.6-2.2,0.9  c-1.3,0.5-2.6,1.2-3.6-0.3c-2.1-3.3,0.2-6.8,3.2-8.4c3.1-1.7,6.6-2.5,9.8-3.9c4.4-2,8.8-4,13.3-5.8"></path>
<path class="st0" d="M321.4,622.7c0.4-9.2-1-22.7-1.1-28.2c-0.2-18.4,0-38.2-6.7-55.6c-3.1-8.1-7.9-15.5-13.4-22.3  c-2.7-3.3-5.6-6.5-8.5-9.6c-2.4-2.5-7.9-5-6.6-9.3c1.1-3.4,6.2-5.8,9.4-6.6c8.6-2,16.8,4.7,22.7,10.1c8.2,7.5,15.2,15.8,26.2,19  c9.8,2.8,20,2.5,30.1,2.8c10.3,0.3,20.5,0.6,30.8,0.6c15.3,0,30.6,1,45.9,0.5c6.7-0.2,17-0.8,23.7,0.6c3,0.6,6.1,2.8,7.7,5.4  c0.9,1.5,1.7,4.9,0.8,6.5c-1.2,2.2-4.3,1.8-6.6,2.1c-23.2,2.9-40.2,1.7-62.2,7.4c-38.1,10-33.5,59-9.2,81  c24.7,22.3,62.8,15.9,88.3-1.5c1.7-1.1,3.3-2.3,4.8-3.5"></path>
<path class="st0" d="M394.7,557.2c13.2-1.7,26.6-2.7,39.7-1.3c7.2,0.7,14.3,2,21.3,3.8c3.8,1,7.5,2,11.2,3.2  c3.6,1.1,7.2,3.5,9.5-0.7c2.8-5.2-2.6-9.6-6.4-12.3c-5.5-4-13.4-7.1-20.3-8.9"></path>
<path class="st0" d="M638.9,247.5c25-12.9,40.7-31.2,43.3-62.5c2-23.9-8.3-52.9-30.1-65.6c-23.7-13.8-56.6-1.5-59.4,27.4  c-2.6,27.1,20.1,49.3,44.1,58.4c27.2,10.3,50.7,4.7,76.4-7.7c32.7-15.8,42.6-51,33.2-84.5c-11.2-39.7-45.2-66.6-86.2-68.4  c-9.6-0.4-19.2,0.4-28.7,2.2c-88,16.8-143.8,99.4-187.5,170.3c-33.8,54.8-70.8,109-130.1,138.7c-13.1,6.6-27.1,11.7-41.4,14.8"></path>
<path class="st0" d="M558.2,270.3c-31.2,9-60.2,37.4-60.3,71.6c-0.1,27.5,21.3,52,47.1,59.5c25.2,7.3,57.1-3.4,63.5-31.2  c1.6-7,1.5-14.1,1.4-21.2"></path>
<path class="st0" d="M548.3,440.4c0-19.5-0.4-35.9-1-54.5c-0.4-12.2-0.5-21.7-1-31.6c-0.3-5.7-1.4-11.7,0-17.3  c1.3-5.3,5.1-9.3,8.6-13.2c3.6-4,7.2-7.9,10.5-12.2c2.7-3.6,4.8-8.5,8.8-10.8c4.6-2.7,8.5,1.2,9.8,5.1c2.4,7-2.1,14.5-6.1,20.2  c-3.3,4.7-12.1,12.9-9.5,19.3c1.4,3.3,4.3,3.9,8.3,3.9"></path>
<g>
	<path class="st0" d="M634.2,276.9c-1.7-2.1-3.8-3.8-4.8-6.3c-2.9-7,5-11.6,11.1-8.4c4.4,2.3,7.9,5.9,11.7,9   c4.5,3.6,9.5,8.3,14.2,11.9"></path>
	<path class="st0" d="M650.5,269.7c-2.3-2-4-3.9-5-6.3c-2.8-6.7,4.8-11.2,10.8-8.2c4.2,2.2,7.6,5.8,11.3,8.7   c4.4,3.5,9.2,8.1,13.7,11.5"></path>
	<path class="st0" d="M666.5,263.1c-2.2-2-4.2-4.2-5.1-6.5c-2.6-6.3,4.6-10.6,10.1-7.7c4,2.1,7.3,5.3,10.6,8.2   c11.4,10.2,21.6,17.2,35.9,15.5c14-1.6,27-10.7,34.7-22c14.2-21,15-49.4,6.2-72.4c-10.5-27.6-37.3-44.8-66.2-45.9   c-35.9-1.4-68.1,23.4-92,47.2c-24.6,24.5-45.5,47.5-80,57c-57.9,15.9-91.3-33.4-115.4-77.8c-12.6-23.2-23.9-48.6-42.8-67.5   c-21.7-21.6-50.8-24.5-77.1-9.1c-14.4,8.5-26.9,21.8-31,38.4c-1.6,6.6-2.2,13.6-1.3,20.4c2,15.9,16.8,26.8,30.9,15   c17.2-14.4,14.4-41.9,6.8-61.1c-10.2-25.6-44.1-39.2-69.2-27.7c-12.6,5.8-22.3,17.1-28.1,29.6c-8.7,18.8-9,42.7,6.4,58.1   c8,8,20.9,5.3,27.8-3.8c17.1-22.6,7.7-65.6-17.1-79.3c-16.3-9-36-7.5-52,0.7c-15.4,7.9-24.1,21.9-28.6,38.8   c-2.5,9.5-3,19.7-0.7,29.2c2.9,12,12.7,24.6,26.4,19.8c9.2-3.2,12.5-14.1,12.1-23.4c-0.7-17-13.2-41-30.8-46.5   c-16.1-5-34.6,1.4-45.7,13.8"></path>
</g>
<path class="st0" d="M665.2,327.3c-5.8-4.5-11.4-9.2-16.7-13.7c-4-3.4-7.9-6.8-11.7-10.4c-5.9-5.5-12-10.7-18.1-16  c-4.9-4.3-9.6-8.7-14.4-13.1c-3.8-3.5-8.5-6.4-11.5-10.8c-3.2-4.8-2.3-11.8,4.3-13.5c5.6-1.4,10.8,3.2,14.5,6.5  c2.6,2.4,5.3,4.8,7.9,7.1c5.3,4.9,10.6,9.9,16,14.7c5.7,5.1,12.3,11.4,19.5,16.9"></path>
<path class="st0" d="M558.2,319.9v-82.9c0-5.9,4.8-10.7,10.7-10.7h59.3c5.9,0,10.7,4.8,10.7,10.7v24.4"></path>
<path class="st0" d="M638.9,305.2v33.2c0,5.9-4.8,10.7-10.7,10.7h-51.4"></path>
<path class="st0" d="M415.9,390.9v9.3c0,9.9,7.3,17.9,16.2,17.9c8.9,0,16.2-8,16.2-17.9v-9.3"></path>
<path class="st0" d="M383.6,390.9v9.3c0,9.9,7.3,17.9,16.2,17.9c8.9,0,16.2-8,16.2-17.9v-9.3"></path>
<path class="st0" d="M351.2,390.9v9.3c0,9.9,7.3,17.9,16.2,17.9c8.9,0,16.2-8,16.2-17.9v-9.3"></path>
<path class="st0" d="M318.9,390.9v9.3c0,9.9,7.3,17.9,16.2,17.9c8.9,0,16.2-8,16.2-17.9v-9.3"></path>
<path class="st0" d="M286.6,390.9v9.3c0,9.9,7.3,17.9,16.2,17.9c8.9,0,16.2-8,16.2-17.9v-9.3"></path>
<path class="st0" d="M305.5,523.6h-56.2c-7.3,0-13.3-5.9-13.3-13.3c0-14.6,3.2-30.1-2.1-44.2c-5.5-14.5-21.2-22.4-34.4-11.6  c-24.6,20.2-2.8,64.4,3.6,88.4c3.4,12.7,8.5,25,11.7,37.8c1.4,5.5,2.4,11.1,2.8,16.8c1.8,28.2-28.2,40.4-51.7,50.7"></path>
<path class="st0" d="M130.4,631.9c-12,6.7-24.4,12.8-36.1,19.9c-4.2,2.5-10.1,5-12.2,9.8c-2.5,5.7,0.6,12.2,3.4,17.2  c3.9,7,7.5,14.3,11.4,21.3c2.1,3.7,3.6,7.8,5.9,11.5c4,6.3,12.8,5.1,14.5-2.1c1.3-5.6-0.6-11.3,0-17c0.7-6.7,1.8-14,6.6-19.1  c2-2.2,4.3-4.1,6.6-5.9"></path>
<path class="st0" d="M459.6,523.8c8.7,0,15.7-7,15.7-15.7l0-92.6"></path>
<path class="st0" d="M254.8,271.5c2.1-0.9,4.2-1.5,6.4-2.2c3.7-1.3,7.5-2.5,11.2-3.8c3.6-1.2,7.2-2.4,10.7-3.6  c1.3-0.4,2.6-0.9,3.9-1.4c1-0.4,2.1-0.7,2.9,0.3c0.6,0.8,0.8,2.1,0.7,3.1c-0.5,3.2-5,4.7-7.5,5.8c-2.8,1.2-9.6,3.6-10.3,3.8"></path>
<polygon class="st0" points="298,288.2 242.3,312.2 238.2,302.2 293.9,278.1 "></polygon>
<polygon class="st0" points="310.4,276.9 298,288.2 293.9,278.1 310.4,276.9 "></polygon>
<line class="st0" x1="304.4" y1="277.4" x2="305.7" y2="280.7"></line>
<path class="st0" d="M321.4,612.7v78.1c0,14-11.4,25.4-25.4,25.3l-119.2-0.5"></path>
<path class="st0" d="M577.7,423.4h62.4c47.8,0,69.2-60,32.2-90.3l-23.9-19.5"></path>
<path class="st0" d="M249,297.5c-0.9-5.7-1.4-11.4-0.8-17.4c0.5-4.7,3.6-8.3,8.2-9.2c4.6-0.9,9.2,0.7,13.6,1.8  c4.6,1.1,9.2,2.1,13.9,2.9c1.2,0.2,3.4,0.1,3.5,1.8c0,1.4-1.4,3.6-2.8,4.7l0,0c-0.2,0.2-0.4,0.3-0.7,0.4c-0.8,0.4-1.6,0.7-2.3,0.9  c0,0,0,0,0,0c-3.9,1-8.2,0.1-12.1-1c-2.6-0.8-7.6-3.2-9.4,0.1c-1.4,2.6-0.3,6,0.1,8.7c0.1,0.4,0.1,0.9,0.2,1.4"></path>
<path class="st0" d="M263.2,303.2c1.1,1.8,2.6,3.1,4.8,3.6c4.8,1.1,7-3.3,9.2-6.6c1.6-2.4,3.9-4.7,6.9-5.5c2.2-0.7,8-1.1,7.3,2.8  c-0.4,2.2-2.5,3.8-3.8,5.5c-1.7,2.2-3.3,4.5-4.9,6.8c-7.1,11-9.7,23.6-9.7,36.6c0,14,0.5,28.5-3.7,42c-7.4,23.4-31.1,36.7-52.7,44.8  c-15.5,5.7-32,8.6-48.6,8.6c-34,0-68.7-12.4-94-35.2c-71.4-64.1-41.4-183.8,43.5-219.2c16.6-6.9,34.5-10.4,52.4-10.4  c36.4,0,72.9,14.8,98.4,40.8c8.5,8.7,15.3,18.8,21.9,28.9c6.3,9.7,12.4,20.4,21.8,27.5c11.3,8.5,25.6,13.5,39.7,13.5h81.1  c9.6,0,18,6.2,20.9,15.4l29.7,92.8c0.4,1.3,0.6,2.7,0.6,4.1c0,9.6-7.4,17.9-17,18.3c-10.3,0.5-18.7-7.7-18.7-17.8"></path>
<path class="st0" d="M250.8,308.5c1.3,9.3,1,18.8-1,28.1c-0.6,2.9-1.5,5.8-2.4,8.6c-5.6,16.3-16.8,32-14.3,50  c1.1,7.9,4.7,15.8,10.5,20.9c4,3.6,9.1,5.8,15.2,5.8c15.4,0,27.8-13,27.8-29"></path>
<path class="st0" d="M235.5,374.4c-6.9,0.5-11.8,0.3-17.2-1c-15.2-3.8-24.4-19.9-20.5-36.7c3.7-15.8,14.7-28.5,23.7-40.9  c10.4-14.4,22.3-33.7,11-51.6c-3.9-6.2-10.1-10.5-17.4-10.5c-20.6,0-34.7,29.2-27.7,47.5c2.2,5.8,7.5,10.5,13.5,7.3  c11.4-6.1,10.7-27.6,6.3-37.3c-3.5-7.6-9.1-15.3-17.3-17.6c-7.7-2.2-16.3,0.9-22.4,5.9c-3.5,2.9-6.3,6.6-8.7,10.5  c-0.1,0.2-0.3,0.5-0.4,0.7c-5.4,9.4-8.5,31.2,2.2,38.6c5.6,3.9,11.4-0.3,14.2-6c4.3-8.7,3.6-19.3,0.6-28.3  c-1.9-5.7-4.7-11.2-8.6-15.7c-3.8-4.4-8.8-7.8-14.6-7.9c-5.7-0.1-10.7,2.8-14.8,6.6c-11.6,11-19,30.1-12.7,44.5  c2.6,5.8,8.3,10.4,14.5,6.9c11.8-6.7,10.1-28.7,5-38.4c-4.8-9.2-12.7-17.8-23.5-17.7c-10.7,0.1-20.9,7.6-26.6,16.1  c-5.9,8.8-7,20.1-4.6,30.6c6.7,29.3,39,47.5,44.4,77.5c2,11.4-7.1,20.8-17.6,28.1l-3.9,2.6c-6.5,4-13,8.3-17.6,10.7  c-15,7.9-38.9,19-39.9,38.6c-0.7,15.8,13.5,29.3,22.8,40.9c0.1,0.2,0.3,0.3,0.4,0.5c7.3,9,15.6,17.2,22.3,26.7  c3.3,4.7,6.3,9.7,8.3,15.2c3.1,8.6,2.9,15.8-2.5,23.3c-3.9,5.4-8.3,10.4-11.6,16.3c-1.1,1.9-2.5,4.1-1.9,6.4  c0.4,1.4,1.4,2.8,2.9,3.3c3.6,1.1,5.6-3.1,7.5-5.4c2.6-3.1,5.2-6.2,7.6-9.4c6.3-8.3,16-14.5,15.9-25.9c-0.1-10.6-4.1-20.7-8.9-29.9  c-5.7-11-11.9-20.2-17.5-30.6c-3.3-6.2-6-14.3-2.4-21.1c5.7-10.8,18.9-11.2,24.1-0.9c6.4,12.6,4.7,30,4.9,44.3  c0.8,50.6,3.9,105.3,3.8,156c0,17.7,0.1,38,0.8,55.8c0.7,17.6,28.9,12.7,41.9,12.8c7.6,0.1,41.2,3.8,32.9-13.9  c-3.2-6.8-13.2-7.5-19.1-11c-6.7-4-13.3-9.6-16.5-16.8c-7.2-16.6-4.4-43.3-3.3-60.8c1.3-19.6,4-39.2,4-58.9  c0-27.7-6.3-61.9-31.1-78.6c-29.1-19.6-65.9-1.4-85,23.7c-2.7,3.6-5.2,7.3-7.2,11.3c-15.1,29.5-3.4,63.1,21.2,83.8  c8.4,7.1,18.2,12.6,28.7,15.9c32.4,10.3,65.6-3.3,93.9-18.7c63.3-34.4,123-26.4,169.1,29.8c33.2,40.5,64.3,73.2,132.8,74.3l8.8-0.4  h211.3c5.3,0,9.7-4.3,9.7-9.7V565.7c0-5.3-4.3-9.7-9.7-9.7H507.1c-5.3,0-9.7,4.3-9.7,9.7v139.5c0,5.9,4.8,10.6,10.6,10.6h232.1  c5.9,0,10.6-4.8,10.6-10.6V549.7c0-5.9-4.8-10.6-10.6-10.6h-59.6c-3.9,0-7.1-3.2-7.1-7.1v-84.4c0-3.9-3.2-7.1-7.1-7.1h-136  c-3.9,0-7.1,3.2-7.1,7.1v80.1c0,6.7-5.4,12.2-12.2,12.2s-12.2-5.4-12.2-12.2v-95.5c0-4.8,3.9-8.7,8.7-8.7h98.1"></path>
<path class="st1" d="M719.1,511.5c2.4-9.6-6-17.1-15.9-15.9"></path>
<path class="st1" d="M746.1,514.2c4.3-24-21.2-47.7-48-39.2"></path>
<path class="st1" d="M732.4,513.3c3-19.4-16.6-33.2-32.4-28.5"></path>
<path class="st1" d="M758.9,513.4c1.3-15.3-3.1-30-14.9-40c-12.6-10.6-31.6-15.2-46.4-9.6"></path>
<path class="st0" d="M568.9,306.1v-64.6c0-2,1.7-3.7,3.7-3.7h53c2,0,3.7,1.7,3.7,3.7v23.7"></path>
<path class="st0" d="M629.3,296.5v34.8c0,2-1.7,3.7-3.7,3.7h-54.7"></path>
<g>
	<rect x="543.4" y="464.6" class="st0" width="20" height="20.4"></rect>
	<g>
		<line class="st0" x1="549.1" y1="477.1" x2="557.5" y2="468.7"></line>
		<line class="st0" x1="552.4" y1="480.8" x2="557.7" y2="475.6"></line>
	</g>
</g>
<g>
	<rect x="588.7" y="464.6" class="st0" width="20" height="20.4"></rect>
	<g>
		<line class="st0" x1="594.4" y1="477.1" x2="602.8" y2="468.7"></line>
		<line class="st0" x1="597.7" y1="480.8" x2="603" y2="475.6"></line>
	</g>
</g>
<g>
	<rect x="634" y="464.6" class="st0" width="20" height="20.4"></rect>
	<g>
		<line class="st0" x1="639.7" y1="477.1" x2="648.1" y2="468.7"></line>
		<line class="st0" x1="643" y1="480.8" x2="648.3" y2="475.6"></line>
	</g>
</g>
<g>
	<rect x="543.4" y="501" class="st0" width="20" height="20.4"></rect>
	<g>
		<line class="st0" x1="549.1" y1="513.6" x2="557.5" y2="505.2"></line>
		<line class="st0" x1="552.4" y1="517.3" x2="557.7" y2="512"></line>
	</g>
</g>
<g>
	<rect x="588.7" y="501" class="st0" width="20" height="20.4"></rect>
	<g>
		<line class="st0" x1="594.4" y1="513.6" x2="602.8" y2="505.2"></line>
		<line class="st0" x1="597.7" y1="517.3" x2="603" y2="512"></line>
	</g>
</g>
<g>
	<rect x="634" y="501" class="st0" width="20" height="20.4"></rect>
	<g>
		<line class="st0" x1="639.7" y1="513.6" x2="648.1" y2="505.2"></line>
		<line class="st0" x1="643" y1="517.3" x2="648.3" y2="512"></line>
	</g>
</g>
<rect x="523.9" y="585.5" class="st0" width="20" height="20.4"></rect>
<g>
	<line class="st0" x1="529.6" y1="598" x2="538" y2="589.7"></line>
	<line class="st0" x1="532.9" y1="601.7" x2="538.1" y2="596.5"></line>
</g>
<rect x="573.4" y="585.5" class="st0" width="20" height="20.4"></rect>
<g>
	<line class="st0" x1="579.1" y1="598" x2="587.5" y2="589.7"></line>
	<line class="st0" x1="582.4" y1="601.7" x2="587.7" y2="596.5"></line>
</g>
<rect x="622.9" y="585.5" class="st0" width="20" height="20.4"></rect>
<g>
	<line class="st0" x1="628.7" y1="598" x2="637" y2="589.7"></line>
	<line class="st0" x1="632" y1="601.7" x2="637.2" y2="596.5"></line>
</g>
<rect x="672.5" y="585.5" class="st0" width="20" height="20.4"></rect>
<g>
	<line class="st0" x1="678.2" y1="598" x2="686.6" y2="589.7"></line>
	<line class="st0" x1="681.5" y1="601.7" x2="686.8" y2="596.5"></line>
</g>
<polyline class="st0" points="538.9,695.2 538.9,637.9 597.4,637.9 597.4,695.2 "></polyline>
<line class="st0" x1="568.2" y1="637.9" x2="568.2" y2="695.2"></line>
<polyline class="st0" points="622.3,695.2 622.3,637.9 680.9,637.9 680.9,695.2 "></polyline>
<line class="st0" x1="651.6" y1="637.9" x2="651.6" y2="695.2"></line>
<polyline class="st0" points="341,417.1 341,468.7 268.6,468.7 268.6,420.1 "></polyline>
<line class="st0" x1="284.2" y1="452.3" x2="306.3" y2="425.8"></line>
<line class="st0" x1="301.9" y1="452.3" x2="324" y2="425.8"></line>
<polyline class="st0" points="391.4,523.5 391.4,436.8 445.5,436.8 445.5,498.8 "></polyline>
<line class="st0" x1="445.5" y1="524.2" x2="445.5" y2="516.8"></line>
<polyline class="st0" points="391.4,436.8 437.8,449.6 437.8,524.2 "></polyline>
<circle class="st0" cx="424.8" cy="488.5" r="5.8"></circle>
<circle class="st0" cx="599.7" cy="341.3" r="3.1"></circle>
<polyline class="st0" points="594.3,265.3 594.3,274.6 578.1,274.6 578.1,258.4 591,258.4 "></polyline>
<polyline class="st0" points="583.9,305.2 594.3,305.2 594.3,289 578.1,289 578.1,299.8 "></polyline>
<line class="st0" x1="603.9" y1="291.2" x2="614.9" y2="291.2"></line>
<line class="st0" x1="603.9" y1="298.6" x2="614.9" y2="298.6"></line>
<path class="st0" d="M178.4,313c-2.2,6.8-8.6,11.7-16.1,11.7c-6.9,0-12.8-4.1-15.5-10"></path>
<g>
	<polyline class="st0" points="80.9,118.8 75.2,123.6 70,117.4 75.7,112.6  "></polyline>
	<path class="st0" d="M83.6,119l10.4-8.8c0.8-0.7,0.9-1.9,0.2-2.7l-5.2-6.1c-0.7-0.8-1.9-0.9-2.7-0.2l-10.4,8.8   c-0.8,0.7-0.9,1.9-0.2,2.7l5.2,6.1C81.6,119.6,82.8,119.7,83.6,119z"></path>
</g>
<path class="st0" d="M437.8,506.3c0.6,0.8,1.1,1.5,1.7,2.3c3.1,4.3,6.8,9.2,10.1,13.4c3.3,4.1,9.2-2,12.4-4.3  c1.9-1.3,10.6-6.4,5.5-9.2c-2-1.1-4.5,0.5-6.6,0.7c-2.3,0.2-4.9,0-7-1.2c-4.7-2.7-8.7-9.7-11.5-14.2c-1.6-2.5-3-5-4.6-7.5"></path>
</svg>
