<?xml version="1.0" encoding="UTF-8"?>
<!-- Generator: Adobe Illustrator 24.3.0, SVG Export Plug-In . SVG Version: 6.00 Build 0)  -->
<svg xmlns="http://www.w3.org/2000/svg" xmlns:xlink="http://www.w3.org/1999/xlink" version="1.1" id="Layer_1" x="0px" y="0px" viewBox="0 0 203 57" style="enable-background:new 0 0 203 57;" xml:space="preserve">
<style type="text/css">
	.st0{fill-rule:evenodd;clip-rule:evenodd;}
</style>
<desc>Created with Sketch.</desc>
<g id="Clip-28">
</g>
<g>
	<path class="st0" d="M86,49c-0.5-0.7-1.1-0.9-2-0.4c-1.3,0.7-2.9,1.2-4.5,1.2c-4.5,0-7.6-3.1-7.6-7.5s3.1-7.5,7.6-7.5   c1.5,0,3.2,0.4,4.5,1.2c0.9,0.5,1.5,0.4,2-0.4l0.5-0.7c0.5-0.8,0.4-1.5-0.3-2c-2-1.3-4.1-1.9-6.6-1.9c-3.5,0-6.6,1.2-8.8,3.4   c-2.1,2.1-3.2,4.9-3.2,8s1.1,5.9,3.2,8c2.2,2.2,5.2,3.4,8.8,3.4c2.6,0,4.7-0.6,6.8-2c0.6-0.5,0.7-1.1,0.2-1.9L86,49z"></path>
	<path class="st0" d="M96.6,36.9c-4.8,0-8.6,3.7-8.6,8.4s3.8,8.4,8.6,8.4c4.9,0,8.7-3.7,8.7-8.4C105.2,40.7,101.3,36.9,96.6,36.9z    M96.6,50.1C94,50.1,92,48,92,45.3s2-4.8,4.6-4.8s4.6,2.1,4.6,4.8C101.1,48,99.1,50.1,96.6,50.1z"></path>
	<path class="st0" d="M117,36.9c-2.3,0-4.1,1-4.9,2.7v-0.9c0-0.9-0.5-1.4-1.4-1.4h-1.4c-0.9,0-1.4,0.5-1.4,1.4v13.2   c0,0.9,0.5,1.4,1.4,1.4h1.4c0.9,0,1.4-0.5,1.4-1.4v-6.4c0-1.7,0.8-5,4-5c1.7,0,2.7,1.4,2.7,3.8v7.5c0,0.9,0.5,1.4,1.4,1.4h1.4   c0.9,0,1.4-0.5,1.4-1.4v-7.7C123,39.6,120.8,36.9,117,36.9z"></path>
	<path class="st0" d="M154.3,37.3h-1.4c-0.9,0-1.4,0.5-1.4,1.4v0.7c-1.2-1.6-3.1-2.5-5.2-2.5c-4.5,0-7.8,3.5-7.8,8.4   c0,4.8,3.3,8.4,7.8,8.4c2.2,0,4-0.9,5.2-2.5v0.7c0,0.9,0.5,1.4,1.4,1.4h1.4c0.9,0,1.4-0.5,1.4-1.4V38.7   C155.7,37.8,155.2,37.3,154.3,37.3z M147,50.1c-2.6,0-4.4-2-4.4-4.8s1.8-4.8,4.4-4.8c2.6,0,4.5,2,4.5,4.8S149.7,50.1,147,50.1z"></path>
	<path class="st0" d="M167.7,40.5c0.5,0,1.6,0.1,2.7,0.6c0.9,0.4,1.5,0.3,2-0.4l0.4-0.5c0.3-0.4,0.4-0.8,0.3-1.1   c-0.1-0.3-0.3-0.6-0.7-0.9c-1.9-1.1-3.7-1.4-4.9-1.4c-5.4,0-9.1,3.5-9.1,8.5c0,4.8,3.8,8.2,9.1,8.2c1.1,0,2.8-0.2,4.5-1.1   c0.5-0.3,0.9-0.7,1-1.1c0.1-0.4,0-0.7-0.3-1.1l-0.4-0.5c-0.5-0.7-1.1-0.8-2-0.3c-1.2,0.6-2.5,0.6-2.7,0.6c-3,0-5.1-2-5.1-4.8   C162.6,42.5,164.7,40.5,167.7,40.5z"></path>
	<path class="st0" d="M185.9,49.2c-0.2-0.2-0.3-0.3-0.5-0.3s-0.4,0.1-0.6,0.3l-0.1,0.1l0,0c-0.1,0.2-0.6,0.6-1.3,0.7l0,0   c-0.2,0-0.4,0.1-0.6,0c-0.9-0.1-1.4-0.7-1.4-1.9v-7.7h3.8c0.5,0,0.8-0.3,0.8-0.8V38c0-0.5-0.3-0.8-0.8-0.8h-3.8v-1.4l0,0v-1.6   c0-0.9-0.5-1.4-1.4-1.4h-1.3c-0.9,0-1.4,0.5-1.4,1.4v2.9h-1.6c-0.5,0-0.8,0.3-0.8,0.8v1.6c0,0.5,0.3,0.8,0.8,0.8h1.6V42l0,0v6.1   c0,4.9,3.4,5.6,5.4,5.6c0.7,0,1.3-0.1,1.9-0.2l0,0c0.3-0.1,0.6-0.2,0.9-0.4c0.5-0.2,0.8-0.5,1.2-0.9c0.2-0.2,0.4-0.4,0.5-0.6   c0.3-0.3,0.2-0.7-0.1-1.1L185.9,49.2z"></path>
	<path class="st0" d="M136,49.2c-0.2-0.2-0.3-0.3-0.5-0.3s-0.4,0.1-0.6,0.3l-0.1,0.1l0,0c-0.1,0.2-0.6,0.6-1.2,0.7l0,0   c-0.2,0-0.4,0.1-0.6,0c-0.9-0.1-1.4-0.7-1.4-1.9v-7.7h3.8c0.5,0,0.8-0.3,0.8-0.8V38c0-0.5-0.3-0.8-0.8-0.8h-3.8v-1.4v-1.6   c0-0.9-0.5-1.4-1.4-1.4h-1.3c-0.9,0-1.4,0.5-1.4,1.4v2.9h-1.6c-0.5,0-0.8,0.3-0.8,0.8v1.6c0,0.5,0.3,0.8,0.8,0.8h1.6V42v6.1   c0,4.9,3.4,5.6,5.4,5.6c0.7,0,1.3-0.1,1.9-0.2l0,0c0.3-0.1,0.6-0.2,0.9-0.4c0.5-0.2,0.8-0.5,1.2-0.9c0.2-0.2,0.4-0.4,0.5-0.6   c0.3-0.3,0.2-0.7-0.1-1.1L136,49.2z"></path>
	<path class="st0" d="M86,20.9c-0.5-0.7-1.1-0.9-2-0.4c-1.3,0.7-2.9,1.2-4.5,1.2c-4.5,0-7.6-3.1-7.6-7.5s3.1-7.5,7.6-7.5   c1.5,0,3.2,0.4,4.5,1.2c0.9,0.5,1.5,0.4,2-0.4l0.5-0.7c0.5-0.8,0.4-1.5-0.3-2c-2-1.3-4.1-1.9-6.6-1.9c-3.5,0-6.6,1.2-8.8,3.4   c-2.1,2.1-3.2,4.9-3.2,8s1.1,5.9,3.2,8c2.2,2.2,5.2,3.4,8.8,3.4c2.6,0,4.7-0.6,6.8-2c0.6-0.5,0.7-1.1,0.2-1.9L86,20.9z"></path>
	<path class="st0" d="M96.6,8.8c-4.8,0-8.6,3.7-8.6,8.4s3.8,8.4,8.6,8.4c4.9,0,8.7-3.7,8.7-8.4C105.2,12.5,101.3,8.8,96.6,8.8z    M96.6,21.9c-2.6,0-4.6-2.1-4.6-4.7c0-2.7,2-4.8,4.6-4.8s4.6,2.1,4.6,4.8C101.1,19.8,99.1,21.9,96.6,21.9z"></path>
	<path class="st0" d="M117,8.8c-2.3,0-4.1,1-4.9,2.7v-0.9c0-0.9-0.5-1.4-1.4-1.4h-1.4c-0.9,0-1.4,0.5-1.4,1.4v13.2   c0,0.9,0.5,1.4,1.4,1.4h1.4c0.9,0,1.4-0.5,1.4-1.4v-6.4c0-1.7,0.8-5,4-5c1.7,0,2.7,1.4,2.7,3.8v7.5c0,0.9,0.5,1.4,1.4,1.4h1.4   c0.9,0,1.4-0.5,1.4-1.4V16C123,11.5,120.8,8.8,117,8.8z"></path>
	<path class="st0" d="M133.5,15.8l-2.1-0.7c-1.1-0.3-1.5-0.8-1.5-1.5c0-0.9,0.8-1.5,1.8-1.5c0.7,0,1.3,0.2,1.6,0.7   c0.5,0.6,1,0.8,1.8,0.7l0.7-0.2c0.5-0.1,0.9-0.4,1-0.8c0.1-0.3,0.1-0.7-0.2-1.1c-1-1.7-2.7-2.6-5-2.6c-3.3,0-5.7,2.1-5.7,5   c0,2.1,1.4,3.7,4.3,4.6l2,0.7c1.2,0.4,1.6,0.9,1.6,1.5c0,0.9-0.9,1.6-2.2,1.6c-1,0-2-0.4-2.5-1.1c-0.5-0.6-1-1-1.8-0.8l-0.8,0.2   c-0.5,0.1-0.9,0.4-1,0.7c-0.1,0.3-0.1,0.7,0.1,1.1l0,0c1,2,3.2,3.2,6,3.2c4.2,0,6.1-2.5,6.1-5C137.7,19,137,16.9,133.5,15.8z"></path>
	<path class="st0" d="M160.1,25.5c2.2,0,4-0.9,5.2-2.5v0.7c0,0.9,0.5,1.4,1.4,1.4h1.4c0.9,0,1.4-0.5,1.4-1.4V10.6   c0-0.9-0.5-1.4-1.4-1.4h-1.4c-0.9,0-1.4,0.5-1.4,1.4v0.7c-1.2-1.6-3.1-2.5-5.2-2.5c-4.5,0-7.8,3.5-7.8,8.4   C152.2,22,155.5,25.5,160.1,25.5z M160.8,12.3c2.6,0,4.5,2,4.5,4.8s-1.9,4.8-4.5,4.8s-4.4-2-4.4-4.8   C156.5,14.3,158.3,12.3,160.8,12.3z"></path>
	<path class="st0" d="M182.3,8.8c-2.3,0-4.1,1-4.9,2.7v-0.9c0-0.9-0.5-1.4-1.4-1.4h-1.4c-0.9,0-1.4,0.5-1.4,1.4v13.2   c0,0.9,0.5,1.4,1.4,1.4h1.4c0.9,0,1.4-0.5,1.4-1.4v-6.4c0-1.7,0.8-5,4-5c1.7,0,2.7,1.4,2.7,3.8v7.5c0,0.9,0.5,1.4,1.4,1.4h1.4   c0.9,0,1.4-0.5,1.4-1.4V16C188.3,11.5,186.1,8.8,182.3,8.8z"></path>
	<path class="st0" d="M202.1,22.4l-1-1.3c-0.2-0.2-0.3-0.3-0.5-0.3s-0.4,0.1-0.6,0.3l-0.1,0.1l0,0c-0.1,0.2-0.6,0.6-1.3,0.7l0,0   c-0.2,0-0.4,0.1-0.6,0c-0.9-0.1-1.4-0.7-1.4-1.9v-7.7h3.8c0.5,0,0.8-0.3,0.8-0.8V10c0-0.5-0.3-0.8-0.8-0.8h-3.8V7.8V6.2   c0-0.9-0.5-1.4-1.4-1.4h-1.3c-0.9,0-1.4,0.5-1.4,1.4v2.9h-1.6c-0.5,0-0.8,0.3-0.8,0.8v1.6c0,0.5,0.3,0.8,0.8,0.8h1.6v7.5   c0,4.9,3.4,5.6,5.4,5.6c0.7,0,1.3-0.1,1.9-0.2l0,0c0.3-0.1,0.6-0.2,0.9-0.4c0.5-0.2,0.8-0.5,1.2-0.9c0.2-0.2,0.4-0.4,0.5-0.6   C202.5,23.1,202.5,22.7,202.1,22.4z"></path>
	<path class="st0" d="M139.7,12.4h1.6v1.4v6.1c0,4.9,3.4,5.6,5.4,5.6c0.7,0,1.3-0.1,1.9-0.2l0,0c0.3-0.1,0.6-0.2,0.9-0.4   c0.5-0.2,0.8-0.5,1.2-0.9c0.2-0.2,0.4-0.4,0.5-0.6c0.3-0.3,0.2-0.7-0.1-1.1l-1-1.3c-0.2-0.2-0.3-0.3-0.5-0.3s-0.4,0.1-0.6,0.3   l-0.1,0.1l0,0c-0.1,0.2-0.6,0.6-1.2,0.7l0,0c-0.2,0-0.4,0.1-0.6,0c-0.9-0.1-1.4-0.7-1.4-1.9v-7.7h3.8c0.5,0,0.8-0.3,0.8-0.8V10   c0-0.5-0.3-0.8-0.8-0.8h-3.8V7.8l0,0V6.2c0-0.9-0.5-1.4-1.4-1.4H143c-0.9,0-1.4,0.5-1.4,1.4v2.9H140c-0.5,0-0.8,0.3-0.8,0.8v1.6   C138.9,12.1,139.2,12.4,139.7,12.4z"></path>
	<path class="st0" d="M36.3,23.2c0.5,1.5,1.9,2.4,3.5,2.4c0.4,0,0.8-0.1,1.2-0.2c1.9-0.7,2.9-2.8,2.2-4.7c-1.2-3.3-3.7-5.9-7.2-7.5   c-1.8-0.8-4,0-4.9,1.8c-0.8,1.8,0,4,1.8,4.9C34.7,20.6,35.9,21.8,36.3,23.2z"></path>
	<path class="st0" d="M35.1,0.1c-2-0.4-3.9,0.9-4.3,2.9s0.9,3.9,2.9,4.3c8.3,1.7,14,7.2,15.4,15.3c0.3,1.8,1.9,3,3.6,3   c0.2,0,0.4,0,0.6-0.1c2-0.4,3.3-2.3,3-4.2C54.3,10.3,46.4,2.3,35.1,0.1z"></path>
	<path class="st0" d="M25.8,36.7c-3.3,0-6.1-2.7-6.1-6.1c0-3.3,2.7-6.1,6.1-6.1c2,0,3.7-1.6,3.7-3.7c0-2-1.6-3.7-3.7-3.7   c-7.4,0-13.4,6-13.4,13.4s6,13.4,13.4,13.4s13.4-6,13.4-13.4c0-2-1.6-3.7-3.7-3.7c-2,0-3.7,1.6-3.7,3.7   C31.9,34,29.2,36.7,25.8,36.7z"></path>
	<path class="st0" d="M48,27c-2,0-3.7,1.6-3.7,3.7c0,10.2-8.3,18.5-18.5,18.5S7.3,40.9,7.3,30.7s8.3-18.5,18.5-18.5   c2,0,3.7-1.6,3.7-3.7c0-2-1.6-3.7-3.7-3.7C11.6,4.8,0,16.4,0,30.7c0,14.2,11.6,25.8,25.8,25.8s25.8-11.6,25.8-25.8   C51.6,28.6,50,27,48,27z"></path>
</g>
</svg>
