<?xml version="1.0" encoding="UTF-8"?>
<svg xmlns="http://www.w3.org/2000/svg" xmlns:xlink="http://www.w3.org/1999/xlink" width="312px" height="68px" viewBox="0 0 312 68" version="1.1">
  <!-- Generator: Sketch 58 (84663) - https://sketch.com -->
  <title>Shape</title>
  <desc>Created with Sketch.</desc>
  <g id=".com_site" stroke="none" stroke-width="1" fill="none" fill-rule="evenodd">
    <g id="01_Home_desktop" transform="translate(-749.000000, -2190.000000)" fill="#000000" fill-rule="nonzero">
      <g id="domain" transform="translate(749.000000, 2190.000000)">
        <path d="M22.4344431,50.8162043 L22.5195344,18.0004596 L34.0352182,18.0004596 C42.9556186,18.0004596 48.2738223,23.6883319 48.0894579,34.679183 C47.9050935,45.1853532 42.3599798,50.8162043 33.9784907,50.8162043 L22.4344431,50.8162043 Z M33.2835787,43.1610979 C35.9072259,42.9615234 37.1410492,41.4076936 37.4530505,36.2900341 C37.509778,35.3064171 37.4955961,34.3370553 37.3963229,33.3534383 C37.3395954,32.2415234 37.2119586,31.1296085 37.041776,30.031949 C36.3185003,26.7817362 35.3399508,25.7553532 33.2268512,25.6983319 C32.9857593,25.6840766 32.7446674,25.7125873 32.5035755,25.7553532 L32.5035755,43.1468426 L33.2835787,43.1468426 L33.2835787,43.1610979 Z M32.6879399,58.6423745 C19.3853396,58.6708851 8.56456777,47.8796085 8.5503859,34.5508851 C8.52202214,21.2079064 19.3002484,10.3881192 32.6028486,10.3596085 C45.9054489,10.3310979 56.7262208,21.1223745 56.7404027,34.4510979 C56.7545845,40.6521617 54.3862111,46.6108851 50.1174663,51.115566 L60.7396919,51.115566 C69.915366,35.5630128 64.7815267,15.5057788 49.2523718,6.3110979 C33.7232169,-2.88358295 13.7267709,2.27684258 4.55109669,17.8151405 C-4.62457749,33.3676936 0.509261852,53.4249277 16.0384168,62.6196085 C26.5755511,68.8634383 39.7221507,68.6781192 50.0891025,62.1206724 L50.0891025,51.1583319 C45.550902,55.9338639 39.2683307,58.6423745 32.6879399,58.6423745 L32.6879399,58.6423745 Z M62.5266083,58.8134383 C62.5266083,61.0942894 60.6687825,62.9474809 58.3996822,62.9333073 C56.1742255,62.8706846 54.4035515,61.0372198 54.4073903,58.7993675 C54.4112417,56.5615153 56.1882058,54.7342094 58.4138641,54.6793958 C60.6829644,54.6793958 62.5266083,56.5325873 62.5266083,58.8134383 L62.5266083,58.8134383 Z M76.7793943,0.309608541 L78.0557632,0.309608541 L78.0557632,67.3096085 L76.7793943,67.3096085 L76.7793943,0.309608541 Z M90.6350878,27.1381192 L98.7896668,27.1381192 C100.590765,27.1238639 102.377682,27.2949277 104.150416,27.6513107 C105.653695,27.9506724 107.086065,28.5493958 108.33407,29.4332256 C109.525347,30.3170553 110.461351,31.5002468 111.05699,32.8545022 C111.766084,34.5651405 112.092267,36.4040766 112.03554,38.2572681 C112.092267,40.081949 111.751902,41.8923745 111.042808,43.5602468 C110.428619,44.9401448 109.47732,46.1415559 108.277342,47.0528 C107.029337,47.9793958 105.596968,48.6351405 104.079507,48.9772681 C102.349318,49.3906724 100.562401,49.5902468 98.775485,49.5759915 L90.6209059,49.5759915 L90.6209059,27.1381192 L90.6350878,27.1381192 Z M96.6056578,45.1425873 L98.9173037,45.1425873 C101.15804,45.1425873 102.888229,44.5723745 104.093689,43.4462043 C105.299148,42.3057788 105.894787,40.6236511 105.894787,38.3713107 C105.894787,36.1189702 105.284966,34.4225873 104.065325,33.2964171 C102.845684,32.1559915 101.129676,31.5857788 98.9314856,31.5715234 L96.6198397,31.5715234 L96.6198397,45.1425873 L96.6056578,45.1425873 L96.6056578,45.1425873 Z M114.673369,38.3428 C114.645005,36.7034383 114.900279,35.0640766 115.396644,33.4959915 C115.836283,32.1417362 116.559558,30.8872681 117.538108,29.8466298 C118.516657,28.8202468 119.722117,28.0362043 121.055213,27.5515234 C124.20359,26.4823745 127.635604,26.4823745 130.783981,27.5515234 C132.117077,28.0362043 133.322536,28.8345022 134.301086,29.8466298 C135.265454,30.8872681 136.002911,32.1417362 136.442549,33.4959915 C137.406917,36.6464171 137.406917,40.0249277 136.442549,43.1753532 C136.002911,44.5438639 135.265454,45.7983319 134.286904,46.8389702 C133.298734,47.8673282 132.091334,48.6569331 130.755617,49.1483319 C127.621422,50.2174809 124.217772,50.2174809 121.083577,49.1483319 C119.75048,48.6493958 118.545021,47.8653532 117.566471,46.8389702 C116.588659,45.7919517 115.852627,44.5410323 115.410826,43.1753532 C114.900279,41.6072681 114.645005,39.9821617 114.673369,38.3428 L114.673369,38.3428 Z M120.828303,38.3428 C120.828303,39.2408851 120.927576,40.1532256 121.111941,41.0228 C121.282123,41.8353532 121.579943,42.6051405 122.005399,43.3179064 C122.402491,43.9593958 122.941403,44.5153532 123.579587,44.9145022 C125.026139,45.7128 126.770509,45.7128 128.202879,44.9145022 C128.841063,44.5153532 129.379975,43.9736511 129.777067,43.3179064 C130.202524,42.6051405 130.500343,41.8353532 130.670525,41.0228 C130.869072,40.1389702 130.954163,39.2408851 130.954163,38.3428 C130.954163,37.4162043 130.869072,36.4896085 130.670525,35.5772681 C130.500343,34.7647149 130.202524,33.9949277 129.777067,33.2964171 C129.379975,32.6549277 128.841063,32.1274809 128.202879,31.7425873 C126.756899,30.9728942 125.025567,30.9728942 123.579587,31.7425873 C122.942441,32.1312793 122.403608,32.6631439 122.005399,33.2964171 C121.579943,33.9949277 121.267941,34.7789702 121.111941,35.5772681 C120.927576,36.4896085 120.828303,37.4162043 120.828303,38.3428 Z M140.186565,27.1381192 L149.560785,27.1381192 L154.311714,42.0634383 L154.382623,42.0634383 L159.34628,27.1381192 L168.422681,27.1381192 L168.422681,49.5902468 L162.579748,49.5902468 L162.679021,32.355566 L162.608112,32.355566 L156.892815,49.5902468 L151.404429,49.5902468 L145.958588,32.3413107 L145.887679,32.3413107 L146.015316,49.5759915 L140.172383,49.5759915 L140.172383,27.1381192 L140.186565,27.1381192 Z M179.030725,27.1381192 L186.348573,27.1381192 L194.985336,49.5902468 L188.433309,49.5902468 L186.774029,44.8004596 L178.349995,44.8004596 L176.57726,49.5902468 L170.507417,49.5902468 L179.030725,27.1381192 L179.030725,27.1381192 Z M182.689649,31.7710979 L182.61874,31.7710979 L179.725637,40.5523745 L185.34166,40.5523745 L182.689649,31.7710979 L182.689649,31.7710979 Z M197.495528,27.1381192 L203.466098,27.1381192 L203.466098,49.5902468 L197.495528,49.5902468 L197.495528,27.1381192 L197.495528,27.1381192 Z M207.890844,27.1381192 L215.506511,27.1381192 L223.079634,42.3770553 L223.150543,42.3770553 L223.05127,27.1381192 L228.511292,27.1381192 L228.511292,49.5902468 L221.094171,49.5902468 L213.265775,34.2515234 L213.194866,34.2515234 L213.393412,49.5902468 L207.905026,49.5902468 L207.905026,27.1381192 L207.890844,27.1381192 Z M232.808401,44.3585447 L238.197514,44.3585447 L238.197514,49.5617362 L232.808401,49.5617362 L232.808401,44.3585447 L232.808401,44.3585447 Z M258.520143,30.8159915 C257.116137,29.989183 255.527767,29.5472681 253.896851,29.5615234 C252.691392,29.5472681 251.500114,29.7753532 250.379746,30.2172681 C248.303346,31.0505389 246.67509,32.7286625 245.898273,34.8359915 C245.486999,35.9621617 245.27427,37.1453532 245.288452,38.3428 C245.27427,39.5687575 245.486999,40.7947149 245.940819,41.9493958 C246.352093,42.9900341 246.976096,43.9166298 247.756099,44.7149277 C248.52192,45.4847149 249.443742,46.0976936 250.450655,46.4968426 C251.485932,46.9102468 252.606301,47.1240766 253.726669,47.1240766 C254.152125,47.1240766 254.591763,47.095566 255.01722,47.0385447 C255.893794,46.9321498 256.758146,46.7411986 257.598321,46.4683319 C257.952868,46.3542894 258.293233,46.2117362 258.605235,46.0264171 L258.803781,49.1483319 C257.938686,49.5189702 257.031046,49.7470553 256.109224,49.8183319 C255.17322,49.9038639 254.364853,49.9466298 253.698305,49.9466298 C252.04626,49.9692247 250.403558,49.6940232 248.848103,49.1340766 C247.458279,48.6208851 246.181911,47.8225873 245.11827,46.781949 C244.07385,45.7339748 243.261878,44.4757024 242.735715,43.0898213 C242.149233,41.5429752 241.860475,39.8982067 241.884802,38.2430128 C241.856438,36.6179064 242.16844,35.0213107 242.764078,33.5102468 C243.317172,32.1417362 244.168084,30.9015234 245.231725,29.8751405 C246.309547,28.8487575 247.600098,28.0647149 248.989922,27.5372681 C250.507383,26.9813107 252.109935,26.6962043 253.726669,26.7247149 C254.591763,26.7247149 255.442676,26.7959915 256.293589,26.9385447 C257.144501,27.0810979 257.981232,27.3376936 258.761235,27.6940766 L258.520143,30.8159915 L258.520143,30.8159915 Z M261.399064,38.3428 C261.384882,36.7747149 261.625974,35.2066298 262.12234,33.7098213 C262.57616,32.355566 263.285254,31.1010979 264.23544,30.0462043 C265.185625,29.005566 266.334357,28.1787575 267.624908,27.6228 C270.546375,26.4396085 273.808206,26.4396085 276.729673,27.6228 C278.020224,28.1787575 279.183137,29.005566 280.133323,30.0462043 C281.097691,31.1010979 281.820967,32.355566 282.274787,33.7098213 C282.771152,35.2066298 283.012244,36.7747149 282.998062,38.3428 C283.012244,39.9393958 282.771152,41.5217362 282.274787,43.0328 C281.835148,44.3870553 281.111873,45.6272681 280.175869,46.6964171 C279.239865,47.7370553 278.076951,48.5496085 276.7864,49.0913107 C273.83657,50.2317362 270.574738,50.2317362 267.63909,49.0913107 C266.348539,48.5496085 265.185625,47.7370553 264.249621,46.6964171 C263.309533,45.6312994 262.59535,44.3847078 262.150704,43.0328 C261.640156,41.5217362 261.399064,39.9393958 261.399064,38.3428 Z M264.802715,38.3428 C264.802715,39.4404596 264.944533,40.5381192 265.242353,41.5930128 C265.511808,42.6051405 265.965628,43.5602468 266.575449,44.4013107 C267.171088,45.2281192 267.965273,45.9123745 268.872913,46.3828 C270.971831,47.3664171 273.396932,47.3664171 275.49585,46.3828 C276.40349,45.9123745 277.183493,45.2281192 277.793314,44.4013107 C278.403134,43.5459915 278.856954,42.6051405 279.12641,41.5930128 C279.410048,40.5381192 279.566048,39.4404596 279.551866,38.3428 C279.551866,37.2166298 279.395866,36.1047149 279.083864,35.0213107 C278.799875,34.0085861 278.333624,33.0567603 277.708222,32.2130128 C277.098402,31.4004596 276.318398,30.7304596 275.410758,30.2600341 C273.358,29.2907027 270.982399,29.2907027 268.929641,30.2600341 C268.022001,30.7304596 267.241997,31.3862043 266.632177,32.2130128 C266.006775,33.0567603 265.540524,34.0085861 265.256535,35.0213107 C264.944533,36.1047149 264.802715,37.2166298 264.802715,38.3428 L264.802715,38.3428 Z M287.465353,27.1381192 L292.755193,27.1381192 L299.789404,45.7840766 L306.695978,27.1381192 L312,27.1381192 L312,49.5902468 L308.766532,49.5902468 L308.766532,30.1459915 L308.695623,30.1459915 L301.278501,49.5759915 L298.130125,49.5759915 L290.727185,30.1459915 L290.656276,30.1459915 L290.656276,49.5759915 L287.451172,49.5759915 L287.451172,27.1381192 L287.465353,27.1381192 L287.465353,27.1381192 Z M6.50819566,63.2896085 C6.50819566,64.9574809 5.16091738,66.2974809 3.50163782,66.2974809 L3.44491031,66.2974809 C1.79981262,66.2974809 0.452534346,64.9574809 0.452534346,63.3038639 C0.452534346,61.6502468 1.78563075,60.3102468 3.44491031,60.3102468 C4.23481769,60.294979 4.99839202,60.5958256 5.56758188,61.1465747 C6.13677175,61.6973239 6.4649293,62.4528391 6.47983191,63.2468426 L6.47983191,63.2896085 L6.50819566,63.2896085 Z M1.11908255,63.2896085 C1.09071879,64.5725873 2.09763203,65.6417362 3.37400093,65.6702468 L3.44491031,65.6702468 C4.04917836,65.6702468 4.62849256,65.4279996 5.05444143,64.9971689 C5.48039031,64.5663382 5.71778725,63.9825259 5.71405495,63.3751405 L5.71405495,63.3038639 C5.71405495,62.0284386 4.6854009,60.9945022 3.41654656,60.9945022 C2.14769222,60.9945022 1.11908255,62.0284386 1.11908255,63.3038639 L1.11908255,63.2896085 Z M2.96272651,64.871949 L2.28199643,64.871949 L2.28199643,61.8925873 C2.6649071,61.835566 3.04781777,61.8070553 3.43072844,61.8070553 C3.78527535,61.7642894 4.13982227,61.8498213 4.45182355,62.0493958 C4.65036983,62.191949 4.76382484,62.4342894 4.76382484,62.6908851 C4.73546109,63.0187575 4.49436918,63.3038639 4.16818602,63.3751405 L4.16818602,63.4179064 C4.48018731,63.531949 4.69291546,63.8170553 4.72127921,64.1449277 C4.76382484,64.4015234 4.83473422,64.6438639 4.94818924,64.871949 L4.16818602,64.871949 C4.05473101,64.6438639 3.96963975,64.4015234 3.92709412,64.1449277 C3.87988846,63.8458838 3.60066611,63.6417614 3.30309155,63.6887575 L2.97690838,63.6887575 L2.97690838,64.871949 L2.96272651,64.871949 L2.96272651,64.871949 Z M2.96272651,63.2040766 L3.28890967,63.2040766 C3.67182034,63.2040766 3.98382162,63.0757788 3.98382162,62.7621617 C3.98382162,62.4485447 3.78527535,62.3059915 3.34563718,62.3059915 C3.21800029,62.3059915 3.0903634,62.3202468 2.96272651,62.3487575 L2.96272651,63.2040766 L2.96272651,63.2040766 Z" id="Shape"></path>
      </g>
    </g>
  </g>
</svg>
