<?xml version="1.0" encoding="UTF-8"?>
<!-- Generator: Adobe Illustrator 24.3.0, SVG Export Plug-In . SVG Version: 6.00 Build 0)  -->
<svg xmlns="http://www.w3.org/2000/svg" xmlns:xlink="http://www.w3.org/1999/xlink" version="1.1" id="Layer_1" x="0px" y="0px" viewBox="0 0 200 64" style="enable-background:new 0 0 200 64;" xml:space="preserve">
<style type="text/css">
	.st0{fill-rule:evenodd;clip-rule:evenodd;fill:#D8D7D7;}
	.st1{fill:#5F6566;}
	.st2{fill-rule:evenodd;clip-rule:evenodd;fill:#FFFFFF;}
	.st3{fill:#BAB9B9;}
	.st4{fill:#3C4545;}
	.st5{fill-rule:evenodd;clip-rule:evenodd;fill:#3C4545;}
	.st6{fill:#231F20;}
	.st7{fill:#717275;}
</style>
<polygon class="st0" points="1.1,38.8 8.6,32.8 15.9,37.1 16.2,45.6 1.1,45.6 "></polygon>
<path class="st1" d="M16.5,45.9H0.8v-7.2l7.8-6.2l7.6,4.5L16.5,45.9z M1.3,45.3h14.6l-0.3-8l-7-4.2l-7.3,5.8V45.3z"></path>
<polygon class="st2" points="8.7,33.2 15.9,37.1 16.2,45.3 8.8,45.3 "></polygon>
<polygon class="st2" points="40.9,0.5 42.9,45.7 58.4,45.6 58,25.6 52.6,3.8 "></polygon>
<polygon class="st2" points="14.2,45.6 22.7,7.7 40.9,0.5 52.5,3.7 58.5,29.5 55.9,43.2 43.2,45.7 "></polygon>
<polygon class="st0" points="14.2,45.6 22.7,7.7 40.9,0.5 43,20.6 43.2,45.7 "></polygon>
<polygon class="st3" points="41.3,4.9 50.3,8.6 41.3,6.5 32.5,10.3 "></polygon>
<polygon class="st3" points="41.5,7.3 50.5,11 41.5,8.8 32.7,12.6 "></polygon>
<rect x="26" y="20.1" transform="matrix(0.5938 -0.8046 0.8046 0.5938 -7.0866 30.1465)" class="st4" width="0.7" height="4"></rect>
<rect x="28.9" y="21.1" transform="matrix(0.8046 -0.5938 0.5938 0.8046 -6.6942 22.5202)" class="st4" width="4" height="0.7"></rect>
<path class="st5" d="M30.5,24.9c0.7,0,1.3,0.6,1.3,1.3s-0.6,1.3-1.3,1.3s-1.3-0.6-1.3-1.3C29.2,25.5,29.8,24.9,30.5,24.9  C30.5,24.9,30.5,24.9,30.5,24.9"></path>
<path class="st5" d="M25.2,24.9c0.7,0,1.3,0.6,1.3,1.2c0,0.7-0.6,1.3-1.2,1.3c-0.7,0-1.3-0.6-1.3-1.2c0,0,0,0,0,0  C24,25.4,24.5,24.9,25.2,24.9C25.2,24.9,25.3,24.9,25.2,24.9"></path>
<path class="st4" d="M32.8,39.8l-0.5-0.5c2.4-2.2,3.4-4.8,3.1-8.8c-3.3,3.8-8.4,8-14.7,8.1v-0.7c6.4-0.1,11.5-4.7,14.7-8.5l0.5-0.6  l0.1,0.8C36.6,35.5,34.6,38.1,32.8,39.8z"></path>
<path class="st1" d="M22.2,7.5L41,0.1h0.1l11.7,3.2h0.1v0.1l6.7,21.5l-1,20.6v0.2h-0.1l-44.3,0.2h-0.2l0.1-0.2l8.2-38.1V7.5  L22.2,7.5z M41.1,0.8L22.8,7.9l-8.2,37.5l43.8-0.1L57.5,25L52.5,3.7L41.1,0.8z"></path>
<path class="st6" d="M51.6,42.6c1.1-0.2,2.1-0.8,2.9-1.5c0.7-0.5,1.1-1.3,1.2-2.2c-0.1-0.8-0.5-1.5-1.2-1.9c-1-0.7-2.1-1.1-3.3-1.3  L51.6,42.6z M51,32c1.2-0.2,2.3-0.7,3.2-1.5c0.9-0.8,1.4-1.4,1.4-2c0-0.4-0.1-0.8-0.4-1.1c-0.3-0.4-0.6-0.8-1-1.1  c-0.5-0.4-1-0.8-1.6-1c-0.6-0.2-1.3-0.4-2-0.4L51,32z M43,45.9c0-1.9,0-4,0-6.5c0-2.4,0-3.9,0-4.3c0-2,0-4.3,0-6.8s-0.1-5.2-0.1-8.1  L56,19.7h0.3c1.1,0.1,2.2,0.6,2.9,1.4l0.3,0.3c1.2,1.1,2.4,2.2,3.4,3.5c0.6,0.6,1.1,1.4,1.3,2.3c0,0.2,0,0.4-0.1,0.5  c-0.1,0.2-0.2,0.4-0.3,0.6l-3.3,4.8v0.5c1.2,1,2.3,2.1,3.3,3.3c0.6,0.6,1.1,1.4,1.3,2.3c0,0.3-0.1,0.6-0.3,0.9  c-0.2,0.4-0.5,0.8-0.8,1.1L61.8,44c-0.6,0.7-1.3,1.2-2.1,1.5C58.3,45.9,57,46,55.7,46L43,45.9z M66.9,45.9c0.1-2.8,0.2-5,0.2-6.6  s0.1-3,0.1-4.3c0-1.7,0-3.6-0.1-5.7s-0.2-5.3-0.4-9.6H76c-0.4,3.1-0.7,5.9-0.8,8.6s-0.3,5.2-0.3,7.5c0,1.6,0,3.2,0.1,4.9  s0.2,3.4,0.4,5.1h-2.1h-4.2H66.9 M100.8,32.5c0,0.1,0,0.3-0.1,0.5c-0.2,2.3-0.3,3.9-0.3,5s0,2,0.1,3.2s0.2,2.8,0.4,4.8H88.8  c-1.1,0-2.2-0.2-3.2-0.7c-1.3-0.7-2.5-1.6-3.5-2.7c-1.5-1.3-2.8-2.8-3.8-4.4c-0.8-1.1-1.3-2.5-1.5-3.8c0.1-1.7,0.7-3.3,1.7-4.7  c1.3-2,2.9-3.8,4.7-5.3c1.6-1.4,3.3-2.6,5.2-3.5c2-0.9,4-1.5,6.2-1.9l4.7,5.4c-3.6,1.3-7,2.9-10.2,4.9c-2.6,1.7-3.9,3.1-3.9,4.1  c0.1,0.7,0.5,1.4,1.1,1.9c0.8,0.8,1.7,1.5,2.6,2.1c0.6,0.4,1.3,0.6,1.9,0.8c0.7,0.2,1.5,0.3,2.2,0.2h0.3c0-1.5,0-2.9-0.1-4.4  c0-1.5-0.1-2.9-0.2-4.4c1.3,0.4,2.6,0.8,3.8,1.2S99.5,31.9,100.8,32.5"></path>
<path d="M111.7,34.7c1.6-0.5,3-1.4,4.3-2.5c0.9-0.7,1.5-1.7,1.7-2.8c0-0.8-0.6-1.6-1.8-2.2c-1.5-0.8-3-1.3-4.7-1.4L111.7,34.7z   M104,45.9c0-1.8,0.1-3.4,0.1-4.8s0-2.7,0-3.8c0-2.2-0.1-4.6-0.3-7.4s-0.5-6.1-0.8-10l13.2-0.1h0.3c1.2,0,2.3,0.1,3.4,0.5  c1,0.3,1.9,0.8,2.7,1.5c1.3,1,2.5,2.2,3.4,3.6c0.7,0.8,1.2,1.9,1.3,3c-0.1,1.2-0.5,2.4-1.4,3.4c-1.4,1.6-3,3.1-4.8,4.4  c0.6,1.6,1.4,3.1,2.2,4.5c1,1.6,2.1,3.1,3.3,4.5l-7.2,1.1c-1.3-1.2-2.5-2.6-3.6-4c-1-1.4-2-2.8-2.8-4.3l-1.4-0.1l-0.2,8.2L104,45.9z   M142.2,38.4c1.7,0,3.3-0.7,4.4-2c1.2-1.3,1.8-3,1.8-4.7c0-0.7-0.1-1.3-0.4-2c-0.3-0.6-0.8-1.2-1.3-1.7c-0.7-0.6-1.5-1.1-2.3-1.5  c-0.7-0.3-1.6-0.5-2.4-0.6c-0.8,0-1.7,0.2-2.4,0.6c-0.8,0.3-1.6,0.8-2.2,1.4c-0.5,0.5-0.9,1.2-1.1,1.9c-0.3,0.8-0.4,1.7-0.4,2.5  c0,1.6,0.7,3.2,2,4.3C138.9,37.7,140.6,38.4,142.2,38.4 M141.8,45.9c-4.1,0-7.3-1.2-9.6-3.6s-3.5-5.7-3.5-9.9c0-4,1.1-7.1,3.4-9.4  c2.3-2.2,5.4-3.4,9.5-3.4c4.4,0,7.7,1.1,10,3.4s3.4,5.5,3.4,9.8c0,4.1-1.2,7.3-3.5,9.6S146,45.9,141.8,45.9 M173.1,25.7  c-2.2,0.7-4.4,1.7-6.2,3.1c-1.2,0.9-2,2.2-2,3.7c0,1.6,0.8,3,2,4c1.8,1.4,3.8,2.4,6,2.9l-3.1,6.8c-3.9-1-7.4-2.9-10.5-5.5  c-2.3-1.9-3.6-4.7-3.7-7.7c0-3,1.3-5.9,3.4-8c2.8-2.7,6.3-4.7,10-5.9L173.1,25.7z M174.7,45.9c0.1-2.6,0.1-4.8,0.2-6.7  c0-1.9,0.1-3.4,0.1-4.6c0-1.7,0-3.8-0.1-6.2c-0.1-2.4-0.1-5.1-0.3-8.1l8.2-0.4c0,1.3,0.1,3,0.2,5.3s0.1,3.8,0.1,4.7h0.9  c0.9-1.7,1.7-3.4,2.4-5.1c0.7-1.7,1.4-3.5,2.1-5.3l8.9,2.1c-1.1,1.7-2.2,3.4-3.3,5.3s-2.1,3.8-3.2,5.9l-0.1,0.4  c1.1,1.5,2.4,3.2,3.8,5c1.4,1.8,2.9,3.7,4.5,5.6l-9,2.3c-0.9-1.5-1.9-3-2.9-4.5s-2.2-3.3-3.6-5.2h-0.8c0,0.5,0,1.1,0,1.8  s0,1.6,0,2.9c0,0.8,0,1.6,0,2.4c0,0.8,0.1,1.6,0.1,2.5L174.7,45.9z"></path>
<path class="st7" d="M13.9,62.1v-9.1H17c0.5,0,1.1,0,1.6,0.1c0.5,0.1,1,0.3,1.3,0.7c0.5,0.4,0.9,1,1.1,1.6c0.2,0.7,0.4,1.4,0.4,2.2  c0,0.6-0.1,1.2-0.2,1.8c-0.1,0.5-0.3,0.9-0.6,1.3c-0.2,0.3-0.5,0.6-0.8,0.8c-0.3,0.2-0.7,0.4-1.1,0.5c-0.5,0.1-1,0.2-1.5,0.2  L13.9,62.1z M15.1,61h2c0.5,0,1,0,1.4-0.2c0.3-0.1,0.6-0.3,0.8-0.5c0.3-0.3,0.5-0.7,0.7-1.2c0.2-0.6,0.3-1.2,0.2-1.8  c0-0.8-0.1-1.5-0.5-2.2c-0.3-0.5-0.7-0.8-1.1-1C18.1,54.1,17.5,54,17,54h-1.9V61z"></path>
<path class="st7" d="M22.5,58.8c-0.1-1,0.3-2,1-2.7c0.6-0.5,1.3-0.8,2.1-0.7c0.8,0,1.6,0.3,2.2,0.9c0.6,0.7,0.9,1.6,0.9,2.5  c0,0.7-0.1,1.4-0.4,2c-0.2,0.5-0.6,0.9-1.1,1.1c-0.5,0.3-1,0.4-1.6,0.4c-0.8,0-1.7-0.3-2.2-0.9C22.8,60.6,22.4,59.7,22.5,58.8   M23.7,58.8c-0.1,0.7,0.1,1.4,0.5,1.9c0.3,0.4,0.9,0.6,1.4,0.6c0.5,0,1-0.2,1.4-0.6c0.4-0.6,0.6-1.2,0.6-1.9c0-0.7-0.2-1.3-0.6-1.9  c-0.7-0.8-1.9-0.8-2.6-0.2c-0.1,0.1-0.1,0.1-0.2,0.2C23.8,57.4,23.6,58.1,23.7,58.8"></path>
<path class="st7" d="M30,62.1v-6.6h1v0.9c0.2-0.3,0.5-0.6,0.8-0.8c0.4-0.2,0.8-0.3,1.2-0.3c0.4,0,0.8,0.1,1.2,0.3  c0.3,0.2,0.5,0.5,0.7,0.9c0.4-0.7,1.2-1.1,2-1.2c0.6,0,1.1,0.2,1.5,0.5c0.4,0.5,0.6,1.1,0.6,1.7v4.5h-1.1v-4.2c0-0.3,0-0.7-0.1-1  c-0.1-0.2-0.2-0.4-0.4-0.5c-0.2-0.1-0.4-0.2-0.7-0.2c-0.4,0-0.9,0.2-1.2,0.5c-0.3,0.4-0.5,0.9-0.5,1.5V62H34v-4.3  c0-0.4-0.1-0.8-0.3-1.1c-0.2-0.3-0.5-0.4-0.9-0.4c-0.3,0-0.6,0.1-0.9,0.2c-0.3,0.2-0.5,0.4-0.6,0.7c-0.1,0.4-0.2,0.9-0.2,1.4V62  L30,62.1z"></path>
<path class="st7" d="M45,61.3c-0.4,0.3-0.8,0.6-1.2,0.8c-0.4,0.1-0.8,0.2-1.2,0.2c-0.6,0-1.2-0.2-1.7-0.5c-0.4-0.3-0.6-0.8-0.6-1.4  c0-0.3,0.1-0.6,0.2-0.9c0.1-0.3,0.3-0.5,0.6-0.6c0.2-0.2,0.5-0.3,0.8-0.4c0.3-0.1,0.7-0.1,1-0.2c0.7-0.1,1.3-0.2,2-0.4  c0-0.2,0-0.2,0-0.3c0-0.4-0.1-0.7-0.3-1c-0.4-0.3-0.8-0.4-1.3-0.4c-0.4,0-0.8,0.1-1.2,0.3c-0.3,0.3-0.5,0.6-0.5,1l-1.1-0.2  c0.1-0.4,0.3-0.8,0.5-1.1c0.3-0.3,0.6-0.5,1-0.7c0.5-0.2,1-0.2,1.5-0.2c0.5,0,0.9,0.1,1.4,0.2c0.3,0.1,0.6,0.3,0.8,0.5  c0.2,0.2,0.3,0.5,0.3,0.8c0,0.3,0.1,0.7,0.1,1v1.5c0,0.7,0,1.3,0.1,2c0,0.3,0.1,0.6,0.3,0.8h-1.2C45.1,61.8,45,61.6,45,61.3   M44.9,58.8c-0.6,0.2-1.2,0.3-1.8,0.4c-0.3,0-0.7,0.1-1,0.2c-0.4,0.2-0.6,0.5-0.6,0.9c0,0.3,0.1,0.6,0.3,0.8c0.3,0.2,0.6,0.3,1,0.3  c0.4,0,0.8-0.1,1.2-0.3c0.3-0.2,0.6-0.4,0.7-0.8c0.1-0.4,0.2-0.7,0.2-1.1L44.9,58.8z"></path>
<path class="st7" d="M47.8,52.9h1.1v1.3h-1.1V52.9z M47.8,55.5h1.1v6.6h-1.1V55.5z"></path>
<path class="st7" d="M50.6,62.1v-6.6h1v0.9c0.5-0.7,1.3-1.1,2.1-1.1c0.4,0,0.8,0.1,1.1,0.2c0.3,0.1,0.6,0.3,0.8,0.6  c0.2,0.2,0.3,0.5,0.3,0.8C56,57.3,56,57.6,56,58v4.1h-1.1v-4c0-0.3,0-0.7-0.1-1c-0.1-0.2-0.3-0.4-0.5-0.5c-0.2-0.1-0.5-0.2-0.8-0.2  c-0.5,0-0.9,0.2-1.2,0.5c-0.4,0.5-0.6,1.1-0.5,1.7v3.6L50.6,62.1z"></path>
<path class="st7" d="M57.3,60.1l1.1-0.2c0,0.4,0.2,0.7,0.5,1c0.3,0.3,0.8,0.4,1.2,0.3c0.4,0,0.8-0.1,1.1-0.3  c0.2-0.2,0.4-0.4,0.4-0.7c0-0.2-0.1-0.5-0.3-0.6c-0.4-0.2-0.8-0.3-1.2-0.4c-0.6-0.1-1.2-0.3-1.7-0.5c-0.6-0.3-1-0.9-1-1.5  c0-0.3,0.1-0.6,0.2-0.8c0.1-0.2,0.3-0.5,0.5-0.6c0.2-0.1,0.5-0.3,0.7-0.3c0.3-0.1,0.7-0.1,1-0.1c0.5,0,0.9,0.1,1.4,0.2  c0.3,0.1,0.6,0.3,0.9,0.6c0.2,0.3,0.3,0.6,0.4,1l-1.1,0.2c0-0.3-0.2-0.6-0.4-0.8c-0.3-0.2-0.6-0.3-1-0.3c-0.4,0-0.8,0.1-1.1,0.3  c-0.2,0.1-0.3,0.4-0.3,0.6c0,0.1,0,0.3,0.1,0.4c0.1,0.1,0.3,0.2,0.4,0.3l1,0.3c0.6,0.1,1.1,0.3,1.7,0.5c0.3,0.1,0.6,0.3,0.7,0.6  c0.2,0.3,0.3,0.6,0.3,1c0,0.4-0.1,0.7-0.3,1.1c-0.2,0.3-0.6,0.6-0.9,0.8c-0.4,0.2-0.9,0.3-1.4,0.3c-0.7,0.1-1.4-0.1-2-0.5  C57.6,61.3,57.3,60.7,57.3,60.1"></path>
<path class="st7" d="M64.4,62.1v-1.3h1.3v1.3c0,0.4-0.1,0.8-0.2,1.1c-0.2,0.3-0.5,0.5-0.8,0.7l-0.3-0.5c0.2-0.1,0.4-0.2,0.5-0.5  c0.1-0.3,0.2-0.6,0.2-0.9L64.4,62.1z"></path>
<path class="st7" d="M72.9,62.1l-2.4-9.1h1.2l1.4,6c0.2,0.6,0.3,1.2,0.4,1.9c0.2-1,0.4-1.5,0.4-1.7l1.7-6.2h1.5l1.3,4.6  c0.3,1.1,0.6,2.1,0.7,3.2c0.1-0.6,0.3-1.2,0.4-2l1.4-5.9h1.2l-2.5,9.1h-1.1l-1.9-7c-0.2-0.6-0.3-0.9-0.3-1.1  c-0.1,0.4-0.2,0.8-0.3,1.1l-1.9,7L72.9,62.1z"></path>
<path class="st7" d="M87.5,60l1.2,0.1c-0.1,0.6-0.5,1.2-1,1.6c-0.6,0.4-1.2,0.6-1.9,0.6c-0.9,0-1.7-0.3-2.3-0.9  c-0.6-0.7-0.9-1.6-0.8-2.5c-0.1-0.9,0.3-1.9,0.9-2.6c0.6-0.6,1.4-0.9,2.2-0.9c0.8,0,1.6,0.3,2.2,0.9c0.6,0.7,0.9,1.6,0.8,2.5v0.3  h-4.9c0,0.6,0.2,1.2,0.6,1.7c0.4,0.4,0.9,0.6,1.4,0.6c0.4,0,0.7-0.1,1-0.3C87.1,60.8,87.3,60.4,87.5,60 M83.8,58.2h3.7  c0-0.5-0.2-0.9-0.4-1.2c-0.3-0.4-0.9-0.7-1.4-0.7c-0.5,0-1,0.2-1.3,0.5C84,57.2,83.8,57.7,83.8,58.2"></path>
<path class="st7" d="M91.1,62.1h-1v-9.1h1.1v3.3c0.4-0.5,1.1-0.9,1.7-0.9c0.4,0,0.8,0.1,1.2,0.2c0.4,0.2,0.7,0.4,0.9,0.7  c0.2,0.3,0.4,0.7,0.6,1.1c0.1,0.4,0.2,0.9,0.2,1.3c0.1,0.9-0.2,1.9-0.8,2.6c-0.5,0.6-1.2,0.9-2,0.9c-0.7,0-1.4-0.4-1.8-1L91.1,62.1z   M91.1,58.7c0,0.6,0.1,1.2,0.3,1.7c0.4,0.8,1.4,1.1,2.2,0.7c0.2-0.1,0.4-0.3,0.5-0.5c0.4-0.5,0.6-1.2,0.5-1.9  c0.1-0.7-0.1-1.3-0.5-1.9c-0.5-0.7-1.5-0.8-2.2-0.3c-0.1,0.1-0.2,0.2-0.3,0.3C91.3,57.4,91.1,58,91.1,58.7"></path>
<path class="st7" d="M96.8,60.1l1.1-0.2c0,0.4,0.2,0.7,0.5,1c0.3,0.3,0.8,0.4,1.2,0.3c0.4,0,0.8-0.1,1.1-0.3  c0.2-0.2,0.4-0.4,0.4-0.7c0-0.2-0.1-0.5-0.3-0.6c-0.4-0.2-0.8-0.3-1.2-0.4c-0.6-0.1-1.2-0.3-1.7-0.5c-0.6-0.3-1-0.9-1-1.5  c0-0.3,0.1-0.6,0.2-0.8c0.1-0.2,0.3-0.5,0.6-0.6c0.2-0.1,0.5-0.3,0.7-0.3c0.3-0.1,0.7-0.1,1-0.1c0.5,0,0.9,0.1,1.4,0.2  c0.3,0.1,0.6,0.3,0.9,0.6c0.2,0.3,0.3,0.6,0.4,1l-1.1,0.2c0-0.3-0.2-0.6-0.4-0.8c-0.3-0.2-0.6-0.3-1-0.3c-0.4,0-0.8,0.1-1.1,0.3  C98.2,56.6,98,56.8,98,57c0,0.1,0,0.3,0.1,0.4c0.1,0.1,0.3,0.2,0.4,0.3l1,0.3c0.6,0.1,1.1,0.3,1.7,0.5c0.3,0.1,0.6,0.3,0.7,0.6  c0.2,0.3,0.3,0.6,0.3,1c0,0.4-0.1,0.7-0.3,1.1c-0.2,0.4-0.6,0.6-0.9,0.8c-0.4,0.2-0.9,0.3-1.4,0.3c-0.7,0.1-1.4-0.1-2-0.5  C97.1,61.3,96.8,60.8,96.8,60.1"></path>
<path class="st7" d="M103.6,52.9h1.1v1.3h-1.1V52.9z M103.6,55.5h1.1v6.6h-1.1V55.5z"></path>
<path class="st7" d="M108.9,61.1l0.2,1c-0.3,0.1-0.6,0.1-0.8,0.1c-0.3,0-0.6,0-0.9-0.2c-0.2-0.1-0.4-0.3-0.5-0.5  c-0.1-0.4-0.2-0.9-0.1-1.3v-3.8h-0.8v-0.9h0.8v-1.6l1.1-0.7v2.3h1.1v0.9h-1.1v3.9c0,0.2,0,0.4,0.1,0.6c0,0.1,0.1,0.1,0.2,0.2  c0.1,0.1,0.3,0.1,0.4,0.1C108.6,61.1,108.7,61.1,108.9,61.1"></path>
<path class="st7" d="M114.5,60l1.2,0.1c-0.2,0.6-0.5,1.2-1,1.6c-0.6,0.4-1.2,0.6-1.9,0.6c-0.9,0-1.7-0.3-2.3-0.9  c-0.6-0.7-0.9-1.6-0.8-2.5c-0.1-0.9,0.3-1.9,0.9-2.6c0.6-0.6,1.4-0.9,2.2-0.9c0.8,0,1.6,0.3,2.2,0.9c0.6,0.7,0.9,1.6,0.8,2.5v0.3  h-4.9c0,0.6,0.2,1.2,0.6,1.7c0.4,0.4,0.9,0.6,1.4,0.6c0.4,0,0.7-0.1,1-0.3C114.1,60.8,114.3,60.4,114.5,60 M110.8,58.2h3.7  c0-0.4-0.2-0.9-0.4-1.2c-0.7-0.8-1.8-0.9-2.6-0.2c0,0-0.1,0-0.1,0.1C111,57.2,110.8,57.7,110.8,58.2"></path>
<path class="st7" d="M116.6,60.1l1.1-0.2c0,0.4,0.2,0.7,0.5,1c0.3,0.3,0.8,0.4,1.2,0.3c0.4,0,0.8-0.1,1.2-0.3  c0.2-0.2,0.4-0.4,0.4-0.7c0-0.2-0.1-0.5-0.3-0.6c-0.4-0.2-0.8-0.3-1.2-0.4c-0.6-0.1-1.2-0.3-1.7-0.5c-0.3-0.1-0.5-0.4-0.7-0.6  c-0.2-0.3-0.2-0.6-0.2-0.9c0-0.3,0.1-0.6,0.2-0.8c0.1-0.3,0.3-0.5,0.6-0.6c0.2-0.2,0.5-0.3,0.7-0.3c0.3-0.1,0.7-0.1,1-0.1  c0.5,0,0.9,0.1,1.4,0.2c0.3,0.1,0.6,0.3,0.9,0.6c0.2,0.3,0.3,0.6,0.4,1l-1.1,0.2c0-0.3-0.2-0.6-0.4-0.8c-0.3-0.2-0.6-0.3-1-0.3  c-0.4,0-0.8,0.1-1.1,0.3c-0.2,0.1-0.3,0.4-0.3,0.6c0,0.1,0,0.3,0.1,0.4c0.1,0.1,0.3,0.2,0.4,0.3l1,0.3c0.8,0.2,1.3,0.4,1.7,0.5  c0.3,0.1,0.5,0.3,0.7,0.6c0.2,0.3,0.3,0.6,0.3,1c0,0.4-0.1,0.7-0.3,1.1c-0.3,0.3-0.6,0.6-1,0.8c-0.4,0.2-0.9,0.3-1.4,0.3  c-0.7,0.1-1.4-0.1-2-0.5C117,61.3,116.7,60.7,116.6,60.1"></path>
<path class="st7" d="M131.3,61.3c-0.4,0.3-0.8,0.6-1.2,0.8c-0.4,0.1-0.8,0.2-1.2,0.2c-0.6,0-1.2-0.2-1.7-0.5  c-0.4-0.3-0.6-0.8-0.6-1.4c0-0.6,0.3-1.2,0.8-1.5c0.2-0.2,0.5-0.3,0.8-0.4c0.3-0.1,0.7-0.1,1-0.2c0.7-0.1,1.3-0.2,2-0.4  c0-0.2,0-0.2,0-0.3c0-0.4-0.1-0.7-0.3-1c-0.4-0.3-0.8-0.4-1.3-0.4c-0.4,0-0.8,0.1-1.2,0.3c-0.3,0.3-0.5,0.6-0.6,1l-1.1-0.2  c0.1-0.4,0.2-0.8,0.5-1.1c0.3-0.3,0.6-0.5,1-0.7c0.5-0.2,1-0.2,1.5-0.2c0.5,0,0.9,0.1,1.4,0.2c0.3,0.1,0.6,0.3,0.8,0.5  c0.2,0.2,0.3,0.5,0.4,0.8c0,0.3,0,0.7,0,1v1.6c0,0.7,0,1.3,0.1,2c0,0.3,0.1,0.6,0.3,0.8h-1.2C131.4,61.8,131.3,61.6,131.3,61.3   M131.2,58.8c-0.6,0.2-1.2,0.3-1.8,0.4c-0.3,0-0.7,0.1-1,0.2c-0.2,0.1-0.3,0.2-0.4,0.4c-0.1,0.2-0.2,0.3-0.2,0.5  c0,0.3,0.1,0.6,0.3,0.8c0.3,0.2,0.6,0.3,1,0.3c0.4,0,0.8-0.1,1.2-0.3c0.3-0.2,0.6-0.4,0.7-0.8c0.1-0.4,0.2-0.7,0.2-1.1L131.2,58.8z"></path>
<path class="st7" d="M134.1,62.1v-6.6h1v0.9c0.5-0.7,1.3-1.1,2.1-1.1c0.4,0,0.8,0.1,1.1,0.2c0.3,0.1,0.6,0.3,0.8,0.6  c0.2,0.2,0.3,0.5,0.4,0.8c0.1,0.4,0.1,0.7,0.1,1.1v4.1h-1.1v-4c0-0.3,0-0.7-0.1-1c-0.1-0.2-0.3-0.4-0.5-0.5  c-0.2-0.1-0.5-0.2-0.8-0.2c-0.5,0-0.9,0.2-1.2,0.5c-0.4,0.5-0.6,1.1-0.5,1.7v3.6L134.1,62.1z"></path>
<path class="st7" d="M145.5,62.1v-0.8c-0.4,0.6-1.1,1-1.9,1c-0.5,0-1-0.2-1.5-0.4c-0.4-0.3-0.8-0.7-1-1.2c-0.2-0.6-0.4-1.2-0.4-1.8  c0-0.6,0.1-1.2,0.3-1.8c0.4-1,1.4-1.7,2.5-1.7c0.4,0,0.7,0.1,1.1,0.2c0.3,0.2,0.6,0.4,0.8,0.7v-3.3h1.1v9.1L145.5,62.1z M141.9,58.8  c-0.1,0.7,0.1,1.4,0.5,1.9c0.3,0.4,0.8,0.6,1.3,0.6c0.5,0,0.9-0.2,1.2-0.6c0.4-0.5,0.6-1.2,0.5-1.8c0.1-0.7-0.1-1.4-0.5-2  c-0.3-0.4-0.8-0.6-1.3-0.6c-0.5,0-1,0.2-1.2,0.6C142.1,57.4,141.9,58.1,141.9,58.8"></path>
<path class="st7" d="M151.8,62.1v-6.6h1v0.9c0.4-0.7,1.2-1.1,2-1.1c0.4,0,0.8,0.1,1.2,0.3c0.3,0.2,0.6,0.5,0.7,0.9  c0.4-0.7,1.2-1.2,2-1.2c0.6,0,1.1,0.2,1.5,0.5c0.4,0.5,0.6,1.1,0.5,1.7v4.5h-1.1v-4.2c0-0.3,0-0.7-0.1-1c-0.1-0.2-0.2-0.4-0.4-0.5  c-0.2-0.1-0.4-0.2-0.7-0.2c-0.4,0-0.9,0.2-1.2,0.5c-0.3,0.4-0.5,0.9-0.5,1.5V62h-1.1v-4.3c0-0.4-0.1-0.8-0.3-1.1  c-0.2-0.3-0.6-0.4-0.9-0.4c-0.3,0-0.6,0.1-0.9,0.2c-0.3,0.2-0.5,0.4-0.6,0.7c-0.1,0.4-0.2,0.9-0.2,1.4V62L151.8,62.1z"></path>
<path class="st7" d="M162.1,58.8c-0.1-1,0.3-2,1-2.7c0.6-0.5,1.3-0.8,2.1-0.7c0.8,0,1.6,0.3,2.2,0.9c0.6,0.7,0.9,1.6,0.9,2.5  c0,0.7-0.1,1.4-0.4,2c-0.2,0.5-0.6,0.9-1.1,1.1c-0.5,0.3-1,0.4-1.6,0.4c-0.8,0-1.7-0.3-2.2-0.9C162.3,60.6,162,59.7,162.1,58.8   M163.2,58.8c-0.1,0.7,0.1,1.4,0.6,1.9c0.7,0.8,1.9,0.8,2.6,0.2c0.1-0.1,0.1-0.1,0.2-0.2c0.4-0.6,0.6-1.2,0.6-1.9  c0.1-0.7-0.1-1.3-0.6-1.9c-0.3-0.4-0.8-0.6-1.4-0.6c-0.5,0-1.1,0.2-1.4,0.6C163.3,57.4,163.1,58.1,163.2,58.8"></path>
<path class="st7" d="M169.6,62.1v-6.6h1v1c0.2-0.4,0.4-0.7,0.7-0.9c0.2-0.1,0.5-0.2,0.7-0.2c0.4,0,0.8,0.1,1.2,0.4l-0.4,1  c-0.2-0.2-0.5-0.2-0.8-0.2c-0.2,0-0.5,0.1-0.7,0.2c-0.2,0.2-0.3,0.4-0.4,0.6c-0.1,0.4-0.2,0.9-0.2,1.3V62L169.6,62.1z"></path>
<path class="st7" d="M178.4,60l1.2,0.1c-0.1,0.6-0.5,1.2-1,1.6c-0.6,0.4-1.2,0.6-1.9,0.6c-0.9,0-1.7-0.3-2.3-0.9  c-0.6-0.7-0.9-1.6-0.9-2.5c-0.1-0.9,0.2-1.9,0.9-2.6c0.6-0.6,1.4-1,2.2-0.9c0.8,0,1.6,0.3,2.2,0.9c0.6,0.7,0.9,1.6,0.8,2.5  c0,0.1,0,0.2,0,0.3h-4.9c0,0.6,0.2,1.2,0.6,1.7c0.4,0.4,0.9,0.6,1.4,0.6c0.4,0,0.7-0.1,1-0.3C178,60.8,178.2,60.4,178.4,60   M174.6,58.2h3.7c0-0.4-0.2-0.9-0.4-1.2c-0.3-0.4-0.9-0.7-1.4-0.7c-0.5,0-1,0.2-1.3,0.5C174.9,57.2,174.6,57.7,174.6,58.2"></path>
<rect x="181.2" y="60.8" class="st7" width="1.3" height="1.3"></rect>
<rect x="184.8" y="60.8" class="st7" width="1.3" height="1.3"></rect>
<rect x="188.3" y="60.8" class="st7" width="1.3" height="1.3"></rect>
</svg>
