<?xml version="1.0" encoding="UTF-8"?>
<!-- Generator: Adobe Illustrator 24.3.0, SVG Export Plug-In . SVG Version: 6.00 Build 0)  -->
<svg xmlns="http://www.w3.org/2000/svg" xmlns:xlink="http://www.w3.org/1999/xlink" version="1.1" id="Layer_1" x="0px" y="0px" viewBox="0 0 200 33" style="enable-background:new 0 0 200 33;" xml:space="preserve">
<g id="Layer_2_1_">
	<g id="Layer_1-2">
		<g id="bluehost-logo-primary">
			<rect width="9.1" height="9.1"></rect>
			<rect x="11.7" width="9.1" height="9.1"></rect>
			<rect x="23.4" width="9.1" height="9.1"></rect>
			<rect y="11.7" width="9.1" height="9.1"></rect>
			<rect x="11.7" y="11.7" width="9.1" height="9.1"></rect>
			<rect x="23.4" y="11.7" width="9.1" height="9.1"></rect>
			<rect y="23.5" width="9.1" height="9.1"></rect>
			<rect x="11.7" y="23.5" width="9.1" height="9.1"></rect>
			<rect x="23.4" y="23.5" width="9.1" height="9.1"></rect>
			<path d="M51,14c1.9-1.7,4.4-2.6,6.9-2.6c4.6,0,9.1,3.2,9.1,10.8C67.1,30,62,33,56.6,33c-2.8,0-5.5-0.8-7.9-2.2V0H51V14z M51,29.5     c1.7,0.9,3.6,1.3,5.5,1.4c4.3,0,8.2-2.5,8.2-8.8c0-5.5-3.1-8.6-7-8.6c-2.6,0.1-5,1.3-6.7,3.3V29.5z"></path>
			<rect x="71.1" width="2.2" height="32.6"></rect>
			<path d="M81.1,24.5c0,5,2.4,6.3,4.9,6.3c2.7,0,5.2-1.7,7.2-4.6V11.7h2.3v20.9h-2.3v-4c-1.8,2.7-4.7,4.3-7.9,4.4     c-3.3,0-6.4-1.9-6.4-8.2v-13h2.3V24.5z"></path>
			<path d="M117.6,31.2c-2.3,1.2-4.8,1.8-7.4,1.8c-7-0.2-10.6-5.7-10.4-11.6c0.2-6.6,5.1-10.1,10.3-10c5.6,0.1,9.4,4.6,8.7,11.2     h-16.8c-0.1,4.5,3.5,8.1,7.9,8.2c0.1,0,0.2,0,0.3,0c2.3,0,4.5-0.5,6.5-1.6L117.6,31.2z M116.7,20.8c0.2-3.8-2.7-7-6.5-7.2     c-0.1,0-0.2,0-0.3,0c-4.1-0.2-7.6,3.1-7.7,7.2c0,0,0,0,0,0H116.7z"></path>
			<path d="M126.4,15.8c1.6-2.7,4.5-4.3,7.7-4.4c4.2,0,6.6,3.1,6.6,7.8v13.4h-2.3V19.7c0-4.5-2.3-6.1-4.8-6.1c-3,0-5.8,2.4-7.2,4.7     v14.3h-2.3V0h2.3L126.4,15.8z"></path>
			<path d="M164.6,22.2c0,6.9-4.7,10.8-10,10.8c-6,0-10-4.8-10-10.8c0-6.3,4.4-10.7,10-10.7C160,11.4,164.6,15.4,164.6,22.2      M146.8,22.2c0,4.6,2.7,8.6,7.7,8.6c4.9,0,7.7-4,7.7-8.6s-2.9-8.6-7.7-8.6S146.8,17.5,146.8,22.2"></path>
			<path d="M169.9,29c1.6,1.1,3.6,1.7,5.6,1.8c2.2,0,4.9-0.9,4.9-3.1c0-1.9-2-3.3-5.2-4.6c-3.6-1.4-6.6-2.7-6.6-6.1s3.1-5.6,7.2-5.6     c2,0,4,0.6,5.8,1.6l-0.9,1.8c-1.5-0.8-3.2-1.2-4.9-1.2c-3.4,0-5,1.7-5,3.5c0,2.2,2.6,3.1,5.8,4.4c5,2,6.1,4.2,6.1,6.1     c0,3.3-3.1,5.3-7.1,5.3c-2.3,0-4.6-0.7-6.6-1.9L169.9,29z"></path>
			<path d="M197.8,11.7v2h-6.9v11.4c0,3.4,1.4,5.5,4.5,5.7c1.4,0,2.7-0.2,3.9-0.8l0.7,2c-1.5,0.6-3,0.9-4.6,0.9     c-3.8,0-6.8-2.3-6.8-7.7V13.7h-3.7v-2h3.7v-7h2.3v7L197.8,11.7z"></path>
		</g>
	</g>
</g>
</svg>
