<?xml version="1.0" encoding="UTF-8"?>
<!-- Generator: Adobe Illustrator 24.3.0, SVG Export Plug-In . SVG Version: 6.00 Build 0)  -->
<svg xmlns="http://www.w3.org/2000/svg" xmlns:xlink="http://www.w3.org/1999/xlink" version="1.1" id="Layer_1" x="0px" y="0px" viewBox="0 0 746 120" style="enable-background:new 0 0 746 120;" xml:space="preserve">
<g id="Layer_2_1_">
	<g id="Primary">
		<g id="Domain-Primary">
			<path d="M244.4,60c0,4.1-0.7,8.2-2.2,12c-1.4,3.6-3.6,6.8-6.3,9.5c-2.8,2.7-6.2,4.9-9.8,6.3c-4.1,1.5-8.4,2.3-12.7,2.2H190V30     h23.3c4.4-0.1,8.7,0.7,12.7,2.3c3.7,1.4,7,3.5,9.8,6.2c2.7,2.7,4.9,5.9,6.3,9.5C243.7,51.8,244.5,55.9,244.4,60z M230.2,60     c0-2.7-0.4-5.4-1.2-8c-0.7-2.2-1.8-4.3-3.3-6.1c-1.4-1.7-3.3-3-5.3-3.8c-2.3-0.9-4.7-1.4-7.1-1.3H204v38.5h9.3     c2.4,0.1,4.9-0.4,7.1-1.3c2-0.8,3.8-2.2,5.3-3.8c1.5-1.8,2.6-3.9,3.3-6.1C229.8,65.4,230.2,62.7,230.2,60z"></path>
			<path d="M311.5,60c0,4.1-0.7,8.1-2.2,11.8c-2.8,7.3-8.5,13-15.8,15.8c-8,3.1-17,3.1-25,0c-7.3-2.9-13-8.6-15.9-15.9     c-2.9-7.6-2.9-16.1,0-23.7c1.4-3.6,3.5-6.8,6.2-9.5c2.8-2.7,6-4.9,9.6-6.3c4-1.6,8.2-2.4,12.5-2.3c4.3-0.1,8.5,0.7,12.5,2.3     c3.6,1.4,6.9,3.6,9.6,6.3s4.8,6,6.2,9.5C310.8,51.9,311.5,56,311.5,60z M297.5,60c0-2.7-0.3-5.3-1.1-7.8     c-0.7-2.2-1.8-4.2-3.2-5.9c-1.4-1.6-3.2-2.9-5.1-3.7c-2.2-0.9-4.6-1.3-7-1.3c-2.4,0-4.8,0.4-7,1.3c-2,0.8-3.8,2.1-5.2,3.7     c-1.5,1.7-2.6,3.7-3.2,5.9c-0.8,2.5-1.2,5.2-1.2,7.9s0.3,5.3,1.1,7.9c0.7,2.2,1.8,4.2,3.2,5.9c1.4,1.6,3.2,2.9,5.2,3.7     c2.2,0.9,4.6,1.3,7,1.3s4.8-0.4,7-1.3c2-0.8,3.8-2.1,5.2-3.7c1.5-1.7,2.6-3.7,3.2-5.9C297.2,65.3,297.5,62.7,297.5,60z"></path>
			<path d="M384.9,30v60h-12.3V55.5c0-0.8,0-1.7,0.1-2.6s0.1-1.9,0.2-2.8L357,80.9c-0.4,0.9-1.1,1.7-2,2.2s-1.9,0.8-2.9,0.7h-1.9     c-1,0-2-0.2-2.9-0.7s-1.6-1.3-2-2.2l-16-30.9c0.1,1,0.1,2,0.2,2.9c0,0.9,0.1,1.8,0.1,2.6V90h-12.3V30h10.6c0.6,0,1.1,0,1.6,0     c0.4,0,0.8,0.1,1.2,0.2c0.4,0.1,0.7,0.4,1,0.6c0.3,0.4,0.6,0.8,0.8,1.2L348,62.4c0.5,1,1.1,2.1,1.6,3.3s1,2.3,1.5,3.5     c0.5-1.2,1-2.4,1.5-3.6s1-2.2,1.6-3.3L369.6,32c0.2-0.4,0.5-0.9,0.9-1.2c0.3-0.3,0.6-0.5,1-0.6s0.8-0.2,1.2-0.2c0.5,0,1,0,1.6,0     C374.3,30,384.9,30,384.9,30z"></path>
			<path d="M452.6,90h-10.8c-1,0.1-2.1-0.2-2.9-0.8c-0.7-0.6-1.3-1.3-1.7-2.2l-3.5-10.5h-22.8L407.3,87c-0.3,0.8-0.9,1.5-1.6,2.1     c-0.8,0.6-1.9,1-2.9,0.9h-10.9l23.2-60h14.2L452.6,90z M430.5,67.1l-5.6-16.4c-0.4-1-0.9-2.3-1.3-3.7s-0.9-3-1.4-4.6     c-0.4,1.7-0.9,3.2-1.3,4.7s-0.9,2.7-1.3,3.7l-5.5,16.3H430.5z"></path>
			<path d="M473.6,90h-14V30h14V90z"></path>
			<path d="M535,30v60h-7.2c-0.9,0-1.8-0.1-2.7-0.5c-0.8-0.4-1.6-1.1-2.2-1.8l-28.3-35.8c0.1,1.1,0.2,2.1,0.2,3.1s0.1,1.9,0.1,2.8     V90h-12.3V30h7.3c0.5,0,1,0,1.5,0.1c0.4,0.1,0.8,0.2,1.1,0.3c0.3,0.2,0.7,0.4,1,0.6c0.4,0.3,0.7,0.7,1,1.1l28.5,36     c-0.1-1.2-0.2-2.3-0.3-3.3s-0.1-2.1-0.1-3.1V30H535z"></path>
			<path d="M545,82.5c0-1,0.2-2,0.6-2.9c0.4-0.9,0.9-1.7,1.6-2.4c1.5-1.4,3.4-2.2,5.5-2.2c1,0,2,0.2,3,0.6c0.9,0.4,1.7,0.9,2.5,1.6     c0.7,0.7,1.3,1.5,1.6,2.4c0.4,0.9,0.6,1.9,0.6,2.9s-0.2,2.1-0.6,3c-0.4,0.9-0.9,1.7-1.6,2.4c-0.7,0.7-1.5,1.2-2.5,1.6     s-2,0.6-3,0.6c-1.1,0-2.1-0.2-3.1-0.6c-0.9-0.4-1.7-0.9-2.4-1.6s-1.2-1.5-1.6-2.4C545.2,84.6,545,83.5,545,82.5z"></path>
			<path d="M611.2,77.2c0.4,0,0.9,0.2,1.2,0.5l3.2,3.4c-2.4,2.8-5.4,5-8.7,6.5c-3.9,1.6-8.2,2.4-12.4,2.3c-3.9,0.1-7.8-0.7-11.5-2.2     c-3.3-1.4-6.3-3.5-8.8-6.1c-2.5-2.8-4.4-6-5.7-9.5c-1.4-3.9-2.1-8-2-12.2c0-4.1,0.7-8.3,2.1-12.2c1.3-3.5,3.3-6.8,5.9-9.5     c2.6-2.7,5.6-4.8,9.1-6.2c3.7-1.5,7.7-2.2,11.7-2.2c3.8-0.1,7.5,0.6,11.1,2c3.1,1.3,6,3.1,8.4,5.4l-2.6,3.7     c-0.2,0.3-0.4,0.5-0.6,0.7c-0.3,0.2-0.6,0.3-1,0.3c-0.7-0.1-1.3-0.4-1.8-0.8c-0.9-0.6-1.8-1.2-2.8-1.8c-3.3-1.8-6.9-2.7-10.7-2.6     c-2.8,0-5.7,0.5-8.3,1.6c-2.5,1-4.7,2.6-6.5,4.5c-1.9,2.1-3.3,4.6-4.2,7.3c-1.1,3.1-1.6,6.4-1.5,9.7c-0.1,3.3,0.5,6.6,1.6,9.8     c0.9,2.7,2.4,5.2,4.3,7.3c1.8,2,4,3.5,6.4,4.5c2.5,1.1,5.3,1.6,8,1.6c1.6,0,3.2-0.1,4.7-0.3c1.3-0.2,2.6-0.5,3.9-1     c1.2-0.4,2.3-1,3.3-1.7c1.1-0.7,2.1-1.5,3-2.4C610.2,77.4,610.7,77.2,611.2,77.2z"></path>
			<path d="M676.5,60c0,4.1-0.7,8.2-2.1,12.1c-1.3,3.5-3.3,6.8-5.9,9.5c-2.6,2.7-5.7,4.8-9.2,6.2c-7.6,2.9-16,2.9-23.7,0     c-3.4-1.4-6.6-3.5-9.1-6.2c-2.6-2.7-4.6-6-5.9-9.5c-1.4-3.9-2.1-8-2.1-12.1s0.7-8.2,2.1-12.1c1.3-3.5,3.3-6.8,5.9-9.5     c2.6-2.7,5.7-4.8,9.1-6.2c7.6-2.9,16-2.9,23.7,0c3.5,1.4,6.6,3.5,9.2,6.2c2.6,2.7,4.6,6,5.9,9.5C675.8,51.8,676.5,55.9,676.5,60z      M668.3,60c0.1-3.3-0.5-6.6-1.5-9.7c-0.9-2.7-2.3-5.2-4.2-7.3c-1.8-2-4.1-3.6-6.6-4.6c-5.5-2.1-11.7-2.1-17.2,0     c-2.5,1-4.7,2.6-6.6,4.6c-1.9,2.1-3.3,4.6-4.2,7.3c-1,3.1-1.5,6.4-1.5,9.7c-0.1,3.3,0.4,6.6,1.5,9.7c0.9,2.7,2.3,5.2,4.2,7.3     c1.8,2,4.1,3.5,6.6,4.6c5.5,2.1,11.7,2.1,17.2,0c2.5-1,4.7-2.5,6.6-4.5c1.9-2.1,3.3-4.6,4.2-7.3C667.9,66.6,668.4,63.3,668.3,60z     "></path>
			<path d="M744.9,30v60h-7.1V45.9c0-0.6,0-1.2,0.1-1.9s0.1-1.4,0.2-2l-20.6,37.5c-0.5,1.2-1.7,1.9-2.9,1.9h-1.2     c-1.3,0-2.4-0.7-2.9-1.9l-21-37.7c0.2,1.4,0.2,2.7,0.2,4.1V90h-7.1V30h6c0.6,0,1.1,0,1.7,0.2c0.5,0.2,0.9,0.7,1.1,1.2L712,68.3     c0.3,0.7,0.7,1.4,1,2.1s0.6,1.5,0.9,2.2c0.3-0.8,0.6-1.5,0.9-2.2c0.3-0.7,0.6-1.4,1-2.1l20.3-36.9c0.2-0.5,0.6-0.9,1.1-1.2     c0.5-0.2,1.1-0.2,1.7-0.2H744.9z"></path>
			<path d="M41.2,90l0.2-60h21.1c16.3,0,26.1,10.4,25.7,30.5C87.9,79.7,77.7,90,62.4,90H41.2z M61.1,76.2c4.8-0.4,10.8-2.4,10.8-16     s-7.1-16.5-11-16.6c-0.5,0-3,0-3.5,0.1v32.5H61.1z"></path>
			<path d="M88.4,93.1c-18.5,16.1-46.6,14.1-62.6-4.4s-14.1-46.6,4.4-62.6S76.7,12,92.8,30.5c16,18.4,14.1,46.3-4.2,62.4h21.6     c18.1-27.7,10.3-64.8-17.4-83S27.9-0.4,9.8,27.3s-10.3,64.8,17.4,83c18.4,12,41.8,13,61.2,2.6V93.1z"></path>
			<path d="M110.2,106.3c0,4.5-3.7,8.2-8.2,8.2s-8.2-3.7-8.2-8.2s3.7-8.2,8.2-8.2l0,0C106.6,98.1,110.2,101.8,110.2,106.3     L110.2,106.3"></path>
		</g>
	</g>
</g>
<g id="_x2E_com_x5F_site">
	<g id="_x30_1_x5F_Home_x5F_desktop" transform="translate(-749.000000, -2190.000000)">
		<g id="domain" transform="translate(749.000000, 2190.000000)">
			<path id="Shape" d="M94.5,114.2L94.5,114.2 M152,0.2h3.4v119.5H152V0.2z"></path>
		</g>
	</g>
</g>
</svg>
