<?xml version="1.0" encoding="UTF-8"?>
<!-- Generator: Adobe Illustrator 24.3.0, SVG Export Plug-In . SVG Version: 6.00 Build 0)  -->
<svg xmlns="http://www.w3.org/2000/svg" xmlns:xlink="http://www.w3.org/1999/xlink" version="1.1" x="0px" y="0px" viewBox="0 0 575 155.5" style="enable-background:new 0 0 575 155.5;" xml:space="preserve">
<style type="text/css">
	.st0{display:none;}
	.st1{fill:#231F20;}
	.st2{fill-rule:evenodd;clip-rule:evenodd;}
	.st3{font-family:'Helvetica-Bold';}
	.st4{font-size:29.93px;}
</style>
<g id="trace" class="st0">
	
		<image style="display:inline;overflow:visible;" width="350" height="91" transform="matrix(1.7879 0 0 1.7879 -25.2659 -5.6414)">
	</image>
</g>
<g id="Layer_1">
	<path class="st1" d="M128.2,70.9c-3,3-6.7,5.3-10.7,6.7c-3.9,1.3-7.9,2-12,2c-8.4,0-16.6-3.2-22.7-9c-3-2.9-5.3-6.2-7-10   c-1.7-3.9-2.6-8.1-2.6-12.4s0.9-8.5,2.6-12.4c3.4-7.7,9.5-13.9,17.3-17.3c3.9-1.7,8.2-2.6,12.4-2.6c4.3,0,8.5,0.9,12.3,2.7   c3.8,1.8,7.3,4.3,10.3,7.3l-11.3,11.3c-1.5-1.7-3.4-3.1-5.6-4c-1.9-0.8-3.8-1.2-5.8-1.2c-2.1,0-4.3,0.4-6.2,1.3   c-3.9,1.7-7,4.8-8.7,8.7c-0.9,1.9-1.3,4.1-1.3,6.2c0,2.2,0.4,4.3,1.3,6.3c0.8,2,2,3.7,3.5,5.3c1.5,1.5,3.2,2.8,5.2,3.6   c2,0.9,4.1,1.4,6.2,1.4c2,0,4-0.6,5.8-1.6c1.9-1.1,3.8-2.3,5.6-3.6L128.2,70.9z"></path>
	<path class="st1" d="M163.6,16c4.2,0,8.4,0.9,12.2,2.6c3.7,1.7,7.1,4.1,9.9,7.1c5.8,6.2,9.1,14.4,9.1,22.8   c0.1,17.1-13.7,31.1-30.8,31.2c-0.1,0-0.3,0-0.4,0c-8.5,0-16.7-3.2-22.9-9c-3-2.8-5.4-6.2-7.1-9.9c-1.7-3.8-2.6-8-2.6-12.2   c0-4.3,0.9-8.5,2.6-12.5c3.4-7.8,9.6-14,17.4-17.4C155,16.9,159.3,16,163.6,16z M163.6,32.2c-2.1,0-4.3,0.4-6.2,1.3   c-1.9,0.9-3.7,2.1-5.2,3.6s-2.7,3.3-3.6,5.2c-1.8,4-1.8,8.5,0,12.5c0.8,1.9,2.1,3.7,3.6,5.1c1.5,1.5,3.3,2.7,5.2,3.5   c2,0.9,4.1,1.3,6.2,1.3c2.1,0,4.1-0.4,6-1.3c3.7-1.7,6.5-4.8,7.8-8.6c1.5-4,1.5-8.4,0-12.5c-0.7-1.9-1.7-3.7-3.1-5.2   c-1.3-1.5-2.9-2.7-4.7-3.6C167.7,32.6,165.7,32.1,163.6,32.2z"></path>
	<path class="st1" d="M295.8,48.5c0-2.2-0.4-4.3-1.3-6.3c-0.8-2-2-3.7-3.5-5.2s-3.3-2.7-5.2-3.6c-4-1.8-8.5-1.8-12.5,0   c-1.9,0.9-3.7,2.1-5.2,3.6s-2.7,3.3-3.6,5.2c-0.9,2-1.4,4.1-1.4,6.3v31.2h-14.8V48.5c0-2.2-0.5-4.3-1.4-6.3s-2.1-3.7-3.6-5.2   s-3.3-2.7-5.2-3.6c-2-0.9-4.1-1.4-6.2-1.4c-2.1,0-4.3,0.5-6.2,1.4s-3.7,2.1-5.1,3.6c-1.5,1.5-2.7,3.3-3.5,5.2   c-0.8,2-1.3,4.1-1.3,6.3v31.2h-15.1V48.5c0-8.5,3.2-16.7,9.1-22.9c2.8-2.9,6.2-5.3,9.9-7c3.8-1.7,8-2.6,12.2-2.6   c4.6-0.1,9.2,1,13.3,3.2c3.9,2.1,7.4,4.8,10.4,8c1.6-1.6,3.2-3.1,5-4.4c1.8-1.4,3.8-2.6,5.9-3.5c2-1,4.1-1.8,6.3-2.4   c2.1-0.6,4.3-0.9,6.5-0.9c4.3,0,8.5,0.9,12.5,2.6c7.8,3.4,14.1,9.6,17.5,17.3c1.8,4,2.7,8.2,2.6,12.6v31.2h-16.4V48.5H295.8z"></path>
	<path class="st1" d="M349.6,15.9c1.5,0,3.1,0.2,4.5,0.5c1.5,0.3,2.9,0.7,4.4,1.1c1.4,0.4,2.7,1,4,1.6c1.1,0.5,2.2,1.1,3.2,1.8v-20   H382v47.5c0,4.2-0.9,8.4-2.6,12.3c-5.3,11.6-17,19.1-29.8,19c-8.3,0.1-16.3-3.2-22.3-9c-2.8-2.9-5.1-6.3-6.7-10   c-1.7-3.9-2.5-8.1-2.5-12.3c0-4.3,0.8-8.5,2.5-12.5c1.6-3.8,3.9-7.3,6.7-10.3c2.9-3,6.3-5.4,10-7C341.2,16.7,345.3,15.8,349.6,15.9   z M349.6,32.2c-2.1,0-4.1,0.4-6,1.3c-1.8,0.8-3.4,2-4.8,3.5s-2.5,3.3-3.2,5.2c-0.8,2-1.2,4.2-1.1,6.3c0,2.1,0.4,4.2,1.1,6.2   c0.7,1.9,1.8,3.7,3.1,5.2c1.3,1.5,3,2.7,4.8,3.6c1.9,0.9,3.9,1.3,6,1.3s4.2-0.4,6.1-1.3c3.9-1.7,7-4.9,8.7-8.7   c0.9-2,1.3-4.1,1.3-6.2c0-2.2-0.4-4.3-1.3-6.3c-0.9-1.9-2.1-3.7-3.6-5.1c-1.5-1.5-3.2-2.6-5.1-3.5   C353.7,32.6,351.7,32.2,349.6,32.2z"></path>
	<path class="st1" d="M449.1,36.1c-3.4-7.8-9.7-14-17.5-17.5c-3.9-1.8-8.2-2.7-12.5-2.6c-4.2,0-8.4,0.9-12.2,2.6   c-3.7,1.7-7.1,4.1-9.9,7.1c-5.8,6.2-9.1,14.4-9.1,22.9c0,4.2,0.8,8.3,2.4,12.2c3.1,7.5,9.1,13.4,16.5,16.5c3.9,1.6,8,2.4,12.2,2.4   c2.9,0,5.8-0.3,8.6-1c2.6-0.6,5.2-1.5,7.6-2.6v3.6h16.4V48.5C451.7,44.2,450.8,40,449.1,36.1z M434.1,54.7c-0.8,1.9-2,3.6-3.5,5.1   s-3.3,2.6-5.2,3.5c-2,0.8-4.1,1.3-6.2,1.3s-4.1-0.4-6-1.3c-1.8-0.8-3.4-2-4.8-3.5s-2.4-3.2-3.1-5.1c-0.8-2-1.2-4.1-1.1-6.2   c0-2.1,0.4-4.2,1.1-6.2c0.7-1.9,1.8-3.7,3.1-5.2c1.3-1.5,2.9-2.7,4.7-3.5c1.9-0.9,3.9-1.3,6-1.3c2.2,0,4.3,0.4,6.3,1.3   c3.9,1.7,7,4.8,8.7,8.7c0.9,2,1.3,4.1,1.3,6.2C435.3,50.7,434.9,52.8,434.1,54.7L434.1,54.7z"></path>
	<path class="st1" d="M473.8,48.5c0-4.3,0.8-8.5,2.5-12.4c1.6-3.8,3.8-7.3,6.7-10.3c2.8-3,6.2-5.4,10-7.1c3.9-1.8,8-2.7,12.3-2.6   v16.2c-2.1,0-4.2,0.4-6,1.3c-1.8,0.9-3.4,2.1-4.8,3.6c-1.3,1.5-2.4,3.3-3.1,5.2c-0.8,2-1.2,4.1-1.1,6.2c0,4.2-0.9,8.4-2.6,12.2   c-1.7,3.7-4.1,7.1-7.1,9.9c-3,2.8-6.5,5.1-10.3,6.6c-3.9,1.6-8.2,2.4-12.4,2.4v-15c2.1,0,4.3-0.4,6.2-1.3c1.9-0.8,3.7-2,5.1-3.5   c1.5-1.5,2.6-3.3,3.5-5.2C473.4,52.8,473.9,50.6,473.8,48.5z"></path>
	<path class="st1" d="M526.3,20.8c2.1-1.8,4.5-3.1,7.2-3.7c2.9-0.8,5.9-1.2,8.9-1.1c4.2,0,8.4,0.9,12.3,2.6c3.8,1.7,7.2,4.1,10,7.1   c5.8,6.2,9,14.4,9,22.8v31.2h-14.9V48.5c0-2.2-0.5-4.3-1.3-6.3s-2-3.7-3.5-5.2s-3.3-2.7-5.2-3.6c-2-0.9-4.1-1.3-6.3-1.3   c-2.1,0-4.3,0.4-6.2,1.3c-3.9,1.7-7,4.9-8.6,8.8c-0.8,2-1.3,4.1-1.3,6.3v31.2h-15.1V0.8h15.1v20H526.3z"></path>
	<path d="M64.6,48.7c0.1-12.8-7.3-24.5-19-29.8c-3.8-1.8-8-2.7-12.2-2.6c-4.5,0-8.9,0.9-13,2.6c-3.8,1.7-7.3,4-10.3,7   C4.2,32,0.9,40.2,0.9,48.7C0.8,57,4.1,65,10.1,70.8c3,2.9,6.4,5.1,10.3,6.7c5.9,2.3,12.4,3,18.7,1.9c2-0.3,3.9-0.9,5.8-1.6   c1.9-0.7,3.7-1.6,5.3-2.7c1.7-1.1,3.1-2.4,4.4-3.9l-10-11.4c-3.7,3.3-7.4,4.9-11.2,4.9c-3.2,0-6.3-0.8-9.1-2.3   c-2.6-1.4-4.7-3.7-5.9-6.4h46.3L64.6,48.7L64.6,48.7z M17.8,43.2c0.4-3.3,1.8-6.5,4.1-9c1.3-1.5,2.9-2.7,4.7-3.5   c1.9-0.9,3.9-1.3,6-1.3s4.3,0.4,6.2,1.3c3.9,1.7,7,4.8,8.7,8.7c0.5,1.2,0.8,2.5,1,3.8H17.8z"></path>
	<path d="M198.5,4.3c-1.5-0.9-19.2,18.3-35.3,36.4c-4.5-0.3-8.3,3.1-8.6,7.5c-0.3,4.5,3.1,8.3,7.5,8.6c4.5,0.3,8.3-3.1,8.6-7.5   c0.1-1.3-0.1-2.6-0.6-3.7C184.5,26.4,199.9,5.3,198.5,4.3z"></path>
	<path d="M172.6,45.8c1.7,5.3-1.2,11-6.6,12.7c-5.3,1.7-11-1.2-12.7-6.6c-1.7-5.3,1.2-11,6.6-12.7c0.5-0.2,1-0.3,1.5-0.4l2.1-2.2   c-6.8-0.4-12.6,4.9-13,11.7s4.9,12.6,11.7,13c6.8,0.4,12.6-4.9,13-11.7c0.1-1.9-0.2-3.8-1-5.6L172.6,45.8z"></path>
	<g>
		<path class="st2" d="M474.7,132.1c-0.5-0.7-1-0.9-1.9-0.4c-1.2,0.7-2.7,1.1-4.3,1.1c-4.3,0-7.2-2.9-7.2-7.1s2.9-7.1,7.2-7.1    c1.4,0,3,0.4,4.3,1.1c0.9,0.5,1.4,0.4,1.9-0.4l0.5-0.7c0.5-0.8,0.4-1.4-0.3-1.9c-1.9-1.2-3.9-1.8-6.3-1.8c-3.3,0-6.3,1.1-8.3,3.2    c-2,2-3,4.6-3,7.6c0,2.9,1,5.6,3,7.6c2.1,2.1,4.9,3.2,8.3,3.2c2.5,0,4.5-0.6,6.4-1.9c0.6-0.5,0.7-1,0.2-1.8L474.7,132.1z"></path>
		<path class="st2" d="M484.7,120.7c-4.6,0-8.2,3.5-8.2,8c0,4.5,3.6,8,8.2,8c4.6,0,8.2-3.5,8.2-8    C492.9,124.3,489.2,120.7,484.7,120.7z M484.7,133.2c-2.5,0-4.4-2-4.4-4.6s1.9-4.6,4.4-4.6c2.5,0,4.4,2,4.4,4.6    C489,131.2,487.1,133.2,484.7,133.2z"></path>
		<path class="st2" d="M504.1,120.7c-2.2,0-3.9,0.9-4.6,2.6v-0.9c0-0.9-0.5-1.3-1.3-1.3h-1.3c-0.9,0-1.3,0.5-1.3,1.3v12.5    c0,0.9,0.5,1.3,1.3,1.3h1.3c0.9,0,1.3-0.5,1.3-1.3v-6.1c0-1.6,0.8-4.7,3.8-4.7c1.6,0,2.6,1.3,2.6,3.6v7.1c0,0.9,0.5,1.3,1.3,1.3    h1.3c0.9,0,1.3-0.5,1.3-1.3v-7.3C509.8,123.2,507.7,120.7,504.1,120.7z"></path>
		<path class="st2" d="M539.4,121.1h-1.3c-0.9,0-1.3,0.5-1.3,1.3v0.7c-1.1-1.5-2.9-2.4-4.9-2.4c-4.3,0-7.4,3.3-7.4,8    c0,4.6,3.1,8,7.4,8c2.1,0,3.8-0.9,4.9-2.4v0.7c0,0.9,0.5,1.3,1.3,1.3h1.3c0.9,0,1.3-0.5,1.3-1.3v-12.5    C540.8,121.5,540.3,121.1,539.4,121.1z M532.5,133.2c-2.5,0-4.2-1.9-4.2-4.6c0-2.7,1.7-4.6,4.2-4.6c2.5,0,4.3,1.9,4.3,4.6    C536.8,131.3,535.1,133.2,532.5,133.2z"></path>
		<path class="st2" d="M552.1,124.1c0.5,0,1.5,0.1,2.6,0.6c0.9,0.4,1.4,0.3,1.9-0.4l0.4-0.5c0.3-0.4,0.4-0.8,0.3-1    c-0.1-0.3-0.3-0.6-0.7-0.9c-1.8-1-3.5-1.3-4.6-1.3c-5.1,0-8.6,3.3-8.6,8.1c0,4.6,3.6,7.8,8.6,7.8c1,0,2.7-0.2,4.3-1    c0.5-0.3,0.9-0.7,0.9-1c0.1-0.4,0-0.7-0.3-1l-0.4-0.5c-0.5-0.7-1-0.8-1.9-0.3c-1.1,0.6-2.4,0.6-2.6,0.6c-2.8,0-4.8-1.9-4.8-4.6    C547.3,126,549.3,124.1,552.1,124.1z"></path>
		<path class="st2" d="M569.4,132.3c-0.2-0.2-0.3-0.3-0.5-0.3s-0.4,0.1-0.6,0.3l-0.1,0.1l0,0c-0.1,0.2-0.6,0.6-1.2,0.7l0,0    c-0.2,0-0.4,0.1-0.6,0c-0.9-0.1-1.3-0.7-1.3-1.8V124h3.6c0.5,0,0.8-0.3,0.8-0.8v-1.5c0-0.5-0.3-0.8-0.8-0.8h-3.6v-1.3l0,0v-1.5    c0-0.9-0.5-1.3-1.3-1.3h-1.2c-0.9,0-1.3,0.5-1.3,1.3v2.7h-1.5c-0.5,0-0.8,0.3-0.8,0.8v1.5c0,0.5,0.3,0.8,0.8,0.8h1.5v1.6l0,0v5.8    c0,4.6,3.2,5.3,5.1,5.3c0.7,0,1.2-0.1,1.8-0.2l0,0c0.3-0.1,0.6-0.2,0.9-0.4c0.5-0.2,0.8-0.5,1.1-0.9c0.2-0.2,0.4-0.4,0.5-0.6    c0.3-0.3,0.2-0.7-0.1-1L569.4,132.3z"></path>
		<path class="st2" d="M522.1,132.3c-0.2-0.2-0.3-0.3-0.5-0.3c-0.2,0-0.4,0.1-0.6,0.3l-0.1,0.1l0,0c-0.1,0.2-0.6,0.6-1.1,0.7l0,0    c-0.2,0-0.4,0.1-0.6,0c-0.9-0.1-1.3-0.7-1.3-1.8V124h3.6c0.5,0,0.8-0.3,0.8-0.8v-1.5c0-0.5-0.3-0.8-0.8-0.8h-3.6v-1.3v-1.5    c0-0.9-0.5-1.3-1.3-1.3h-1.2c-0.9,0-1.3,0.5-1.3,1.3v2.7h-1.5c-0.5,0-0.8,0.3-0.8,0.8v1.5c0,0.5,0.3,0.8,0.8,0.8h1.5v1.6v5.8    c0,4.6,3.2,5.3,5.1,5.3c0.7,0,1.2-0.1,1.8-0.2l0,0c0.3-0.1,0.6-0.2,0.9-0.4c0.5-0.2,0.8-0.5,1.1-0.9c0.2-0.2,0.4-0.4,0.5-0.6    c0.3-0.3,0.2-0.7-0.1-1L522.1,132.3z"></path>
	</g>
	<g>
		<path class="st2" d="M338.8,132.1c-0.5-0.7-1-0.9-1.9-0.4c-1.2,0.7-2.7,1.1-4.3,1.1c-4.3,0-7.2-2.9-7.2-7.1c0-4.2,2.9-7.1,7.2-7.1    c1.4,0,3,0.4,4.3,1.1c0.9,0.5,1.4,0.4,1.9-0.4l0.5-0.7c0.5-0.8,0.4-1.4-0.3-1.9c-1.9-1.2-3.9-1.8-6.3-1.8c-3.3,0-6.3,1.1-8.3,3.2    c-2,2-3,4.6-3,7.6c0,2.9,1,5.6,3,7.6c2.1,2.1,4.9,3.2,8.3,3.2c2.5,0,4.5-0.6,6.4-1.9c0.6-0.5,0.7-1,0.2-1.8L338.8,132.1z"></path>
		<path class="st2" d="M348.8,120.7c-4.6,0-8.2,3.5-8.2,8c0,4.5,3.6,8,8.2,8c4.6,0,8.2-3.5,8.2-8C357,124.2,353.3,120.7,348.8,120.7    z M348.8,133.1c-2.5,0-4.4-2-4.4-4.5c0-2.6,1.9-4.6,4.4-4.6c2.5,0,4.4,2,4.4,4.6C353.1,131.1,351.2,133.1,348.8,133.1z"></path>
		<path class="st2" d="M368.2,120.7c-2.2,0-3.9,0.9-4.6,2.6v-0.9c0-0.9-0.5-1.3-1.3-1.3h-1.3c-0.9,0-1.3,0.5-1.3,1.3v12.5    c0,0.9,0.5,1.3,1.3,1.3h1.3c0.9,0,1.3-0.5,1.3-1.3v-6.1c0-1.6,0.8-4.7,3.8-4.7c1.6,0,2.6,1.3,2.6,3.6v7.1c0,0.9,0.5,1.3,1.3,1.3    h1.3c0.9,0,1.3-0.5,1.3-1.3v-7.3C373.9,123.2,371.8,120.7,368.2,120.7z"></path>
		<path class="st2" d="M383.8,127.3l-2-0.7c-1-0.3-1.4-0.8-1.4-1.4c0-0.9,0.8-1.4,1.7-1.4c0.7,0,1.2,0.2,1.5,0.7    c0.5,0.6,0.9,0.8,1.7,0.7l0.7-0.2c0.5-0.1,0.9-0.4,0.9-0.8c0.1-0.3,0.1-0.7-0.2-1c-0.9-1.6-2.6-2.5-4.7-2.5c-3.1,0-5.4,2-5.4,4.7    c0,2,1.3,3.5,4.1,4.4l1.9,0.7c1.1,0.4,1.5,0.9,1.5,1.4c0,0.9-0.9,1.5-2.1,1.5c-0.9,0-1.9-0.4-2.4-1c-0.5-0.6-0.9-0.9-1.7-0.8    l-0.8,0.2c-0.5,0.1-0.9,0.4-0.9,0.7c-0.1,0.3-0.1,0.7,0.1,1l0,0c0.9,1.9,3,3,5.7,3c4,0,5.8-2.4,5.8-4.7    C387.8,130.3,387.1,128.4,383.8,127.3z"></path>
		<path class="st2" d="M409,136.5c2.1,0,3.8-0.9,4.9-2.4v0.7c0,0.9,0.5,1.3,1.3,1.3h1.3c0.9,0,1.3-0.5,1.3-1.3v-12.4    c0-0.9-0.5-1.3-1.3-1.3h-1.3c-0.9,0-1.3,0.5-1.3,1.3v0.7c-1.1-1.5-2.9-2.4-4.9-2.4c-4.3,0-7.4,3.3-7.4,8    C401.5,133.2,404.7,136.5,409,136.5z M409.7,124c2.5,0,4.3,1.9,4.3,4.6c0,2.7-1.8,4.6-4.3,4.6s-4.2-1.9-4.2-4.6    C405.6,125.9,407.3,124,409.7,124z"></path>
		<path class="st2" d="M430.1,120.7c-2.2,0-3.9,0.9-4.6,2.6v-0.9c0-0.9-0.5-1.3-1.3-1.3h-1.3c-0.9,0-1.3,0.5-1.3,1.3v12.5    c0,0.9,0.5,1.3,1.3,1.3h1.3c0.9,0,1.3-0.5,1.3-1.3v-6.1c0-1.6,0.8-4.7,3.8-4.7c1.6,0,2.6,1.3,2.6,3.6v7.1c0,0.9,0.5,1.3,1.3,1.3    h1.3c0.9,0,1.3-0.5,1.3-1.3v-7.3C435.8,123.2,433.7,120.7,430.1,120.7z"></path>
		<path class="st2" d="M448.8,133.6l-0.9-1.2c-0.2-0.2-0.3-0.3-0.5-0.3c-0.2,0-0.4,0.1-0.6,0.3l-0.1,0.1l0,0    c-0.1,0.2-0.6,0.6-1.2,0.7l0,0c-0.2,0-0.4,0.1-0.6,0c-0.9-0.1-1.3-0.7-1.3-1.8V124h3.6c0.5,0,0.8-0.3,0.8-0.8v-1.4    c0-0.5-0.3-0.8-0.8-0.8h-3.6v-1.3v-1.5c0-0.9-0.5-1.3-1.3-1.3h-1.2c-0.9,0-1.3,0.5-1.3,1.3v2.7h-1.5c-0.5,0-0.8,0.3-0.8,0.8v1.5    c0,0.5,0.3,0.8,0.8,0.8h1.5v7.1c0,4.6,3.2,5.3,5.1,5.3c0.7,0,1.2-0.1,1.8-0.2l0,0c0.3-0.1,0.6-0.2,0.9-0.4    c0.5-0.2,0.8-0.5,1.1-0.9c0.2-0.2,0.4-0.4,0.5-0.6C449.2,134.2,449.2,133.8,448.8,133.6z"></path>
		<path class="st2" d="M389.7,124.1h1.5v1.3v5.8c0,4.6,3.2,5.3,5.1,5.3c0.7,0,1.2-0.1,1.8-0.2l0,0c0.3-0.1,0.6-0.2,0.9-0.4    c0.5-0.2,0.8-0.5,1.1-0.9c0.2-0.2,0.4-0.4,0.5-0.6c0.3-0.3,0.2-0.7-0.1-1l-0.9-1.2c-0.2-0.2-0.3-0.3-0.5-0.3    c-0.2,0-0.4,0.1-0.6,0.3l-0.1,0.1l0,0c-0.1,0.2-0.6,0.6-1.1,0.7l0,0c-0.2,0-0.4,0.1-0.6,0c-0.9-0.1-1.3-0.7-1.3-1.8v-7.3h3.6    c0.5,0,0.8-0.3,0.8-0.8v-1.3c0-0.5-0.3-0.8-0.8-0.8h-3.6v-1.3l0,0v-1.5c0-0.9-0.5-1.3-1.3-1.3h-1.2c-0.9,0-1.3,0.5-1.3,1.3v2.7    H390c-0.5,0-0.8,0.3-0.8,0.8v1.5C388.9,123.8,389.2,124.1,389.7,124.1z"></path>
	</g>
	<path class="st2" d="M291.9,121.5c0.5,1.5,1.9,2.4,3.5,2.4c0.4,0,0.8-0.1,1.2-0.2c1.9-0.7,2.9-2.8,2.2-4.7   c-1.2-3.3-3.7-5.9-7.2-7.5c-1.8-0.8-4,0-4.9,1.8c-0.8,1.8,0,4,1.8,4.9C290.3,118.9,291.5,120.1,291.9,121.5z"></path>
	<path class="st2" d="M290.7,98.4c-2-0.4-3.9,0.9-4.3,2.9s0.9,3.9,2.9,4.3c8.3,1.7,14,7.2,15.4,15.3c0.3,1.8,1.9,3,3.6,3   c0.2,0,0.4,0,0.6-0.1c2-0.4,3.3-2.3,3-4.2C309.9,108.6,302,100.6,290.7,98.4z"></path>
	<path class="st2" d="M281.4,135c-3.3,0-6.1-2.7-6.1-6.1c0-3.3,2.7-6.1,6.1-6.1c2,0,3.7-1.6,3.7-3.7c0-2-1.6-3.7-3.7-3.7   c-7.4,0-13.4,6-13.4,13.4c0,7.4,6,13.4,13.4,13.4s13.4-6,13.4-13.4c0-2-1.6-3.7-3.7-3.7c-2,0-3.7,1.6-3.7,3.7   C287.5,132.3,284.8,135,281.4,135z"></path>
	<path class="st2" d="M303.6,125.3c-2,0-3.7,1.6-3.7,3.7c0,10.2-8.3,18.5-18.5,18.5s-18.5-8.3-18.5-18.5s8.3-18.5,18.5-18.5   c2,0,3.7-1.6,3.7-3.7c0-2-1.6-3.7-3.7-3.7c-14.2,0-25.8,11.6-25.8,25.9c0,14.2,11.6,25.8,25.8,25.8s25.8-11.6,25.8-25.8   C307.2,126.9,305.6,125.3,303.6,125.3z"></path>
	<text transform="matrix(1 0 0 1 211.5479 135.4009)" class="st3 st4">by</text>
</g>
</svg>
