<?xml version="1.0" encoding="UTF-8"?>
<!-- Generator: Adobe Illustrator 24.3.0, SVG Export Plug-In . SVG Version: 6.00 Build 0)  -->
<svg xmlns="http://www.w3.org/2000/svg" xmlns:xlink="http://www.w3.org/1999/xlink" version="1.1" id="Layer_1" x="0px" y="0px" viewBox="0 0 491.5 88.9" style="enable-background:new 0 0 491.5 88.9;" xml:space="preserve">
<style type="text/css">
	.st0{fill:#231F20;}
	.st1{fill-rule:evenodd;clip-rule:evenodd;fill:#767676;}
	.st2{fill-rule:evenodd;clip-rule:evenodd;fill:#505050;}
	.st3{fill-rule:evenodd;clip-rule:evenodd;fill:#CBCBCB;}
	.st4{fill-rule:evenodd;clip-rule:evenodd;fill:#B1B1B1;}
	.st5{fill-rule:evenodd;clip-rule:evenodd;fill:#A8A8A8;}
	.st6{fill:#F1F1F1;}
	.st7{fill-rule:evenodd;clip-rule:evenodd;fill:#8E8E8E;}
	.st8{fill-rule:evenodd;clip-rule:evenodd;fill:#EEEEEE;}
</style>
<path class="st0" d="M198.6,59.5c0.6,3.7,4,5.1,7.7,5.1s6.6-1.6,6.6-3.5c0.1-2.9-2.1-4.6-5.3-5.2c-2.2-0.4-8.8-1.7-8.8-1.7  c-8.1-1.5-12.6-3.8-12.6-10.6c0-8.9,7.7-14.7,18.7-14.7c10.8,0,18,4.9,19.8,12.5l-12.6,2.5c-0.4-2.7-3-5.1-7.3-5.1  c-3.7,0-5.6,1.6-5.9,3.4c-0.2,1.2,0.3,2.2,4.3,3c2.6,0.5,10.2,2.1,10.2,2.1c8.2,1.7,12,6.7,12,13.1c0,9.6-8.3,14.7-19.8,14.7  c-10.2,0-19-3.7-20.4-12.7L198.6,59.5z"></path>
<path class="st0" d="M325,39.8c0.2,1.8,0.3,3.5,0.4,5.3c0,17.7-12.6,30.4-30.2,30.4S263.7,62.1,263.7,45s13.7-30.5,31.2-30.5  c13,0,24.4,6.1,28.5,17.5l-13.8,4c-3.4-6.6-9-8.4-14.6-8.4c-9.5,0-16.7,7.5-16.7,17.3s7.4,17.4,17.1,17.4c7.7,0,13.2-4,15.4-10.4  h-18V39.8H325z"></path>
<path class="st0" d="M132.5,73.2h-14.3V50.1H93.6v23H79.3V14.8h14.4v22.7h24.6V14.8h14.3v58.4H132.5z"></path>
<path class="st0" d="M184.2,51.3c0,13.8-11,23.1-23.9,23.1c-13.2,0-24.2-9.2-24.2-23.1s11-23,24.2-23  C173.2,28.3,184.2,37.6,184.2,51.3z M170.8,51.3c0-6.8-5.1-11.3-10.5-11.3c-6,0.1-10.9,5-10.8,11c0,0.1,0,0.2,0,0.3  c0,6.9,5.1,11.3,10.8,11.3C165.7,62.6,170.8,58.2,170.8,51.3z"></path>
<path class="st0" d="M264.2,71.2c-3.6,2.1-7.7,3.2-11.9,3.2c-10.9,0-17.4-5.9-17.4-17.4V40.5H227v-11h7.9V17.8l13.9-3v14.6h12.9v11  h-12.9v15.2c0,4.5,2.2,6.4,5.8,6.4c2.2-0.1,4.4-0.7,6.4-1.7L264.2,71.2z"></path>
<path class="st0" d="M369.4,45.5v27.7H356V70c-3.6,3.1-8.3,4.7-13.1,4.5c-9.7,0-16.3-5.7-16.3-14.3s6.6-14.1,18.2-14.1h11.1v-0.9  c0.2-3.2-2.3-6-5.5-6.1c-0.2,0-0.4,0-0.6,0c-4.2,0-6.6,1.7-7.3,5.5l-13.1-2.7c1.9-8.4,9.6-13.8,20-13.8  C361.6,28.1,369.4,34.3,369.4,45.5z M356,55.9v-1h-9.6c-3.5,0-5.6,1.8-5.6,4.5s2.4,4.5,6.1,4.5C351.6,64,356,60.8,356,55.9L356,55.9  z"></path>
<path class="st0" d="M408.7,71.2c-3.6,2.1-7.7,3.2-11.9,3.2c-10.9,0-17.4-5.9-17.4-17.4V40.5h-7.9v-11h7.9V17.8l13.9-3v14.6h12.9v11  h-12.9v15.2c0,4.5,2.2,6.3,5.8,6.3c2.2-0.1,4.4-0.7,6.4-1.7L408.7,71.2z"></path>
<path class="st0" d="M454.7,51.3c0,13.8-11,23.1-23.9,23.1c-13.2,0-24.2-9.2-24.2-23.1s11-23,24.2-23  C443.7,28.3,454.7,37.6,454.7,51.3z M441.3,51.3c0-6.8-5.1-11.3-10.5-11.3c-6,0.1-10.9,5-10.8,11c0,0.1,0,0.2,0,0.3  c0,6.9,5.1,11.3,10.8,11.3C436.1,62.6,441.3,58.2,441.3,51.3z"></path>
<path class="st0" d="M490.3,29.2l-0.6,13.9h-2.5c-9.7,0-15,5-15,16.4v13.7h-13.9V32.5l13.9-3v8.4c3.1-5.2,7.9-9,15-9  C488.2,28.8,489.2,28.9,490.3,29.2L490.3,29.2z"></path>
<g>
	<g>
		<path class="st1" d="M48.1,64.5c-2.4,2.4-4.9,5.6-7.3,7.9c1.2,6.2-1.1,8.8,1.6,11.1c1,0.8,7,2.5,10.4,0.5c0.1-3.2-1.7-4.1-3.5-5.3    C47.5,74.7,48.1,68.5,48.1,64.5"></path>
		<path class="st2" d="M49.5,84.9c-0.4-1.8-1.7-3.3-3.4-4c1.4,0.8,2.2,2.4,2.1,4C48.7,84.9,49.1,84.9,49.5,84.9z"></path>
		<path class="st2" d="M52.4,84.3c-0.4-1.8-1.7-3.3-3.4-4c1.8,1.4,2.3,2.8,2.1,4.4C51.6,84.6,52,84.4,52.4,84.3z"></path>
		<path class="st1" d="M45.3,32.7c-1.3,1.8-1.8,5.7,8.2,11.3c0,0-4.2,7.3-5.5,8.6s-2.1,4.9-0.8,6.7c0.7,0.9,1.4,1.8,2.3,2.6    c0,0,3.3,0.6,4.7-0.2c1.8-1.9,2.2-4.8,1-7.1c0,0,8.4-8.8,7.9-11.5S49.3,26.9,45.3,32.7z"></path>
		<path class="st2" d="M55.1,54.5c0,0-3.4,2.8-4.3,3.3c0.7-0.2,1.4-0.5,2-0.9c0,0,1.5,1.9,0.4,3.4c0,0,2-1.2,0.7-3.9    c0.5-0.6,0.9-1.2,1.3-1.8L55.1,54.5z"></path>
		<path class="st1" d="M19.9,52.9c0,0.7-0.2,1.3-0.6,1.8c-0.6,0.9-0.9,0.8,0.5,1.6c1.1,0.5,2.2,0.9,3.4,1.1c2,0.3,1.5,0.1,0.7-1.8    c-0.4-0.9-0.9-1.7-1.4-2.5C20.5,50.3,19.9,50.5,19.9,52.9"></path>
		<path class="st1" d="M12.7,51.9c-0.7,1.4,0.4,1.6,1.8,2.1c0.5,0.2,1.1,0.3,1.7,0.4c1.6,0.2,1.2-0.1,0.5-1.4    c-0.4-0.8-0.9-1.6-1.4-2.4C12.4,46.5,13.8,49.9,12.7,51.9"></path>
		<path class="st1" d="M6.5,51.3c0,0.3,0,0.6,0,0.9c-0.1,1.1-0.2,1,1.2,1.1c0.6,0.1,1.3,0.1,1.9,0c1.8-0.3,1.1-0.9,0.2-2    c-0.3-0.4-0.7-0.7-1.1-1C5.1,47.6,6.5,49.5,6.5,51.3"></path>
		<path class="st1" d="M30.3,11.1c0,0-10.2,5.3-10.1,6.9s2.9,1.4,4,3.7c0,0-6.2,4.3-5.8,6.3s4.4,1.3,5.4,2.8c0,0-1,3.9-0.1,5.4    s0.8,0.2,2,2C25.8,38.3,25.1,23.6,30.3,11.1z"></path>
		<path class="st1" d="M28.2,15.9c3.6,3.4,8.1,5.6,12.3,8.2c2.8,1.7,5.4,3.9,7.4,6.5c2.5,3.3,1,7.2,1.6,11.3    c0.2,1.4,0.3,2.8,0.3,4.2c0.1,2.5,0,5.1-0.2,7.6c-0.6,6.1-0.9,11-5.2,15.5c-5.3,5.7-11.2,7-17.9,2.1c-2.4-1.5-4.5-3.4-6.4-5.5    c-1.4-1.6-3.1-2.6-4.5-4.1c-1.9-2-4.1-3.6-6.6-4.7c-2.6-1-4.4,0.4-5.6,0.9c-0.6,0.3-1.5,0.9-2.3,0.3c-0.3-0.2-0.4-0.6-0.2-0.9    c0.4-0.9,1-1.7,1.7-2.4c3.9-3.6,10.3-3.7,15-1.2c1.8,1,3.7,2,5.8,2.2c1.5,0.2,2.9-0.2,4.1-1.2c0.9-0.8,1.5-1.9,1.7-3.1    c0.3-1.7,0.2-3.4-0.3-5c-0.8-2.3-2.2-4.4-3-6.7c-3-7.8-4-16.7,0.9-24l0.7-1L28.2,15.9z"></path>
		<path class="st3" d="M9.9,57.4c3.4,1.7,7.1,5.6,10.6,9.7c4.6,5.4,16,13.5,25.5,0.9c8.9-11.9,4.7-28.5,4.2-30.4l-0.1-0.2    c-0.3-0.4-8.2-10.5-15.5-12c-1.9,1.7-2.3,4.7,0.3,9.8c4.3,8.6,7.8,21.2,0.1,28.9c-1.2,1.2-2.6,2.1-4.1,2.6    c-5.5,1.8-8.4-1.5-11.8-4.7C16.5,59.4,13.3,57.9,9.9,57.4z"></path>
		<path class="st4" d="M47.1,66.4c-3.3-0.4-6.5-1.7-9.2-3.8c1.9,2.8,4.8,4.7,8.1,5.3C46.4,67.5,46.8,67,47.1,66.4z"></path>
		<path class="st4" d="M31.6,67.2c1.3,2.8,3.2,5.2,5.5,7.2c0.7-0.2,1.5-0.4,2.2-0.7C36.2,72.3,33.5,70.1,31.6,67.2z"></path>
		<path class="st4" d="M19.9,66.5l0.6,0.7l0.3,0.3c-0.2-0.8-0.1-1.7,0.2-2.4C20.6,65.5,20.3,66,19.9,66.5z"></path>
		<path class="st4" d="M23.8,70.3c0.4,0.3,0.8,0.6,1.2,1c-0.3-1.4-0.4-2.8,0-3.6C24.6,68.5,24.1,69.4,23.8,70.3z"></path>
		<path class="st5" d="M16.3,62.5l0.9,0.9c0-0.6,0.1-1.3,0.2-1.9C17,61.8,16.6,62.1,16.3,62.5z"></path>
		<path class="st4" d="M40.4,56.1c3.5-1,7.2-1,10.7,0c0.1-0.5,0.2-1,0.2-1.5C44.3,53,40.4,56.1,40.4,56.1z"></path>
		<path class="st4" d="M51.5,45.2c-0.1-0.6-0.1-1.2-0.2-1.7c-7.4-0.2-11.2,3.4-11.2,3.4C43.6,45.1,47.6,44.5,51.5,45.2z"></path>
		<path class="st4" d="M48.6,35.5c-0.3-0.3-0.6-0.7-1-1.1c-7.9,0-10,3.7-10,3.7C40.8,36,44.7,35.1,48.6,35.5z"></path>
		<path class="st4" d="M51.4,44c-0.2-1.8-0.5-3.5-0.9-5.3l-0.6-0.3c-2.5-1.6-13.5-8.3-16.8-10.3c-0.1,0.5-0.1,1,0,1.5    C36.5,34.3,44.2,42.4,51.4,44z"></path>
		<path class="st1" d="M26.3,63.3c1-1.5,2.8-2.3,4.6-2.2c5.1,0.7,3.5,6.7,2.2,10.2c-0.8,2.5-1.3,5.2-1.4,7.8c0,3.5,1.3,4.5-0.3,5.9    c-2.6,1.8-5.7,2.7-8.8,2.5c-2.8-0.6-2.9-6.4,1.6-7.9c1.2-2.7,1.2-5.5,1.1-8.3C25.2,69.2,25,65.2,26.3,63.3"></path>
		<path class="st2" d="M25.2,87.4c0.4-0.1,0.8-0.1,1.2-0.2c-0.4-1.7,0.2-3.5,1.4-4.7C26,83.6,25.4,85.3,25.2,87.4z"></path>
		<path class="st2" d="M22.5,87.5c-0.4-1.9,0.1-3.8,1.3-5.2c-1.6,1-2.5,2.7-2.5,4.5C21.6,87.1,22,87.3,22.5,87.5z"></path>
		<path class="st2" d="M25.1,55.9c0,0-0.6,3.3,1.7,4.5c1.9,1,4.3,1,5.5-0.4c1.6-2,4-6-2.5-9.9c-4-2.4-4.2,5.8-4.2,5.8H25.1z"></path>
		<path class="st2" d="M25.7,39.9c0.8,1.8,1.6,3.3,1.7,3.4s5.3-6.5,4.3-7.6S26.5,38.4,25.7,39.9z"></path>
		<path class="st1" d="M30.8,30.3c5.7,5.5-6.1,12.7-6.1,12.7c1.3,0.8,2.9,3.6,4.1,5.6s1.7,1.7,3.2,3.4s-2.7,4.2-2.7,4.2    s-14.2-7.7-14.1-12.5c0-0.6,3.3-6.1,6.6-9.4C23.4,32.5,28.1,27.7,30.8,30.3z"></path>
		<path class="st1" d="M25.3,53.5c0,0-1,5.2,2.1,6.7c0,0,2.5,0.2,3.8-0.8c0,0,3.2-4.9,0.8-7.4S25.3,53.5,25.3,53.5z"></path>
		<path class="st2" d="M25.2,53.8c0,0,4.1,2.2,4.8,2.4c-0.7,0.1-1.4,0-2.1-0.3c0,0-1,2,0.2,3.2c0,0-1.9-0.3-1.2-3.5L25.2,53.8    L25.2,53.8z"></path>
		<path class="st1" d="M28.9,14.3c0,0,2.1-12.6,7.3-12.8c3.4-0.1,5.2,4.2,5.2,4.2c2.1,0,4.2,0.6,5.9,1.8c0,0,1-1.7,2.6-1.2    s3.4,4.2,2.8,10.2c1.6,0.2,3,1.2,3.7,2.6c-0.4,0.6-1.1,1-1.8,1.1c-1.1,0.1-5.7-1.6-7-0.5c-1.3,0.9-1.9,2.5-1.7,4    c0,0-5.2-0.5-7.4-3.5S34.2,11.7,28.9,14.3z"></path>
	</g>
	<path class="st6" d="M46.6,15.2c0,0,1.3-4.2,3.7-5.4c0.1,2,0.3,4.1,0.7,6.1C49.6,15.6,48.1,15.4,46.6,15.2z"></path>
	<path class="st6" d="M35.5,6.6c0,0,3.2,1.5,5.3,8.1c-2.4-0.4-4.8-0.6-7.2-0.6C34.8,11.7,35.4,9.2,35.5,6.6z"></path>
	<path class="st2" d="M36.8,9.5c0.8,0,1.4,0.9,1.4,1.9s-0.6,1.9-1.4,1.9s-1.4-0.9-1.4-1.9S36,9.5,36.8,9.5"></path>
	<path class="st2" d="M48.6,14.6c0.6,0,1.1-0.6,1.1-1.5s-0.5-1.5-1.1-1.5c-0.1,0-0.2,0-0.3,0.1c-0.3,0.4-0.6,0.8-0.8,1.3v0.1   C47.5,14,48,14.6,48.6,14.6z"></path>
	<path class="st5" d="M35.8,17.4c0,0-3.8-3-5.7-0.9c-2.3,2.6,0,6.6,0,6.6s0.3-1.7,1.1-2.3c0,0,0.3,5.4,9.2,11.5s12.7,5.4,14.6,4.9   s3.9-1.9,3.2-3.4S52.5,28,52.5,28s-1.9,0.2-5.7-1.1s-9-4-12.3-8.6C34.9,18,35.3,17.8,35.8,17.4"></path>
	<path class="st7" d="M33.6,24.5c5-1.2,10.2,0.2,13.8,3.7l-1-0.5c0,0,4.5-0.2,5.2,0.4c2.7,1.8,4.4,4.8,4.7,8   c0.1,1.5-3.5,2.4-11.7-1.6C39.5,31.9,33.6,24.5,33.6,24.5z"></path>
	<path class="st5" d="M43.5,25.5l0.2,0.1L43.5,25.5z"></path>
	<path class="st8" d="M52.1,28c0,0-1.1,4.5-2.8,4c-0.6-0.2-0.3-1.5-0.6-2.3s-0.9-2.6-0.9-2.6L52.1,28z"></path>
	<path class="st8" d="M60.5,26.3c0,0-0.3,4.6-2.1,4.4c-0.6-0.1-0.6-1.4-0.9-2.2s-1.4-2.4-1.4-2.4L60.5,26.3z"></path>
	<path class="st3" d="M62.3,22.2c-0.2-3.3-4.5-4.7-7.7-2.4c-2.6-0.6-5.4-2.3-8,0.3c-1,0.9-1.4,2.3-0.8,3.6c0,0-5.4-0.9-7.2-3.6   s-4.3-6.4-6.9-6.6c-1.4-0.1-3.7-0.3-5.1,2.3s-2,7.4,8,14.9s14.4,9.5,16.6,9.5c2.8,0,2.9-1,6.1-1.5c1.6-0.2,2.9-3,1.1-5.4   c-1.5-1.9-3.3-3.5-5.4-4.7c-0.1,0.1,3.9,3.3,4.6,4.8s-1.4,2.5-3.4,3s-4.4,1-13.2-5s-9.8-12.1-9.8-12.1c-1.1-0.2-1.2,2.3-1.2,2.3   s-1.3-2.8,0.4-4.5c2.1-2,4.2,0.5,4.2,0.5h-0.1C33.2,17,33,18.1,33,18.1c3.5,4.5,8.1,8,13.3,10.1c3.8,1.3,5.9-0.2,5.9-0.2   c1.8,0,3.7-0.2,5.5-0.4C59.3,27.2,62.6,26.6,62.3,22.2z"></path>
	<path class="st4" d="M49.5,21.9c0.9-0.3,1.6,0.9,0.4,1.5c-0.2,0.5,0.1,0.9,0.8,1.1c-0.7,0.3-1.6,0-1.9-0.7   C48.5,23.1,48.8,22.2,49.5,21.9L49.5,21.9"></path>
	<path class="st4" d="M59.7,21.5c-0.7-0.2-1.3,0.8-0.3,1.2c0.1,0.4-0.1,0.8-0.7,0.9C60.6,24,60.6,21.9,59.7,21.5"></path>
</g>
</svg>
