<?xml version="1.0" encoding="UTF-8"?>
<svg xmlns="http://www.w3.org/2000/svg" xmlns:xlink="http://www.w3.org/1999/xlink" width="311px" height="155px" viewBox="0 0 311 155" version="1.1">
  <title>iPage-logo</title>
  <g id="dot.com-assets" stroke="none" stroke-width="1" fill="none" fill-rule="evenodd">
    <g id="iPage-logo">
      <rect id="Rectangle" x="0" y="0" width="311" height="154.8"></rect>
      <g id="Group" transform="translate(85.000000, 0.000000)" fill="#231F20" fill-rule="nonzero">
        <path d="M9.5,75 L0,75 L0,0 L26.7,0 C35,0 41.1,2.3 45.1,6.8 C48.9,11 51,16.6 51,22.3 C51.2,28.3 48.8,34.1 44.6,38.3 C40.3,42.5 34.7,44.6 27.7,44.6 L9.5,44.6 L9.5,75 Z M9.5,36.7 L26.7,36.7 C30.7,36.9 34.5,35.4 37.4,32.7 C40.2,29.9 41.6,26.1 41.5,22.2 C41.5,18.5 40.2,15 37.9,12.2 C35.5,9.3 32,7.8 27.4,7.8 L9.5,7.8 L9.5,36.7 Z" id="Shape"></path>
        <path d="M102,75 L93.5,75 C93,71.9 92.7,68.7 92.5,65.6 C88.7,73.3 82.2,75.1 73.1,75.1 C66.9,75.1 62.1,73.5 58.8,70.2 C55.6,67.1 53.7,62.8 53.8,58.3 C53.8,52.7 56.2,48.1 60.9,44.5 C65.6,40.9 73.7,39.1 85.1,39.1 C86.6,39.1 89.1,39.2 92.5,39.3 C92.5,34.9 92.2,33.3 91.5,31.3 C90.7,29.2 89.2,27.6 87.2,26.6 C84.5,25.3 81.5,24.7 78.5,24.8 C69.8,24.8 64.7,28.1 63.3,34.8 L55.4,33.4 C57.3,23.2 65.5,18.1 79.8,18.1 C87.4,18.1 92.9,19.8 96.1,23.2 C99.3,26.6 100.9,32.4 100.9,40.8 L100.9,64.3 C100.8,67.9 101.2,71.5 102,75 L102,75 Z M92.4,45.8 C88.9,45.6 86.3,45.5 84.5,45.5 C77.7,45.5 72.4,46.6 68.7,48.9 C65.1,50.8 62.9,54.6 63,58.7 C63,61.3 64.1,63.9 66,65.6 C68,67.5 71,68.4 74.8,68.4 C79.7,68.5 84.3,66.5 87.5,62.7 C90.8,59.1 92.6,54.3 92.5,49.4 C92.5,48.4 92.5,47.2 92.4,45.8 L92.4,45.8 Z" id="Shape"></path>
        <path d="M156.9,10.9 L156.9,17.7 C153,17.7 150.3,18.2 149,19.1 C147.7,20 146.8,21.7 146.3,24 C149.7,27.6 151.6,32.4 151.6,37.4 C151.6,42.4 149.5,47.1 145.8,50.4 C141.9,54 136.8,55.8 130.3,55.8 C129,55.8 127.8,55.7 126.5,55.5 C125.3,55.2 124,55 122.7,54.9 C121.4,55 120.2,55.5 119.1,56.4 C117.8,57.2 117,58.6 117,60.2 C116.8,62.2 118.1,64 120,64.5 C122,65.2 126.7,65.6 134.2,65.8 C138.9,65.8 143.6,66.3 148.2,67.1 C151.2,67.7 153.9,69.3 155.9,71.6 C158,73.9 159.1,77 159,80.1 C159,90.7 149.7,95.9 131.1,95.9 C122.3,95.9 115.9,94.6 111.8,91.9 C107.8,89.2 105.8,85.7 105.8,81.3 C105.8,75.9 108.6,72.2 114.2,70.2 C110.6,67.8 108.8,64.9 108.8,61.3 C108.8,57 111.4,53.8 116.5,51.5 C111.9,48 109.2,42.6 109.3,36.9 C109.2,31.7 111.4,26.7 115.4,23.4 C119.6,19.9 124.9,18 130.4,18.1 C134.3,18 138.2,18.8 141.8,20.5 C142.3,16.9 143.6,14.4 145.6,13 C147.6,11.6 150.6,10.9 154.7,10.9 C155.1,10.8 155.9,10.9 156.9,10.9 L156.9,10.9 Z M120.3,72.7 C116.3,74.5 114.3,77 114.3,80.3 C114.3,83.1 116,85.3 119.3,86.9 C123.3,88.6 127.6,89.4 131.9,89.2 C136.3,89.2 140.7,88.6 144.9,87.2 C148.9,85.9 150.8,83.6 150.8,80.4 C150.9,78.8 150.2,77.3 149,76.2 C147.7,75 146,74.3 144.2,74.1 C142.2,73.8 138.7,73.6 133.6,73.4 C127.6,73.4 123.2,73.1 120.3,72.7 Z M130.6,49.3 C133.9,49.4 137.1,48.2 139.5,46 C141.9,43.7 143.1,40.5 143,37.2 C143.2,30.5 138,25 131.3,24.8 C131.1,24.8 130.9,24.8 130.7,24.8 C127.5,24.8 124.4,25.9 122,28 C119.5,30.2 118.2,33.3 118.2,37.3 C118.1,40.5 119.3,43.7 121.6,46 C124,48.3 127.3,49.5 130.6,49.3 L130.6,49.3 Z" id="Shape"></path>
        <path d="M198.5,57 L206.5,58.6 C205,63.3 202,67.5 198,70.3 C193.6,73.4 188.4,75.1 183,74.9 C175.4,74.9 169.3,72.2 164.6,66.9 C159.9,61.6 157.6,56.1 157.6,47.5 C157.6,38.7 160,31.6 164.9,26.1 C169.5,20.8 176.2,17.8 183.2,18 C190.4,18 196.3,20.5 200.7,25.5 C205.1,30.5 207.4,38 207.5,48 L167.3,48 C167.3,54.3 169.1,60.5 172.6,63.4 C175.7,66.2 179.6,67.7 183.7,67.8 C190.7,67.9 195.7,64.3 198.5,57 Z M198,41.7 C198,38.9 197.5,36.1 196.5,33.4 C195.5,30.9 193.8,28.8 191.7,27.2 C189.3,25.5 186.5,24.6 183.5,24.7 C179.4,24.6 175.4,26.3 172.6,29.3 C169.6,32.4 168,36.5 167.6,41.7 L198,41.7 Z" id="Shape"></path>
      </g>
      <polygon id="Path" fill="#231F20" fill-rule="nonzero" points="0 27.2 27.7 0 75.1 0 75.1 75 0 75"></polygon>
      <polygon id="Path" fill="#FFFFFF" fill-rule="nonzero" points="52.5 29.2 62.2 29.2 62.2 75 52.5 75"></polygon>
      <polygon id="Path" fill="#231F20" fill-rule="nonzero" points="27.7 27.2 0 27.2 27.7 0"></polygon>
      <path d="M57.2,20.3 C60.9,20.4 63.9,17.5 63.9,13.8 C63.9,13.7 63.9,13.7 63.9,13.6 C63.9,9.9 61,6.9 57.2,6.8 L57.1,6.8 C53.4,6.8 50.4,9.7 50.4,13.4 C50.4,13.5 50.4,13.5 50.4,13.6 C50.3,17.2 53.2,20.2 56.8,20.3 C57.1,20.3 57.2,20.3 57.2,20.3 Z" id="Path" fill="#FFFFFF" fill-rule="nonzero"></path>
    </g>
  </g>
</svg>
