<?xml version="1.0" encoding="UTF-8"?>
<svg xmlns="http://www.w3.org/2000/svg" xmlns:xlink="http://www.w3.org/1999/xlink" width="360px" height="96px" viewBox="0 0 360 96" version="1.1">
  <title>iPage-logo</title>
  <g id="dot.com-assets" stroke="none" stroke-width="1" fill="none" fill-rule="evenodd">
    <g id="iPage-logo">
      <rect id="Rectangle" x="0" y="0" width="360" height="96"></rect>
      <g id="Group" transform="translate(61.979167, 13.000000)" fill="#231F20" fill-rule="nonzero">
        <path d="M6.92708333,54.6875 L0,54.6875 L0,0 L19.46875,0 C25.5208333,0 29.96875,1.67708333 32.8854167,4.95833333 C35.65625,8.02083333 37.1875,12.1041667 37.1875,16.2604167 C37.3333333,20.6354167 35.5833333,24.8645833 32.5208333,27.9270833 C29.3854167,30.9895833 25.3020833,32.5208333 20.1979167,32.5208333 L6.92708333,32.5208333 L6.92708333,54.6875 Z M6.92708333,26.7604167 L19.46875,26.7604167 C22.3854167,26.90625 25.15625,25.8125 27.2708333,23.84375 C29.3125,21.8020833 30.3333333,19.03125 30.2604167,16.1875 C30.2604167,13.4895833 29.3125,10.9375 27.6354167,8.89583333 C25.8854167,6.78125 23.3333333,5.6875 19.9791667,5.6875 L6.92708333,5.6875 L6.92708333,26.7604167 Z" id="Shape"></path>
        <path d="M74.375,54.6875 L68.1770833,54.6875 C67.8125,52.4270833 67.59375,50.09375 67.4479167,47.8333333 C64.6770833,53.4479167 59.9375,54.7604167 53.3020833,54.7604167 C48.78125,54.7604167 45.28125,53.59375 42.875,51.1875 C40.5416667,48.9270833 39.15625,45.7916667 39.2291667,42.5104167 C39.2291667,38.4270833 40.9791667,35.0729167 44.40625,32.4479167 C47.8333333,29.8229167 53.7395833,28.5104167 62.0520833,28.5104167 C63.1458333,28.5104167 64.96875,28.5833333 67.4479167,28.65625 C67.4479167,25.4479167 67.2291667,24.28125 66.71875,22.8229167 C66.1354167,21.2916667 65.0416667,20.125 63.5833333,19.3958333 C61.6145833,18.4479167 59.4270833,18.0104167 57.2395833,18.0833333 C50.8958333,18.0833333 47.1770833,20.4895833 46.15625,25.375 L40.3958333,24.3541667 C41.78125,16.9166667 47.7604167,13.1979167 58.1875,13.1979167 C63.7291667,13.1979167 67.7395833,14.4375 70.0729167,16.9166667 C72.40625,19.3958333 73.5729167,23.625 73.5729167,29.75 L73.5729167,46.8854167 C73.5,49.5104167 73.7916667,52.1354167 74.375,54.6875 L74.375,54.6875 Z M67.375,33.3958333 C64.8229167,33.25 62.9270833,33.1770833 61.6145833,33.1770833 C56.65625,33.1770833 52.7916667,33.9791667 50.09375,35.65625 C47.46875,37.0416667 45.8645833,39.8125 45.9375,42.8020833 C45.9375,44.6979167 46.7395833,46.59375 48.125,47.8333333 C49.5833333,49.21875 51.7708333,49.875 54.5416667,49.875 C58.1145833,49.9479167 61.46875,48.4895833 63.8020833,45.71875 C66.2083333,43.09375 67.5208333,39.59375 67.4479167,36.0208333 C67.4479167,35.2916667 67.4479167,34.4166667 67.375,33.3958333 L67.375,33.3958333 Z" id="Shape"></path>
        <path d="M114.40625,7.94791667 L114.40625,12.90625 C111.5625,12.90625 109.59375,13.2708333 108.645833,13.9270833 C107.697917,14.5833333 107.041667,15.8229167 106.677083,17.5 C109.15625,20.125 110.541667,23.625 110.541667,27.2708333 C110.541667,30.9166667 109.010417,34.34375 106.3125,36.75 C103.46875,39.375 99.75,40.6875 95.0104167,40.6875 C94.0625,40.6875 93.1875,40.6145833 92.2395833,40.46875 C91.3645833,40.25 90.4166667,40.1041667 89.46875,40.03125 C88.5208333,40.1041667 87.6458333,40.46875 86.84375,41.125 C85.8958333,41.7083333 85.3125,42.7291667 85.3125,43.8958333 C85.1666667,45.3541667 86.1145833,46.6666667 87.5,47.03125 C88.9583333,47.5416667 92.3854167,47.8333333 97.8541667,47.9791667 C101.28125,47.9791667 104.708333,48.34375 108.0625,48.9270833 C110.25,49.3645833 112.21875,50.53125 113.677083,52.2083333 C115.208333,53.8854167 116.010417,56.1458333 115.9375,58.40625 C115.9375,66.1354167 109.15625,69.9270833 95.59375,69.9270833 C89.1770833,69.9270833 84.5104167,68.9791667 81.5208333,67.0104167 C78.6041667,65.0416667 77.1458333,62.4895833 77.1458333,59.28125 C77.1458333,55.34375 79.1875,52.6458333 83.2708333,51.1875 C80.6458333,49.4375 79.3333333,47.3229167 79.3333333,44.6979167 C79.3333333,41.5625 81.2291667,39.2291667 84.9479167,37.5520833 C81.59375,35 79.625,31.0625 79.6979167,26.90625 C79.625,23.1145833 81.2291667,19.46875 84.1458333,17.0625 C87.2083333,14.5104167 91.0729167,13.125 95.0833333,13.1979167 C97.9270833,13.125 100.770833,13.7083333 103.395833,14.9479167 C103.760417,12.3229167 104.708333,10.5 106.166667,9.47916667 C107.625,8.45833333 109.8125,7.94791667 112.802083,7.94791667 C113.09375,7.875 113.677083,7.94791667 114.40625,7.94791667 L114.40625,7.94791667 Z M87.71875,53.0104167 C84.8020833,54.3229167 83.34375,56.1458333 83.34375,58.5520833 C83.34375,60.59375 84.5833333,62.1979167 86.9895833,63.3645833 C89.90625,64.6041667 93.0416667,65.1875 96.1770833,65.0416667 C99.3854167,65.0416667 102.59375,64.6041667 105.65625,63.5833333 C108.572917,62.6354167 109.958333,60.9583333 109.958333,58.625 C110.03125,57.4583333 109.520833,56.3645833 108.645833,55.5625 C107.697917,54.6875 106.458333,54.1770833 105.145833,54.03125 C103.6875,53.8125 101.135417,53.6666667 97.4166667,53.5208333 C93.0416667,53.5208333 89.8333333,53.3020833 87.71875,53.0104167 Z M95.2291667,35.9479167 C97.6354167,36.0208333 99.96875,35.1458333 101.71875,33.5416667 C103.46875,31.8645833 104.34375,29.53125 104.270833,27.125 C104.416667,22.2395833 100.625,18.2291667 95.7395833,18.0833333 C95.59375,18.0833333 95.4479167,18.0833333 95.3020833,18.0833333 C92.96875,18.0833333 90.7083333,18.8854167 88.9583333,20.4166667 C87.1354167,22.0208333 86.1875,24.28125 86.1875,27.1979167 C86.1145833,29.53125 86.9895833,31.8645833 88.6666667,33.5416667 C90.4166667,35.21875 92.8229167,36.09375 95.2291667,35.9479167 L95.2291667,35.9479167 Z" id="Shape"></path>
        <path d="M144.739583,41.5625 L150.572917,42.7291667 C149.479167,46.15625 147.291667,49.21875 144.375,51.2604167 C141.166667,53.5208333 137.375,54.7604167 133.4375,54.6145833 C127.895833,54.6145833 123.447917,52.6458333 120.020833,48.78125 C116.59375,44.9166667 114.916667,40.90625 114.916667,34.6354167 C114.916667,28.21875 116.666667,23.0416667 120.239583,19.03125 C123.59375,15.1666667 128.479167,12.9791667 133.583333,13.125 C138.833333,13.125 143.135417,14.9479167 146.34375,18.59375 C149.552083,22.2395833 151.229167,27.7083333 151.302083,35 L121.989583,35 C121.989583,39.59375 123.302083,44.1145833 125.854167,46.2291667 C128.114583,48.2708333 130.958333,49.3645833 133.947917,49.4375 C139.052083,49.5104167 142.697917,46.8854167 144.739583,41.5625 Z M144.375,30.40625 C144.375,28.3645833 144.010417,26.3229167 143.28125,24.3541667 C142.552083,22.53125 141.3125,21 139.78125,19.8333333 C138.03125,18.59375 135.989583,17.9375 133.802083,18.0104167 C130.8125,17.9375 127.895833,19.1770833 125.854167,21.3645833 C123.666667,23.625 122.5,26.6145833 122.208333,30.40625 L144.375,30.40625 Z" id="Shape"></path>
      </g>
      <polygon id="Path" fill="#231F20" fill-rule="nonzero" points="-7.10542736e-14 32.8333333 20.1979167 13 54.7604167 13 54.7604167 67.6875 -7.10542736e-14 67.6875"></polygon>
      <polygon id="Path" fill="#FFFFFF" fill-rule="nonzero" points="38.28125 34.2916667 45.3541667 34.2916667 45.3541667 67.6875 38.28125 67.6875"></polygon>
      <polygon id="Path" fill="#231F20" fill-rule="nonzero" points="20.1979167 32.8333333 -7.10542736e-14 32.8333333 20.1979167 13"></polygon>
      <path d="M41.7083333,27.8020833 C44.40625,27.875 46.59375,25.7604167 46.59375,23.0625 C46.59375,22.9895833 46.59375,22.9895833 46.59375,22.9166667 C46.59375,20.21875 44.4791667,18.03125 41.7083333,17.9583333 L41.6354167,17.9583333 C38.9375,17.9583333 36.75,20.0729167 36.75,22.7708333 C36.75,22.84375 36.75,22.84375 36.75,22.9166667 C36.6770833,25.5416667 38.7916667,27.7291667 41.4166667,27.8020833 C41.6354167,27.8020833 41.7083333,27.8020833 41.7083333,27.8020833 Z" id="Path" fill="#FFFFFF" fill-rule="nonzero"></path>
    </g>
  </g>
</svg>
