<?xml version="1.0" encoding="UTF-8"?>
<!-- Generator: Adobe Illustrator 23.1.1, SVG Export Plug-In . SVG Version: 6.00 Build 0)  -->
<svg xmlns="http://www.w3.org/2000/svg" xmlns:xlink="http://www.w3.org/1999/xlink" version="1.1" id="Layer_1" x="0px" y="0px" viewBox="0 0 292.5 95.9" style="enable-background:new 0 0 292.5 95.9;" xml:space="preserve">
<style type="text/css">
	.st0{fill:#231F20;}
	.st1{fill:#FFFFFF;}
</style>
<g>
	<path class="st0" d="M94.5,75H85V0h26.7c8.3,0,14.4,2.3,18.4,6.8c3.8,4.2,5.9,9.8,5.9,15.5c0.2,6-2.2,11.8-6.4,16   c-4.3,4.2-9.9,6.3-16.9,6.3H94.5V75z M94.5,36.7h17.2c4,0.2,7.8-1.3,10.7-4c2.8-2.8,4.2-6.6,4.1-10.5c0-3.7-1.3-7.2-3.6-10   c-2.4-2.9-5.9-4.4-10.5-4.4H94.5L94.5,36.7z"></path>
	<path class="st0" d="M187,75h-8.5c-0.5-3.1-0.8-6.3-1-9.4c-3.8,7.7-10.3,9.5-19.4,9.5c-6.2,0-11-1.6-14.3-4.9   c-3.2-3.1-5.1-7.4-5-11.9c0-5.6,2.4-10.2,7.1-13.8s12.8-5.4,24.2-5.4c1.5,0,4,0.1,7.4,0.2c0-4.4-0.3-6-1-8   c-0.8-2.1-2.3-3.7-4.3-4.7c-2.7-1.3-5.7-1.9-8.7-1.8c-8.7,0-13.8,3.3-15.2,10l-7.9-1.4c1.9-10.2,10.1-15.3,24.4-15.3   c7.6,0,13.1,1.7,16.3,5.1c3.2,3.4,4.8,9.2,4.8,17.6v23.5C185.8,67.9,186.2,71.5,187,75L187,75z M177.4,45.8   c-3.5-0.2-6.1-0.3-7.9-0.3c-6.8,0-12.1,1.1-15.8,3.4c-3.6,1.9-5.8,5.7-5.7,9.8c0,2.6,1.1,5.2,3,6.9c2,1.9,5,2.8,8.8,2.8   c4.9,0.1,9.5-1.9,12.7-5.7c3.3-3.6,5.1-8.4,5-13.3C177.5,48.4,177.5,47.2,177.4,45.8L177.4,45.8z"></path>
	<path class="st0" d="M241.9,10.9v6.8c-3.9,0-6.6,0.5-7.9,1.4c-1.3,0.9-2.2,2.6-2.7,4.9c3.4,3.6,5.3,8.4,5.3,13.4   c0,5-2.1,9.7-5.8,13c-3.9,3.6-9,5.4-15.5,5.4c-1.3,0-2.5-0.1-3.8-0.3c-1.2-0.3-2.5-0.5-3.8-0.6c-1.3,0.1-2.5,0.6-3.6,1.5   c-1.3,0.8-2.1,2.2-2.1,3.8c-0.2,2,1.1,3.8,3,4.3c2,0.7,6.7,1.1,14.2,1.3c4.7,0,9.4,0.5,14,1.3c3,0.6,5.7,2.2,7.7,4.5   c2.1,2.3,3.2,5.4,3.1,8.5c0,10.6-9.3,15.8-27.9,15.8c-8.8,0-15.2-1.3-19.3-4c-4-2.7-6-6.2-6-10.6c0-5.4,2.8-9.1,8.4-11.1   c-3.6-2.4-5.4-5.3-5.4-8.9c0-4.3,2.6-7.5,7.7-9.8c-4.6-3.5-7.3-8.9-7.2-14.6c-0.1-5.2,2.1-10.2,6.1-13.5c4.2-3.5,9.5-5.4,15-5.3   c3.9-0.1,7.8,0.7,11.4,2.4c0.5-3.6,1.8-6.1,3.8-7.5c2-1.4,5-2.1,9.1-2.1C240.1,10.8,240.9,10.9,241.9,10.9L241.9,10.9z M205.3,72.7   c-4,1.8-6,4.3-6,7.6c0,2.8,1.7,5,5,6.6c4,1.7,8.3,2.5,12.6,2.3c4.4,0,8.8-0.6,13-2c4-1.3,5.9-3.6,5.9-6.8c0.1-1.6-0.6-3.1-1.8-4.2   c-1.3-1.2-3-1.9-4.8-2.1c-2-0.3-5.5-0.5-10.6-0.7C212.6,73.4,208.2,73.1,205.3,72.7z M215.6,49.3c3.3,0.1,6.5-1.1,8.9-3.3   c2.4-2.3,3.6-5.5,3.5-8.8c0.2-6.7-5-12.2-11.7-12.4c-0.2,0-0.4,0-0.6,0c-3.2,0-6.3,1.1-8.7,3.2c-2.5,2.2-3.8,5.3-3.8,9.3   c-0.1,3.2,1.1,6.4,3.4,8.7C209,48.3,212.3,49.5,215.6,49.3L215.6,49.3z"></path>
	<path class="st0" d="M283.5,57l8,1.6c-1.5,4.7-4.5,8.9-8.5,11.7c-4.4,3.1-9.6,4.8-15,4.6c-7.6,0-13.7-2.7-18.4-8   c-4.7-5.3-7-10.8-7-19.4c0-8.8,2.4-15.9,7.3-21.4c4.6-5.3,11.3-8.3,18.3-8.1c7.2,0,13.1,2.5,17.5,7.5s6.7,12.5,6.8,22.5h-40.2   c0,6.3,1.8,12.5,5.3,15.4c3.1,2.8,7,4.3,11.1,4.4C275.7,67.9,280.7,64.3,283.5,57z M283,41.7c0-2.8-0.5-5.6-1.5-8.3   c-1-2.5-2.7-4.6-4.8-6.2c-2.4-1.7-5.2-2.6-8.2-2.5c-4.1-0.1-8.1,1.6-10.9,4.6c-3,3.1-4.6,7.2-5,12.4H283z"></path>
</g>
<path class="st0" d="M0,27.2L27.7,0h47.4v75H0V27.2z"></path>
<path class="st1" d="M52.5,29.2h9.7V75h-9.7V29.2z"></path>
<path class="st0" d="M27.7,27.2H0L27.7,0L27.7,27.2z"></path>
<path class="st1" d="M57.2,20.3c3.7,0.1,6.7-2.8,6.7-6.5c0-0.1,0-0.1,0-0.2c0-3.7-2.9-6.7-6.7-6.8c0,0-0.1,0-0.1,0  c-3.7,0-6.7,2.9-6.7,6.6c0,0.1,0,0.1,0,0.2c-0.1,3.6,2.8,6.6,6.4,6.7C57.1,20.3,57.2,20.3,57.2,20.3z"></path>
</svg>
