<?xml version="1.0" encoding="UTF-8"?>
<!-- Generator: Adobe Illustrator 24.3.0, SVG Export Plug-In . SVG Version: 6.00 Build 0)  -->
<svg xmlns="http://www.w3.org/2000/svg" xmlns:xlink="http://www.w3.org/1999/xlink" version="1.1" id="Layer_1" x="0px" y="0px" viewBox="0 0 801.8 169.5" style="enable-background:new 0 0 801.8 169.5;" xml:space="preserve">
<style type="text/css">
	.st0{clip-path:url(#SVGID_2_);fill-rule:evenodd;clip-rule:evenodd;}
	.st1{clip-path:url(#SVGID_4_);fill-rule:evenodd;clip-rule:evenodd;}
	.st2{clip-path:url(#SVGID_6_);fill-rule:evenodd;clip-rule:evenodd;}
	.st3{clip-path:url(#SVGID_8_);fill-rule:evenodd;clip-rule:evenodd;}
	.st4{clip-path:url(#SVGID_10_);fill-rule:evenodd;clip-rule:evenodd;}
	.st5{clip-path:url(#SVGID_12_);fill-rule:evenodd;clip-rule:evenodd;}
	.st6{clip-path:url(#SVGID_14_);fill-rule:evenodd;clip-rule:evenodd;}
	.st7{clip-path:url(#SVGID_16_);fill-rule:evenodd;clip-rule:evenodd;}
	.st8{clip-path:url(#SVGID_18_);fill-rule:evenodd;clip-rule:evenodd;}
	.st9{clip-path:url(#SVGID_20_);fill-rule:evenodd;clip-rule:evenodd;}
	.st10{clip-path:url(#SVGID_22_);fill-rule:evenodd;clip-rule:evenodd;}
	.st11{clip-path:url(#SVGID_24_);fill-rule:evenodd;clip-rule:evenodd;}
	.st12{clip-path:url(#SVGID_26_);fill-rule:evenodd;clip-rule:evenodd;}
	.st13{clip-path:url(#SVGID_28_);fill-rule:evenodd;clip-rule:evenodd;}
	.st14{clip-path:url(#SVGID_30_);fill-rule:evenodd;clip-rule:evenodd;}
	.st15{clip-path:url(#SVGID_32_);fill-rule:evenodd;clip-rule:evenodd;}
	.st16{clip-path:url(#SVGID_34_);fill-rule:evenodd;clip-rule:evenodd;}
	.st17{fill-rule:evenodd;clip-rule:evenodd;}
	.st18{clip-path:url(#SVGID_36_);fill-rule:evenodd;clip-rule:evenodd;}
	.st19{clip-path:url(#SVGID_38_);fill-rule:evenodd;clip-rule:evenodd;}
	.st20{clip-path:url(#SVGID_40_);fill-rule:evenodd;clip-rule:evenodd;}
	.st21{clip-path:url(#SVGID_42_);fill-rule:evenodd;clip-rule:evenodd;}
	.st22{clip-path:url(#SVGID_44_);fill-rule:evenodd;clip-rule:evenodd;}
	.st23{fill-rule:evenodd;clip-rule:evenodd;fill:#6D6E71;}
</style>
<path d="M197.9,110.9l28.8-28.8c7.6-7.6,9.2-18.5,3.5-24.2s-16.6-4.1-24.2,3.5l-28.8,28.8L197.9,110.9z"></path>
<g>
	<defs>
		<path id="SVGID_1_" d="M197.9,110.9l28.8-28.8c7.6-7.6,9.2-18.5,3.5-24.2s-16.6-4.1-24.2,3.5l-28.8,28.8L197.9,110.9z"></path>
	</defs>
	<use xlink:href="#SVGID_1_" style="overflow:visible;"></use>
	<clipPath id="SVGID_2_">
		<use xlink:href="#SVGID_1_" style="overflow:visible;"></use>
	</clipPath>
	<path class="st0" d="M131.3,104.8L65.5,54.1l144.9,44.4L131.3,104.8z"></path>
</g>
<g>
	<defs>
		<path id="SVGID_3_" d="M197.9,110.9l28.8-28.8c7.6-7.6,9.2-18.5,3.5-24.2s-16.6-4.1-24.2,3.5l-28.8,28.8L197.9,110.9z"></path>
	</defs>
	<use xlink:href="#SVGID_3_" style="overflow:visible;"></use>
	<clipPath id="SVGID_4_">
		<use xlink:href="#SVGID_3_" style="overflow:visible;"></use>
	</clipPath>
	<path class="st1" d="M134.2,125.8l1-21.3l75.2-6L134.2,125.8z"></path>
</g>
<g>
	<defs>
		<path id="SVGID_5_" d="M197.9,110.9l28.8-28.8c7.6-7.6,9.2-18.5,3.5-24.2s-16.6-4.1-24.2,3.5l-28.8,28.8L197.9,110.9z"></path>
	</defs>
	<use xlink:href="#SVGID_5_" style="overflow:visible;"></use>
	<clipPath id="SVGID_6_">
		<use xlink:href="#SVGID_5_" style="overflow:visible;"></use>
	</clipPath>
	<path class="st2" d="M258.5,65.8l-79.9,23L300.2-1.6L258.5,65.8z"></path>
</g>
<path d="M60.8,61.4c-7.6-7.6-18.5-9.2-24.2-3.5l-0.3,0.3L36,58.5l-0.2,0.3l-0.2,0.3l-0.2,0.3l-0.2,0.3L35,60l-0.2,0.3l-0.2,0.3  l-0.2,0.3l-0.2,0.3l-0.1,0.3L34,61.8l-0.1,0.3l-0.1,0.4l-0.1,0.4l-0.1,0.4l-0.1,0.4l-0.1,0.4c-1.1,5.7,1.3,12.6,6.7,18l79.5,79.5  c7.6,7.6,20.1,7.6,27.7,0l30-30l-20.7-20.7l-9.2,9.2c-7.6,7.5-19.9,7.6-27.5,0.2L60.8,61.4z M197.9,110.9l28.8-28.8  c7.6-7.6,9.2-18.5,3.5-24.2s-16.6-4.1-24.2,3.5l-28.8,28.8L197.9,110.9z"></path>
<g>
	<defs>
		<path id="SVGID_7_" d="M60.8,61.4c-7.6-7.6-18.5-9.2-24.2-3.5l-0.3,0.3L36,58.5l-0.2,0.3l-0.2,0.3l-0.2,0.3l-0.2,0.3L35,60    l-0.2,0.3l-0.2,0.3l-0.2,0.3l-0.2,0.3l-0.1,0.3L34,61.8l-0.1,0.3l-0.1,0.4l-0.1,0.4l-0.1,0.4l-0.1,0.4l-0.1,0.4    c-1.1,5.7,1.3,12.6,6.7,18l79.5,79.5c7.6,7.6,20.1,7.6,27.7,0l30-30l-20.7-20.7l-9.2,9.2c-7.6,7.5-19.9,7.6-27.5,0.2L60.8,61.4z     M197.9,110.9l28.8-28.8c7.6-7.6,9.2-18.5,3.5-24.2s-16.6-4.1-24.2,3.5l-28.8,28.8L197.9,110.9z"></path>
	</defs>
	<use xlink:href="#SVGID_7_" style="overflow:visible;"></use>
	<clipPath id="SVGID_8_">
		<use xlink:href="#SVGID_7_" style="overflow:visible;"></use>
	</clipPath>
	<path class="st3" d="M120.1,101.4l-53.5,7.3l67.5,17.3l8.4-8.5L120.1,101.4z"></path>
</g>
<g>
	<defs>
		<path id="SVGID_9_" d="M60.8,61.4c-7.6-7.6-18.5-9.2-24.2-3.5l-0.3,0.3L36,58.5l-0.2,0.3l-0.2,0.3l-0.2,0.3l-0.2,0.3L35,60    l-0.2,0.3l-0.2,0.3l-0.2,0.3l-0.2,0.3l-0.1,0.3L34,61.8l-0.1,0.3l-0.1,0.4l-0.1,0.4l-0.1,0.4l-0.1,0.4l-0.1,0.4    c-1.1,5.7,1.3,12.6,6.7,18l79.5,79.5c7.6,7.6,20.1,7.6,27.7,0l30-30l-20.7-20.7l-9.2,9.2c-7.6,7.5-19.9,7.6-27.5,0.2L60.8,61.4z     M197.9,110.9l28.8-28.8c7.6-7.6,9.2-18.5,3.5-24.2s-16.6-4.1-24.2,3.5l-28.8,28.8L197.9,110.9z"></path>
	</defs>
	<use xlink:href="#SVGID_9_" style="overflow:visible;"></use>
	<clipPath id="SVGID_10_">
		<use xlink:href="#SVGID_9_" style="overflow:visible;"></use>
	</clipPath>
	<path class="st4" d="M131.3,104.8L65.5,54.1l144.8,44.4L131.3,104.8z"></path>
</g>
<g>
	<defs>
		<path id="SVGID_11_" d="M60.8,61.4c-7.6-7.6-18.5-9.2-24.2-3.5l-0.3,0.3L36,58.5l-0.2,0.3l-0.2,0.3l-0.2,0.3l-0.2,0.3L35,60    l-0.2,0.3l-0.2,0.3l-0.2,0.3l-0.2,0.3l-0.1,0.3L34,61.8l-0.1,0.3l-0.1,0.4l-0.1,0.4l-0.1,0.4l-0.1,0.4l-0.1,0.4    c-1.1,5.7,1.3,12.6,6.7,18l79.5,79.5c7.6,7.6,20.1,7.6,27.7,0l30-30l-20.7-20.7l-9.2,9.2c-7.6,7.5-19.9,7.6-27.5,0.2L60.8,61.4z     M197.9,110.9l28.8-28.8c7.6-7.6,9.2-18.5,3.5-24.2s-16.6-4.1-24.2,3.5l-28.8,28.8L197.9,110.9z"></path>
	</defs>
	<use xlink:href="#SVGID_11_" style="overflow:visible;"></use>
	<clipPath id="SVGID_12_">
		<use xlink:href="#SVGID_11_" style="overflow:visible;"></use>
	</clipPath>
	<path class="st5" d="M41.6,91.4l25,17.3L38,56.8L41.6,91.4z"></path>
</g>
<g>
	<defs>
		<path id="SVGID_13_" d="M60.8,61.4c-7.6-7.6-18.5-9.2-24.2-3.5l-0.3,0.3L36,58.5l-0.2,0.3l-0.2,0.3l-0.2,0.3l-0.2,0.3L35,60    l-0.2,0.3l-0.2,0.3l-0.2,0.3l-0.2,0.3l-0.1,0.3L34,61.8l-0.1,0.3l-0.1,0.4l-0.1,0.4l-0.1,0.4l-0.1,0.4l-0.1,0.4    c-1.1,5.7,1.3,12.6,6.7,18l79.5,79.5c7.6,7.6,20.1,7.6,27.7,0l30-30l-20.7-20.7l-9.2,9.2c-7.6,7.5-19.9,7.6-27.5,0.2L60.8,61.4z     M197.9,110.9l28.8-28.8c7.6-7.6,9.2-18.5,3.5-24.2s-16.6-4.1-24.2,3.5l-28.8,28.8L197.9,110.9z"></path>
	</defs>
	<use xlink:href="#SVGID_13_" style="overflow:visible;"></use>
	<clipPath id="SVGID_14_">
		<use xlink:href="#SVGID_13_" style="overflow:visible;"></use>
	</clipPath>
	<path class="st6" d="M71.8,175.1l-82.9-6.1l145.3-43.2L71.8,175.1z"></path>
</g>
<g>
	<defs>
		<path id="SVGID_15_" d="M60.8,61.4c-7.6-7.6-18.5-9.2-24.2-3.5l-0.3,0.3L36,58.5l-0.2,0.3l-0.2,0.3l-0.2,0.3l-0.2,0.3L35,60    l-0.2,0.3l-0.2,0.3l-0.2,0.3l-0.2,0.3l-0.1,0.3L34,61.8l-0.1,0.3l-0.1,0.4l-0.1,0.4l-0.1,0.4l-0.1,0.4l-0.1,0.4    c-1.1,5.7,1.3,12.6,6.7,18l79.5,79.5c7.6,7.6,20.1,7.6,27.7,0l30-30l-20.7-20.7l-9.2,9.2c-7.6,7.5-19.9,7.6-27.5,0.2L60.8,61.4z     M197.9,110.9l28.8-28.8c7.6-7.6,9.2-18.5,3.5-24.2s-16.6-4.1-24.2,3.5l-28.8,28.8L197.9,110.9z"></path>
	</defs>
	<use xlink:href="#SVGID_15_" style="overflow:visible;"></use>
	<clipPath id="SVGID_16_">
		<use xlink:href="#SVGID_15_" style="overflow:visible;"></use>
	</clipPath>
	<path class="st7" d="M134.2,125.8l1-21.3l75.1-6L134.2,125.8z"></path>
</g>
<g>
	<defs>
		<path id="SVGID_17_" d="M60.8,61.4c-7.6-7.6-18.5-9.2-24.2-3.5l-0.3,0.3L36,58.5l-0.2,0.3l-0.2,0.3l-0.2,0.3l-0.2,0.3L35,60    l-0.2,0.3l-0.2,0.3l-0.2,0.3l-0.2,0.3l-0.1,0.3L34,61.8l-0.1,0.3l-0.1,0.4l-0.1,0.4l-0.1,0.4l-0.1,0.4l-0.1,0.4    c-1.1,5.7,1.3,12.6,6.7,18l79.5,79.5c7.6,7.6,20.1,7.6,27.7,0l30-30l-20.7-20.7l-9.2,9.2c-7.6,7.5-19.9,7.6-27.5,0.2L60.8,61.4z     M197.9,110.9l28.8-28.8c7.6-7.6,9.2-18.5,3.5-24.2s-16.6-4.1-24.2,3.5l-28.8,28.8L197.9,110.9z"></path>
	</defs>
	<use xlink:href="#SVGID_17_" style="overflow:visible;"></use>
	<clipPath id="SVGID_18_">
		<use xlink:href="#SVGID_17_" style="overflow:visible;"></use>
	</clipPath>
	<path class="st8" d="M258.5,65.8l-79.9,23L300.2-1.6L258.5,65.8z"></path>
</g>
<g>
	<defs>
		<path id="SVGID_19_" d="M60.8,61.4c-7.6-7.6-18.5-9.2-24.2-3.5l-0.3,0.3L36,58.5l-0.2,0.3l-0.2,0.3l-0.2,0.3l-0.2,0.3L35,60    l-0.2,0.3l-0.2,0.3l-0.2,0.3l-0.2,0.3l-0.1,0.3L34,61.8l-0.1,0.3l-0.1,0.4l-0.1,0.4l-0.1,0.4l-0.1,0.4l-0.1,0.4    c-1.1,5.7,1.3,12.6,6.7,18l79.5,79.5c7.6,7.6,20.1,7.6,27.7,0l30-30l-20.7-20.7l-9.2,9.2c-7.6,7.5-19.9,7.6-27.5,0.2L60.8,61.4z     M197.9,110.9l28.8-28.8c7.6-7.6,9.2-18.5,3.5-24.2s-16.6-4.1-24.2,3.5l-28.8,28.8L197.9,110.9z"></path>
	</defs>
	<use xlink:href="#SVGID_19_" style="overflow:visible;"></use>
	<clipPath id="SVGID_20_">
		<use xlink:href="#SVGID_19_" style="overflow:visible;"></use>
	</clipPath>
	<path class="st9" d="M76,55.5l-9.4,53.2l54.9-86L76,55.5z"></path>
</g>
<path d="M205.9,160.4c7.6,7.6,18.5,9.2,24.2,3.5l0.3-0.3l0.3-0.3l0.2-0.3l0.2-0.3l0.2-0.3l0.2-0.3l0.2-0.3l0.2-0.3l0.2-0.3l0.2-0.3  l0.2-0.3l0.1-0.3l0.1-0.3l0.1-0.3l0.1-0.4l0.1-0.4l0.1-0.4l0.1-0.4l0.1-0.4c1.1-5.7-1.3-12.6-6.7-18l-79.5-79.5  c-7.6-7.6-20.1-7.6-27.7,0l-30,30l20.7,20.7l9.2-9.2c7.6-7.5,19.9-7.6,27.5-0.2L205.9,160.4z M68.8,110.9L40,139.7  c-7.6,7.6-9.2,18.5-3.5,24.2s16.6,4.1,24.2-3.5l28.8-28.8L68.8,110.9z"></path>
<g>
	<defs>
		<path id="SVGID_21_" d="M205.9,160.4c7.6,7.6,18.5,9.2,24.2,3.5l0.3-0.3l0.3-0.3l0.2-0.3l0.2-0.3l0.2-0.3l0.2-0.3l0.2-0.3l0.2-0.3    l0.2-0.3l0.2-0.3l0.2-0.3l0.1-0.3l0.1-0.3l0.1-0.3l0.1-0.4l0.1-0.4l0.1-0.4l0.1-0.4l0.1-0.4c1.1-5.7-1.3-12.6-6.7-18l-79.5-79.5    c-7.6-7.6-20.1-7.6-27.7,0l-30,30l20.7,20.7l9.2-9.2c7.6-7.5,19.9-7.6,27.5-0.2L205.9,160.4z M68.8,110.9L40,139.7    c-7.6,7.6-9.2,18.5-3.5,24.2s16.6,4.1,24.2-3.5l28.8-28.8L68.8,110.9z"></path>
	</defs>
	<use xlink:href="#SVGID_21_" style="overflow:visible;"></use>
	<clipPath id="SVGID_22_">
		<use xlink:href="#SVGID_21_" style="overflow:visible;"></use>
	</clipPath>
	<path class="st10" d="M146.7,120.5l53.5-7.4l-67.5-17.2l-8.4,8.4L146.7,120.5z"></path>
</g>
<g>
	<defs>
		<path id="SVGID_23_" d="M205.9,160.4c7.6,7.6,18.5,9.2,24.2,3.5l0.3-0.3l0.3-0.3l0.2-0.3l0.2-0.3l0.2-0.3l0.2-0.3l0.2-0.3l0.2-0.3    l0.2-0.3l0.2-0.3l0.2-0.3l0.1-0.3l0.1-0.3l0.1-0.3l0.1-0.4l0.1-0.4l0.1-0.4l0.1-0.4l0.1-0.4c1.1-5.7-1.3-12.6-6.7-18l-79.5-79.5    c-7.6-7.6-20.1-7.6-27.7,0l-30,30l20.7,20.7l9.2-9.2c7.6-7.5,19.9-7.6,27.5-0.2L205.9,160.4z M68.8,110.9L40,139.7    c-7.6,7.6-9.2,18.5-3.5,24.2s16.6,4.1,24.2-3.5l28.8-28.8L68.8,110.9z"></path>
	</defs>
	<use xlink:href="#SVGID_23_" style="overflow:visible;"></use>
	<clipPath id="SVGID_24_">
		<use xlink:href="#SVGID_23_" style="overflow:visible;"></use>
	</clipPath>
	<path class="st11" d="M135.4,117l65.9,50.7L56.4,123.3L135.4,117z"></path>
</g>
<g>
	<defs>
		<path id="SVGID_25_" d="M205.9,160.4c7.6,7.6,18.5,9.2,24.2,3.5l0.3-0.3l0.3-0.3l0.2-0.3l0.2-0.3l0.2-0.3l0.2-0.3l0.2-0.3l0.2-0.3    l0.2-0.3l0.2-0.3l0.2-0.3l0.1-0.3l0.1-0.3l0.1-0.3l0.1-0.4l0.1-0.4l0.1-0.4l0.1-0.4l0.1-0.4c1.1-5.7-1.3-12.6-6.7-18l-79.5-79.5    c-7.6-7.6-20.1-7.6-27.7,0l-30,30l20.7,20.7l9.2-9.2c7.6-7.5,19.9-7.6,27.5-0.2L205.9,160.4z M68.8,110.9L40,139.7    c-7.6,7.6-9.2,18.5-3.5,24.2s16.6,4.1,24.2-3.5l28.8-28.8L68.8,110.9z"></path>
	</defs>
	<use xlink:href="#SVGID_25_" style="overflow:visible;"></use>
	<clipPath id="SVGID_26_">
		<use xlink:href="#SVGID_25_" style="overflow:visible;"></use>
	</clipPath>
	<path class="st12" d="M225.2,130.4l-25.1-17.3l28.7,51.9L225.2,130.4z"></path>
</g>
<g>
	<defs>
		<path id="SVGID_27_" d="M205.9,160.4c7.6,7.6,18.5,9.2,24.2,3.5l0.3-0.3l0.3-0.3l0.2-0.3l0.2-0.3l0.2-0.3l0.2-0.3l0.2-0.3l0.2-0.3    l0.2-0.3l0.2-0.3l0.2-0.3l0.1-0.3l0.1-0.3l0.1-0.3l0.1-0.4l0.1-0.4l0.1-0.4l0.1-0.4l0.1-0.4c1.1-5.7-1.3-12.6-6.7-18l-79.5-79.5    c-7.6-7.6-20.1-7.6-27.7,0l-30,30l20.7,20.7l9.2-9.2c7.6-7.5,19.9-7.6,27.5-0.2L205.9,160.4z M68.8,110.9L40,139.7    c-7.6,7.6-9.2,18.5-3.5,24.2s16.6,4.1,24.2-3.5l28.8-28.8L68.8,110.9z"></path>
	</defs>
	<use xlink:href="#SVGID_27_" style="overflow:visible;"></use>
	<clipPath id="SVGID_28_">
		<use xlink:href="#SVGID_27_" style="overflow:visible;"></use>
	</clipPath>
	<path class="st13" d="M195,46.7l82.9,6.1L132.5,96.1L195,46.7z"></path>
</g>
<g>
	<defs>
		<path id="SVGID_29_" d="M205.9,160.4c7.6,7.6,18.5,9.2,24.2,3.5l0.3-0.3l0.3-0.3l0.2-0.3l0.2-0.3l0.2-0.3l0.2-0.3l0.2-0.3l0.2-0.3    l0.2-0.3l0.2-0.3l0.2-0.3l0.1-0.3l0.1-0.3l0.1-0.3l0.1-0.4l0.1-0.4l0.1-0.4l0.1-0.4l0.1-0.4c1.1-5.7-1.3-12.6-6.7-18l-79.5-79.5    c-7.6-7.6-20.1-7.6-27.7,0l-30,30l20.7,20.7l9.2-9.2c7.6-7.5,19.9-7.6,27.5-0.2L205.9,160.4z M68.8,110.9L40,139.7    c-7.6,7.6-9.2,18.5-3.5,24.2s16.6,4.1,24.2-3.5l28.8-28.8L68.8,110.9z"></path>
	</defs>
	<use xlink:href="#SVGID_29_" style="overflow:visible;"></use>
	<clipPath id="SVGID_30_">
		<use xlink:href="#SVGID_29_" style="overflow:visible;"></use>
	</clipPath>
	<path class="st14" d="M132.6,96l-1,21.3l-75.2,6L132.6,96z"></path>
</g>
<g>
	<defs>
		<path id="SVGID_31_" d="M205.9,160.4c7.6,7.6,18.5,9.2,24.2,3.5l0.3-0.3l0.3-0.3l0.2-0.3l0.2-0.3l0.2-0.3l0.2-0.3l0.2-0.3l0.2-0.3    l0.2-0.3l0.2-0.3l0.2-0.3l0.1-0.3l0.1-0.3l0.1-0.3l0.1-0.4l0.1-0.4l0.1-0.4l0.1-0.4l0.1-0.4c1.1-5.7-1.3-12.6-6.7-18l-79.5-79.5    c-7.6-7.6-20.1-7.6-27.7,0l-30,30l20.7,20.7l9.2-9.2c7.6-7.5,19.9-7.6,27.5-0.2L205.9,160.4z M68.8,110.9L40,139.7    c-7.6,7.6-9.2,18.5-3.5,24.2s16.6,4.1,24.2-3.5l28.8-28.8L68.8,110.9z"></path>
	</defs>
	<use xlink:href="#SVGID_31_" style="overflow:visible;"></use>
	<clipPath id="SVGID_32_">
		<use xlink:href="#SVGID_31_" style="overflow:visible;"></use>
	</clipPath>
	<path class="st15" d="M8.3,156.1l79.9-23l-121.6,90.3L8.3,156.1z"></path>
</g>
<g>
	<defs>
		<path id="SVGID_33_" d="M205.9,160.4c7.6,7.6,18.5,9.2,24.2,3.5l0.3-0.3l0.3-0.3l0.2-0.3l0.2-0.3l0.2-0.3l0.2-0.3l0.2-0.3l0.2-0.3    l0.2-0.3l0.2-0.3l0.2-0.3l0.1-0.3l0.1-0.3l0.1-0.3l0.1-0.4l0.1-0.4l0.1-0.4l0.1-0.4l0.1-0.4c1.1-5.7-1.3-12.6-6.7-18l-79.5-79.5    c-7.6-7.6-20.1-7.6-27.7,0l-30,30l20.7,20.7l9.2-9.2c7.6-7.5,19.9-7.6,27.5-0.2L205.9,160.4z M68.8,110.9L40,139.7    c-7.6,7.6-9.2,18.5-3.5,24.2s16.6,4.1,24.2-3.5l28.8-28.8L68.8,110.9z"></path>
	</defs>
	<use xlink:href="#SVGID_33_" style="overflow:visible;"></use>
	<clipPath id="SVGID_34_">
		<use xlink:href="#SVGID_33_" style="overflow:visible;"></use>
	</clipPath>
	<path class="st16" d="M190.7,166.3l9.5-53.2l-54.9,86L190.7,166.3z"></path>
</g>
<path class="st17" d="M37.9,34.8c0,10-8.1,18-18,18c-10,0-18-8.1-18-18c0-10,8.1-18,18-18C29.8,16.7,37.9,24.8,37.9,34.8z"></path>
<g>
	<defs>
		<path id="SVGID_35_" d="M37.9,34.8c0,10-8.1,18-18,18c-10,0-18-8.1-18-18c0-10,8.1-18,18-18C29.8,16.7,37.9,24.8,37.9,34.8z"></path>
	</defs>
	<use xlink:href="#SVGID_35_" style="overflow:visible;"></use>
	<clipPath id="SVGID_36_">
		<use xlink:href="#SVGID_35_" style="overflow:visible;"></use>
	</clipPath>
	<path class="st18" d="M87.3,39.9l-83-6.1L149.7-8.8L87.3,39.9z"></path>
</g>
<path class="st17" d="M265,34.8c0,10-8.1,18-18,18c-10,0-18-8.1-18-18c0-10,8.1-18,18-18C256.9,16.7,265,24.8,265,34.8z"></path>
<g>
	<defs>
		<path id="SVGID_37_" d="M265,34.8c0,10-8.1,18-18,18c-10,0-18-8.1-18-18c0-10,8.1-18,18-18C256.9,16.7,265,24.8,265,34.8z"></path>
	</defs>
	<use xlink:href="#SVGID_37_" style="overflow:visible;"></use>
	<clipPath id="SVGID_38_">
		<use xlink:href="#SVGID_37_" style="overflow:visible;"></use>
	</clipPath>
	<path class="st19" d="M254.8,51l-16.9-81.6l30.4,5.4L254.8,51z"></path>
</g>
<path d="M151.5,20.1c0,10-8.1,18-18,18c-10,0-18-8.1-18-18c0-10,8.1-18,18-18C143.5,2.1,151.5,10.2,151.5,20.1z"></path>
<g>
	<g>
		<defs>
			<circle id="SVGID_39_" cx="133.5" cy="20.1" r="18"></circle>
		</defs>
		<use xlink:href="#SVGID_39_" style="overflow:visible;"></use>
		<clipPath id="SVGID_40_">
			<use xlink:href="#SVGID_39_" style="overflow:visible;"></use>
		</clipPath>
		<path class="st20" d="M132.6,38.2l-3.5-31.1l28.7,51.8L132.6,38.2z"></path>
	</g>
	<g>
		<defs>
			<circle id="SVGID_41_" cx="133.5" cy="20.1" r="18"></circle>
		</defs>
		<use xlink:href="#SVGID_41_" style="overflow:visible;"></use>
		<clipPath id="SVGID_42_">
			<use xlink:href="#SVGID_41_" style="overflow:visible;"></use>
		</clipPath>
		<path class="st21" d="M129.1,7.1l10,82.7l-29.8-7.9L129.1,7.1z"></path>
	</g>
	<g>
		<defs>
			<circle id="SVGID_43_" cx="133.5" cy="20.1" r="18"></circle>
		</defs>
		<use xlink:href="#SVGID_43_" style="overflow:visible;"></use>
		<clipPath id="SVGID_44_">
			<use xlink:href="#SVGID_43_" style="overflow:visible;"></use>
		</clipPath>
		<path class="st22" d="M172.9,49.8L129.1,7.1l68.5,124L172.9,49.8z"></path>
	</g>
	<path class="st17" d="M312.3,76.8h-8c-2.5,0-4.4,0.8-5.8,2.4s-2,3.4-2,5.4v55.1h-15.7V84.6c0-6.5,2.3-12.1,6.8-16.7   s10.1-6.9,16.7-6.9h8V76.8z"></path>
	<path class="st17" d="M366.6,108.2h-31.5v8c0,2.4,0.8,4.3,2.5,5.7s3.5,2.1,5.7,2.1c5,0,7.5-2.6,7.6-7.8h15.8   c-0.6,7.4-3.3,13.3-8.1,17.5S348.3,140,342,140c-6.1,0-11.3-1.9-15.6-5.8c-4.7-4.4-7.1-10.3-7.1-17.9V84.8c0-7.6,2.5-13.5,7.4-17.9   c4.5-4,9.9-6,16.3-6s11.8,2,16.1,6c5,4.4,7.4,10.3,7.4,17.9L366.6,108.2z M350.8,92.6v-7.8c0-5.2-2.6-7.8-7.8-7.8   c-2.1,0-4,0.7-5.6,2c-1.6,1.4-2.4,3.3-2.4,5.8v7.8H350.8z"></path>
	<path class="st17" d="M420.8,84.6h-15.7c0-2.2-0.8-4.1-2.4-5.6s-3.4-2.2-5.5-2.2c-2.4,0-4.3,0.8-5.6,2.3c-1.4,1.5-2.1,3.4-2.1,5.5   c0,5.1,2.6,7.7,7.8,8c7.6,0.2,13.5,2.7,17.7,7.4c3.9,4.3,5.8,9.5,5.8,15.6c0,6.3-2,11.7-6,16.3c-4.4,5-10.2,7.6-17.5,7.8   c-6.4,0.2-11.8-1.9-16.5-6.6c-4.6-4.6-7-10.3-7-17h15.7c0,2.2,0.7,4.1,2.2,5.6c1.4,1.5,3.3,2.2,5.5,2.2c5.2,0,7.8-2.6,7.8-7.8   c0-5.1-2.6-7.7-7.8-8c-7.3-0.1-13.2-2.7-17.5-7.6c-3.9-4.4-5.8-9.7-5.8-16s1.9-11.6,5.8-16c4.4-5,10.2-7.5,17.5-7.6   c6.7-0.2,12.4,2.2,17.1,7.3C418.6,73.2,420.8,78.6,420.8,84.6L420.8,84.6z"></path>
	<path class="st17" d="M475.4,108.2h-31.6v8c0,2.4,0.8,4.3,2.5,5.7s3.5,2.1,5.7,2.1c5,0,7.5-2.6,7.6-7.8h15.8   c-0.6,7.4-3.3,13.3-8.1,17.5S457,140,450.7,140c-6.1,0-11.3-1.9-15.6-5.8c-4.7-4.4-7.1-10.3-7.1-17.9V84.8c0-7.6,2.5-13.5,7.4-17.9   c4.5-4,9.9-6,16.3-6s11.8,2,16.1,6c5,4.4,7.4,10.3,7.4,17.9L475.4,108.2z M459.6,92.6v-7.8c0-5.2-2.6-7.8-7.8-7.8   c-2.1,0-4,0.7-5.6,2c-1.6,1.4-2.4,3.3-2.4,5.8v7.8H459.6z"></path>
	<path class="st17" d="M498.3,139.7h-15.8V29.5h15.8V139.7z"></path>
	<path class="st17" d="M520.9,139.7h-15.7V29.5h15.7V139.7z"></path>
	<path class="st17" d="M575.2,108.2h-31.6v8c0,2.4,0.8,4.3,2.5,5.7s3.5,2.1,5.7,2.1c5,0,7.5-2.6,7.6-7.8h15.8   c-0.6,7.4-3.3,13.3-8.1,17.5s-10.3,6.3-16.6,6.3c-6.1,0-11.3-1.9-15.6-5.8c-4.7-4.4-7.1-10.3-7.1-17.9V84.9   c0-7.6,2.5-13.5,7.4-17.9c4.5-4,9.9-6,16.3-6s11.8,2,16.1,6c5,4.4,7.4,10.3,7.4,17.9v23.3L575.2,108.2z M559.4,92.6v-7.8   c0-5.2-2.6-7.8-7.8-7.8c-2.1,0-4,0.7-5.6,2c-1.6,1.4-2.4,3.3-2.4,5.8v7.8H559.4z"></path>
	<path class="st17" d="M613.8,76.8h-8c-2.5,0-4.4,0.8-5.8,2.4s-2,3.4-2,5.4v55.1h-15.8V84.6c0-6.5,2.3-12.1,6.8-16.7   c4.6-4.6,10.1-6.9,16.7-6.9h8L613.8,76.8L613.8,76.8z"></path>
	<path class="st23" d="M668,116.2c-0.5,7.4-3.2,13.4-8.2,17.7c-4.6,3.9-10,5.8-16.3,5.8s-11.5-1.9-15.8-5.8   c-4.7-4.4-7.1-10.3-7.1-17.7V84.7c0-7.4,2.4-13.3,7.1-17.5c4.3-3.9,9.5-5.8,15.8-5.8s11.6,1.9,16.1,5.8c5.1,4.4,7.9,10.2,8.3,17.5   h-15.8c0-5.1-2.7-7.6-8-7.6c-5.2,0-7.8,2.5-7.8,7.6v31.5c0,5.2,2.7,7.8,8,7.8c5.2,0,7.8-2.6,7.8-7.8H668z"></path>
	<path class="st23" d="M690.9,139.7h-15.8V29.5h15.8V139.7z"></path>
	<path class="st23" d="M745.1,116.2c0,7.4-2.5,13.4-7.4,17.7c-4.5,3.9-9.9,5.8-16.3,5.8s-11.8-1.9-16.1-5.8   c-5-4.4-7.4-10.3-7.4-17.7V61.1h15.8v55.1c0,2.5,0.8,4.4,2.4,5.8s3.5,2,5.6,2c5.2,0,7.8-2.6,7.8-7.8V61.1h15.8v55.1H745.1z"></path>
	<path class="st23" d="M799.6,116.2c0,7.4-2.5,13.4-7.4,17.7c-4.5,3.9-9.9,5.8-16.3,5.8s-11.8-1.9-16.1-5.8   c-5-4.4-7.4-10.3-7.4-17.7V29.5h15.8V61h7.8c6,0,11.4,2.1,16.1,6.4c5.1,4.6,7.6,10.3,7.6,17.2L799.6,116.2L799.6,116.2z    M783.8,116.2V84.7c0-2.1-0.8-4-2.3-5.5s-3.4-2.3-5.7-2.3H768v39.3c0,5.2,2.7,7.8,8,7.8C781.2,124,783.8,121.4,783.8,116.2z"></path>
</g>
</svg>
