<?xml version="1.0" encoding="UTF-8"?>
<svg xmlns="http://www.w3.org/2000/svg" xmlns:xlink="http://www.w3.org/1999/xlink" width="360px" height="97px" viewBox="0 0 360 97" version="1.1">
  <title>ReSCI_added width</title>
  <g id="dot.com-assets" stroke="none" stroke-width="1" fill="none" fill-rule="evenodd">
    <g id="ReSCI_added-width" transform="translate(0.000000, 0.500000)">
      <g id="retentionscience-logo" transform="translate(8.000000, 14.500000)" fill="#000000" fill-rule="nonzero">
        <path d="M188.914557,22.2626582 L175.811392,22.2626582 C175.641772,22.093038 175.514557,21.9234177 175.387342,21.7537975 C172.885443,15.7322785 168.560127,12.4246835 161.860127,12.5943038 C155.244937,12.7639241 150.66519,16.1563291 148.332911,22.0506329 C144.643671,31.3373418 144.770886,40.5816456 150.75,49.0626582 C155.923418,56.4835443 170.425949,57.2892405 175.005696,46.2639241 C175.217722,45.7550633 175.472152,45.2886076 175.768987,44.7373418 L188.702532,44.7373418 C187.812025,53.7696203 181.281646,62.0386076 172.376582,65.006962 C154.057595,71.1132911 135.781013,59.8335443 132.982278,40.4968354 C131.498101,30.0651899 132.812658,20.1848101 139.385443,11.5341772 C149.181013,-1.31455696 169.705063,-3.30759494 181.239241,7.46329114 C185.479747,11.406962 187.76962,16.4107595 188.914557,22.2626582 Z" id="Path"></path>
        <polygon id="Path" points="195.487342 1.78101266 208.632911 1.78101266 208.632911 65.2613924 195.487342 65.2613924"></polygon>
        <path d="M95.5386076,37.6981013 L95.5386076,24.5525316 C101.263291,26.6303797 107.157595,27.478481 112.839873,28.9626582 C113.772785,29.2170886 114.748101,29.5139241 115.638608,29.8531646 C123.610759,32.821519 127.936076,38.2917722 128.063291,46.221519 C128.190506,54.3208861 124.458861,60.3 117.08038,63.7772152 C110.168354,67.0424051 102.959494,67.1272152 95.4962025,65.4734177 L95.4962025,52.9639241 C98.3797468,54.7873418 101.475316,55.4234177 104.782911,55.2962025 C106.818354,55.2962025 108.853797,54.8721519 110.71962,53.9816456 C113.687975,52.4550633 114.960127,50.0379747 114.790506,46.7303797 C114.620886,43.7620253 112.755063,42.1506329 110.210759,41.2601266 C106.139873,39.8183544 101.856962,39.2246835 97.7012658,38.164557 L95.5386076,37.6981013 Z" id="Path"></path>
        <path d="M44.2708861,65.3037975 L40.4120253,65.3037975 L21.0753165,36.5531646 L3.26518987,36.5531646 L3.26518987,65.1341772 C2.20506329,65.3886076 1.10253165,65.3886076 0,65.2189873 L0,1.78101266 C1.86582278,1.78101266 3.64683544,1.73860759 5.47025316,1.78101266 C12.5943038,1.95063291 19.7607595,1.22974684 26.8424051,2.24746835 C34.5601266,3.30759494 39.4791139,8.05696203 40.7936709,15.4778481 C42.193038,23.3651899 39.3094937,30.4892405 33.2879747,33.8392405 C30.828481,35.2386076 28.114557,35.9170886 24.8917722,36.2987342 L44.2708861,65.3037975 Z M3.26518987,33.1607595 C3.43481013,33.2455696 3.64683544,33.2879747 3.8164557,33.3303797 C8.7778481,33.3303797 13.6968354,33.3727848 18.6582278,33.3727848 C21.4993671,33.3727848 24.2981013,33.3727848 27.0968354,32.7791139 C33.9240506,31.2525316 37.6981013,26.4607595 37.7405063,19.2094937 C37.7829114,11.9582278 34.0936709,7.20886076 27.1816456,5.63987342 C23.8316456,4.87658228 20.4392405,5.21582278 17.0468354,5.17341772 C12.4670886,5.13101266 7.92974684,5.17341772 3.26518987,5.17341772 L3.26518987,33.1607595 Z" id="Shape"></path>
        <path d="M53.0063291,5.08860759 L53.0063291,30.9556962 L84.7677215,30.9556962 C85.2765823,31.9310127 84.9797468,32.9063291 84.9797468,34.0088608 L53.0063291,34.0088608 L53.0063291,62.0386076 L88.1177215,62.0386076 C88.414557,63.0987342 88.456962,64.2012658 88.2025316,65.2613924 L49.7411392,65.2613924 L49.7411392,1.90822785 L88.1177215,1.90822785 C88.6265823,2.84113924 88.2025316,3.85886076 88.3721519,5.08860759 L53.0063291,5.08860759 Z" id="Path"></path>
        <path d="M127.427215,19.0822785 L114.451266,19.0822785 C110.974051,11.1101266 102.408228,10.1348101 95.5810127,13.2303797 L95.5810127,1.65379747 C107.878481,-3.94367089 125.434177,5.51265823 127.427215,19.0822785 Z" id="Path"></path>
      </g>
      <rect id="Rectangle" x="0" y="0" width="360" height="96"></rect>
    </g>
  </g>
</svg>
