<?xml version="1.0" encoding="UTF-8"?>
<!-- Generator: Adobe Illustrator 24.3.0, SVG Export Plug-In . SVG Version: 6.00 Build 0)  -->
<svg xmlns="http://www.w3.org/2000/svg" xmlns:xlink="http://www.w3.org/1999/xlink" version="1.1" id="Layer_1" x="0px" y="0px" viewBox="0 0 658.5 157.2" style="enable-background:new 0 0 658.5 157.2;" xml:space="preserve">
<path d="M445.5,52.5h-30.9c-0.4-0.4-0.7-0.8-1-1.2c-5.9-14.2-16.1-22-31.9-21.6c-15.6,0.4-26.4,8.4-31.9,22.3  c-8.7,21.9-8.4,43.7,5.7,63.7c12.2,17.5,46.4,19.4,57.2-6.6c0.5-1.2,1.1-2.3,1.8-3.6H445c-2.1,21.3-17.5,40.8-38.5,47.8  c-43.2,14.4-86.3-12.2-92.9-57.8c-3.5-24.6-0.4-47.9,15.1-68.3c23.1-30.3,71.5-35,98.7-9.6C437.4,26.9,442.8,38.7,445.5,52.5z"></path>
<path d="M461,4.2h31v149.7h-31V4.2z"></path>
<path d="M225.3,88.9v-31c13.5,4.9,27.4,6.9,40.8,10.4c2.2,0.6,4.5,1.3,6.6,2.1c18.8,7,29,19.9,29.3,38.6  c0.3,19.1-8.5,33.2-25.9,41.4c-16.3,7.7-33.3,7.9-50.9,4v-29.5c6.8,4.3,14.1,5.8,21.9,5.5c4.8,0,9.6-1,14-3.1c7-3.6,10-9.3,9.6-17.1  c-0.4-7-4.8-10.8-10.8-12.9c-9.6-3.4-19.7-4.8-29.5-7.3L225.3,88.9z"></path>
<path d="M104.4,154h-9.1L49.7,86.2h-42v67.4c-2.5,0.6-5.1,0.6-7.7,0.2V4.2c4.4,0,8.6-0.1,12.9,0c16.8,0.4,33.7-1.3,50.4,1.1  C81.5,7.8,93.1,19,96.2,36.5c3.3,18.6-3.5,35.4-17.7,43.3c-5.8,3.3-12.2,4.9-19.8,5.8L104.4,154z M7.7,78.2c0.4,0.2,0.9,0.3,1.3,0.4  c11.7,0,23.3,0.1,35,0.1c6.7,0,13.3,0,19.9-1.4c16.1-3.6,25-14.9,25.1-32s-8.6-28.3-24.9-32c-7.9-1.8-15.9-1-23.9-1.1  c-10.8-0.1-21.5,0-32.5,0L7.7,78.2z"></path>
<path d="M125,12v61h74.9c1.2,2.3,0.5,4.6,0.5,7.2H125v66.1h82.8c0.7,2.5,0.8,5.1,0.2,7.6h-90.7V4.5h90.5c1.2,2.2,0.2,4.6,0.6,7.5  H125z"></path>
<path d="M300.5,45h-30.6c-8.2-18.8-28.4-21.1-44.5-13.8V3.9C254.4-9.3,295.8,13,300.5,45z"></path>
</svg>
