<?xml version="1.0" encoding="UTF-8"?>
<!-- Generator: Adobe Illustrator 24.3.0, SVG Export Plug-In . SVG Version: 6.00 Build 0)  -->
<svg xmlns="http://www.w3.org/2000/svg" xmlns:xlink="http://www.w3.org/1999/xlink" version="1.1" id="Layer_1" x="0px" y="0px" viewBox="0 0 684.5 92.1" style="enable-background:new 0 0 684.5 92.1;" xml:space="preserve">
<style type="text/css">
	.st0{fill:#231F20;}
</style>
<path class="st0" d="M18.9,25.7c-4.5-0.5-9.3-3.2-9.3-8.2C9.6,12.1,14,8,19.9,8c4.1,0.2,7,1.4,9.8,4c0.4,0.4,1.1,0.6,1.6,0.5  s1.1-0.4,1.4-1l1.6-2.7C34.8,8,34.6,7,34,6.3C30.6,3.1,25.1,1,19.8,1C10.1,1,2.4,8.2,2.4,17.5c0,8.2,5.5,13.5,15.5,15.1  c0.5,0.1,1.1,0.2,1.8,0.3c7,0.9,13.5,2.8,13.5,10.3c0,6.4-4.5,11-11,11c-0.1,0-9.9-0.1-14.1-6.5c-0.3-0.6-1-0.9-1.6-0.9  s-1.3,0.3-1.7,0.8L3,50c-0.5,0.7-0.5,1.6-0.1,2.3c5.9,8.7,18.7,8.9,19.3,8.9c10.3-0.3,18-7.8,18-17.5C40.5,36.5,36.7,27.5,18.9,25.7  L18.9,25.7z"></path>
<path class="st0" d="M54.5,0.8h-3c-1.1,0-2,0.9-2,2V59c0,1.1,0.9,2,2,2h3c1.1,0,2-0.9,2-2V2.8C56.5,1.6,55.6,0.8,54.5,0.8z"></path>
<path class="st0" d="M111.9,1.2H67.2c-1.1,0-2,0.9-2,2v3.2c0,1.1,0.9,2,2,2H86v51.1c0,1.1,0.9,2,2,2h3.1c1.1,0,2-0.9,2-2V8.4h18.8  c1.1,0,2-0.9,2-2V3.2C113.9,2,113,1.2,111.9,1.2L111.9,1.2z"></path>
<path class="st0" d="M156.4,1.4h-31.8c-1.1,0-2,0.9-2,2v55.8c0,1.1,0.9,2,2,2h31.1c1.1,0,2-0.9,2-2V56c0-1.1-0.9-2-2-2h-25.9V35.6  h19.8c1.1,0,2-0.9,2-2v-3.1c0-1.1-0.9-2-2-2h-19.8v-20h26.6c1.1,0,2-0.9,2-2v-3C158.4,2.3,157.5,1.4,156.4,1.4z"></path>
<g>
	<path class="st0" d="M199.5,30.5l-0.4-0.2l0.3-0.3c0,0,0.1,0,0.1-0.1c2.9-3.3,4.4-7.3,4.4-11.5c0-9.3-7.5-16.9-16.8-17h-18.2   c-1.1,0-2,0.9-2,2v55.7c0,1.1,0.9,2,2,2h22l0,0c9-0.1,16.4-7.5,16.4-16.6C207.3,38.7,204.4,33.5,199.5,30.5z M191,54h-16.9V35.3   h16.7c5.3,0,9.2,3.9,9.2,9.2C200,50,196.2,54,191,54L191,54z M186.9,28h-12.8V8.6h12.8c5.5,0,9.8,4.3,9.8,9.8   C196.7,23.8,192.4,28,186.9,28z"></path>
	<path class="st0" d="M256,1h-3.4c-1.1,0-2,0.9-2,2v36.6c0,7.8-6.4,14.1-14.2,14.1s-14.2-6.3-14.2-14.2V3c0-1.1-0.9-2-2-2h-3.4   c-1.1,0-2,0.9-2,2v36.4c-0.2,5.4,1.8,10.7,5.7,14.8c4.2,4.4,10,6.9,15.9,6.9c11.8,0,21.3-9.5,21.5-21.8V3C258,1.9,257.1,1,256,1z"></path>
	<path class="st0" d="M273,0.8h-3c-1.1,0-2,0.9-2,2V59c0,1.1,0.9,2,2,2h3c1.1,0,2-0.9,2-2V2.8C275,1.6,274.1,0.8,273,0.8z"></path>
	<path class="st0" d="M316.1,54h-23.8V3.2c0-1.1-0.9-2-2-2h-3.5c-1.1,0-2,0.9-2,2v56.1c0,1.1,0.9,2,2,2h29.3c1.1,0,2-0.9,2-2v-3.2   C318.1,54.9,317.2,54,316.1,54z"></path>
	<path class="st0" d="M342.4,1.1h-13.8c-1.1,0-2,0.9-2,2v56c0,1.1,0.9,2,2,2h13.8l0,0C358.7,60.9,372,47.4,372,31   C372,14.8,358.8,1.3,342.4,1.1L342.4,1.1z M333.9,54l-0.1-45.5h8.2c12.2,0,22.5,10.3,22.5,22.6c0,12.5-10.3,23-22.5,23L333.9,54   L333.9,54z"></path>
	<path class="st0" d="M414.6,1.4h-31.8c-1.1,0-2,0.9-2,2v55.8c0,1.1,0.9,2,2,2h31.1c1.1,0,2-0.9,2-2V56c0-1.1-0.9-2-2-2H388V35.6   h19.8c1.1,0,2-0.9,2-2v-3.1c0-1.1-0.9-2-2-2H388v-20h26.6c1.1,0,2-0.9,2-2v-3C416.6,2.3,415.7,1.4,414.6,1.4z"></path>
	<path class="st0" d="M461.6,58.5l-9.5-21l0.3-0.2c5.6-3.6,8.9-9.8,8.9-16.6c0-10.7-8.7-19.6-19.4-19.8h-14.7c-1.1,0-2,0.9-2,2v56.3   c0,1.1,0.9,2,2,2h3c1.1,0,2-0.9,2-2V40.6l9.7-0.1c0.7,0,2,0,3.6-0.3l9,19.9c0.3,0.7,1,1.2,1.8,1.2h3.4c0.7,0,1.3-0.3,1.7-0.9   S461.9,59.1,461.6,58.5z M432.3,8h9.4c7.1,0,12.8,5.7,12.8,12.8s-5.7,12.8-12.8,12.8h-9.4V8z"></path>
</g>
<path class="st0" d="M546.1,7.2l-1.7,3.1c-3.8-2.4-8.2-3.5-12.7-3.5c-13.4,0-24.6,11.2-24.6,24.6S518.4,56,531.7,56  c4.6,0,9-1.3,12.9-3.7l1.6,3.2c-4.4,2.6-9.4,4-14.5,4c-15.4,0-28.1-12.6-28.1-28.1s12.6-28.2,28.1-28.2  C536.9,3.2,541.8,4.6,546.1,7.2L546.1,7.2z"></path>
<path class="st0" d="M605.7,31c0,15.4-12,28.1-26.8,28.1S552.1,46.5,552.1,31s12-28,26.8-28S605.7,15.6,605.7,31z M602.8,31  c0-13.4-10.9-24.6-23.8-24.6c-12.9,0-23.8,11.3-23.8,24.6c0,13.4,11,24.7,23.8,24.7C591.9,55.7,602.8,44.4,602.8,31z"></path>
<path class="st0" d="M647.8,54.7L626.9,6.8l-10.2,52.3h-3.2l10.8-56.5l4.4,0.1l19.1,43.8l19-43.8l4.4-0.1l10.9,56.5h-3.2L668.7,6.8  L647.8,54.7z"></path>
<path class="st0" d="M506.7,72.7l-26.5-26.8l2.5,37.6l8.4-7.3l6.3,14.1l4.9-2.2l-6.3-14L506.7,72.7z"></path>
</svg>
