<?xml version="1.0" encoding="UTF-8"?>
<svg xmlns="http://www.w3.org/2000/svg" fill="none" viewBox="0 0 127 42">
  <path fill-rule="evenodd" clip-rule="evenodd" d="M0 37.291c0-1.617.966-2.8665 2.5935-2.8665 1.533 0 2.499 1.1025 2.499 2.583 0 .168-.0105.315-.021.42H.9345c.0105 1.176.756 1.8795 1.785 1.8795.609 0 1.1655-.2415 1.554-.735l.5985.546c-.5145.6195-1.2495 1.008-2.205 1.008C.9765 40.126 0 38.908 0 37.291zm.9555-.5565H4.179c-.063-1.0605-.777-1.5435-1.596-1.5435-.9345 0-1.554.6405-1.6275 1.5435zm11.4555-2.898l-.7455.525c-.462-.7035-1.1865-1.113-2.1-1.113-1.575 0-2.5515 1.2075-2.5515 3.003 0 1.806.9975 3.003 2.5935 3.003.924 0 1.575-.399 2.0895-1.1235l.756.525c-.6825.966-1.617 1.4805-2.8455 1.4805-2.1735 0-3.591-1.617-3.591-3.885 0-2.247 1.407-3.885 3.549-3.885 1.2285 0 2.205.5355 2.8455 1.47zm6.0585 3.444c0 1.6275-1.008 2.8455-2.6145 2.8455-1.596 0-2.5935-1.218-2.5935-2.8455 0-1.6485.9975-2.856 2.5935-2.856 1.6065 0 2.6145 1.2075 2.6145 2.856zm-.945 0c0-1.1655-.609-2.058-1.6695-2.058-1.05 0-1.659.8925-1.659 2.058 0 1.1445.609 2.0475 1.659 2.0475 1.0605 0 1.6695-.903 1.6695-2.0475zM24.0975 40h-.882v-3.381c0-.7245-.2415-1.3755-1.113-1.3755-.8505 0-1.4805.672-1.4805 1.6485V40h-.882v-5.4495h.882v.7875c.3675-.5565.966-.9135 1.701-.9135.756 0 1.3335.3675 1.5855 1.0395.3675-.567 1.0395-1.0395 1.8585-1.0395 1.092 0 1.7955.7245 1.7955 1.9845V40h-.882v-3.381c0-.7245-.231-1.3755-1.113-1.3755-.84 0-1.47.672-1.47 1.6485V40zm9.387 0h-.882v-3.381c0-.7245-.2415-1.3755-1.113-1.3755-.8505 0-1.4805.672-1.4805 1.6485V40h-.882v-5.4495h.882v.7875c.3675-.5565.966-.9135 1.701-.9135.756 0 1.3335.3675 1.5855 1.0395.3675-.567 1.0395-1.0395 1.8585-1.0395 1.092 0 1.7955.7245 1.7955 1.9845V40h-.882v-3.381c0-.7245-.231-1.3755-1.113-1.3755-.84 0-1.47.672-1.47 1.6485V40zm4.683-2.709c0-1.617.966-2.8665 2.5935-2.8665 1.533 0 2.499 1.1025 2.499 2.583 0 .168-.0105.315-.021.42h-4.137c.0105 1.176.756 1.8795 1.785 1.8795.609 0 1.1655-.2415 1.554-.735l.5985.546c-.5145.6195-1.2495 1.008-2.205 1.008-1.6905 0-2.667-1.218-2.667-2.835zm.9555-.5565h3.2235c-.063-1.0605-.777-1.5435-1.596-1.5435-.9345 0-1.554.6405-1.6275 1.5435zm8.5785-2.1l-.21.8085c-.1575-.0945-.42-.147-.651-.147-.777 0-1.4595.63-1.4595 1.9005V40h-.882v-5.4495h.882v.798c.3045-.525.9135-.903 1.5855-.903.3255 0 .5985.0945.735.189zm5.229.9135l-.6615.462c-.315-.483-.8085-.777-1.428-.777-1.071 0-1.7325.8505-1.7325 2.037 0 1.197.6615 2.037 1.7325 2.037.6615 0 1.1445-.315 1.4595-.777l.651.4935c-.462.651-1.197 1.1025-2.163 1.1025-1.596 0-2.6145-1.2285-2.6145-2.856 0-1.617 1.029-2.8455 2.6145-2.8455.9765 0 1.701.462 2.142 1.1235zm.819 1.743c0-1.617.966-2.8665 2.5935-2.8665 1.533 0 2.499 1.1025 2.499 2.583 0 .168-.0105.315-.021.42h-4.137c.0105 1.176.756 1.8795 1.785 1.8795.609 0 1.1655-.2415 1.554-.735l.5985.546c-.5145.6195-1.2495 1.008-2.205 1.008-1.6905 0-2.667-1.218-2.667-2.835zm.9555-.5565h3.2235c-.063-1.0605-.777-1.5435-1.596-1.5435-.9345 0-1.554.6405-1.6275 1.5435zm8.211-4.2315h.882v2.898c.441-.6825 1.1445-.9765 1.8585-.9765 1.512 0 2.4675 1.2285 2.4675 2.8455s-.966 2.856-2.4675 2.856c-.7245 0-1.4175-.3045-1.8585-.9765V40h-.882v-7.497zm.882 4.7775c0 1.134.609 2.0265 1.722 2.0265s1.6695-.8925 1.6695-2.0265c0-1.1235-.546-2.0475-1.6695-2.0475s-1.722.924-1.722 2.0475zm5.4495 4.536l.1995-.735c.105.0525.231.084.3465.084.4095 0 .651-.2625 1.008-1.1865l-2.142-5.4285h.9975l1.6065 4.326 1.596-4.326h.966l-2.205 5.586c-.5145 1.3125-.903 1.7955-1.722 1.7955-.315 0-.546-.063-.651-.1155zM79.3758 42c-1.0152 0-1.8378-.8225-1.8378-1.8386v-7.3228c0-1.0152.8226-1.8386 1.8378-1.8386h7.3244c1.0143 0 1.8378.8234 1.8378 1.8386v7.3228c0 1.0161-.8235 1.8386-1.8378 1.8386h-7.3244zm.162-8.4194v5.8388c0 .3202.2589.58.5791.58h5.8394c.3211 0 .5809-.2598.5809-.58v-5.8388c0-.3212-.2598-.5809-.5809-.5809h-5.8394c-.3202 0-.5791.2597-.5791.5809zm4.6669 1.4197c.1841 0 .3336.1495.3336.3355v2.3303c0 .1851-.1495.3346-.3336.3346h-2.3334c-.1851 0-.3327-.1495-.3327-.3346v-2.3303c0-.186.1476-.3355.3327-.3355h2.3334zm10.4413-1.7728c-.861 0-1.575.4095-1.575 1.155 0 .504.3465.7875.882.987 1.176.4515 3.5175.567 3.5175 2.499 0 1.302-1.0395 2.268-2.73 2.268-1.2495 0-2.2785-.5355-2.8455-1.428l.7665-.5355c.5145.8295 1.386 1.1025 2.1315 1.1025 1.05 0 1.722-.525 1.722-1.3335 0-.8505-.7455-1.071-1.8165-1.344-1.2285-.2835-2.583-.6825-2.583-2.1525 0-1.365 1.197-2.079 2.5725-2.079 1.071 0 2.0055.4305 2.6145 1.239l-.7245.5355c-.441-.567-1.1235-.9135-1.932-.9135zm9.177 8.5995h-.882v-2.6775c-.451.6825-1.145.9765-1.869.9765-1.512 0-2.457-1.2285-2.457-2.8455s.9555-2.856 2.457-2.856c.735 0 1.418.3045 1.869.9765v-.8505h.882v7.2765zm-.882-4.557c0-1.134-.609-2.037-1.732-2.037-1.103 0-1.6595.903-1.6595 2.037 0 1.1235.5465 2.037 1.6595 2.037 1.134 0 1.732-.9135 1.732-2.037zm6.321-2.7195h.882V40h-.882v-.819c-.378.567-1.018.945-1.816.945-1.134 0-1.87-.756-1.87-2.0475v-3.528h.893v3.318c0 .756.231 1.428 1.176 1.428.924 0 1.617-.6825 1.617-1.7115v-3.0345zM116.035 40h-.861v-.672c-.389.546-.956.798-1.681.798-1.144 0-1.889-.6195-1.889-1.659 0-1.2915 1.123-1.5225 1.826-1.638.819-.126 1.722-.189 1.722-.8715 0-.567-.619-.7455-1.175-.7455-.546 0-1.239.1785-1.722.567l-.4-.672c.557-.4095 1.344-.6825 2.174-.6825 1.186 0 2.006.5355 2.006 1.659V40zm-.883-2.142v-.8085c-.378.273-.997.357-1.543.4515-.63.1155-1.102.273-1.102.9135 0 .672.514.9345 1.123.9345.777 0 1.522-.4305 1.522-1.491zm5.87-3.2235l-.21.8085c-.158-.0945-.42-.147-.651-.147-.777 0-1.46.63-1.46 1.9005V40h-.881v-5.4495h.881v.798c.305-.525.914-.903 1.586-.903.326 0 .599.0945.735.189zm.682 2.6565c0-1.617.966-2.8665 2.594-2.8665 1.533 0 2.499 1.1025 2.499 2.583 0 .168-.01.315-.021.42h-4.137c.01 1.176.756 1.8795 1.785 1.8795.609 0 1.165-.2415 1.554-.735l.598.546c-.514.6195-1.249 1.008-2.205 1.008-1.69 0-2.667-1.218-2.667-2.835zm.956-.5565h3.223c-.063-1.0605-.777-1.5435-1.596-1.5435-.934 0-1.553.6405-1.627 1.5435zM77.8488 8.79886c1.1502-1.44115 2.9185-2.22915 5.0302-2.22915 4.5092 0 7.659 3.65939 7.659 8.89889 0 5.2771-3.1498 8.9628-7.659 8.9628-2.0998 0-3.8692-.7988-5.0302-2.26v1.8783H73.538V0h4.3108v8.79886zM81.9909 20.612c2.9834 0 4.0463-2.624 4.0463-5.0794 0-2.4863-1.0629-5.1429-4.0463-5.1429-2.861 0-4.1421 2.5834-4.1421 5.1429 0 3.0851 1.6256 5.0794 4.1421 5.0794zm9.5471 3.4383V0h4.3686v24.0503H91.538zm-36.8765-9.0639l-.0023 1.6395H42.5769c.0903 2.4411 1.7463 3.9497 4.3543 3.9497 1.7548 0 3.2394-.6972 4.2926-2.0177l.0965-.1212 2.8155 2.652-.0869.1035c-1.8229 2.1674-4.2937 3.2662-7.3423 3.2662-5.3406 0-8.7914-3.48-8.7914-8.8668 0-5.38 3.4297-8.9943 8.5337-8.9943 4.912 0 8.2126 3.37143 8.2126 8.3891zm-11.9457-1.5897h7.7462c-.3931-1.8697-1.8131-2.9805-3.8297-2.9805-2 0-3.4863 1.1365-3.9165 2.9805zm29.5612 1.5897l-.0023 1.6395H60.1924c.0903 2.4411 1.7463 3.9497 4.3543 3.9497 1.7548 0 3.2394-.6972 4.2925-2.0177l.0966-.1212 2.8155 2.652-.0869.1035c-1.8229 2.1674-4.2937 3.2662-7.3423 3.2662-5.3406 0-8.7914-3.48-8.7914-8.8668 0-5.38 3.4297-8.9943 8.5337-8.9943 4.912 0 8.2126 3.37143 8.2126 8.3891zm-11.9458-1.5897h7.7463c-.3931-1.8697-1.8131-2.9805-3.8297-2.9805-2 0-3.4863 1.1365-3.9166 2.9805zM33.5419 6.97821h4.6406L33.5071 24.0771h-4.9629l-3.1406-10.9943-3.2028 10.9943h-4.98l-.0286-.1057-4.6148-16.99319h4.672l2.6017 10.88859 3.1577-10.88859h4.8063l3.1571 10.88519 2.5697-10.88519zM109.838 7h4.68l-9.156 23.9891h-4.19l2.599-6.9377L96.9978 7h4.9092l3.98 11.3943L109.838 7z" fill="#000"></path>
</svg>
