<?xml version="1.0" encoding="UTF-8"?>
<svg xmlns="http://www.w3.org/2000/svg" xmlns:xlink="http://www.w3.org/1999/xlink" width="331px" height="54px" viewBox="0 0 331 54" version="1.1">
  <!-- Generator: Sketch 58 (84663) - https://sketch.com -->
  <title>Shape</title>
  <desc>Created with Sketch.</desc>
  <g id=".com_site" stroke="none" stroke-width="1" fill="none" fill-rule="evenodd">
    <g id="01_Home_desktop" transform="translate(-748.000000, -1756.000000)" fill="#000000" fill-rule="nonzero">
      <g id="bluehost-copy" transform="translate(748.000000, 1756.000000)">
        <path d="M0,0 L15.0003182,0 L15.0003182,14.82135 L0,14.82135 L0,0 Z M19.3635,0 L34.3788636,0 L34.3788636,14.82135 L19.3635,14.82135 L19.3635,0 Z M38.727,0 L53.7423636,0 L53.7423636,14.82135 L38.727,14.82135 L38.727,0 Z M0,19.1867476 L15.0003182,19.1867476 L15.0003182,34.023099 L0,34.023099 L0,19.1867476 Z M19.3635,19.1867476 L34.3788636,19.1867476 L34.3788636,34.023099 L19.3635,34.023099 L19.3635,19.1867476 Z M38.727,19.1867476 L53.7423636,19.1867476 L53.7423636,34.023099 L38.727,34.023099 L38.727,19.1867476 Z M0,38.3584939 L15.0003182,38.3584939 L15.0003182,53.1948452 L0,53.1948452 L0,38.3584939 Z M19.3635,38.3584939 L34.3788636,38.3584939 L34.3788636,53.1948452 L19.3635,53.1948452 L19.3635,38.3584939 Z M38.727,38.3584939 L53.7423636,38.3584939 L53.7423636,53.1948452 L38.727,53.1948452 L38.727,38.3584939 Z M84.4501364,22.9520906 C87.6096818,20.1918392 91.6719545,18.6466984 95.8846818,18.6316971 C103.557864,18.6316971 111.005364,23.8071685 111.005364,36.2433012 C111.005364,49.0994722 102.670182,53.9599149 93.7632727,53.9599149 C89.1292727,53.9299122 84.6005909,52.7148015 80.5834545,50.4195924 L80.5834545,0.0300027328 L84.4200455,0.0300027328 L84.4200455,22.9520906 L84.4501364,22.9520906 Z M84.4501364,48.3494039 C87.2485909,49.789535 90.363,50.5546047 93.5075,50.5846075 C100.563818,50.5846075 107.138682,46.4892344 107.138682,36.2733039 C107.093545,27.2874855 102.038273,22.1120141 95.5386364,22.1120141 C91.1152727,22.1120141 87.1282273,24.4972313 84.4350909,27.4224978 L84.4350909,48.3494039 L84.4501364,48.3494039 Z M117.700591,53.3448589 L117.700591,0 L121.386727,0 L121.386727,53.3448589 L117.700591,53.3448589 Z M134.175364,40.0236455 C134.175364,48.1393847 138.207545,50.359587 142.239727,50.359587 C146.768409,50.359587 150.920955,47.5543314 154.140682,42.8889065 L154.140682,19.1717462 L157.977273,19.1717462 L157.977273,53.3298575 L154.140682,53.3298575 L154.140682,46.759259 C151.1015,51.0046457 146.271909,53.8999094 141.006,53.8999094 C135.559545,53.8999094 130.338773,50.8246293 130.338773,40.4286824 L130.338773,19.1717462 L134.175364,19.1717462 L134.175364,40.0236455 Z M194.688182,51.0646512 C190.910592,53.1041153 186.659996,54.113196 182.365955,53.9899176 C170.765909,53.6148835 164.822955,44.6140636 165.199091,35.0281905 C165.620364,24.2872122 173.684727,18.4516807 182.290727,18.751708 C191.588818,18.9767285 197.922955,26.3423994 196.689227,37.1283818 L168.945409,37.1283818 C168.900273,43.4439571 173.444,50.2245747 182.531455,50.524602 C186.307864,50.5996088 190.054182,49.6995268 193.349136,47.8843615 L194.688182,51.0646512 Z M193.108409,33.9930962 C193.258864,28.0375538 189.076227,22.3820387 181.929636,22.1570182 C175.023773,21.9319977 169.562273,27.0174609 169.110909,33.9930962 L193.108409,33.9930962 Z M209.192,25.877357 C212.035591,21.6319703 216.609409,18.6616998 221.860273,18.6616998 C228.766136,18.6616998 232.843455,23.8371712 232.843455,31.4428639 L232.843455,53.3298575 L229.036955,53.3298575 L229.036955,32.2529377 C229.036955,24.8572641 225.200364,22.232025 221.047818,22.2020223 C216.022636,22.1570182 211.524045,26.0273707 209.176955,29.9127246 L209.176955,53.3598602 L205.340364,53.3598602 L205.340364,0.0450040992 L209.176955,0.0450040992 L209.176955,25.8923584 L209.176955,25.877357 L209.192,25.877357 Z M272.367864,36.2282998 C272.367864,47.5393301 264.619455,53.8699067 255.742636,53.8699067 C245.797591,53.8699067 239.117409,45.979188 239.117409,36.2282998 C239.117409,25.8923584 246.489682,18.6616998 255.742636,18.6616998 C264.649545,18.6616998 272.367864,25.1872942 272.367864,36.2282998 Z M242.984091,36.2282998 C242.984091,43.7739871 247.437545,50.3445856 255.727591,50.3445856 C263.746818,50.3445856 268.516227,43.7439844 268.516227,36.2282998 C268.516227,28.7126153 263.791955,22.1870209 255.727591,22.1870209 C247.482682,22.2020223 242.984091,28.6376084 242.984091,36.2282998 Z M281.139364,47.4643233 C283.862591,49.29449 287.067273,50.2995815 290.347182,50.3295842 C293.958091,50.3295842 298.456682,48.844449 298.411545,45.244121 C298.411545,42.1688409 295.116591,39.7836237 289.805545,37.7284365 C283.922773,35.4332274 278.762182,33.288032 278.762182,27.8275346 C278.762182,22.3670373 283.952864,18.7217053 290.738364,18.7217053 C294.0935,18.7667094 297.373409,19.6217872 300.307273,21.1969307 L298.847864,24.197204 C296.380409,22.8920851 293.627091,22.2020223 290.828636,22.1870209 C285.111364,22.1870209 282.538591,24.9622737 282.538591,27.842536 C282.538591,31.5178708 286.766364,32.8829951 292.1075,35.0581932 C300.442682,38.283487 302.203,41.9588218 302.203,45.1091087 C302.203,50.4645965 297.132682,53.839904 290.407364,53.839904 C286.525636,53.7948999 282.734182,52.7148015 279.424182,50.7196198 L281.139364,47.4643233 Z M327.419182,19.1717462 L327.419182,22.39704 L315.984636,22.39704 L315.984636,41.0737412 C315.984636,46.5792426 318.361818,50.1495678 323.402045,50.3295842 C325.643818,50.4045911 327.8555,49.9695514 329.886636,49.0544681 L331,52.3847714 C328.562636,53.3598602 325.959773,53.8849081 323.326818,53.8999094 C317.113045,53.8999094 312.148045,50.1495678 312.148045,41.3737685 L312.148045,22.4120414 L305.964364,22.4120414 L305.964364,19.1717462 L312.148045,19.1717462 L312.148045,7.74070506 L315.984636,7.74070506 L315.984636,19.1717462 L327.419182,19.1717462 Z" id="Shape"></path>
      </g>
    </g>
  </g>
</svg>
