<?xml version="1.0" encoding="UTF-8"?>
<svg width="231px" height="73px" viewBox="0 0 231 73" version="1.1" xmlns="http://www.w3.org/2000/svg" xmlns:xlink="http://www.w3.org/1999/xlink">
    <!-- Generator: Sketch 58 (84663) - https://sketch.com -->
    <title>EnduranceGroup_StandardLogotype_28.08.19</title>
    <desc>Created with Sketch.</desc>
    <g id=".com_site" stroke="none" stroke-width="1" fill="none" fill-rule="evenodd">
        <g id="00_menu_desktop" transform="translate(-605.000000, -25.000000)" fill="#000000" fill-rule="nonzero">
            <g id="EnduranceGroup_StandardLogotype_28.08.19" transform="translate(605.000000, 25.000000)">
                <path d="M99,50.5 C99,43.7089419 103.907875,38 111.976091,38 C120.139943,38 125,43.7089419 125,50.5 C125,57.2910581 120.139943,63 111.976091,63 C103.907875,63 99,57.2910581 99,50.5 Z M99,50.5 C99,43.7089419 103.907875,38 111.976091,38 L99,50.5 Z M117.692526,50.5 C117.692526,47.2024403 115.425514,44.4459387 111.973917,44.4459387 C108.572312,44.4459387 106.355292,47.2024403 106.355292,50.5 C106.355292,53.8465444 108.572312,56.5540613 111.973917,56.5540613 C115.425514,56.5540613 117.692526,53.8465444 117.692526,50.5 Z" id="Shape"></path>
                <path d="M96.0176168,38 C96.0176168,38 96.0176168,38 95.9823832,38" id="Path"></path>
                <path d="M25,24.6778589 L25,21.8278411 C25,16.0209298 20.1882564,11 12.6983416,11 C4.41506051,11 0,16.5619879 0,23.5 C0,30.4892234 4.513671,36 12.8978037,36 C18.9959659,36 23.6239355,32.867207 24.2828328,28.9840577 C24.3904079,28.3450303 24.2066338,27.7304952 23.3236217,27.7304952 L18.251905,27.7304952 C17.8978037,27.7304952 17.6378306,27.9242073 17.4294039,28.2337015 C16.6987898,29.6408978 15.2666965,30.5849662 12.8462573,30.5849662 C8.97803675,30.5849662 7.63783057,28.1735839 7.63783057,25.3191129 L24.2200807,25.3191129 C24.7646795,25.3235661 25,25.1677057 25,24.6778589 Z M7.63783057,21.1888137 C7.63783057,17.9847702 9.77140296,16.3103848 12.6490363,16.3103848 C15.5266697,16.3103848 17.5593904,18.1339508 17.5593904,21.1888137 L7.63783057,21.1888137 Z" id="Shape"></path>
                <path d="M51,21.1069959 L51,34.2098765 C51,34.8178326 50.814023,35 50.1933526,35 L50.1933526,35 L44.2196807,35 C43.5990104,35 43.4130333,34.8178326 43.4130333,34.2098765 L43.4130333,23.0010974 L43.4130333,23.0010974 C43.4130333,19.6496571 42.3711138,17.3165981 39.1983008,17.3165981 C36.1240781,17.3165981 34.5869667,19.6474623 34.5869667,23.242524 L34.5869667,34.2076818 C34.5869667,34.8156379 34.4009896,34.9978052 33.7803193,34.9978052 L33.7803193,34.9978052 L27.8066474,34.9978052 C27.185977,34.9978052 27,34.8156379 27,34.2076818 L27,12.3739369 C27,11.7659808 27.185977,11.5838134 27.8066474,11.5838134 L33.7803193,11.5838134 L33.7803193,11.5838134 C34.4009896,11.5838134 34.5869667,11.7659808 34.5869667,12.3739369 L34.5869667,14.9835391 C35.9268976,12.4573388 38.703109,11 42.4226496,11 C45.4968724,11 47.8294277,12.0205761 49.1178228,13.6710562 C50.6033984,15.4729767 51,17.7555556 51,21.1069959 Z" id="Path"></path>
                <path d="M70.9911916,30.9846084 L70.9911916,31.0153916 C70.9977979,31.0043976 71.0044042,30.9956024 71.0088084,30.9846084 L70.9911916,30.9846084 Z" id="Path"></path>
                <path d="M78.9582807,1.97377261 L78.9582807,1.97377261 C78.9560849,0.767703556 78.44667,0.399121873 77.8406418,0.401302829 C77.1467835,0.403483786 76.7888756,1.04032314 75.9237485,1.0425041 C75.0586214,1.04468506 74.410874,-0.00217416113 73.1878389,3.39255815e-06 C72.3446694,0.00218775228 71.5168701,0.564874582 71.5212616,2.09372523 L71.5476106,14.4357592 C70.4255803,12.3158693 67.4086142,10.5231229 64.3938438,10.5231229 C57.6331169,10.5231229 52.9847055,15.8272096 53.0000378,22.7800996 C53.0154461,29.7329896 57.6660533,35.0000034 64.4158013,35.0000034 C67.4152014,35.0000034 70.4431463,33.2290632 71.5651767,31.122259 L71.5651767,31.0917256 L71.5827427,31.0917256 C71.5783512,31.1026304 71.5695682,31.1113542 71.5651767,31.122259 L71.5651767,33.5867401 C71.5651767,34.1908651 71.7474242,34.3718845 72.3556481,34.3718845 L78.2095285,34.3718845 L78.2095285,34.3718845 C78.8177524,34.3718845 79,34.1908651 79,33.5867401 L79,1.97377261 L78.9582807,1.97377261 Z M65.990157,28.6883232 C62.6372405,28.6948542 60.3953756,25.9970107 60.3887738,22.7626519 C60.3822011,19.5762742 62.6108915,16.8195449 65.9660037,16.8129904 C69.321116,16.8064592 71.5607851,19.5522837 71.567387,22.7386614 C71.5739597,25.9730202 69.3430735,28.6795875 65.990157,28.6883232 Z" id="Shape"></path>
                <path d="M98.2203137,11 L104.193428,11 C104.81404,11 105,11.182184 105,11.7901957 L105,33.6259374 C105,34.2339491 104.81404,34.4161332 104.193428,34.4161332 L98.2203137,34.4161332 C97.5997013,34.4161332 97.4137416,34.2405341 97.4137416,33.6325224 L97.4137416,31.0160966 C96.0739358,33.5425279 93.2979836,35 89.5787901,35 C86.5048544,35 84.1725168,33.9793305 82.884242,32.3286995 C81.3965646,30.5310042 81,28.2482166 81,24.8942747 L81,11.7901957 C81,11.182184 81.1859597,11 81.8065721,11 L81.8065721,11 L87.7796863,11 C88.4002987,11 88.5862584,11.182184 88.5862584,11.7901957 L88.5862584,23 L88.5862584,23 C88.5862584,26.3517468 89.6280807,28.6850192 92.8005975,28.6850192 C95.8745332,28.6850192 97.4115011,26.3539418 97.4115011,22.7585513 L97.4115011,11.7923907 C97.4137416,11.182184 97.5997013,11 98.2203137,11 Z" id="Path"></path>
                <path d="M150.209526,11.5922693 L144.355629,11.5922693 C143.747403,11.5922693 143.565155,11.7770752 143.565155,12.3938368 L143.565155,12.3938368 L143.565155,14.9922515 C142.447513,12.8235661 139.434929,11 136.42015,11 C129.663795,11 125,16.3883149 125,23.484414 C125,30.580513 129.665991,36 136.42015,36 C139.432734,36 142.447513,34.2254186 143.565155,32.0567332 L143.565155,34.543819 C143.565155,35.1605807 143.747403,35.3453865 144.355629,35.3453865 L150.209526,35.3453865 C150.817752,35.3453865 151,35.1605807 151,34.543819 L151,34.543819 L151,12.3938368 C151,11.7770752 150.817752,11.5922693 150.209526,11.5922693 Z M137.974749,29.5473815 C134.621822,29.5473815 132.386538,26.7864268 132.386538,23.4866405 C132.386538,20.2336124 134.621822,17.4258995 137.974749,17.4258995 C141.327675,17.4258995 143.562959,20.235839 143.562959,23.4866405 C143.562959,26.7864268 141.327675,29.5473815 137.974749,29.5473815 Z" id="Shape"></path>
                <path d="M153,13.0884731 C153,11.5602689 153.763932,11 154.539065,11 C155.66592,11 156.295435,11.9984558 157.184822,11.9984558 C158.119014,11.9984558 158.481938,11.4098465 159.290675,11.4098465 C159.99636,11.4098465 160.587791,11.7782723 160.587791,12.9838314 L160.587791,15.1202652 C161.927471,12.6110455 164.703164,11.1635026 168.422011,11.1635026 C171.495659,11.1635026 173.827779,12.1772186 175.115934,13.8166046 C176.603472,15.6020529 177,17.8692888 177,21.2003815 L177,34.2151876 C177,34.8190571 176.814058,35 176.193503,35 L176.193503,35 L170.220947,35 C169.600392,35 169.41445,34.8190571 169.41445,34.2151876 L169.41445,23.0817513 L169.41445,23.0817513 C169.41445,19.7528386 168.372725,17.4354619 165.200504,17.4354619 C162.126855,17.4354619 160.590031,19.7506586 160.590031,23.3215551 L160.590031,34.2130075 C160.590031,34.8168771 160.404088,34.99782 159.783534,34.99782 L153.810977,34.99782 C153.190423,34.99782 153.004481,34.8168771 153.004481,34.2130075 L153.004481,13.0884731 L153,13.0884731 Z" id="Path"></path>
                <path d="M179,23.495554 C179,16.9020985 183.463565,11 191.846195,11 L191.846195,11 C198.944878,11 204,15.0681131 204,19.6008359 L204,19.6008359 C203.997759,20.1099057 203.746796,20.5322781 203.011831,20.5322781 L197.551134,20.5322781 C197.212781,20.5322781 196.986466,20.3988974 196.775836,20.0343233 C195.872815,18.4893295 194.50596,17.3978303 192.189029,17.3978303 L192.189029,17.3978303 C188.220669,17.3978303 186.584924,20.2032723 186.584924,23.5 C186.584924,26.7967277 188.220669,29.6021697 192.189029,29.6021697 L192.189029,29.6021697 C194.50596,29.6021697 195.870575,28.5106705 196.775836,26.9656767 C196.986466,26.6011026 197.212781,26.4677219 197.551134,26.4677219 L203.011831,26.4677219 C203.744555,26.4677219 203.997759,26.8900943 204,27.3991641 L204,27.3991641 C204,31.9318869 198.942637,36 191.846195,36 L191.846195,36 C183.463565,35.9911079 179,30.0890094 179,23.495554 Z" id="Path"></path>
                <path d="M231,24.6778589 L231,21.8278411 C231,16.0209298 226.188256,11 218.698342,11 C210.415061,11 206,16.5619879 206,23.5 C206,30.4892234 210.513671,36 218.897804,36 C224.995966,36 229.623935,32.867207 230.282833,28.9840577 C230.390408,28.3450303 230.206634,27.7304952 229.323622,27.7304952 L224.251905,27.7304952 C223.897804,27.7304952 223.637831,27.9242073 223.429404,28.2337015 C222.69879,29.6408978 221.266697,30.5849662 218.846257,30.5849662 C214.978037,30.5849662 213.637831,28.1735839 213.637831,25.3191129 L230.220081,25.3191129 C230.76468,25.3235661 231,25.1677057 231,24.6778589 Z M213.637831,21.1888137 C213.637831,17.9847702 215.771403,16.3103848 218.649036,16.3103848 C221.52667,16.3103848 223.55939,18.1339508 223.55939,21.1888137 L213.637831,21.1888137 Z" id="Shape"></path>
                <path d="M78.2088672,38.6608712 L72.3663183,38.6608712 C71.7592717,38.6608712 71.5773769,38.8419019 71.5773769,39.4460647 L71.5773769,41.9106998 C70.2668577,39.4482458 67.3083277,38 64.3497977,38 C57.5101146,38 53,43.2629775 53,50.214121 C53,57.1652645 57.7051585,62.0901726 64.4484154,62.0901726 C67.4551585,62.0901726 70.3172623,60.5939428 71.5795684,58.4695582 L71.5795684,61.2700816 C71.5795684,65.0848134 69.0111261,67.3575123 65.8553608,67.3575123 C63.655091,67.3575123 61.9238031,66.1993519 61.0362441,64.8034524 C60.5168577,63.9899047 60.1333446,63.7281735 59.5547876,63.7281735 C58.7987188,63.7281735 58.4458867,64.4217611 57.3172623,64.2538169 C56.5568105,64.1425812 56.1097438,63.363931 55.1476736,63.363931 C54.2951787,63.363931 53.6333446,64.1207702 53.6333446,65.2134979 C53.6333446,66.6159407 54.5888402,68.077273 55.640762,69.2681498 C57.7665206,71.6760765 60.9858395,73 65.8553608,73 C74.1041807,73 79,68.8450178 79,60.7335327 L79,39.4460647 C78.9978085,38.8419019 78.8159137,38.6608712 78.2088672,38.6608712 Z M65.9495954,56.1510563 C62.6513823,56.1510563 60.4204316,53.4465009 60.4204316,50.214121 C60.4204316,47.0275441 62.6513823,44.2771858 65.9495954,44.2771858 C69.3442347,44.2771858 71.575187,47.0297252 71.575187,50.214121 C71.5773769,53.448682 69.3442347,56.1510563 65.9495954,56.1510563 Z" id="Shape"></path>
                <path d="M114.592254,15.6248399 L114.585505,12.3740626 C114.585505,11.7660509 114.430286,11.5838668 113.807159,11.5838668 L107.80984,11.5838668 L107.80984,11.5838668 C107.186713,11.5838668 107,11.7660509 107,12.3740626 L107,33.4196086 C107,34.635632 107.373426,35 108.619681,35 L112.972573,35 C114.218828,35 114.592254,34.635632 114.592254,33.4196086 L114.592254,33.4196086 L114.592254,25.950064 C114.592254,20.6491677 117.082513,18.2500457 120.609818,18.2500457 C121.138464,18.2500457 121.853823,18.3444302 122.258743,18.4190598 C122.512943,18.4673496 122.825632,18.4453997 123.023593,18.0042071 C123.684962,16.4325956 124.760251,14.8017194 125.822041,13.587891 C126.118983,13.221328 126.037999,12.6879459 125.62633,12.3916225 C124.474557,11.5641119 122.645667,11 121.032735,11 C118.184796,11 115.73053,12.8898848 114.592254,15.6248399 L114.585505,15.6248399" id="Path"></path>
                <path d="M88.4762959,42.6248399 L88.4696503,39.3740626 C88.4696503,38.7660509 88.3168016,38.5838668 87.7031915,38.5838668 L81.7974716,38.5838668 L81.7974716,38.5838668 C81.1838615,38.5838668 81,38.7660509 81,39.3740626 L81,60.4196086 C81,61.635632 81.367723,62 82.5949431,62 L86.8813528,62 C88.1085729,62 88.4762959,61.635632 88.4762959,60.4196086 L88.4762959,60.4196086 L88.4762959,52.950064 C88.4762959,47.6491677 90.928521,45.2500457 94.4019527,45.2500457 C94.9225244,45.2500457 95.9171487,45.4849095 96.3158844,45.5573441 C96.5662019,45.6056338 96.8741145,45.5836839 97.069052,45.1424913 C97.7203205,43.5708798 98.7791855,41.9400037 99.8247593,40.7261752 C100.117166,40.3596122 100.037418,39.8262301 99.632037,39.5299067 C98.4978552,38.7023962 96.4067076,38 94.8184101,38 C92.0139684,38 89.5949713,39.8898848 88.4762959,42.6248399 L88.4696503,42.6248399" id="Path"></path>
                <path d="M144.220314,38 L150.193428,38 C150.81404,38 151,38.1821674 151,38.7901235 L151,60.6238683 C151,61.2318244 150.81404,61.4139918 150.193428,61.4139918 L144.220314,61.4139918 C143.599701,61.4139918 143.413742,61.2384088 143.413742,60.6304527 L143.413742,58.0164609 C142.073936,60.5426612 139.297984,62 135.57879,62 C132.504854,62 130.172517,60.9794239 128.884242,59.3289438 C127.396565,57.5314129 127,55.248834 127,51.8951989 L127,38.7923182 C127,38.1843621 127.18596,38.0021948 127.806572,38.0021948 L127.806572,38.0021948 L133.779686,38.0021948 C134.400299,38.0021948 134.586258,38.1843621 134.586258,38.7923182 L134.586258,50.0010974 L134.586258,50.0010974 C134.586258,53.3525377 135.628081,55.6855967 138.800597,55.6855967 C141.874533,55.6855967 143.411501,53.3547325 143.411501,49.7596708 L143.411501,38.794513 C143.413742,38.1843621 143.599701,38 144.220314,38 Z" id="Path"></path>
                <path d="M168.599798,38 C165.544842,38 162.535907,39.7891025 161.420432,41.9168019 L161.420432,41.9168019 L161.420432,41.9168019 C161.420432,41.9168019 161.420432,41.9168019 161.420432,41.9168019 L161.420432,39.3674947 C161.420432,38.7623892 161.238537,38.581076 160.63149,38.581076 L154.788941,38.581076 C154.181895,38.581076 154,38.7623892 154,39.3674947 L154,71.1453626 C154,72.5019348 154.828388,73 155.667734,73 C156.888402,73 157.530512,71.7373611 158.396156,71.7373611 C159.2618,71.7373611 159.619016,72.5063038 160.309339,72.5063038 C160.914194,72.5063038 161.420432,72.2113968 161.420432,71.239296 L161.420432,58.5495569 C162.535907,60.6772563 165.54265,62.4663588 168.599798,62.4663588 C175.343055,62.4663588 180,57.1951691 180,50.2331794 C180,43.2690051 175.343055,38 168.599798,38 Z M167.048213,56.1793784 C163.653574,56.1793784 161.422623,53.4706029 161.422623,50.2331794 C161.422623,46.9957558 163.653574,44.2869804 167.048213,44.2869804 C170.346426,44.2869804 172.577377,46.9957558 172.577377,50.2331794 C172.577377,53.4706029 170.346426,56.1793784 167.048213,56.1793784 Z" id="Shape"></path>
            </g>
        </g>
    </g>
</svg>