<?xml version="1.0" encoding="UTF-8"?>
<svg xmlns="http://www.w3.org/2000/svg" xmlns:xlink="http://www.w3.org/1999/xlink" width="312px" height="91px" viewBox="0 0 312 91" version="1.1">
  <!-- Generator: Sketch 58 (84663) - https://sketch.com -->
  <title>Shape</title>
  <desc>Created with Sketch.</desc>
  <g id=".com_site" stroke="none" stroke-width="1" fill="none" fill-rule="evenodd">
    <g id="01_Home_desktop" transform="translate(-46.000000, -2183.000000)" fill="#000000" fill-rule="nonzero">
      <g id="hostgator" transform="translate(46.000000, 2183.000000)">
        <path d="M66.7195655,43.9344229 C66.5646545,43.1159812 65.7056026,42.382206 65.1704555,41.7613192 C64.1705754,40.6183231 63.0861985,39.4329938 61.9595731,38.2899978 C61.9595731,38.2899978 61.9595731,38.2899978 61.9595731,38.2899978 C62.6918796,37.1752239 62.7622937,35.7782287 62.283478,34.4376777 C61.508923,32.2927962 59.959813,31.2767998 58.030467,30.3595807 C57.3404089,30.0209151 56.636268,29.6258055 55.9321271,28.7791417 C57.1432494,28.62392 58.5374484,28.5533647 59.8893989,28.4122541 C60.1006412,28.8214749 60.2133036,29.301251 60.2414694,29.7528051 C60.2978007,30.5571356 60.49496,31.6013543 61.3821776,31.770687 C61.8750762,31.8694643 62.2975607,31.6013543 62.6214655,31.2203555 C62.8608735,30.9381342 63.0721157,30.5712466 63.2411095,30.2325811 C63.7340081,29.1883625 63.9452504,28.3558098 63.9311676,27.3962576 C66.3252465,25.7875964 66.8181451,21.4696112 64.8324678,19.4376183 C63.3960205,17.9559567 61.3117635,18.0547341 59.49508,18.7461762 L59.4528316,18.7179541 L59.340169,18.5909545 C58.650111,17.8007351 57.5938997,17.2504036 56.3827774,16.8694049 L56.2841976,16.8129607 C56.5799367,14.3717469 56.2278663,5.50999957 52.5804165,4.76211326 C51.5242052,4.50811414 50.5806564,5.11488983 49.8765155,5.83455402 L49.7638531,5.94744252 C47.5528506,4.87500176 45.9192439,4.45166989 43.8349868,3.97189376 C41.2437484,-0.952867062 36.244348,-1.85597506 33.1179627,4.46578095 C32.1180825,6.46955183 31.385776,8.95309883 30.7802149,10.9850918 L29.3719331,11.7329781 C27.5130012,12.7207525 25.5695723,13.7931933 23.8655513,15.0067447 C23.2177417,15.4724097 22.4572697,16.0086301 21.9080398,16.6012947 C21.4292239,17.1092929 21.0489879,17.7442908 21.2461474,18.463955 C21.4433067,19.1977302 22.1051992,19.5505067 22.7389261,19.8750612 C23.274073,20.1431715 23.7810545,20.4112817 24.2317047,20.8063913 C24.5837752,21.1027236 24.8935971,21.4413892 25.1611707,21.8082768 C23.6120607,22.9089397 22.0207022,24.1224911 20.8095799,25.5477084 C20.0491079,26.4367053 19.0492278,27.8054783 19.725203,29.0190297 C20.3307642,30.1055816 21.9080398,30.190248 22.9783339,30.5289135 C23.3022386,30.6276909 23.6824748,30.7688015 23.9359654,30.9945785 C23.9500484,31.0086895 23.9641312,31.0228006 23.9782139,31.0228006 C23.1191621,31.5307989 22.3305243,32.1516856 21.6827147,32.913683 C21.1053192,33.5769029 20.4575095,34.3247893 20.0068594,35.0726755 C19.6125405,35.6935623 19.3308842,36.4414486 19.7392858,37.1328907 C19.8941969,37.4010009 20.1054392,37.5844448 20.344847,37.7114442 C19.1759731,39.2918832 18.0915961,40.9428776 17.1057989,42.5233166 C16.6692316,43.2147587 15.9510079,44.0755335 15.9228423,44.9221972 C15.8946766,45.8253052 16.5988175,46.6437469 17.0917161,47.3493 C18.3310041,49.0990717 19.8519484,50.7218439 21.5137208,52.2035055 C20.7673315,52.6832816 20.6828347,53.7557223 20.6546689,54.560053 C20.6405862,54.9410516 20.5138408,55.2938282 20.3166814,55.6183827 C20.2462673,55.7312711 20.1758533,55.8300486 20.1054392,55.928826 C19.8096999,55.7736043 19.5139607,55.6183827 19.2182216,55.4490498 C19.105559,54.9974959 18.8098198,54.574164 18.5844948,54.1790542 C18.190176,53.445279 17.7536085,52.7397258 17.2888756,52.0623949 C16.9508879,51.5685077 16.5706519,51.0322873 16.1622501,50.5807333 C15.7116,50.1009571 15.1201216,49.7340695 14.4582292,50.0162908 C13.3597695,50.4678448 13.6695914,52.0059506 13.3738523,52.9655028 C13.3456866,53.0642803 13.3034382,53.1630577 13.2471069,53.2618352 C13.2189413,53.3041684 13.2048585,53.3465016 13.1907756,53.3888347 C12.9091193,53.3465016 12.6415458,53.3041684 12.3598894,53.2618352 C12.16273,52.7115038 11.697997,52.2458386 11.3177609,51.8225068 C10.9797733,51.4415081 10.5995372,51.0887315 10.1911355,50.7782882 C9.67007123,50.3690674 9.07859289,49.9175134 8.48711455,49.60707 C7.89563622,49.2825156 7.19149533,49.1131828 6.62818262,49.60707 C5.81137921,50.3126231 6.33244346,51.4556192 6.43102318,52.3446162 C6.43102318,52.4151715 6.445106,52.4716156 6.445106,52.5421709 C6.445106,52.7820591 6.445106,53.0360581 6.41694036,53.2759463 C6.40285755,53.3888347 6.38877473,53.5017233 6.38877473,53.6005006 C4.64250534,54.0943878 3.05114695,54.9833849 1.82594181,56.394491 C1.02322121,57.3117101 0.445825686,58.3700398 0.0655896093,59.5271469 C-0.0752385667,59.9504788 0.00925833903,60.4020329 0.333163144,60.7265872 C1.0936353,61.4885846 2.03718408,60.7548094 2.71315932,60.3314775 C5.13540396,58.8215939 6.6140998,58.5675947 9.3180008,59.5977022 C11.7120798,60.5149213 13.7400055,62.4199148 15.5144406,64.2261307 C17.0494677,65.7924587 18.4718323,67.4575641 19.8941969,69.1226694 C21.893957,71.4509948 23.9359654,73.8498753 26.3582101,75.7689799 C26.3582101,76.1640897 26.3582101,76.5733105 26.3441273,76.9684202 C26.287796,78.4500818 26.1188022,80.0022987 25.6259036,81.413405 C23.8655513,82.2318465 22.6403462,83.8122855 22.274193,85.7455011 C22.0207022,87.0437189 22.1896961,88.6100469 23.0064995,89.6965987 C23.0064995,89.7107097 23.0064995,89.7248207 23.0064995,89.7389318 C23.0205824,89.7389318 23.0205824,89.7389318 23.0346652,89.7389318 C23.2599903,90.021153 23.5275638,90.2751522 23.8373858,90.4727071 C24.1472077,90.6561508 24.4711126,90.7972615 24.823183,90.8678168 C25.9075599,91.0794827 27.0341854,91.0230385 28.1185623,90.7972615 C29.9634114,90.4303739 32.385656,89.3861552 33.7657723,88.0879375 C34.2305052,87.6504946 34.5966584,87.1283853 34.7515694,86.4933875 C34.9346461,85.73139 34.7938179,84.9411705 34.6670725,84.1791731 C34.4980787,83.2055099 34.3854161,82.3024019 34.3854161,81.3005164 C34.3854161,80.55263 34.4558302,79.7765217 34.55441,79.0286353 C37.4273048,79.2120792 40.3001996,78.5206371 42.9336865,77.1518641 C43.0604318,78.3654154 43.046349,79.5507446 42.9759349,80.8348513 C42.9055208,82.118958 42.7365271,83.5582865 43.1871772,84.8000599 C43.4829163,85.6043904 43.9898977,86.2393883 44.6517903,86.7614977 C45.2714341,87.2553849 46.4966394,87.6363835 47.2711944,87.8339384 C48.5668136,88.1726038 49.9610124,88.3701587 51.2988801,88.3701587 C52.8339073,88.3842698 54.4534314,88.1302707 55.8053819,87.3541623 L56.3264461,87.05783 L56.3405289,86.4510542 C56.3827774,84.814171 55.9743756,83.3607316 54.8195846,82.1612912 C54.2140234,81.5404044 53.4957997,81.0747395 52.7634932,80.6090743 C51.2566318,77.0530866 51.8340273,72.396436 51.8058615,68.6428933 L51.8058615,68.1348951 C52.4818369,66.8507884 53.0451496,65.4961264 53.5098825,64.1132423 C54.6224251,64.282575 55.7490506,64.3390193 56.8334275,64.0144648 L57.1432494,63.9297984 L57.3544917,63.6899104 C59.3260862,61.5309179 59.6077426,59.1461482 58.7909391,56.4227132 L58.6923594,56.0981587 C61.6779167,53.3041684 64.3254864,50.058624 66.0435901,46.5449694 C66.3393294,45.7406389 66.8885592,44.8093087 66.7195655,43.9344229 Z M56.7489306,31.4037994 C57.875556,32.5467954 60.4527116,34.8186765 58.7346079,35.4395631 C58.2135436,35.623007 57.6220653,35.7358956 57.0728353,35.8064509 C55.706802,35.9898946 54.326686,36.074561 52.9888183,35.6371181 C52.3410087,35.4254521 51.7213647,35.1150088 51.1158036,34.7904543 C50.2426688,34.3247893 49.3976997,33.8450131 48.5104823,33.4075702 C44.285637,31.2485777 40.6804357,28.62392 37.8638721,25.1525986 C40.3987793,25.5900415 42.6238645,26.3097057 44.595459,27.2128138 C45.1446889,27.495035 45.7080016,27.7772563 46.2853971,28.0594775 C48.1865774,29.075474 49.8342672,30.2466923 51.3129629,31.4320214 C51.2707145,32.1093525 51.3692942,32.8713498 52.0171038,33.153571 C53.0873979,33.6192362 54.1295265,32.024686 54.5942594,31.1921334 C54.8055017,30.8111346 55.0167439,30.3595807 55.1434893,29.9080267 C55.6927193,30.2325811 56.1997007,30.7123572 56.7489306,31.4037994 Z M52.1016007,29.5693612 C52.1720148,29.5552502 52.2424289,29.5270279 52.312843,29.5129169 C52.6508306,29.4141395 52.8902386,29.3294732 53.2141433,29.1883625 C53.552131,29.0472519 53.9746155,29.1460293 54.4815969,29.1883625 C54.4815969,29.2448067 54.4675142,29.301251 54.4534314,29.3576952 C54.4534314,29.3576952 54.4534314,29.3576952 54.4534314,29.3576952 C54.4393484,29.4141395 54.4252656,29.4705838 54.4111829,29.5270279 C53.9746155,31.1921334 51.8903584,33.7885689 52.2283461,31.1498002 C52.2987602,30.5430245 52.2283461,30.1055816 52.1016007,29.5693612 Z M51.1862177,29.4423616 L51.2707145,29.7669161 C51.383377,30.2325811 51.4397083,30.5712466 51.383377,31.0651338 C51.3692942,31.1498002 51.3552114,31.2485777 51.3552114,31.3473551 C50.8763956,30.6135799 50.3553314,29.9362488 49.7216046,29.2589179 C50.2145032,29.3576952 50.7074018,29.4141395 51.1862177,29.4423616 Z M62.4243061,29.7386939 C61.9032418,30.8393568 61.2413494,31.3614661 61.114604,29.6258055 C61.0864384,29.1601403 60.9878586,28.7226974 60.8470304,28.3275877 C61.2554322,28.2570324 61.6497511,28.1864771 62.0159044,28.0876996 C62.353892,28.0171443 62.6777968,27.9324779 62.9876189,27.8337005 C62.9312876,28.4686984 62.7622937,29.0472519 62.4243061,29.7386939 Z M58.5092828,19.3106187 C56.9883384,20.2419488 52.4959196,16.9540713 49.4821967,18.8026205 C47.8204242,19.818617 47.3979396,21.5966108 47.8767555,23.0782724 C45.7643328,23.0359392 43.9476494,22.1751644 42.1309658,21.3285006 C43.975815,22.8948286 46.0882376,23.8402699 48.4682338,24.2212685 C48.4823167,24.2353795 48.4823167,24.2494906 48.4963995,24.2494906 C48.5527308,24.3200459 48.6090619,24.3906012 48.679476,24.4611565 C48.693559,24.4752677 48.693559,24.4893787 48.7076417,24.4893787 C49.3695341,25.2090429 50.3271657,25.6605968 51.4819568,25.5759305 C48.1161633,24.8562663 48.144329,19.4093961 52.2283461,19.5222847 C54.7491705,19.59284 57.8333075,21.7800547 60.7062023,20.961613 C59.8753161,20.8487246 59.0585126,20.735836 58.2276265,20.6370587 C60.4104631,19.1553971 62.7763766,18.9013979 64.0438301,20.2137268 C65.3816978,21.5824998 65.2267868,24.6163783 63.8044222,26.0839287 C63.7340081,26.154484 63.663594,26.2250394 63.5931799,26.2814836 C63.5790971,26.2955947 63.5650144,26.3097057 63.5509314,26.3238167 C63.5227658,26.3520389 63.4946003,26.380261 63.4523518,26.3943721 C63.4241862,26.4084832 63.3960205,26.4367053 63.3819377,26.4508163 C63.3537721,26.4649274 63.3256064,26.4931496 63.2974408,26.5072606 C63.2411095,26.5354827 63.198861,26.5778159 63.1425298,26.606038 C63.1284469,26.6201492 63.1002813,26.6342602 63.0861985,26.6342602 C63.04395,26.6624823 63.0017016,26.6765933 62.9594531,26.6907045 C62.9453703,26.7048155 62.9172048,26.7048155 62.9031218,26.7189266 C62.8327077,26.7471486 62.7763766,26.7753708 62.7059625,26.7894819 C62.6214655,26.8177039 62.5369686,26.8459261 62.4665545,26.8600372 C62.4383889,26.8600372 62.4243061,26.8741482 62.3961404,26.8741482 C62.3116435,26.9023704 62.2412294,26.9164815 62.1567326,26.9305925 C62.1426498,26.9305925 62.1426498,26.9305925 62.1285668,26.9305925 C62.04407,26.9588146 61.9454903,26.9729257 61.8609934,26.9870368 C61.8328277,26.9870368 61.8046621,27.0011478 61.7764964,27.0011478 C61.7060823,27.0152588 61.6215854,27.0293699 61.5370885,27.0434811 C61.5230058,27.0434811 61.508923,27.0434811 61.4807572,27.0575921 C61.3962604,27.0717031 61.2976807,27.0858142 61.1991009,27.0999252 C61.1709353,27.0999252 61.1286868,27.1140364 61.1005212,27.1140364 C61.0301071,27.1281474 60.959693,27.1422584 60.889279,27.1422584 C60.8611134,27.1422584 60.8329477,27.1563695 60.8047821,27.1563695 C60.7202852,27.1704805 60.6217054,27.1845917 60.5372085,27.1987027 C60.49496,27.1987027 60.4527116,27.2128138 60.4104631,27.2128138 C60.3541318,27.2269248 60.2978007,27.2269248 60.2273866,27.2269248 C60.1851381,27.2269248 60.1428897,27.2410358 60.1006412,27.2410358 C60.0161443,27.255147 59.9316474,27.255147 59.8471504,27.269258 C59.7908192,27.269258 59.7344879,27.2833691 59.6922394,27.2833691 C59.6499911,27.2833691 59.6077426,27.2974801 59.565494,27.2974801 C59.4387488,27.3115911 59.2979206,27.3257023 59.1711752,27.3257023 C58.5937797,27.3680354 58.030467,27.3962576 57.5516512,27.4103687 C58.3825375,26.8035929 60.6076226,25.8440407 62.2130639,25.900485 C60.8329477,25.3501535 59.5373285,25.5618195 58.3402889,26.0415956 C52.2846774,28.4404762 51.7636132,29.6540275 44.6799558,25.9569291 C40.8635122,23.9672693 37.1597312,20.8910577 34.9487288,17.6031801 C35.4275447,17.2927368 36.0753543,16.883516 36.7654124,17.4338475 C35.7514495,14.5410796 29.9493286,17.3491811 32.1039997,21.3143896 C32.2448279,20.495948 32.2307451,19.5222847 33.2587907,19.5787289 C34.089677,21.4555002 35.0613914,23.1206057 36.1457684,24.6163783 C36.1457684,24.6163783 36.1457684,24.6163783 36.1457684,24.6163783 C36.2302652,24.7433778 36.3288451,24.8703774 36.4133419,24.9832659 C36.4415075,25.011488 36.4555903,25.0397101 36.483756,25.0820433 C36.5823357,25.2231539 36.6949983,25.3501535 36.793578,25.4912641 C36.793578,25.4912641 36.793578,25.4912641 36.793578,25.4912641 C40.0185433,29.5834722 44.0603118,32.2927962 48.0035008,34.3106783 C51.9044414,36.3003379 52.8057416,37.4151119 57.1995807,36.8224474 C57.9600529,36.7236698 58.5937797,36.5684482 59.0725954,36.3991155 C61.4666745,35.5524517 60.1569725,33.5486808 58.9317672,31.9964639 C62.0863185,34.0566791 62.8327077,38.4169974 58.1149639,39.2777722 C54.706922,39.898659 55.1434893,41.041655 51.9326069,39.7998816 C50.4679938,39.2354391 48.8625527,38.4734416 47.2007803,37.5703336 C47.0177036,37.4715562 46.8205441,37.3586677 46.6374676,37.2598903 C46.6374676,37.2598903 46.6374676,37.2598903 46.6233846,37.2598903 C46.4403081,37.1611129 46.2572314,37.0482243 46.0741549,36.9494469 C46.0600719,36.9353358 46.0459891,36.9353358 46.0319063,36.9212247 C45.8629126,36.8224474 45.6798359,36.7236698 45.5108421,36.6107814 C45.4967593,36.5966704 45.4826764,36.5966704 45.4545108,36.5825592 C45.2714341,36.4696708 45.0742748,36.3567822 44.8911981,36.2438938 C41.7084813,34.3106783 38.4975989,31.9682419 35.8922777,29.6399165 C35.6669525,29.4423616 35.4134619,29.2165846 35.1318055,28.9484744 C35.0613914,28.8920303 34.9909774,28.8214749 34.9205633,28.7509196 C34.9064805,28.7368085 34.9064805,28.7368085 34.8923975,28.7226974 C34.8219835,28.6521421 34.7515694,28.5956978 34.6811553,28.5251425 C34.6670725,28.5251425 34.6670725,28.5110315 34.6529897,28.5110315 C34.5825756,28.4404762 34.4980787,28.3699208 34.4135818,28.2852545 C34.4135818,28.2852545 34.3994991,28.2711435 34.3994991,28.2711435 C34.315002,28.1864771 34.2305052,28.1159218 34.1460083,28.0312553 C31.8364261,25.8017075 28.7382063,22.3868303 28.2171421,19.1695081 C28.1748936,18.8731758 28.146728,18.5909545 28.146728,18.3087333 C28.146728,17.3068479 28.4283844,16.4178508 28.921283,15.6981867 C28.921283,15.6981867 28.921283,15.6981867 28.921283,15.6981867 C28.9776142,15.6135203 29.0339455,15.542965 29.0902768,15.4724097 C29.0902768,15.4724097 29.0902768,15.4724097 29.0902768,15.4724097 C29.1466081,15.4018544 29.2170222,15.3312991 29.2733533,15.2607437 C29.2733533,15.2607437 29.2733533,15.2607437 29.2733533,15.2607437 C29.3437674,15.1901884 29.4000987,15.1196331 29.4705128,15.0490778 C29.4705128,15.0490778 29.4705128,15.0490778 29.4705128,15.0490778 C29.5409269,14.9785225 29.611341,14.9220784 29.6817551,14.851523 C29.6817551,14.851523 29.6817551,14.851523 29.6817551,14.851523 C29.7521691,14.7950788 29.8225832,14.7245234 29.9070801,14.6680792 C29.9070801,14.6680792 29.9070801,14.6680792 29.9070801,14.6680792 C29.9774942,14.6116349 30.0619912,14.5551906 30.1464881,14.4987465 C30.1464881,14.4987465 30.1464881,14.4987465 30.1464881,14.4987465 C30.230985,14.4423022 30.3154819,14.3999689 30.3999787,14.3435247 C31.540687,13.7085269 32.9771345,13.510972 34.4276646,13.9060818 C34.4980787,13.9201928 34.5825756,13.948415 34.6529897,13.9766371 C34.6529897,13.9766371 34.6529897,13.9766371 34.6529897,13.9907482 C34.6670725,13.9907482 34.6670725,13.9907482 34.6811553,13.9907482 C36.8076608,14.6821902 38.6525099,16.6295168 39.8636322,19.1836191 C39.2017398,17.0528487 38.3708535,15.2042995 37.0893171,14.0189703 C38.3567707,14.0613035 39.5960588,14.1318588 40.8071811,14.3011916 C42.0887175,14.4705243 42.8210239,14.6257459 43.1871772,14.6398571 C42.4407879,14.9926335 41.7648126,15.4582987 41.1733343,16.0086301 C46.0882376,14.0048592 50.2567516,14.41408 53.8619529,16.5871837 C52.8479901,16.4037398 51.8481101,16.3331845 50.8341472,16.3896288 C53.0873979,16.7424053 53.6929592,16.883516 55.636388,17.5185138 C56.9883384,18.012401 57.9459701,18.5909545 58.5092828,19.3106187 Z M52.7071619,62.7868024 C52.6508306,62.9702462 52.5944993,63.15369 52.5381682,63.3371338 C52.5381682,63.3371338 52.5381682,63.3371338 52.5381682,63.3371338 C52.4818369,63.5205776 52.4114228,63.7040214 52.3550915,63.8874653 C52.003021,64.9175728 51.5805365,65.9335693 51.1158036,66.9072326 C51.0735551,66.991899 51.0453895,67.0624543 51.003141,67.1471207 C50.9608925,67.217676 50.9327269,67.3023425 50.8904784,67.3728978 C50.8763956,67.4011198 50.8623128,67.4152309 50.84823,67.4434531 C47.0036208,68.4030053 41.5958188,66.7943441 38.807421,64.0850201 C40.187537,62.1800267 41.0606717,60.0774784 41.5254048,57.8620416 C44.9334466,56.2957136 50.3553314,56.5920459 53.707042,58.63815 C53.4535512,60.0351453 53.1296465,61.4321404 52.7071619,62.7868024 Z M44.7644527,74.6965391 C44.20114,74.879983 43.7082414,75.0069826 43.046349,75.0493157 C40.8635122,75.1904263 38.6384271,74.3719848 36.8499093,73.1725444 C36.5260044,72.9467674 36.2020997,72.7068793 35.8922777,72.4528802 C36.4415075,70.364443 36.6527498,68.5017827 36.2302652,66.8366773 C36.5682529,66.5685671 36.8780748,66.2863459 37.1878969,65.9759025 C37.4836361,65.6795702 37.7652924,65.3832379 38.032866,65.0727945 C40.8916779,67.7821185 45.975575,69.4331128 50.0595922,68.8686704 C49.9750954,69.0238921 49.8765155,69.1650027 49.7779359,69.3202244 C49.7779359,69.3202244 49.7779359,69.3343354 49.7638531,69.3343354 C49.6793561,69.461335 49.5948592,69.5883346 49.5103623,69.715334 C48.9048011,70.6325531 48.2288259,71.4933279 47.4683537,72.2976586 C46.6515504,73.1866555 45.7361672,73.990986 44.7644527,74.6965391 Z M37.0893171,35.7782287 C36.0612715,33.7321246 35.483876,32.024686 35.2726337,30.5853577 C37.1174828,32.2363519 39.0890772,33.7603468 41.1310858,35.1573419 C41.7648126,35.5947849 42.4126222,36.0181168 43.0745147,36.4555598 C41.2859968,36.6531145 39.5397275,37.1046686 38.1032801,37.8666659 C37.7652924,37.1470017 37.4273048,36.4555598 37.0893171,35.7782287 Z M38.5961787,39.0096621 C40.342448,38.0501098 42.6942786,37.6408889 44.8911981,37.5844448 C47.0458692,38.8685515 49.3272856,40.0397696 51.5805365,40.9005444 C52.5804165,41.281543 53.2845574,41.4649869 53.8760357,41.5073202 C53.8760357,41.5073202 53.8760357,41.5073202 53.8760357,41.5073202 C53.9605327,41.9870962 54.0450296,42.4809834 54.1154437,42.9607595 C54.1576921,43.2288698 54.1858578,43.4969798 54.2140234,43.7792011 C54.2985203,44.5694207 54.3689343,45.3737512 54.4111829,46.1639707 C53.0733152,45.7265278 51.6650334,45.4866397 50.2990001,45.3737512 C47.4401881,45.1620853 43.820904,45.5430839 41.2155827,46.911857 C40.5818559,44.1884219 39.6523899,41.5073202 38.5961787,39.0096621 Z M54.2140234,55.0680512 C54.1436093,55.8159374 54.0450296,56.5779349 53.932367,57.3399323 C50.4679938,55.4349388 45.4122623,55.1103843 41.7788954,56.4227132 C42.1309658,53.7557223 41.9619721,50.961732 41.4549907,48.1959637 L41.5254048,48.1536306 C43.9335666,46.7848575 47.4683537,46.4179698 50.1863376,46.6296357 C51.6087022,46.7425243 53.0873979,47.0106345 54.4534314,47.5045217 C54.4534314,47.6032991 54.4534314,47.7020765 54.4675142,47.800854 C54.4815969,48.1536306 54.4815969,48.4922961 54.4956797,48.8450727 C54.4956797,48.8450727 54.4956797,48.8591837 54.4956797,48.8591837 C54.4956797,49.2119603 54.4956797,49.5647368 54.4956797,49.9175134 C54.4815969,51.639063 54.3971001,53.3606126 54.2140234,55.0680512 Z M55.481477,46.3191924 C55.4533114,45.6983056 55.4110629,45.0633078 55.3547316,44.4424211 C55.7490506,44.6681981 56.1152038,44.865753 56.4672742,45.0491967 C56.3686944,45.1761963 56.2701148,45.3031959 56.1715351,45.4160844 C55.9180443,45.7124168 55.6927193,46.0087491 55.481477,46.3191924 Z M36.2725138,13.2287508 C37.3146423,11.239091 37.7793752,8.8543214 38.1455285,6.68121777 C38.5116817,6.93521689 38.8355866,7.24566027 39.1594913,7.59843683 C40.5396075,9.06598733 41.6803157,11.7470892 42.4407879,13.7508601 C41.9619721,13.6803048 41.4690735,13.5956384 40.9902576,13.5391942 C39.4270649,13.3275282 37.8497893,13.2569729 36.2725138,13.2287508 Z M50.6369877,13.2569729 C50.8341472,13.6944158 51.2003005,13.9907482 51.622785,13.9907482 C52.2565118,13.9907482 52.777576,13.3134172 52.777576,12.4667534 C52.777576,11.7329781 52.383257,11.1262025 51.8762756,10.9709808 C52.2283461,10.5053157 52.622665,10.0678728 53.0451496,9.63042983 C52.932487,11.2108688 53.3408887,12.9888627 53.5380482,14.5410796 C53.4957997,14.5975239 53.3831371,14.6398571 53.2704746,14.6680792 C52.5240852,14.4423022 51.7495302,14.2729694 50.9608925,14.1459698 L50.9327269,14.1318588 L50.9186441,14.1318588 C50.8200643,14.1177477 50.7074018,14.1036367 50.608822,14.0895256 C50.5384079,14.0754145 50.4820768,14.0613035 50.4116627,14.0613035 C50.4820768,13.7931933 50.5524909,13.510972 50.6369877,13.2569729 Z M36.2865965,1.89756757 C39.6101415,-0.289647122 43.3420881,4.64922476 45.4685936,9.57398559 C45.2432686,8.19110145 44.975695,6.55421821 44.1870572,5.28422258 C47.3838568,5.89099827 48.4682338,6.14499739 50.5947392,8.04999084 C50.5384079,7.21743815 50.5102424,7.03399433 50.4679938,6.7799952 C53.3831371,3.8448942 55.6504707,10.0255396 55.0167439,15.2748548 C54.7773361,15.1901884 54.5379282,15.1196331 54.3126032,15.0490778 C54.2985203,15.0490778 54.2844375,15.0349668 54.2703547,15.0349668 C54.3548516,14.9079672 54.3971001,14.7668566 54.4111829,14.5975239 C54.2421891,13.1581955 53.7352075,10.8722033 53.9464498,9.36231965 C54.3126032,8.81198822 53.6647935,7.75365852 52.7916588,8.71321078 C51.1439692,10.1525392 50.1440891,11.7329781 49.5666936,13.948415 C47.2007803,13.6661937 45.215103,13.8919707 43.5955789,14.5693018 C43.6237445,14.4423022 43.5533304,14.2165252 43.4125022,13.8637486 C42.5675332,11.6059786 41.3141625,8.6285444 39.7932181,7.0057722 C38.8778351,6.0321089 37.9202034,5.28422258 36.4696732,5.31244471 C36.1176028,5.74988764 37.0752343,5.98977571 37.3287251,6.3284412 C36.9203234,8.75554396 36.4415075,11.1403135 35.3852962,13.045307 C34.2868365,12.6643083 32.9489688,12.6219751 31.2871963,13.045307 C32.2448279,10.0678728 33.6249441,3.64733933 36.2865965,1.89756757 Z M24.9358455,19.9597276 C22.8515885,18.1958447 20.3870955,18.8167315 24.4851954,15.8957416 C25.7948975,14.9644115 27.6397465,13.8778597 29.8789145,12.6925304 L29.5409269,13.722638 C29.2451877,13.9201928 28.9776142,14.1459698 28.7100407,14.3999689 C27.681995,15.4300766 27.1609308,16.7424053 27.1045995,18.1394006 C26.6257836,19.0848417 26.2455476,20.0443939 25.9357257,21.0180573 C25.6399864,20.6229475 25.3160816,20.270171 24.9358455,19.9597276 Z M21.6404662,26.2250394 C22.6262635,25.0538212 23.9641312,23.9813805 25.4146613,22.9371618 C24.8654314,25.4630419 24.7668517,28.0171443 24.9921768,30.5006913 C23.428984,28.3840319 18.4436666,30.0209151 21.6404662,26.2250394 Z M22.4995181,33.6051251 C23.1895762,32.8007945 24.0627108,32.1516856 25.1048394,31.6154653 C25.133005,31.8694643 25.1752535,32.1234635 25.203419,32.3774626 C24.7386861,32.7443503 24.3021188,33.13946 23.8937171,33.5345698 C22.8797542,34.5223442 21.9080398,35.6371181 20.9926566,36.8083363 C20.2603501,36.5543371 20.499758,35.9334503 22.4995181,33.6051251 Z M25.9075599,55.8441597 C25.8371459,55.703049 25.7667318,55.5760494 25.6963177,55.4490498 C25.7808146,55.5054941 25.8512286,55.5619384 25.9357257,55.6183827 L25.9075599,55.8441597 Z M21.2179817,56.1828251 C21.5418865,55.6607158 21.7108803,55.1244955 21.7249631,54.574164 C21.7953772,52.5703931 22.3164415,52.4151715 24.0204625,54.799941 C24.442947,55.4067167 24.8513486,56.1263809 25.2175018,56.9166004 C25.3442472,57.1988217 25.4709926,57.4245986 25.5695723,57.6221535 C25.4146613,57.6221535 25.2597503,57.6080424 25.1048394,57.6080424 C23.7106404,57.509265 22.3586899,57.0012668 21.0771535,56.38038 C21.119402,56.3380469 21.1616504,56.2674915 21.2179817,56.1828251 Z M16.3734924,52.6550595 C16.8382255,53.3182794 17.2466271,53.9814994 17.5986975,54.6588304 C16.5565691,54.2213874 15.4299437,53.8544998 14.2610697,53.5863896 C15.0356247,51.850729 14.0216619,49.2542934 16.3734924,52.6550595 Z M9.50107742,51.6108408 C9.86723068,51.8930621 10.1911355,52.2035055 10.4727918,52.5280599 C10.6699513,52.7397258 10.8389451,52.9372807 10.9938561,53.1207246 C9.79681659,53.0501693 8.61385992,53.1066134 7.47315168,53.3182794 C7.50131731,53.0219471 7.51540013,52.7538369 7.50131731,52.4857268 C7.45906886,50.8629546 6.21978091,49.0849607 9.50107742,51.6108408 Z M9.67007123,58.5534837 C9.65598841,58.5393726 9.62782278,58.5393726 9.61373996,58.5393726 C12.852788,58.63815 15.7538484,59.8940346 18.5422464,62.0530272 C17.950768,62.927913 17.6831944,63.9721317 17.7395257,65.0163502 C17.2466271,64.4801299 16.7537284,63.9439095 16.246747,63.4359112 C14.1061588,61.2628077 12.0923159,59.4848138 9.67007123,58.5534837 Z M19.725203,67.2741203 C19.3872153,66.5685671 19.105559,65.9617915 19.0210621,65.1433498 C18.9365652,64.3390193 19.0914762,63.5205776 19.5139607,62.8291356 C19.8519484,63.1254679 20.189936,63.4218002 20.5279236,63.7463547 C21.1898161,64.3672413 21.8235429,64.9881281 22.4713525,65.5807927 L22.4009384,65.651348 C21.5700521,66.6250114 21.2038989,67.8667848 21.274313,69.0944474 C21.0630707,68.8545592 20.8659112,68.6146712 20.6687517,68.3888942 C20.344847,68.0220066 20.0350251,67.6410079 19.725203,67.2741203 Z M23.2881558,71.3663285 C22.6966775,70.3221098 22.4009384,69.447224 22.5840149,68.1913393 C22.6825948,67.5704525 22.9220026,66.9636769 23.3585699,66.4697897 L23.4008184,66.4133454 C24.35845,67.2458982 25.35833,67.9655624 26.4427071,68.4735606 C26.3863758,68.7557818 26.3441273,69.0521141 26.3159617,69.3484464 C26.2032991,70.5619978 26.2314648,71.8178824 26.2737132,73.0314338 C26.287796,73.4547657 26.3018789,73.8922086 26.3159617,74.3155405 C25.2315848,73.4124324 24.2317047,72.410547 23.2881558,71.3663285 Z M32.9912173,87.2694959 C32.1744138,88.0456044 30.3718132,89.0333786 28.3720531,89.5272658 C27.9918169,87.7069388 28.3579703,85.9995003 29.7944177,84.4472834 C27.8228231,85.5761684 27.2172621,87.523495 27.0905167,89.767154 C26.3863758,89.8518203 25.6681521,89.8659314 24.9921768,89.781265 C24.7246032,89.7107097 24.4851954,89.5978211 24.2739531,89.4284884 C24.2739531,89.4284884 24.2880359,89.4284884 24.2880359,89.4284884 C23.8514686,87.537606 24.1894562,85.7737233 25.6681521,84.1791731 C24.3162016,84.9552816 23.5979779,86.1264999 23.2459075,87.5093839 C22.9501683,85.6326127 23.8796343,83.1490656 26.4145414,82.2036245 C27.2172621,80.2704089 27.4285043,78.0831942 27.4425871,75.9242017 C27.4425871,75.9100905 27.4425871,75.8959795 27.4425871,75.8818684 C27.4425871,75.6702025 27.4425871,75.4585365 27.4425871,75.2468706 C27.4425871,75.2468706 27.4425871,75.2468706 27.4425871,75.2468706 C27.4425871,74.5695397 27.4285043,73.9063196 27.4003386,73.2713218 C27.372173,72.2129921 27.3158417,70.5196647 27.4425871,68.8686704 C27.4566699,68.6852265 27.4707527,68.4876716 27.4989184,68.3042279 C27.4989184,68.3042279 27.4989184,68.3042279 27.4989184,68.3042279 C27.5130012,68.120784 27.5411668,67.9373401 27.5693324,67.7538964 C27.7242435,66.752011 27.9636513,65.8347919 28.3720531,65.1574608 C28.5692126,64.8329065 28.7945376,64.5506852 29.0339455,64.296686 C28.062231,65.0022392 27.2172621,66.0182358 26.7243634,67.4011198 C24.7809345,66.4556787 23.1332449,64.7059069 21.2602302,62.9561352 C16.5424862,58.5393726 11.5853344,56.4791575 5.54380567,57.8620416 C5.75504794,57.8620416 5.95220737,57.8620416 6.14936682,57.8620416 C4.82558197,57.9325969 3.58629402,58.4405951 2.09351535,59.3719252 C1.40345729,59.8093681 0.952807121,60.1057006 1.03730403,59.8234793 C1.4175401,58.6945943 1.95268717,57.7914862 2.58641396,57.057711 C3.62854247,55.8582707 4.96641015,55.0962733 6.45918882,54.6447193 C6.54368573,54.6164972 6.62818262,54.6023861 6.71267953,54.574164 C6.78309362,54.560053 6.85350771,54.5318308 6.90983898,54.5177197 C6.99433588,54.5036087 7.06474997,54.4753866 7.14924688,54.4612754 C7.23374379,54.4471644 7.3182407,54.4189423 7.40273759,54.4048313 C7.47315168,54.3907201 7.54356577,54.3766091 7.61397986,54.3624981 C8.79693653,54.1508321 10.0362245,54.1084989 11.2755124,54.2072764 C11.3600094,54.2072764 11.4445063,54.2213874 11.5149203,54.2213874 C11.5712516,54.2213874 11.6275829,54.2354985 11.6839141,54.2354985 C11.8810736,54.2496095 12.0782331,54.2778317 12.2753925,54.3060538 C12.4725519,54.334276 12.6697114,54.3624981 12.8809537,54.3907201 C13.2611897,54.4612754 13.6414258,54.5318308 14.0216619,54.6164972 C15.3595296,54.9269406 16.6269832,55.3643835 17.7536085,55.8864928 C17.8803539,55.942937 18.0070993,56.0134924 18.1338447,56.0699366 C18.26059,56.1404919 18.3873353,56.1969362 18.5140807,56.2674915 C18.9224824,56.4932685 19.3308842,56.7049345 19.7533687,56.9307114 C19.8378656,56.9730447 19.9364453,57.0294888 20.0209421,57.0718221 C20.0631907,57.1000441 20.119522,57.1141553 20.1617703,57.1423774 C20.2321844,57.1847106 20.3166814,57.2129327 20.3870955,57.2552659 C20.4293439,57.283488 20.4856752,57.297599 20.5279236,57.3258213 C20.5983376,57.3681544 20.6828347,57.3963766 20.7532488,57.4387097 C20.7954971,57.4669319 20.8518284,57.4810429 20.8940769,57.509265 C20.9785738,57.5515982 21.0771535,57.5939313 21.1616504,57.6362646 C21.1898161,57.6503756 21.2320645,57.6644866 21.2602302,57.6785977 C21.3869756,57.735042 21.499638,57.7773752 21.6263834,57.8338195 C21.654549,57.8479305 21.6967975,57.8620416 21.7249631,57.8761526 C21.8094601,57.9184858 21.9080398,57.9467079 21.9925366,57.9890411 C22.0347852,58.0031522 22.0770335,58.0172632 22.1333648,58.0454854 C22.2178617,58.0737075 22.3023586,58.1019296 22.3868556,58.1301518 C22.429104,58.1442628 22.4713525,58.1583738 22.5276838,58.1724849 C22.6121807,58.2007071 22.7107603,58.2289292 22.7952572,58.2571514 C22.8375057,58.2712624 22.8656713,58.2853734 22.9079198,58.2853734 C23.0346652,58.3277067 23.1614106,58.3559288 23.2881558,58.398262 C23.3163216,58.398262 23.3304043,58.412373 23.3585699,58.412373 C23.4571497,58.4405951 23.5698122,58.4688173 23.668392,58.4829283 C23.7106404,58.4970394 23.7528889,58.4970394 23.7951373,58.5111504 C23.8796343,58.5252614 23.9782139,58.5534837 24.0627108,58.5675947 C24.1049593,58.5817057 24.1612906,58.5817057 24.203539,58.5958168 C24.2880359,58.6099279 24.3866157,58.624039 24.4851954,58.63815 C24.5274439,58.63815 24.5696922,58.652261 24.6119408,58.652261 C24.7386861,58.6663721 24.8795143,58.6804833 25.0203425,58.6945943 C25.1752535,58.7087053 25.3301644,58.7087053 25.4991582,58.7087053 C25.4991582,58.7087053 25.5132411,58.7087053 25.5132411,58.7087053 C25.6399864,58.7087053 25.7808146,58.7087053 25.9075599,58.7087053 C26.1892163,60.3173665 26.9919369,61.7284727 28.4987985,62.8996909 L28.7522891,63.0972458 L29.062111,63.1395789 C30.611221,63.3371338 32.1321654,62.8009134 33.5686128,62.2929152 L33.9206832,62.1659156 L34.1319255,61.8695833 C36.2020997,58.9203713 36.9484889,56.0276034 34.2727537,53.1348357 C33.6249441,52.4292825 32.9912173,51.7096183 32.3715733,50.9899542 C32.3574905,49.8328469 32.1462482,48.703962 31.7660122,47.5468548 C31.2590306,46.0087491 30.4844756,44.5553095 29.7662519,43.1018702 C31.9209231,41.8600967 34.8079007,39.7011041 34.6248241,35.6512291 C33.8925175,38.0783318 31.5547699,40.3925462 29.2029392,41.9588741 C29.1184423,42.0153184 29.0339455,42.0717625 28.9494486,42.1140958 C28.8508689,42.1846511 28.7522891,42.2410954 28.6537094,42.2975396 C28.526964,42.368095 28.4143014,42.4527613 28.2875562,42.5233166 C28.2875562,42.5233166 28.2875562,42.5233166 28.2875562,42.5233166 C27.5411668,42.9607595 26.8088603,43.3135361 26.1469678,43.5534241 C24.9076799,42.8337599 22.9501683,42.636205 21.8376257,43.3699804 C27.1750136,43.525202 28.146728,47.7302987 31.2871963,51.6672851 C31.2871963,51.6672851 31.2871963,51.6672851 31.2871963,51.6672851 C31.9068402,52.4433935 32.5968983,53.1912799 33.4277846,53.9109441 C35.9626918,56.0981587 34.9628116,58.6804833 33.1883767,61.1922523 C32.3011592,61.5026957 30.6253038,62.1659156 29.2170222,61.9824718 C27.9495685,60.9805864 27.3158417,59.8517014 27.062351,58.5817057 C27.0341854,58.412373 27.0060198,58.2430402 26.9919369,58.0595965 C26.9919369,58.0454854 26.9919369,58.0454854 26.9919369,58.0313743 C26.9778541,57.9467079 26.9778541,57.8620416 26.9637713,57.7773752 C26.9637713,57.7773752 26.9637713,57.7773752 26.9637713,57.7773752 C26.9637713,57.6927089 26.9496885,57.5939313 26.9496885,57.509265 C26.9356057,57.0436 26.9637713,56.5638238 27.0341854,56.0699366 L28.9072001,57.2552659 C28.8790345,57.3540433 28.8649517,57.4528207 28.836786,57.5515982 C28.8227032,57.5798203 28.8227032,57.6221535 28.8227032,57.6503756 C28.8086204,57.7209309 28.7945376,57.7914862 28.7804548,57.8620416 C28.7663719,57.9184858 28.7663719,57.9749301 28.7522891,58.0454854 C28.7522891,58.0454854 28.7522891,58.0454854 28.7522891,58.0454854 C28.5551296,59.5271469 29.0057799,60.2891443 30.076074,60.8818089 C29.1888564,59.978701 29.2733533,58.9768155 29.9070801,57.4810429 C30.5971382,57.7773752 31.3294447,57.8197083 32.0899169,57.8055973 C31.4984386,57.509265 30.9210431,57.2129327 30.3436476,56.9024894 C30.0197427,56.7190455 29.6958378,56.5497128 29.3719331,56.3521579 C24.6964376,53.6569449 20.6265034,50.284401 18.0070993,46.6014137 C16.641066,44.6681981 16.8241425,45.0491967 18.0634306,43.0736481 C19.2604701,41.1686546 20.4293439,39.447105 21.5700521,37.9654434 C21.8376257,37.6126668 22.1051992,37.2740013 22.3727727,36.9494469 C23.428984,35.6512291 24.4570298,34.5646773 25.442827,33.6897915 C25.5554895,33.5910139 25.6540693,33.5063476 25.7667318,33.4216812 C25.7808146,33.4075702 25.7948975,33.3934592 25.8230631,33.3793481 C25.8371459,33.365237 25.8512286,33.3511259 25.8653116,33.3370149 C25.9920568,33.2382375 26.1047194,33.13946 26.2173819,33.0547936 C26.2596304,33.0265716 26.3018789,32.9842383 26.3441273,32.9560163 C27.1890963,32.2927962 28.836786,30.8816899 30.45631,30.2890254 C28.9353658,30.190248 27.4989184,30.7688015 26.2032991,31.6013543 C26.2032991,31.6013543 26.2032991,31.6013543 26.2032991,31.5872431 C26.1892163,31.5307989 26.1892163,31.4602436 26.1751335,31.4037994 C26.1610507,31.319133 26.1610507,31.2344665 26.1469678,31.1498002 C26.1469678,31.0933559 26.132885,31.0228006 26.132885,30.9663564 C26.1188022,30.8816899 26.1188022,30.7829126 26.1047194,30.6982462 C26.1047194,30.6418019 26.0906366,30.5853577 26.0906366,30.5148023 C26.0765538,30.416025 26.0765538,30.3172476 26.0624709,30.21847 C26.0624709,30.1761369 26.0483881,30.1196927 26.0483881,30.0773594 C26.0343053,29.9362488 26.0343053,29.7951382 26.0202225,29.6540275 C26.0202225,29.5975833 26.0202225,29.5411391 26.0061398,29.4988059 C26.0061398,29.4000285 25.9920568,29.315362 25.9920568,29.2306956 C25.9920568,29.1601403 25.9920568,29.1036962 25.977974,29.0331409 C25.977974,28.9484744 25.977974,28.8779191 25.9638912,28.7932527 C25.9638912,28.7226974 25.9638912,28.6521421 25.9638912,28.5815868 C25.9638912,28.5110315 25.9638912,28.4263651 25.9638912,28.3558098 C25.9638912,28.2852545 25.9638912,28.2146992 25.9638912,28.1441439 C25.9638912,28.0735886 25.9638912,27.9889222 25.9638912,27.9183669 C25.9638912,27.8478116 25.9638912,27.7772563 25.9638912,27.706701 C25.9638912,27.6361456 25.9638912,27.5514793 25.9638912,27.480924 C25.9638912,27.4103687 25.9638912,27.3398133 25.9638912,27.269258 C25.9638912,27.1845917 25.9638912,27.1140364 25.977974,27.0293699 C25.977974,26.9023704 25.9920568,26.7753708 25.9920568,26.6624823 C25.9920568,26.591927 26.0061398,26.5072606 26.0061398,26.4367053 C26.0061398,26.36615 26.0202225,26.2814836 26.0202225,26.2109283 C26.0202225,26.140373 26.0343053,26.0698177 26.0343053,26.0133734 C26.0343053,25.9428181 26.0483881,25.8581518 26.0483881,25.7875964 C26.0483881,25.7170411 26.0624709,25.6605968 26.0624709,25.5900415 C26.0765538,25.5053752 26.0765538,25.4348199 26.0906366,25.3501535 C26.1047194,25.2795982 26.1047194,25.2231539 26.1188022,25.1525986 C26.132885,25.0679323 26.132885,24.9973769 26.1469678,24.9127106 C26.1610507,24.8562663 26.1610507,24.785711 26.1751335,24.7292667 C26.1892163,24.6446004 26.2032991,24.5740451 26.2032991,24.4893787 C26.2173819,24.4329344 26.2173819,24.3764902 26.2314648,24.3059348 C26.2737132,24.0096026 26.3300445,23.7132703 26.3863758,23.416938 C26.4004586,23.3604937 26.4145414,23.3040494 26.4286241,23.2476051 C26.4427071,23.1629388 26.4567899,23.0923835 26.4849554,23.0077171 C26.4990382,22.9512728 26.5131212,22.8807175 26.527204,22.8242732 C26.5412867,22.7396069 26.5694523,22.6690516 26.5835353,22.5843852 C26.597618,22.527941 26.6117008,22.4573856 26.6257836,22.4009414 C26.6398664,22.316275 26.6680321,22.2457197 26.6821149,22.1610534 C26.6961977,22.1046091 26.7102805,22.0340538 26.7384462,21.9776096 C26.7666118,21.8929431 26.7806946,21.8223878 26.8088603,21.7377215 C26.8229431,21.6812772 26.8511087,21.624833 26.8651916,21.5542777 C26.8933572,21.4696112 26.90744,21.3990559 26.9356057,21.3143896 C26.9496885,21.2579453 26.9778541,21.2015012 26.9919369,21.1591679 C27.0341854,21.0039463 27.0905167,20.8628356 27.146848,20.707614 C27.1750136,20.6511697 27.1890963,20.5947254 27.2172621,20.5241701 C27.2454276,20.4536148 27.2735932,20.3830595 27.3017589,20.2983931 C27.3158417,20.2560599 27.3440073,20.1996157 27.3580902,20.1572825 C28.2875562,23.5721596 31.4139417,26.9305925 34.0755942,29.4282506 C34.1178427,31.770687 35.1318055,34.254234 36.1035199,36.1874495 C37.6244642,39.1931058 38.9060006,42.396317 39.7650525,45.6559725 C40.9057607,49.9598465 41.3986594,54.7858299 40.0467089,59.103815 C39.3284852,61.4039183 38.1173629,63.4218002 36.3992591,65.1292388 C36.2161825,65.3126826 36.019023,65.4961264 35.8218636,65.6654592 C35.5683729,65.1292388 35.244468,64.6212405 34.8219835,64.1414644 C35.2022196,64.6494626 35.4275447,65.2703494 35.5542901,65.9759025 C35.5683729,66.0464578 35.5683729,66.1029021 35.5824556,66.1734574 C35.5824556,66.2016795 35.5965384,66.2440128 35.5965384,66.2722348 C35.6106214,66.3427901 35.6106214,66.3992344 35.6247042,66.4697897 C35.6247042,66.5121228 35.6247042,66.540345 35.6387869,66.5826781 C35.6387869,66.6532335 35.6528697,66.7237888 35.6528697,66.7943441 C35.6528697,66.8225663 35.6528697,66.8648994 35.6528697,66.8931216 C35.6528697,66.977788 35.6528697,67.0624543 35.6528697,67.1471207 C35.6669525,68.6005602 35.3571306,70.2092212 34.9768946,71.6485497 C34.9487288,71.7332161 34.9346461,71.8178824 34.9064805,71.9025488 C34.8923975,71.944882 34.8923975,71.9731041 34.8783148,72.0154373 C34.864232,72.0859926 34.8360664,72.156548 34.8219835,72.2271033 C34.8079007,72.2553253 34.8079007,72.2976586 34.7938179,72.3258807 C34.7656523,72.396436 34.7515694,72.4811023 34.7234038,72.5516576 C34.709321,72.5798798 34.709321,72.6081019 34.6952382,72.636324 C34.6670725,72.7351015 34.6389069,72.8338789 34.6107413,72.9326564 C34.5825756,73.0314338 34.55441,73.1161001 34.5262443,73.2148777 C34.089677,74.654206 33.7516893,76.2910893 33.5404471,77.7586397 C33.5404471,77.7586397 33.5404471,77.7586397 33.5404471,77.7586397 C33.5122815,77.9420836 33.4841159,78.1255273 33.470033,78.2948601 C33.470033,78.2948601 33.470033,78.2948601 33.470033,78.2948601 C33.4418674,78.4783039 33.4277846,78.6476367 33.3996189,78.8169694 C33.3996189,78.8169694 33.3996189,78.8169694 33.3996189,78.8169694 C33.2869564,79.7765217 33.2306251,80.6231854 33.2306251,81.201739 C33.2587907,84.814171 34.4558302,85.8866117 32.9912173,87.2694959 Z M31.1745337,49.5929589 C29.8085004,47.8996314 29.2029392,45.8817495 27.5834153,44.4000879 C27.7805746,44.202533 28.2453077,43.962645 28.836786,43.6380905 C29.5409269,45.0350857 30.2732335,46.432081 30.766132,47.9137424 C30.9351259,48.4640739 31.0759541,49.0285164 31.1745337,49.5929589 Z M34.6248241,77.9420836 C34.7374866,77.1800861 34.8783148,76.4180887 35.0473087,75.6560914 C35.1881368,75.0210936 35.3430478,74.3719848 35.5402073,73.751098 C35.7514495,73.9063196 35.9626918,74.0615413 36.1739339,74.2026519 C37.9202034,75.3738702 40.0185433,76.1923117 42.1450486,76.2910893 C39.7650525,77.4764184 37.1878969,78.0831942 34.6248241,77.9420836 Z M51.8340273,81.3146275 C53.6084623,82.4576235 55.2702347,83.3607316 55.1998206,86.3946099 C55.0589925,86.4792764 54.9181643,86.5498317 54.7773361,86.6062759 C54.3689343,85.0540591 53.5239653,83.7276192 51.622785,82.9373997 C53.2704746,84.1791731 53.7915388,85.5620573 53.552131,87.0296078 C53.0873979,87.1424963 52.5944993,87.2130516 52.0875179,87.2412737 C51.6931991,85.6608347 50.84823,84.2920617 48.918884,83.4877312 C50.4539111,84.6448383 51.003141,85.9148339 50.8904784,87.2694959 C48.3274056,87.1848296 45.8488298,86.3804989 45.2573514,85.9007229 C42.8210239,83.9533962 44.5250449,81.5827377 43.8913181,76.5733105 C45.4826764,75.6278692 46.9613723,74.428429 48.2710744,73.0455448 C49.1582919,72.1001037 49.9469296,71.069996 50.6510705,69.9693332 C50.5665737,73.5535431 50.2426688,77.8997503 51.8340273,81.3146275 Z M56.4109429,62.8714687 C55.5800567,63.1113569 54.6083423,63.0690236 53.7774561,62.9561352 C54.2421891,61.4321404 54.5942594,59.8658124 54.861833,58.3135955 C54.8759158,58.2994845 54.8899987,58.2994845 54.9181643,58.2853734 C55.7772161,59.6400354 56.1152038,60.8959201 55.3828973,61.9260276 C56.5095226,61.0511417 56.7489306,60.0633673 55.9462099,58.1583738 L57.6079825,56.7049345 C58.2698749,58.9485933 58.1572124,60.9523642 56.4109429,62.8714687 Z M64.9310476,45.994638 C62.889039,50.1574014 59.2979206,54.2354985 54.9604128,57.6927089 C55.087158,56.8601561 55.1998206,56.0134924 55.2843175,55.1809396 C55.5237255,52.8808365 55.5941396,50.5666223 55.5518911,48.266519 C57.2981605,45.6136393 59.030347,43.5393131 60.6498711,43.4123135 C59.4246659,42.8619822 58.0445498,43.1865365 57.2418292,44.1743109 C56.5236055,43.7933123 55.8335474,43.4123135 55.1716551,43.0313149 C55.1575721,42.9607595 55.1575721,42.9043153 55.1434893,42.8337599 C55.0730752,42.368095 55.0026612,41.9165409 54.9181643,41.4649869 C55.8194646,41.267432 56.6081024,40.7594338 58.3262062,40.4489904 C59.5514113,40.2232135 60.49496,39.7716594 61.1850181,39.1931058 C62.1989809,40.2091023 63.2270267,41.3379873 64.2973208,42.5515387 C65.8464308,44.2730883 65.973176,43.8779786 64.9310476,45.994638 Z M53.6084623,24.5881561 C52.8479901,24.4047124 52.5663337,23.896714 52.7494104,23.431049 C53.9886983,22.8807175 53.2704746,21.6107219 52.3269259,21.9211653 C51.1158036,22.3586083 51.2143832,25.0961543 53.6084623,24.5881561 Z M62.9031218,21.5260555 C62.1285668,21.2720565 61.5370885,22.316275 62.5510514,22.7819401 C62.6918796,23.1629388 62.4665545,23.5862707 61.8328277,23.7414923 C63.8325878,24.1507132 63.9030019,21.8929431 62.9031218,21.5260555 Z M39.0468288,8.96720989 C39.8495494,8.96720989 40.5114418,9.8703179 40.5114418,10.9850918 C40.5114418,12.0998658 39.8495494,13.0029738 39.0468288,13.0029738 C38.2300253,13.0029738 37.5822157,12.0998658 37.5822157,10.9850918 C37.5822157,9.8703179 38.2441083,8.96720989 39.0468288,8.96720989 Z M96.1667371,36.5402261 L96.1667371,24.7433778 L106.588022,24.7433778 L106.588022,59.5271469 L96.1667371,59.5271469 L96.1667371,45.7688609 L86.1679365,45.7688609 L86.1679365,59.5271469 L75.7466516,59.5271469 L75.7466516,24.7433778 L86.1679365,24.7433778 L86.1679365,36.5402261 L96.1667371,36.5402261 Z M123.360658,33.6192362 C127.444675,33.6192362 130.824551,34.9597871 133.500287,37.6832222 C136.007028,40.1949913 137.260399,43.2712029 137.260399,46.9259682 C137.260399,50.5525111 136.007028,53.6428339 133.500287,56.168714 C130.824551,58.863927 127.374261,60.218589 123.177581,60.218589 C118.938653,60.218589 115.488363,58.863927 112.82671,56.168714 C110.319969,53.6287229 109.066598,50.5525111 109.066598,46.9400792 C109.066598,44.5411985 109.672159,42.3116507 110.855116,40.2373245 C112.108487,38.0501098 113.92517,36.3567822 116.319249,35.1714531 C118.37534,34.1413454 120.713088,33.6192362 123.360658,33.6192362 Z M126.360298,51.6955073 C127.148936,50.6371776 127.557338,49.0567385 127.557338,46.9683013 C127.557338,42.7067603 126.078642,40.5759899 123.107167,40.5759899 C121.783382,40.5759899 120.741254,41.0980993 119.980782,42.1282068 C119.178061,43.1724255 118.783742,44.7669755 118.783742,46.911857 C118.783742,49.0426274 119.178061,50.6371776 119.980782,51.6955073 C120.741254,52.7256148 121.811548,53.2477241 123.163499,53.2477241 C124.543615,53.2477241 125.613909,52.7256148 126.360298,51.6955073 Z M160.666041,45.7688609 C162.370063,47.0953009 163.215031,48.9438501 163.201122,51.3427307 C163.201122,54.1226101 162.00391,56.2957136 159.595747,57.8620416 C157.173503,59.4424805 154.103448,60.2327 150.371503,60.2327 C145.681924,60.2327 142.161219,59.0332597 139.823472,56.6343791 C138.443356,55.2091618 137.668801,53.3182794 137.51389,50.9335099 L146.822632,50.9335099 C147.132454,52.9513918 148.385825,53.9673882 150.61091,53.9673882 C151.41363,53.9673882 152.103689,53.7980555 152.667002,53.45939 C153.230315,53.1348357 153.51197,52.7115038 153.51197,52.1611723 C153.51197,51.3427307 152.751499,50.750066 151.230554,50.3972894 L145.555178,49.1272938 C140.555778,47.9984089 138.049037,45.5430839 138.049037,41.7613192 C138.049037,39.2636611 139.161579,37.3163346 141.386665,35.9052283 C143.738495,34.3812336 146.766301,33.6333472 150.484164,33.6333472 C155.089246,33.6333472 158.398708,34.7057879 160.398468,36.8506694 C161.567342,38.1206651 162.215152,39.7575483 162.327814,41.7613192 L153.300728,41.7613192 C153.216231,41.041655 153.047237,40.5477678 152.793747,40.2514355 C152.230434,39.658771 151.343217,39.3624385 150.146178,39.3624385 C149.470201,39.3624385 148.892806,39.461216 148.442156,39.686993 C147.878843,39.9409922 147.597188,40.3219908 147.597188,40.8299891 C147.597188,41.6484308 148.399908,42.1987621 150.005348,42.5092056 L154.483685,43.3982025 C157.342497,43.962645 159.398589,44.7528645 160.666041,45.7688609 Z M175.833237,26.8318151 L175.847319,26.8318151 L175.847319,34.3106783 L180.367904,34.3106783 L180.367904,40.3925462 L175.847319,40.3925462 L175.847319,49.7622916 C175.847319,50.8347324 176.044479,51.5685077 176.410632,51.9777284 C176.861282,52.4857268 177.537258,52.7397258 178.438558,52.7397258 C179.142698,52.7397258 179.790509,52.6550595 180.367904,52.4857268 L180.367904,59.1179262 C178.311812,59.6259244 176.523295,59.8799235 174.974184,59.8799235 C172.129456,59.8799235 169.890287,59.0191486 168.256681,57.3258213 C166.834317,55.8159374 166.116092,53.4029457 166.116092,50.0868461 L166.116092,40.3784351 L162.412311,40.3784351 L162.412311,34.2965671 L166.116092,34.2965671 L166.116092,26.8318151 L175.833237,26.8318151 Z M200.407753,48.054853 L200.407753,40.4207682 L214.927139,40.4207682 L214.927139,59.5271469 L208.04064,59.5271469 L207.378748,56.5497128 C204.491771,59.0614819 201.055563,60.3173665 197.112374,60.3173665 C192.563624,60.3173665 188.733098,58.6804833 185.59263,55.4208278 C182.311333,52.0200617 180.663643,47.5891881 180.663643,42.1423178 C180.663643,36.751892 182.269084,32.3774626 185.494049,29.0190297 C188.761262,25.6464858 192.957943,23.9531583 198.112254,23.9531583 C203.717215,23.9531583 208.082888,25.8863738 211.181109,29.7810271 C212.772467,31.7424649 213.800513,34.0849011 214.251162,36.8083363 L203.928458,36.9917801 C203.660884,35.9616726 203.224317,35.1150088 202.576507,34.4376777 C201.463965,33.2382375 199.999352,32.6314618 198.182667,32.6314618 C195.69001,32.6314618 193.887409,33.6615693 192.7467,35.7358956 C191.859483,37.3727788 191.422916,39.4329938 191.422916,41.930652 C191.422916,44.865753 191.972145,47.2364115 193.098771,49.0426274 C194.323976,51.0040652 196.253323,51.9777284 198.900892,51.9777284 C200.759824,51.9777284 202.294851,51.413286 203.505973,50.2985121 C204.153783,49.7058475 204.632599,48.9579611 204.956503,48.054853 L200.407753,48.054853 Z M243.740583,55.7594933 C243.740583,56.5638238 243.796914,57.2552659 243.923659,57.8338195 C244.008156,58.3841508 244.219399,58.9485933 244.557387,59.5412581 L235.150064,59.5412581 C234.769828,58.7651496 234.47409,57.9184858 234.291012,56.9871557 C233.065808,57.9043748 232.108176,58.5534837 231.418117,58.9203713 C229.742262,59.7811461 227.911497,60.218589 225.925818,60.218589 C223.447243,60.218589 221.362986,59.5553691 219.673047,58.2289292 C217.997192,56.9448225 217.152223,55.1527176 217.152223,52.8243922 C217.152223,50.8065103 217.729618,49.141405 218.884411,47.8572983 C219.968787,46.671969 221.729139,45.8253052 224.193632,45.331418 L231.488532,43.9344229 C233.291133,43.5816463 234.206515,42.9325375 234.206515,42.0012072 C234.206515,41.3238763 233.882611,40.7876558 233.2348,40.3925462 C232.615157,40.0397696 231.840602,39.8563257 230.925219,39.8563257 C229.347943,39.8563257 228.235401,40.3361019 227.615757,41.3097652 C227.320018,41.7613192 227.17919,42.3116507 227.17919,42.9607595 C227.17919,43.0454259 227.193272,43.2006475 227.207356,43.3982025 L218.278849,43.3982025 C218.53234,40.5901011 219.377309,38.4593306 220.841922,36.977669 C223.08109,34.719899 226.503215,33.5910139 231.136462,33.5910139 C235.051485,33.5910139 238.163787,34.4517889 240.487452,36.1592275 C242.656206,37.7537775 243.740583,40.3502129 243.740583,43.9344229 L243.740583,55.7594933 Z M234.361426,49.5647368 L234.361426,48.2100748 L230.192912,49.6352922 C228.686051,50.1291794 227.742503,50.496067 227.390432,50.7077329 C226.742622,51.0887315 226.418718,51.624952 226.418718,52.316394 C226.418718,53.0078361 226.700374,53.5440564 227.263687,53.9532772 C227.756585,54.3060538 228.390311,54.4894977 229.164867,54.4894977 C230.756225,54.4894977 232.094094,53.9532772 233.136221,52.8808365 C233.953025,52.0623949 234.361426,50.961732 234.361426,49.5647368 Z M257.56991,26.8318151 L257.583992,26.8318151 L257.583992,34.3106783 L262.104577,34.3106783 L262.104577,40.3925462 L257.583992,40.3925462 L257.583992,49.7622916 C257.583992,50.8347324 257.76707,51.5685077 258.147305,51.9777284 C258.597955,52.4857268 259.273931,52.7397258 260.175231,52.7397258 C260.879372,52.7397258 261.527182,52.6550595 262.104577,52.4857268 L262.104577,59.1179262 C260.048485,59.6259244 258.259968,59.8799235 256.710859,59.8799235 C253.866129,59.8799235 251.626961,59.0191486 249.993354,57.3258213 C248.57099,55.8159374 247.852765,53.4029457 247.852765,50.0868461 L247.852765,40.3784351 L244.134902,40.3784351 L244.134902,34.2965671 L247.852765,34.2965671 L247.852765,26.8318151 L257.56991,26.8318151 Z M276.56763,33.6192362 C280.651648,33.6192362 284.031524,34.9597871 286.721342,37.6832222 C289.228084,40.1949913 290.481454,43.2712029 290.481454,46.9259682 C290.481454,50.5525111 289.228084,53.6428339 286.721342,56.168714 C284.045607,58.863927 280.595317,60.218589 276.398638,60.218589 C272.159709,60.218589 268.709419,58.863927 266.047767,56.168714 C263.541025,53.6287229 262.287654,50.5525111 262.287654,46.9400792 C262.287654,44.5411985 262.879133,42.3116507 264.062088,40.2373245 C265.31546,38.0501098 267.132143,36.3567822 269.526223,35.1714531 C271.568231,34.1413454 273.920061,33.6192362 276.56763,33.6192362 Z M279.567272,51.6955073 C280.369992,50.6371776 280.764311,49.0567385 280.764311,46.9683013 C280.764311,42.7067603 279.285615,40.5759899 276.314141,40.5759899 C274.990356,40.5759899 273.948227,41.0980993 273.187755,42.1282068 C272.385033,43.1724255 271.990716,44.7669755 271.990716,46.911857 C271.990716,49.0426274 272.399117,50.6371776 273.187755,51.6955073 C273.948227,52.7256148 275.018521,53.2477241 276.370472,53.2477241 C277.750587,53.2477241 278.820882,52.7256148 279.567272,51.6955073 Z M312,34.1272344 L312,42.8760932 C310.408642,42.2834285 309.113023,41.9870962 308.113143,41.9870962 C306.240127,41.9870962 304.733266,42.5797609 303.592558,43.7650901 C302.564513,44.8093087 302.043448,46.2345261 302.043448,48.0125199 L302.043448,59.5271469 L292.326303,59.5271469 L292.326303,34.3106783 L301.522384,34.3106783 L301.522384,37.7678885 C303.634806,35.0021202 306.113382,33.6192362 308.944029,33.6192362 C309.817164,33.6192362 310.831127,33.7885689 312,34.1272344 Z" id="Shape"></path>
      </g>
    </g>
  </g>
</svg>
