<?xml version="1.0" encoding="UTF-8"?>
<svg xmlns="http://www.w3.org/2000/svg" width="1440" height="436" viewBox="0 0 1440 436" fill="none">
  <rect width="1440" height="436" fill="white"></rect>
  <rect y="243" width="1440" height="193" fill="#CCF3F1"></rect>
  <path fill-rule="evenodd" clip-rule="evenodd" d="M1440 0H0V243.252V251V338.902C104.31 308.523 214.723 284.111 337.539 273.048C682.058 242.014 977.243 278.291 1258.71 312.883L1258.72 312.884C1319.67 320.374 1379.98 327.786 1440 334.417V251V243.252V0Z" fill="white"></path>
  <path d="M537.462 296.946C511.369 319.097 506.797 352.835 536.358 367.813C575.299 387.52 626.774 344.953 656.65 323.59C689.128 300.336 721.526 275.82 753.215 250.358" stroke="#231F20" stroke-width="2" stroke-miterlimit="10" stroke-linecap="round" stroke-linejoin="round"></path>
  <path d="M846.863 48.3218C874.532 25.698 910.162 27.7476 918.597 60.7767C929.397 103.029 876.739 144.098 849.386 168.614C817.224 197.465 783.722 225.843 749.353 253.197" stroke="#231F20" stroke-width="2" stroke-miterlimit="10" stroke-linecap="round" stroke-linejoin="round"></path>
  <path d="M867.674 52.3419L845.523 49.3464L850.253 27.2744" stroke="#231F20" stroke-width="2" stroke-miterlimit="10" stroke-linecap="round" stroke-linejoin="round"></path>
  <path d="M554.252 149.459C555.671 149.695 557.09 149.853 558.43 149.774C566.707 149.064 570.412 139.132 576.403 134.718C580.029 132.038 583.97 129.909 588.069 128.096C597.371 123.918 606.831 121.79 616.211 127.15C625.276 132.353 630.716 144.414 626.932 154.425C624.882 159.943 619.837 163.805 616.921 168.772C607.382 184.931 633.711 195.573 633.632 210.551C633.632 214.571 631.898 215.832 629.612 218.67C626.38 222.69 627.641 226.159 630.479 230.179C637.889 240.821 647.348 256.823 643.407 270.46C640.569 280.156 631.189 295.134 618.891 287.803C615.659 285.911 613.373 283.309 609.826 281.812C603.914 279.289 587.281 274.008 588.7 285.989C589.331 291.113 600.446 294.266 595.164 300.1C589.488 306.327 580.738 304.278 573.644 302.307C570.018 301.282 563.79 298.76 558.509 298.444" stroke="#231F20" stroke-width="2" stroke-miterlimit="10" stroke-linecap="round" stroke-linejoin="round"></path>
  <path d="M577.033 329.896C583.655 326.664 590.828 326.822 598.081 327.847C608.565 329.266 616.999 327.768 624.488 319.728C629.77 313.973 628.351 300.257 637.022 297.892C642.934 296.316 645.851 303.725 651.211 304.277C659.094 305.144 660.749 297.656 661.616 291.428C663.035 281.259 664.769 272.115 675.49 268.41C684.082 265.494 694.015 268.489 695.749 278.264C696.774 284.176 697.72 290.403 696.143 296.316C694.251 303.174 689.522 313.342 692.754 320.516C695.828 327.374 703.001 327.374 709.465 326.507C714.904 325.719 727.438 322.96 725.625 332.734C724.6 338.095 716.402 341.405 717.033 347.16C717.742 353.387 726.019 355.91 730.907 357.802C736.346 359.851 742.888 362.531 746.593 367.261C752.111 374.356 745.411 378.376 740.051 382.317C736.109 385.155 733.35 390.831 736.188 395.324C738.395 398.792 742.888 399.423 745.411 402.576C746.278 403.68 746.909 405.02 747.382 406.439" stroke="#231F20" stroke-width="2" stroke-miterlimit="10" stroke-linecap="round" stroke-linejoin="round"></path>
  <path d="M686.211 231.204C683.058 230.81 680.299 229.548 678.722 226.474C675.727 220.877 677.855 209.762 684.713 208.028C691.492 206.294 701.109 210.078 706.391 214.413C714.589 221.192 705.445 229.785 697.799 230.573C694.409 230.888 690.073 231.677 686.211 231.204Z" stroke="#231F20" stroke-width="2" stroke-miterlimit="10" stroke-linecap="round" stroke-linejoin="round"></path>
  <path d="M765.355 197.938C762.674 202.589 762.28 208.343 758.26 212.6C752.821 218.355 745.963 222.375 738.711 225.292C730.04 228.76 721.605 234.83 728.384 244.92C733.744 252.96 743.519 252.882 751.954 254.931C769.454 259.109 765.67 278.028 765.118 291.665C764.803 298.996 764.645 307.746 770.321 313.264C780.174 322.96 795.073 316.89 801.143 331.789C804.217 339.277 806.267 347.949 811.154 354.728C816.199 361.744 826.131 365.527 834.566 364.818C848.597 363.635 851.593 344.244 850.332 333.523C849.386 325.64 847.257 318.467 853.012 311.845C859.633 304.278 871.458 303.647 878 295.922C884.07 288.748 880.05 278.895 875.241 272.194C867.28 261.316 853.8 258.242 852.697 242.87C852.066 234.436 861.683 230.731 865.151 224.188C873.428 208.343 857.111 196.519 842.528 196.598C827.708 196.677 808.395 213.467 793.891 205.742C788.53 202.904 788.294 195.573 782.697 192.814C776.548 189.898 768.744 192.105 765.355 197.938Z" stroke="#231F20" stroke-width="2" stroke-miterlimit="10" stroke-linecap="round" stroke-linejoin="round"></path>
  <path d="M916.469 192.026C914.104 194.706 911.818 197.544 909.532 199.593C904.172 204.323 899.994 208.58 892.347 208.816C886.356 208.974 879.656 206.452 880.129 199.357C880.444 193.997 883.834 189.425 884.149 184.064C884.464 176.97 877.37 166.643 888.721 164.042C896.919 162.15 904.487 171.846 911.581 168.85" stroke="#231F20" stroke-width="2" stroke-miterlimit="10" stroke-linecap="round" stroke-linejoin="round"></path>
  <path d="M681.166 37.1279C680.062 39.1775 679.274 41.4635 678.88 43.5919C677.461 50.7652 684.083 60.2247 678.092 65.9791C670.918 72.8372 656.966 71.1818 651.999 80.7201C645.614 92.9385 658.779 106.97 671.234 103.659C679.747 101.452 688.418 94.8303 697.641 95.8551C701.977 96.3281 705.918 99.4812 704.184 104.369C702.134 110.202 693.305 111.621 688.103 112.882C686.526 113.276 684.871 113.513 683.294 113.67C673.125 114.774 666.977 120.371 667.213 130.54C667.371 137.398 655.547 135.9 657.912 144.965C658.463 147.015 659.882 149.064 661.695 150.168C667.607 153.715 674.544 151.744 679.589 147.567C687.709 140.787 688.26 128.805 702.292 134.639C703.947 135.348 705.997 136.531 706.785 138.107C707.179 139.053 706.864 141.024 706.864 141.97C706.864 143.704 706.706 144.886 706.233 146.542C704.972 150.956 703.868 155.607 701.74 159.706C698.035 167.195 689.285 169.954 684.871 176.733C680.614 183.197 686.132 190.213 693.542 190.134C697.799 190.134 700.321 185.798 702.292 182.566C704.736 178.467 706.785 173.58 710.332 170.19C714.983 165.776 717.033 170.821 719.004 174.684C721.132 178.861 725.704 183.906 730.828 181.226C736.425 178.31 735.4 169.954 734.454 164.988C733.193 158.445 744.465 158.839 748.328 158.366C756.289 157.42 756.92 151.666 759.679 145.596C765.67 132.668 775.445 136.609 783.643 144.886C792.077 153.321 800.827 165.855 814.386 161.756C824.003 158.839 828.969 148.04 837.719 143.231C843.316 140.157 849.78 138.58 856.165 139.132C861.841 139.684 865.546 142.995 870.354 145.517C877.843 149.458 887.933 149.222 895.658 145.911C897.865 144.965 900.072 143.704 901.964 142.127" stroke="#231F20" stroke-width="2" stroke-miterlimit="10" stroke-linecap="round" stroke-linejoin="round"></path>
  <path d="M597.214 85.0555C597.608 88.9181 599.184 92.0712 604.308 92.3077C608.092 92.5442 611.087 89.864 614.95 90.337C618.576 90.81 623.621 95.382 627.247 93.096C631.74 90.1794 630.4 80.8776 629.376 76.6209C628.509 72.9159 626.695 69.4475 624.094 66.6097C623.463 65.9002 622.439 65.2696 621.414 64.7178" stroke="#231F20" stroke-width="2" stroke-miterlimit="10" stroke-linecap="round" stroke-linejoin="round"></path>
  <path d="M729.961 407.149C833.968 407.149 918.282 322.835 918.282 218.828C918.282 114.821 833.968 30.5068 729.961 30.5068C625.954 30.5068 541.64 114.821 541.64 218.828C541.64 322.835 625.954 407.149 729.961 407.149Z" stroke="#231F20" stroke-width="1.9962" stroke-miterlimit="10" stroke-linecap="round" stroke-linejoin="round"></path>
</svg>
