<svg xmlns="http://www.w3.org/2000/svg" viewBox="0 0 1920 1080"><defs><style>.cls-1{fill:#E4F3FD;}.cls-2{fill-rule:evenodd;}</style></defs><g id="Background"><rect class="cls-1" width="1920" height="1080"/></g><g id="Logos"><g id="Default"><g id="Default-Default"><path d="M838.86,578c1.56,9.66,10.36,13.25,20,13.25s16.95-4.06,17.16-9c.34-7.46-5.51-11.88-13.8-13.49-5.72-1.09-22.88-4.48-22.88-4.48-20.87-3.8-32.75-9.83-32.75-27.57,0-23.09,20-38.13,48.46-38.13,28,0,46.6,12.79,51.13,32.31l-32.75,6.49c-1.11-7-7.77-13.22-18.85-13.22-9.63,0-14.47,4-15.35,8.75-.59,3.08.88,5.64,11.11,7.76,6.6,1.43,26.46,5.39,26.46,5.39,21.3,4.48,31.06,17.27,31.06,33.86,0,24.91-21.54,37.93-51.15,37.93-26.46,0-49.19-9.66-52.95-32.75Z"/><path d="M1166.05,526.74a110.88,110.88,0,0,1,.91,13.75c0,45.74-32.68,78.65-78.19,78.65s-81.34-34.56-81.34-78.89,35.36-78.85,80.67-78.85c33.65,0,63.09,15.76,73.68,45.3L1126,517.06c-8.8-17.14-23.3-21.65-37.85-21.65-24.57,0-43.26,19.4-43.26,44.84s19.13,45.08,44.37,45.08c19.83,0,34.25-10.36,39.9-27h-46.22V526.74Z"/><g id="Text-Default"><path d="M667.82,613.18h-37V553.51H567.32v59.67H530.14v-151h37.18V521h63.55V462.2h37Z"/><path d="M801.66,556.62c0,35.83-28.48,59.72-62,59.72-34.25,0-62.65-23.89-62.65-59.72s28.48-59.55,62.65-59.55C773.26,497.15,801.66,521,801.66,556.62Zm-34.74,0c0-17.58-13.28-29.28-27.26-29.28a28.25,28.25,0,0,0-27.93,28.56c0,.24,0,.48,0,.72,0,17.81,13.28,29.3,27.93,29.3C753.66,585.92,766.92,574.43,766.92,556.62Z"/><path d="M1008.59,608.24a61.61,61.61,0,0,1-30.86,8.34c-28.16,0-45.12-15.33-45.12-45v-43H912.16V500.2h20.45V470l36.06-7.77v37.87H1002v28.48H968.85V567.9c0,11.71,5.62,16.44,15.1,16.44a37,37,0,0,0,16.44-4.5Z"/><path d="M1281,541.52v71.66h-34.69v-8.33a50.08,50.08,0,0,1-33.82,11.73c-25.21,0-42.12-14.66-42.12-37s16.91-36.46,47-36.46h28.84V540.9A15.07,15.07,0,0,0,1232,525a15.69,15.69,0,0,0-1.68,0c-10.82,0-17.14,4.27-18.92,14.19l-34-7c4.94-21.85,24.77-35.6,51.78-35.6C1261,496.68,1281,512.68,1281,541.52Zm-34.69,27.06V566H1221.5c-9,0-14.62,4.74-14.62,11.73s6.29,11.7,15.76,11.7C1235,589.52,1246.31,581.18,1246.31,568.58Z"/><path d="M1382.84,608.24a61.7,61.7,0,0,1-30.83,8.34c-28.17,0-45-15.33-45-45.08V528.68h-20.5V500.2H1307V470l36-7.77v37.87h33.35v28.48H1343V567.9c0,11.71,5.64,16.44,15.09,16.44a37.07,37.07,0,0,0,16.47-4.5Z"/><path d="M1501.8,556.62c0,35.83-28.47,59.72-62,59.72-34.25,0-62.65-23.89-62.65-59.72s28.48-59.55,62.65-59.55C1473.43,497.15,1501.8,521,1501.8,556.62Zm-34.69,0c0-17.58-13.3-29.28-27.26-29.28a28.25,28.25,0,0,0-28,28.51c0,.25,0,.51,0,.77,0,17.81,13.31,29.3,28,29.3C1453.81,585.92,1467.11,574.43,1467.11,556.62Z"/><path d="M1594,499.4l-1.58,36h-6.55c-25.22,0-39,12.94-39,42.38v35.41h-36.07V507.84l36.07-7.77v21.62c8.1-13.51,20.5-23.3,39-23.3A30.55,30.55,0,0,1,1594,499.4Z"/></g></g></g><g id="Layer_2" data-name="Layer 2"><g id="Snappy"><g id="Snappy-Black"><path id="Back_Leg" data-name="Back Leg" class="cls-2" d="M443.38,636.05a14.43,14.43,0,0,1,8.79,9.85,25.49,25.49,0,0,0,4.43-.59c.34-3.93-1.19-8.26-5.55-11.55a15.49,15.49,0,0,1,9,10.37c.39-.18.75-.36,1.13-.57.2-8.36-4.37-10.85-9.25-14-4.69-10.08-3.32-25.35-3.26-35.59-.83,1.1-1.74,4.37-2.75,5.26-.1.15-.19.32-.29.47-.75,1.92-6.46,10.07-15.59,16.84,1.73,13.77-2.94,20.28,3.76,25.62,1.6,1.28,8.26,3.45,15.16,3.76C449.06,642.39,447.41,639.08,443.38,636.05Z"/><g id="Back_Arm" data-name="Back Arm"><path class="cls-2" d="M487.67,536.06c-.48-2.41-4.94-8.22-11-14.15a5.64,5.64,0,0,1-3.92,2.94c-8.35,1.17-8.8,3.88-16.07,3.88h-.12a21.87,21.87,0,0,1,1.12,6.9q2.34,1.46,5.05,3s-1.82,3.13-4.21,7.09c.82,5.72,1.22,17.64-2.11,25.92l-.12.82c0,.88-.09-.2-.36,2.3,2.52-1.54,11-8.56,11-8.56S489.07,543,487.67,536.06Z"/><path class="cls-2" d="M467.06,566.66a42.24,42.24,0,0,1-3.28,4.78c3.58,7.07-1.77,10.12-1.77,10.12,2.92-4.11-1.06-9-1.06-9a23.86,23.86,0,0,1-5,2.19,61.29,61.29,0,0,1-2.1,10.76c2.75.36,8,.76,10.64-.75,0,0,7.37-7.13,2.49-18.63Z"/></g><g id="Body"><path class="cls-2" d="M374.68,561.88a9.72,9.72,0,0,1-1.5,4.82c-1.51,2.4-2.39,2.11,1.38,4.17a28.47,28.47,0,0,0,9,2.78c5.31.87,4.07.28,1.73-4.69a42.24,42.24,0,0,0-3.62-6.38c-5.14-7.19-6.76-6.71-6.93-.7"/><path class="cls-2" d="M355.86,559.41c-1.92,3.6,1,4.16,4.84,5.49a20,20,0,0,0,4.38,1c4.3.46,3.18-.15,1.31-3.63a63.46,63.46,0,0,0-3.76-6.17c-7.51-10.79-3.92-1.93-6.76,3.33"/><path class="cls-2" d="M339.62,557.8a22.65,22.65,0,0,1-.08,2.47c-.29,3-.62,2.49,3.08,2.82a21.48,21.48,0,0,0,4.94-.05c4.72-.71,3-2.35.54-5.1a20.74,20.74,0,0,0-2.79-2.59c-9.33-7.19-5.81-2.13-5.69,2.45"/><path class="cls-2" d="M392.58,483.63c-4.4-8.2-2.95-15.62-.88-19.69a10.46,10.46,0,0,1,7.21-5.87c.75-2.11,2.32-3.46,3.2-5.54,0,0-26.73,13.78-26.5,18.14s7.51,3.76,10.51,9.66c0,0-16.37,11.31-15.31,16.52s11.54,3.3,14.27,7.42c0,0-2.59,10.32-.23,14.08s2,.52,5.25,5.35A164.61,164.61,0,0,1,392.58,483.63Z"/><path class="cls-2" d="M409.45,502.25l-16-16s-2.25-3.76-3.75-12.77a12.77,12.77,0,0,1-.14-3.09c-9.29,17.71-6.82,38.3.18,56.73,3.35-4.42,13.16-13,15.77-10.19s-11.27,20-11.27,20a66.35,66.35,0,0,1,3.94,8.93,25.62,25.62,0,0,1,1.39,8.23,11.75,11.75,0,0,1,1.06.54c17.13,10.32,10.8,20.9,6.53,26-3.09,3.71-9.27,3.64-14.27,1.15-6-3-4.42-11.73-4.42-11.73a40.53,40.53,0,0,1-4.41.15c-5.42-.36-10.51-3.22-15.22-5.73-12.44-6.63-29.06-6.42-39.38,3a17.62,17.62,0,0,0-4.4,6.26,2,2,0,0,0,.65,2.39c1.91,1.5,4.26,0,6-.75,3.11-1.42,7.41-4.61,13.51-2.87h0c10.1.29,18.86,5.07,27.4,13,9,8.42,16.63,17.15,31,12.41a27.58,27.58,0,0,0,10.79-6.81c20.27-20.2,11.14-53.08-.25-75.63A41.79,41.79,0,0,1,409.45,502.25Z"/><path class="cls-2" d="M428,517.14c-5.56,2.64-6.92,6-6.92,6a45.61,45.61,0,0,1,9.13-4.51Z"/></g><path id="Front_Leg" data-name="Front Leg" class="cls-2" d="M403.47,583.45a13.13,13.13,0,0,0-12,5.74c-3.41,5-3,15.77-2.79,20.87.26,7.55.4,14.77-2.86,21.85-9.71,3.2-11.27,14.1-7.32,18.72.6-4.69,2.33-9.3,6.58-11.74-3.39,3.62-4.35,9.15-3.69,13.62l.25.07a27,27,0,0,0,7.07-.15c.47-5.15,2.12-10.2,6.69-12.82a14.82,14.82,0,0,0-3.75,12.28c5.7-1.29,10.82-3.79,13.16-5.76,4.24-3.56.79-6.31.75-15.42a75.66,75.66,0,0,1,3.76-20.6C412.54,600.87,416.73,585.16,403.47,583.45Z"/><path id="Front_Arm" data-name="Front Arm" class="cls-2" d="M406.41,559.63c-3.89-4.42-5.13-3.53-8.27-8.83s-7.41-12.54-10.77-14.67c0,0,30.83-19,16-33.3C396.26,496,384,508.54,379.6,513c-8.71,8.86-17.28,23.14-17.32,24.73-.35,10.4,24.7,25.4,26.55,26.5,0,.06,10.71,6,12.54,6.49a10.13,10.13,0,0,1-5.48-.82s-2.76,5.22.44,8.49c0,0-4.93-.88-3.16-9.09l-4.41-4.56c-.46,3.48-1.05,13.12,5.58,16.36,0,0,6.61.44,10-2C404.28,579.15,412.67,566.3,406.41,559.63Z"/><path d="M456.46,530.71h-.57c2.67,15.41,5.09,46.84-12.91,70.84-9.71,13-20.23,17.6-30.16,17.6-15.4,0-29.37-11.17-36.68-19.86-9.21-10.93-18.77-21-27.78-25.53a43.59,43.59,0,0,1,23.94,11.73c7.24,6.76,13.58,13.75,23.28,13.75a24.59,24.59,0,0,0,7.74-1.34,27.47,27.47,0,0,0,10.78-6.81c20.28-20.2,11.14-53.08-.25-75.63a46.89,46.89,0,0,1-4.39-12c-.87-.68-1.71-1.36-2.53-2.05q.6,6.46,4.91,15c7.44,14.72,22.4,51.33.67,73a25.32,25.32,0,0,1-9.9,6.26,22.45,22.45,0,0,1-7,1.23c-7.89,0-13.37-5.21-19.72-11.23l-2-1.91a45.64,45.64,0,0,0-25.15-12.33l-14-2.08,12.62,6.33c9.26,4.62,19.33,15.77,27.08,25,8.4,10,22.9,20.65,38.39,20.65,12,0,22.76-6.23,32-18.51,18.36-24.45,16.08-56.32,13.39-72.22C457.64,530.69,457.07,530.71,456.46,530.71Z"/><path class="cls-2" d="M445.76,597.51c-5.77-.75-15.68-3-24-9.84,0,0,5.94,10.4,21.27,13.86C444,600.18,444.89,598.87,445.76,597.51Z"/><path class="cls-2" d="M405.26,599.5a56,56,0,0,0,14.52,18.84,32,32,0,0,0,5.71-1.92C420,613.89,410.72,608.55,405.26,599.5Z"/><path class="cls-2" d="M374.66,597.54l1.5,1.74.69.8c-.36-2.39-.3-4.72.65-6.34A35.1,35.1,0,0,0,374.66,597.54Z"/><path class="cls-2" d="M384.66,607.63c1,.85,2.12,1.67,3.24,2.48-.75-3.61-1.09-7.36.12-9.47A34.08,34.08,0,0,0,384.66,607.63Z"/><path class="cls-2" d="M365,587.1c.75.75,1.54,1.57,2.32,2.38a19.47,19.47,0,0,1,.53-5A23.46,23.46,0,0,0,365,587.1Z"/><path class="cls-2" d="M428.17,570.39a48.44,48.44,0,0,1,28,0c.23-1.3.44-2.6.62-3.88C438.43,562.17,428.17,570.39,428.17,570.39Z"/><path class="cls-2" d="M457.3,541.76c-.12-1.57-.28-3.08-.45-4.51h0c-19.41-.47-29.4,9-29.4,9C439,539.87,451.35,540.77,457.3,541.76Z"/><g id="Head"><path class="cls-2" d="M460.48,466.76c1.7-15.69-2.9-25.23-7.19-26.68s-6.76,3.07-6.76,3.07c-8.26-5.09-15.52-4.61-15.52-4.61s-4.51-11.44-13.52-11.07c-11.72.49-18.25,24-19.65,30.89,2.56-.85,6.69-.61,8.61-.43,6.89.69,12.41,11,17.27,18.16s18.15,8.67,18.15,8.67-2.21-4.31,1.95-9.64c5.12-6.57,18.5-4.07,22-.8a8.66,8.66,0,0,1,3.27-2.51A13.62,13.62,0,0,0,460.48,466.76Zm-50-6.57s5.3-9.77,5-19.53c0,0,8.3,4,13.78,21.2C429.29,461.87,416.21,459.75,410.47,460.19Zm34.22,3.12s3.36-11,9.8-14.13a120.55,120.55,0,0,0,1.73,16A97.4,97.4,0,0,0,444.69,463.31Z"/><path class="cls-2" d="M419,448.31c2,0,3.67,2.25,3.67,5s-1.65,5-3.67,5-3.66-2.25-3.66-5,1.64-5,3.66-5"/><path class="cls-2" d="M449.92,461.73c1.59,0,2.89-1.72,2.89-3.83s-1.3-3.82-2.89-3.82a2.45,2.45,0,0,0-.88.2,11.23,11.23,0,0,0-2,3.35v.27C447,460,448.33,461.73,449.92,461.73Z"/><path class="cls-2" d="M472.88,510.23c-1.95-4.06-13-12.63-13-12.63a1.85,1.85,0,0,1-1.1,1.37c2.64,2.12,9,5.37,10.41,17.39C472.13,514.91,474.15,512.89,472.88,510.23Z"/><path class="cls-2" d="M426,487.06c-6.32-4.57-12.43-10.16-16.67-16.1,0,0,.46-2.95,3.89-1.3h.34s-5.65-6.53-11.13-1.24c-4.5,4.4-1.15,11.76-1.15,11.76s.33-6.36,3.27-5.92c0,0,.87,5.51,6.34,13.28A39.22,39.22,0,0,1,426,487.06Z"/><path class="cls-2" d="M436.51,490.34l.5.24Z"/><path d="M480.39,496.07c-.65,3.38-2,7.8-4.69,7.8h-.31c-1.5-.2-1.5-3.45-2.41-5.62.67-.11,1.27-.23,1.76-.36l.75-.19a27.76,27.76,0,0,0,4.89-1.62m3-3.85-4,1.8a25.39,25.39,0,0,1-4.51,1.5l-.78.21c-.39.1-.9.2-1.51.31l-2.84.44,1.12,2.66a13.61,13.61,0,0,1,.59,2.1c.44,1.92,1.06,4.56,3.61,4.87h.59c3.36,0,5.68-3.23,6.91-9.62l.82-4.28Z"/><path d="M457.8,500.24c-1.12,3.09-3.06,7.13-5.56,7.13a2.26,2.26,0,0,1-.69-.1c-1.51-.44-.89-3.8-1.51-6.1a1.27,1.27,0,0,0-.09-.3,22.36,22.36,0,0,0,2.45.14,18.25,18.25,0,0,0,5.4-.75m2.18-2.75-2.82.57a16.13,16.13,0,0,1-4.74.68,20.3,20.3,0,0,1-2.2-.14l-3.33-.36.92,3.22v0c0,.07.05.15.06.23a13.18,13.18,0,0,1,.28,2.25c.12,2,.29,4.67,2.76,5.4a4.65,4.65,0,0,0,1.33.19c3.07,0,6.33-4.32,8.44-10.12Z"/><path class="cls-2" d="M452.26,480.78c2.35-.75,4.16,2.41,1.06,3.8-.44,1.16.26,2.44,2.17,2.89-6,1.25-6.26-5.6-3.23-6.69"/><path class="cls-2" d="M478.82,479.78c-1.94-.63-3.43,2-.87,3.13.36,1-.22,2-1.8,2.39,5,1,5.17-4.62,2.67-5.52"/><path d="M402.54,458.25c1.09,0,2.1.1,3,.18,6.89.68,13.16,10.25,18,17.41s18.91,9.41,18.91,9.41-2.77-4.62,2-9.4a11.41,11.41,0,0,1,8.43-3.62c4.25,0,8.56,2,12.6,2.87a15.05,15.05,0,0,1,8.84-2.94c5.79,0,10.88,3.56,11.27,9.22.8,11.56-8.05,13.07-11.67,14s-13.54,1.13-13.54,1.13a17.81,17.81,0,0,1-8.2,1.91,24.09,24.09,0,0,1-7.92-1.47c-10.07-3.54-26.5-14.22-35.16-26.33a2.12,2.12,0,0,1,2.05-1.8,4.4,4.4,0,0,1,1.85.5h.34s-2.86-3.31-6.48-3.31a6.6,6.6,0,0,0-4.65,2.07c-4.5,4.4-1.14,11.76-1.14,11.76s.3-5.94,3-5.94h.28s2.48,15.77,25.62,31.62c16.63,11.35,24.63,13.82,29.69,13.82a18,18,0,0,0,4.94-.75c5-1.33,10.77-3.89,8.83-7.95s-9.52-10.78-9.52-10.78a48.17,48.17,0,0,1,11.46,10.51c4.69,6.27,1.44,13.52-2.82,14.13-8.37,1.18-8.81,3.88-16.08,3.89h0c-5.69,0-17.23-5.32-43.36-25s-24.37-32.15-20.85-39.05c2.69-5.26,6.85-6.19,10.29-6.19m0-2.25h0c-5.64,0-9.77,2.49-12.29,7.41a19.48,19.48,0,0,0-.82,16.52c2.92,7.9,10.39,16.43,22.28,25.39,29.94,22.53,39.63,25.45,44.71,25.45a20.67,20.67,0,0,0,8.93-1.87,28.2,28.2,0,0,1,7.47-2.06,8.21,8.21,0,0,0,6.2-5.31,12.61,12.61,0,0,0-1.87-12.4c-2.73-3.66-7.4-7.66-11-10.52a50.41,50.41,0,0,0,8.4-1l.68-.18c4-1,13.52-3.46,12.65-16.2-.46-6.55-6.15-11.32-13.52-11.32a17,17,0,0,0-9.29,2.78c-1-.26-2-.57-3.05-.89a31.37,31.37,0,0,0-9.1-1.81,13.64,13.64,0,0,0-10,4.27,10.85,10.85,0,0,0-3.48,8.06c-4.6-1.22-11.26-3.75-14-7.73l-.48-.7c-5.11-7.51-11.47-16.91-19.19-17.67a30.85,30.85,0,0,0-3.18-.2ZM402.45,472a5.34,5.34,0,0,1,1.39-2.3,4.41,4.41,0,0,1,3.08-1.44,3.72,3.72,0,0,1,.81.09,4.54,4.54,0,0,0-.79,1.94l-.14.91.53.75c8.62,12,25.2,23.28,36.24,27.14a26.44,26.44,0,0,0,8.67,1.59,17,17,0,0,0,7.16-1.43c4.51,3.9,10.87,10,12,12.37a1.1,1.1,0,0,1,.07,1c-.47,1-2.68,2.55-7.45,3.8a16.07,16.07,0,0,1-4.36.69c-6,0-15-4.28-28.43-13.44-11.46-7.84-17.56-15.62-20.65-20.77a30.19,30.19,0,0,1-4-9.35l-.27-1.62-1.63-.17a4.18,4.18,0,0,0-.61,0,4,4,0,0,0-1.66.36Z"/></g></g></g></g></g></svg>
