<svg xmlns="http://www.w3.org/2000/svg" viewBox="0 0 1920 1080"><defs><style>.cls-1{fill:#E4F3FD;}.cls-2{fill:#231f20;}.cls-3{fill:#82f4a0;}</style></defs><g id="Background"><rect class="cls-1" width="1920" height="1080"/></g><g id="Logos"><path class="cls-2" d="M806,619.17H777.87V396.72h79.22q37,0,54.57,20.11a67.8,67.8,0,0,1,17.47,45.88A63.52,63.52,0,0,1,910,510.17q-19.18,18.73-50.12,18.74H806Zm0-113.51h51.17a43.49,43.49,0,0,0,31.76-11.87A41.74,41.74,0,0,0,901,462.59a45.3,45.3,0,0,0-10.77-29.66q-10.77-13-31.11-13.05H806Z"/><path class="cls-2" d="M1080.4,619.17h-25.21a255.3,255.3,0,0,1-3-28c-11.28,22.78-30.47,28.12-57.58,28.12q-27.61,0-42.44-14.65a47.76,47.76,0,0,1-14.83-35.21q0-24.91,21.15-41t71.84-16.08c4.56,0,11.86.24,21.8.65,0-13-1-17.94-3-23.72a25.26,25.26,0,0,0-12.78-13.92,54.63,54.63,0,0,0-25.69-5.19q-38.88,0-45.2,29.66L942,495.81q8.59-45.37,72.52-45.38,34,0,48.23,15t14.2,52.11v69.67a138.8,138.8,0,0,0,3.5,31.92ZM1052,532.59c-10.41-.65-18-1-23.46-1q-30.19,0-47,10a31.75,31.75,0,0,0-16.78,28.95,27.24,27.24,0,0,0,8.89,20.55c5.94,5.64,14.84,8.45,26.11,8.45a47.81,47.81,0,0,0,37.67-16.78,57.58,57.58,0,0,0,14.83-39.45,103.38,103.38,0,0,0-.36-10.77Z"/><path class="cls-2" d="M1243.21,429.16v20.32q-17.57,0-23.49,4.07c-4,2.72-6.62,7.59-7.89,14.65a59.31,59.31,0,0,1,15.75,39.68,51,51,0,0,1-17.15,38.56q-17.16,16.11-46.09,16.11a56.54,56.54,0,0,1-11.24-1,81.72,81.72,0,0,0-11.21-1.78,19.65,19.65,0,0,0-10.59,4.3,13.1,13.1,0,0,0-6.17,11.15,12.11,12.11,0,0,0,8.9,12.67q8.9,3,42.12,3.76a241.88,241.88,0,0,1,41.52,3.8,42.49,42.49,0,0,1,22.9,13.32,36.53,36.53,0,0,1,9.14,25.21q0,47-82.61,47-39.21,0-57.18-11.86t-17.8-31.5q0-23.94,25-32.9-16.1-10.54-16.1-26.48,0-19,22.78-29.1a53.53,53.53,0,0,1-21.33-43.39,50.25,50.25,0,0,1,18.24-40,65.82,65.82,0,0,1,44.49-15.61,78.92,78.92,0,0,1,33.67,7q2.43-16.1,11.33-22.3c5.93-4.09,14.83-6.17,26.9-6.17.92.15,3,.27,6.08.47ZM1134.56,612.44q-17.79,7.83-17.79,22.63,0,12.51,14.83,19.43a88.74,88.74,0,0,0,37.49,6.91,120.78,120.78,0,0,0,38.56-5.94q17.58-5.93,17.56-20.11a16.42,16.42,0,0,0-5.19-12.51,25.6,25.6,0,0,0-14.24-6.17q-8.9-1.27-31.47-2Q1147.43,614.1,1134.56,612.44ZM1165.14,543a36.36,36.36,0,0,0,26.52-9.85,34.63,34.63,0,0,0,10.35-26.1,35.82,35.82,0,0,0-34.74-36.88c-.56,0-1.12,0-1.68,0a38.25,38.25,0,0,0-25.87,9.61q-11.23,9.67-11.24,27.56a34.43,34.43,0,0,0,10.09,25.77,36.24,36.24,0,0,0,26.57,9.91Z"/><path class="cls-2" d="M1366.75,565.78l23.72,4.86a66.74,66.74,0,0,1-25.33,34.8,73.23,73.23,0,0,1-44.49,13.73q-33.69,0-54.48-23.73c-13.88-15.78-20.77-32-20.77-57.66q0-39.21,21.66-63.38a69.7,69.7,0,0,1,54.31-24.18q32.2,0,51.78,22.28t20.08,66.67H1273.88c0,18.6,5.19,37.14,15.6,45.8a50.78,50.78,0,0,0,33,13Q1353.9,598.08,1366.75,565.78Zm-1.61-45.53a71.08,71.08,0,0,0-4.53-24.56,41.8,41.8,0,0,0-14.33-18.3,39.16,39.16,0,0,0-24.23-7.56,43.26,43.26,0,0,0-32.27,13.64q-13.26,13.68-14.83,36.78Z"/><path class="cls-3" d="M607.82,477.54H525.75l82.1-80.82Z"/><path d="M607.85,396.72l-82.1,80.82V619.23H748.47V396.72ZM710.06,619.2H681.38V483.29h28.68Zm5.52-181.52a19.68,19.68,0,0,1-20,19.31h-.81a19.44,19.44,0,0,1-19.07-19.79v-.54a19.7,19.7,0,0,1,19.82-19.57h.33a19.93,19.93,0,0,1,19.75,20.11Z"/></g></svg>
