<svg xmlns="http://www.w3.org/2000/svg" viewBox="0 0 1920 1080"><defs><style>.cls-1{fill:#E4F3FD;}</style></defs><g id="Background"><rect class="cls-1" width="1920" height="1080"/></g><g id="Logos"><path d="M319.49,431.35h58.16v58.16H319.49Z"/><path d="M394.27,431.35h58.15v58.16H394.27Z"/><path d="M469,431.35H527.2v58.16H469Z"/><path d="M319.49,506.13h58.16v58.16H319.49Z"/><path d="M394.27,506.13h58.15v58.16H394.27Z"/><path d="M469,506.13H527.2v58.16H469Z"/><path d="M319.49,581.54h58.16V639.7H319.49Z"/><path d="M394.27,581.54h58.15V639.7H394.27Z"/><path d="M469,581.54H527.2V639.7H469Z"/><path d="M645.43,520.83a66.41,66.41,0,0,1,44.1-16.62c29.4,0,58.16,20.45,58.16,69,.64,49.85-32,69-66.47,69a100.24,100.24,0,0,1-50.49-14.06V431.35h14.7Zm0,99.06c10.87,5.75,23,8.31,35.15,9,27.49,0,52.41-16,52.41-56.24,0-35.16-19.81-55-44.74-55a59.08,59.08,0,0,0-42.82,21.09Z"/><path d="M773.89,431.35H788V639.7H773.89Z"/><path d="M837.8,587.93c0,32,15.34,40.27,31.32,40.27,17.26,0,33.23-10.87,46-29.4V506.13h14.7V639.7h-14.7V614.14a62.56,62.56,0,0,1-50.49,28.12c-21.09,0-40.91-12.15-40.91-52.41V506.77h14.7Z"/><path d="M1071.08,630.75a101.39,101.39,0,0,1-47.3,11.51C979.05,641,956,605.83,957.32,568.12c1.28-42.18,32.59-64.55,65.83-63.91,35.79.64,60.07,29.4,55.6,71.58H971.38c-.64,28.76,22.37,51.77,50.49,52.41h1.91A85.17,85.17,0,0,0,1065.33,618Zm-5.75-66.46a43.71,43.71,0,0,0-41.55-46h-1.91c-26.21-1.28-48.58,19.81-49.21,46h92.67Z"/><path d="M1127.32,532.33c10.23-17.25,28.76-27.48,49.21-28.12,26.84,0,42.18,19.81,42.18,49.85V639.7H1204V557.26c0-28.76-14.7-39-30.67-39-19.18,0-37.07,15.34-46,30V639.7h-14.7V431.35h14.7Z"/><path d="M1371.46,573.23c0,44.1-30,69-63.91,69-38.35,0-63.91-30.68-63.91-69,0-40.26,28.12-68.38,63.91-68.38,34.51-.64,63.91,24.93,63.91,68.38m-113.76,0c0,29.4,17.25,55,49.21,55,31.31,0,49.21-25.57,49.21-55s-18.53-55-49.21-55-49.21,24.93-49.21,55"/><path d="M1405.33,616.69c10.23,7,23,10.87,35.79,11.51,14.06,0,31.32-5.75,31.32-19.81,0-12.15-12.79-21.1-33.24-29.4-23-9-42.18-17.26-42.18-39s19.81-35.79,46-35.79c12.78,0,25.56,3.84,37.07,10.23l-5.76,11.5a66.74,66.74,0,0,0-31.31-7.67c-21.73,0-32,10.87-32,22.37,0,14.06,16.62,19.81,37.07,28.12,32,12.78,39,26.84,39,39,0,21.09-19.82,33.87-45.38,33.87a82.85,82.85,0,0,1-42.18-12.14Z"/><path d="M1583.64,506.13v12.78h-44.1v72.86c0,21.73,9,35.15,28.76,36.43,9,0,17.26-1.28,24.93-5.12l4.47,12.79a77.79,77.79,0,0,1-29.4,5.75c-24.28,0-43.46-14.7-43.46-49.21v-73.5H1501.2V506.13h23.64V461.39h14.7v44.74Z"/></g></svg>
