<svg xmlns="http://www.w3.org/2000/svg" viewBox="0 0 1920 1080"><defs><style>.cls-1{fill:#E4F3FD;}</style></defs><g id="Background"><rect class="cls-1" width="1920" height="1080"/></g><g id="Logos"><path d="M1326.33,492.77h-56.79a19.73,19.73,0,0,1-1.83-2.2c-10.84-26.1-29.59-40.43-58.62-39.7-28.67.74-48.51,15.44-58.62,41-16,40.24-15.44,80.3,10.47,117.06,22.42,32.15,85.27,35.64,105.11-12.13a72.88,72.88,0,0,1,3.31-6.62h56.05c-3.86,39.14-32.16,75-70.75,87.84-79.38,26.46-158.58-22.42-170.71-106.21-6.43-45.21-.74-88,27.75-125.51,42.44-55.68,131.38-64.32,181.37-17.64C1311.44,445.73,1321.36,467.41,1326.33,492.77Z"/><path d="M1354.81,404h57V679.1h-57Z"/><path d="M921.69,559.66v-57c24.81,9,50.35,12.68,75,19.11,4.05,1.11,8.27,2.39,12.13,3.86,34.55,12.87,53.29,36.57,53.84,70.93.55,35.1-15.62,61-47.59,76.08-29.95,14.15-61.19,14.52-93.53,7.35V625.81c12.49,7.9,25.91,10.66,40.24,10.11a59.7,59.7,0,0,0,25.73-5.7c12.86-6.61,18.37-17.09,17.64-31.42-.74-12.86-8.82-19.85-19.85-23.71-17.64-6.24-36.2-8.82-54.21-13.41Z"/><path d="M699.53,679.29H682.8L599,554.7H521.83V678.55a36.75,36.75,0,0,1-14.15.37V404c8.09,0,15.81-.19,23.71,0,30.87.73,61.92-2.39,92.61,2,33.45,4.59,54.76,25.17,60.46,57.33,6.06,34.18-6.43,65-32.53,79.57-10.65,6.06-22.41,9-36.38,10.65ZM521.83,540a12.33,12.33,0,0,0,2.39.73c21.5,0,42.82.19,64.32.19,12.31,0,24.44,0,36.56-2.58,29.59-6.61,45.94-27.38,46.13-58.8s-15.81-52-45.76-58.8c-14.51-3.31-29.22-1.84-43.92-2-19.84-.19-39.5,0-59.72,0Z"/><path d="M737.38,418.35V530.44H875c2.2,4.23.91,8.45.91,13.23H737.38V665.14H889.53a27.66,27.66,0,0,1,.37,14H723.23V404.57h166.3c2.21,4,.37,8.45,1.11,13.78Z"/><path d="M1059.88,479h-56.23c-15.07-34.55-52.19-38.77-81.78-25.36V403.46C975.16,379.21,1051.24,420.19,1059.88,479Z"/></g></svg>
