<svg xmlns="http://www.w3.org/2000/svg" viewBox="0 0 1920 1080"><defs><style>.cls-1{fill:#E4F3FD;}.cls-2{fill-rule:evenodd;}</style></defs><g id="Background"><rect class="cls-1" width="1920" height="1080"/></g><g id="Logos"><path class="cls-2" d="M873.48,657.58c-2.84-4-6.26-5.13-11.38-2.28a55.41,55.41,0,0,1-25.63,6.83c-25.62,0-43.27-17.65-43.27-42.7s17.65-42.7,43.27-42.7c8.55,0,18.22,2.27,25.63,6.83,5.12,2.85,8.54,2.28,11.38-2.28l2.85-4c2.85-4.56,2.28-8.54-1.71-11.39-11.39-7.4-23.34-10.82-37.58-10.82-19.92,0-37.57,6.83-50.1,19.36-12,12-18.22,27.9-18.22,45.55s6.26,33.59,18.22,45.55c12.53,12.52,29.61,19.36,50.1,19.36,14.81,0,26.76-3.42,38.72-11.39,3.42-2.85,4-6.26,1.14-10.82Z"/><path class="cls-2" d="M933.84,588.68c-27.33,0-49,21.07-49,47.83s21.64,47.83,49,47.83c27.9,0,49.53-21.07,49.53-47.83C982.8,610.32,960.6,588.68,933.84,588.68Zm0,75.16c-14.81,0-26.19-12-26.19-27.33s11.38-27.33,26.19-27.33,26.19,12,26.19,27.33C959.46,651.88,948.07,663.84,933.84,663.84Z"/><path class="cls-2" d="M1050,588.68c-13.1,0-23.35,5.7-27.9,15.38v-5.13c0-5.12-2.85-8-8-8h-8c-5.13,0-8,2.85-8,8v75.16c0,5.12,2.85,8,8,8h8c5.12,0,8-2.85,8-8V637.65c0-9.68,4.55-28.47,22.77-28.47,9.68,0,15.38,8,15.38,21.64v42.7c0,5.12,2.84,8,8,8h8c5.12,0,8-2.85,8-8V629.68C1084.15,604.06,1071.62,588.68,1050,588.68Z"/><path class="cls-2" d="M1262.36,591h-8c-5.12,0-8,2.85-8,8v4c-6.83-9.11-17.65-14.24-29.61-14.24-25.62,0-44.41,19.93-44.41,47.83,0,27.33,18.79,47.83,44.41,47.83,12.53,0,22.78-5.13,29.61-14.24v4c0,5.12,2.85,8,8,8h8c5.12,0,8-2.85,8-8V598.93C1270.33,593.81,1267.48,591,1262.36,591Zm-41.56,72.88c-14.81,0-25.06-11.39-25.06-27.33s10.25-27.33,25.06-27.33,25.62,11.39,25.62,27.33S1236.17,663.84,1220.8,663.84Z"/><path class="cls-2" d="M1338.66,609.18A39.5,39.5,0,0,1,1354,612.6c5.12,2.28,8.54,1.71,11.39-2.28l2.27-2.85c1.71-2.27,2.28-4.55,1.71-6.26a10.51,10.51,0,0,0-4-5.12,56.71,56.71,0,0,0-27.9-8c-30.75,0-51.82,19.93-51.82,48.4,0,27.33,21.64,46.69,51.82,46.69a55.59,55.59,0,0,0,25.62-6.26c2.85-1.71,5.12-4,5.69-6.27s0-4-1.71-6.26l-2.27-2.85c-2.85-4-6.27-4.55-11.39-1.71a36.27,36.27,0,0,1-15.37,3.42c-17.08,0-29-11.39-29-27.33C1309.62,620.57,1321.57,609.18,1338.66,609.18Z"/><path class="cls-2" d="M1442.28,658.72c-1.14-1.14-1.71-1.71-2.85-1.71a4.91,4.91,0,0,0-3.41,1.71l-.57.57h0c-.57,1.13-3.42,3.41-7.4,4h0c-1.14,0-2.28.57-3.42,0-5.12-.57-8-4-8-10.82V608.61h21.63a4.19,4.19,0,0,0,4.56-4.55V595a4.2,4.2,0,0,0-4.56-4.56h-21.63v-8h0v-9.11c0-5.12-2.85-8-8-8h-7.4c-5.13,0-8,2.85-8,8v16.51h-9.11a4.19,4.19,0,0,0-4.55,4.56v9.11a4.19,4.19,0,0,0,4.55,4.55h9.11v9.68h0v34.73c0,27.9,19.36,31.89,30.75,31.89a63,63,0,0,0,10.82-1.14h0a20.19,20.19,0,0,0,5.12-2.28c2.85-1.14,4.56-2.85,6.84-5.12a15.32,15.32,0,0,0,2.84-3.42c1.71-1.71,1.14-4-.57-6.26Z"/><path class="cls-2" d="M1158.17,658.72c-1.14-1.14-1.71-1.71-2.85-1.71a4.93,4.93,0,0,0-3.42,1.71l-.57.57h0c-.57,1.13-3.41,3.41-6.83,4h0c-1.14,0-2.28.57-3.41,0-5.13-.57-8-4-8-10.82V608.61h21.64a4.19,4.19,0,0,0,4.56-4.55V595a4.2,4.2,0,0,0-4.56-4.56h-21.64V573.31c0-5.12-2.84-8-8-8h-7.4c-5.12,0-8,2.85-8,8v16.51h-9.11a4.19,4.19,0,0,0-4.55,4.56v9.11a4.18,4.18,0,0,0,4.55,4.55h9.11v44.41c0,27.9,19.36,31.89,30.75,31.89a62.89,62.89,0,0,0,10.81-1.14h0a20.25,20.25,0,0,0,5.13-2.28c2.85-1.14,4.55-2.85,6.83-5.12a15.11,15.11,0,0,0,2.85-3.42c1.71-1.71,1.14-4-.57-6.26Z"/><path class="cls-2" d="M873.48,497.59c-2.84-4-6.26-5.13-11.38-2.28a55.53,55.53,0,0,1-25.63,6.83c-25.62,0-43.27-17.65-43.27-42.7s17.65-42.7,43.27-42.7c8.55,0,18.22,2.27,25.63,6.83,5.12,2.84,8.54,2.28,11.38-2.28l2.85-4c2.85-4.55,2.28-8.54-1.71-11.38-11.39-7.4-23.34-10.82-37.58-10.82-19.92,0-37.57,6.83-50.1,19.36-12,12-18.22,27.9-18.22,45.55s6.26,33.59,18.22,45.55c12.53,12.52,29.61,19.36,50.1,19.36,14.81,0,26.76-3.42,38.72-11.39,3.42-2.85,4-6.27,1.14-10.82Z"/><path class="cls-2" d="M933.84,428.69c-27.33,0-49,21.07-49,47.83s21.64,47.83,49,47.83c27.9,0,49.53-21.07,49.53-47.83C982.8,449.76,960.6,428.69,933.84,428.69Zm0,74.59c-14.81,0-26.19-12-26.19-26.76,0-15.37,11.38-27.33,26.19-27.33s26.19,12,26.19,27.33C959.46,491.32,948.07,503.28,933.84,503.28Z"/><path class="cls-2" d="M1050,428.69c-13.1,0-23.35,5.7-27.9,15.38v-5.13c0-5.12-2.85-8-8-8h-8c-5.13,0-8,2.85-8,8V514.1c0,5.12,2.85,8,8,8h8c5.12,0,8-2.85,8-8V477.66c0-9.68,4.55-28.47,22.77-28.47,9.68,0,15.38,8,15.38,21.64v42.7c0,5.12,2.84,8,8,8h8c5.12,0,8-2.85,8-8V469.69C1084.15,444.07,1071.62,428.69,1050,428.69Z"/><path class="cls-2" d="M1143.93,468.55l-12-4c-6.27-1.71-8.54-4.55-8.54-8.54,0-5.12,4.55-8.54,10.24-8.54,4,0,7.41,1.14,9.11,4,2.85,3.41,5.7,4.55,10.25,4l4-1.14c2.84-.57,5.12-2.27,5.69-4.55a6.63,6.63,0,0,0-1.14-6.26c-5.69-9.68-15.37-14.81-28.47-14.81-18.78,0-32.45,12-32.45,28.47,0,12,8,21.07,24.48,26.19l11.39,4c6.83,2.27,9.11,5.12,9.11,8.54,0,5.12-5.12,9.11-12.53,9.11-5.69,0-11.38-2.28-14.23-6.27-2.85-3.41-5.69-5.69-10.25-4.55l-4.55,1.14c-2.85.57-5.13,2.28-5.7,4a8.26,8.26,0,0,0,.57,6.27h0c5.7,11.38,18.22,18.22,34.16,18.22,23.92,0,34.74-14.24,34.74-28.47C1167.85,486.77,1163.86,474.81,1143.93,468.55Z"/><path class="cls-2" d="M1295.38,523.78c12.53,0,22.78-5.13,29.61-14.24v4c0,5.12,2.85,8,8,8h8c5.13,0,8-2.85,8-8V438.94c0-5.12-2.84-8-8-8h-8c-5.12,0-8,2.85-8,8v4c-6.83-9.11-17.65-14.24-29.61-14.24-25.62,0-44.41,19.93-44.41,47.83C1250.4,503.85,1269.19,523.78,1295.38,523.78Zm4-75.16c14.8,0,25.62,11.39,25.62,27.33s-10.82,27.33-25.62,27.33-25-11.39-25-27.33C1274.89,460,1285.14,448.62,1299.37,448.62Z"/><path class="cls-2" d="M1421.78,428.69c-13.09,0-23.34,5.7-27.9,15.38v-5.13c0-5.12-2.84-8-8-8h-8c-5.12,0-8,2.85-8,8V514.1c0,5.12,2.85,8,8,8h8c5.13,0,8-2.85,8-8V477.66c0-9.68,4.56-28.47,22.78-28.47,9.68,0,15.37,8,15.37,21.64v42.7c0,5.12,2.85,8,8,8h8c5.13,0,8-2.85,8-8V469.69C1456,444.07,1443.42,428.69,1421.78,428.69Z"/><path class="cls-2" d="M1534.52,506.13l-5.7-7.41c-1.13-1.13-1.7-1.7-2.84-1.7a5,5,0,0,0-3.42,1.7l-.57.57h0c-.57,1.14-3.41,3.42-7.4,4h0c-1.14,0-2.28.57-3.42,0-5.12-.57-8-4-8-10.82V448.62h21.64a4.18,4.18,0,0,0,4.55-4.55v-8.55a4.18,4.18,0,0,0-4.55-4.55H1503.2V413.89c0-5.13-2.84-8-8-8h-7.4c-5.12,0-8,2.84-8,8V430.4h-9.11a4.2,4.2,0,0,0-4.56,4.56v9.11a4.19,4.19,0,0,0,4.56,4.55h9.11v42.7c0,27.9,19.36,31.89,30.74,31.89a62.9,62.9,0,0,0,10.82-1.14h0a20.25,20.25,0,0,0,5.13-2.28c2.84-1.14,4.55-2.85,6.83-5.12a15.11,15.11,0,0,0,2.85-3.42C1536.8,510.11,1536.8,507.83,1534.52,506.13Z"/><path class="cls-2" d="M1179.23,449.19h9.11v42.7c0,27.9,19.36,31.89,30.75,31.89a63.12,63.12,0,0,0,10.82-1.14h0a20.34,20.34,0,0,0,5.12-2.28c2.85-1.14,4.56-2.85,6.83-5.12a15.11,15.11,0,0,0,2.85-3.42c1.71-1.71,1.14-4-.57-6.26l-5.69-7.41c-1.14-1.13-1.71-1.7-2.85-1.7a5,5,0,0,0-3.42,1.7l-.57.57h0c-.56,1.14-3.41,3.42-6.83,4h0c-1.14,0-2.28.57-3.41,0-5.13-.57-8-4-8-10.82V448.05H1235a4.19,4.19,0,0,0,4.56-4.55v-8A4.19,4.19,0,0,0,1235,431h-21.64v-8h0v-9.11c0-5.13-2.84-8-8-8H1198c-5.12,0-8,2.84-8,8V430.4h-9.11a4.19,4.19,0,0,0-4.55,4.56v9.11C1174.68,447.48,1176.39,449.19,1179.23,449.19Z"/><path class="cls-2" d="M590.51,510.68c2.85,8.54,10.82,13.67,19.93,13.67a28.61,28.61,0,0,0,6.83-1.14,20.9,20.9,0,0,0,12.52-26.76c-6.83-18.79-21.06-33.6-41-42.71a21,21,0,1,0-17.65,38.15C581.4,495.88,588.23,502.71,590.51,510.68Z"/><path class="cls-2" d="M583.68,379.16a20.88,20.88,0,1,0-8,41c47.26,9.68,79.72,41,87.69,87.11a20.73,20.73,0,0,0,20.49,17.09,7.23,7.23,0,0,0,3.42-.57c11.39-2.28,18.79-13.1,17.08-23.92C693,437.23,648,391.68,583.68,379.16Z"/><path class="cls-2" d="M530.72,587.55a34.74,34.74,0,0,1,0-69.47,21.07,21.07,0,1,0,0-42.13A76.3,76.3,0,1,0,607,552.24a21.07,21.07,0,0,0-42.13,0A33.84,33.84,0,0,1,530.72,587.55Z"/><path class="cls-2" d="M657.12,532.32a21,21,0,0,0-21.06,21.06A105.34,105.34,0,1,1,530.72,448.05a21.07,21.07,0,1,0,0-42.13c-80.85,0-146.89,66-146.89,147.46,0,80.85,66,146.9,146.89,146.9s146.9-66,146.9-146.9C677.62,541.43,668.51,532.32,657.12,532.32Z"/></g></svg>
