<svg xmlns="http://www.w3.org/2000/svg" viewBox="0 0 1920 1080"><defs><style>.cls-1{fill:#E4F3FD;}</style></defs><g id="Background"><rect class="cls-1" width="1920" height="1080"/></g><g id="Logos"><path d="M688.06,540.52a60.17,60.17,0,0,1-4,22.07,51,51,0,0,1-11.59,17.48,55.11,55.11,0,0,1-18,11.59A63.85,63.85,0,0,1,631,595.71H588V485.32h42.86a59.15,59.15,0,0,1,23.37,4.24,52.76,52.76,0,0,1,18,11.4,51.18,51.18,0,0,1,11.59,17.48A53.75,53.75,0,0,1,688.06,540.52Zm-26.13,0a50.1,50.1,0,0,0-2.2-14.72,33.31,33.31,0,0,0-6.08-11.22,24.53,24.53,0,0,0-9.75-7,32.37,32.37,0,0,0-13.06-2.39H613.73V576h17.11a31.47,31.47,0,0,0,13.06-2.39,28,28,0,0,0,9.75-7,33.4,33.4,0,0,0,6.08-11.22,52.32,52.32,0,0,0,2.2-14.9Z"/><path d="M811.5,540.52a57.55,57.55,0,0,1-4,21.7,50.29,50.29,0,0,1-29.06,29.07,63.9,63.9,0,0,1-46,0A52,52,0,0,1,703.14,562a61.44,61.44,0,0,1,0-43.6A50.57,50.57,0,0,1,714.55,501a53.56,53.56,0,0,1,17.66-11.59,64.62,64.62,0,0,1,46,0A51.58,51.58,0,0,1,795.86,501a52.16,52.16,0,0,1,11.41,17.48,58.17,58.17,0,0,1,4.23,22.08Zm-25.75,0a46.69,46.69,0,0,0-2-14.35,32.8,32.8,0,0,0-5.88-10.86,26.37,26.37,0,0,0-9.39-6.81,35.87,35.87,0,0,0-25.75,0,25.51,25.51,0,0,0-9.57,6.81,27.29,27.29,0,0,0-5.89,10.86A47.94,47.94,0,0,0,725,540.7a48.68,48.68,0,0,0,2,14.53A32.64,32.64,0,0,0,733,566.09a25.26,25.26,0,0,0,9.56,6.8,35.76,35.76,0,0,0,25.76,0,25.37,25.37,0,0,0,9.57-6.8,27.27,27.27,0,0,0,5.88-10.86A50.74,50.74,0,0,0,785.75,540.52Z"/><path d="M946.54,485.32V595.71H923.91V532.24a44.24,44.24,0,0,1,.18-4.79c.19-1.65.19-3.49.37-5.15L895.21,579a8.71,8.71,0,0,1-3.68,4,9.24,9.24,0,0,1-5.33,1.29h-3.5a10.92,10.92,0,0,1-5.34-1.29,8.69,8.69,0,0,1-3.67-4l-29.44-56.85c.18,1.84.18,3.68.37,5.33,0,1.66.18,3.31.18,4.79v63.47H822.17V485.32h22.45a9.55,9.55,0,0,1,2.21.37,6.22,6.22,0,0,1,1.83,1.11,14.88,14.88,0,0,1,1.48,2.2l28.51,55.93c.92,1.84,2,3.86,3,6.07s1.84,4.23,2.76,6.44l2.76-6.62a57.74,57.74,0,0,1,2.94-6.07L918.39,489a6.34,6.34,0,0,1,1.66-2.2,3.79,3.79,0,0,1,1.84-1.11,9.38,9.38,0,0,1,2.2-.37h22.45Z"/><path d="M1071.09,595.71h-19.87a7.94,7.94,0,0,1-5.34-1.47,11.53,11.53,0,0,1-3.12-4l-6.44-19.32H994.37l-6.62,19.32a9.83,9.83,0,0,1-3,3.86,8,8,0,0,1-5.33,1.66H959.42l42.68-110.39h26.12Zm-40.66-42.13-10.3-30.17a68.82,68.82,0,0,1-2.39-6.81c-.74-2.58-1.66-5.52-2.58-8.46-.74,3.12-1.66,5.88-2.39,8.64a58.39,58.39,0,0,1-2.39,6.81l-10.12,30Z"/><path d="M1109.72,595.71H1084V485.32h25.75Z"/><path d="M1222.68,485.32V595.71h-13.25a12,12,0,0,1-5-.92,14.1,14.1,0,0,1-4-3.31l-52.06-65.87c.18,2,.36,3.87.36,5.71s.19,3.49.19,5.15v59.24h-22.63V485.32h13.43a13.49,13.49,0,0,1,2.76.19c.73.18,1.47.37,2,.55.55.37,1.29.74,1.84,1.1a9.61,9.61,0,0,1,1.84,2l52.43,66.23q-.27-3.31-.55-6.07c-.18-1.84-.18-3.87-.18-5.71V485.32Z"/><path d="M1241.08,581.91a13.33,13.33,0,0,1,1.1-5.34,14.4,14.4,0,0,1,3-4.41,14.52,14.52,0,0,1,15.63-2.94,17.4,17.4,0,0,1,4.6,2.94,11.78,11.78,0,0,1,3,4.41,13.33,13.33,0,0,1,1.1,5.34,14,14,0,0,1-4.05,9.93,13.24,13.24,0,0,1-4.6,2.95,14.88,14.88,0,0,1-5.52,1.1,15.1,15.1,0,0,1-5.7-1.1,13.88,13.88,0,0,1-8.46-12.88Z"/><path d="M1362.87,572.16a3.44,3.44,0,0,1,2.21.92l5.88,6.25a46.28,46.28,0,0,1-16,12,56.92,56.92,0,0,1-22.82,4.23,52.64,52.64,0,0,1-21.15-4,49.26,49.26,0,0,1-16.19-11.23,54.57,54.57,0,0,1-10.49-17.47,62.08,62.08,0,0,1-3.68-22.45,66.83,66.83,0,0,1,3.87-22.44,50.81,50.81,0,0,1,10.85-17.48A47.56,47.56,0,0,1,1312.09,489a57.37,57.37,0,0,1,21.53-4,52,52,0,0,1,20.42,3.68,50.5,50.5,0,0,1,15.45,9.93l-4.78,6.81a7.68,7.68,0,0,1-1.11,1.28,3.09,3.09,0,0,1-1.84.56,6.87,6.87,0,0,1-3.31-1.48c-1.65-1.1-3.31-2.2-5.15-3.31a38.56,38.56,0,0,0-19.68-4.78,39.64,39.64,0,0,0-15.27,2.94,34.12,34.12,0,0,0-12,8.28,37.83,37.83,0,0,0-7.73,13.43,49.2,49.2,0,0,0-2.76,17.85,50.75,50.75,0,0,0,2.95,18,38.12,38.12,0,0,0,7.91,13.43,32.69,32.69,0,0,0,11.77,8.28,37,37,0,0,0,14.72,2.94,65.84,65.84,0,0,0,8.65-.55,34.38,34.38,0,0,0,7.17-1.84,23.74,23.74,0,0,0,6.07-3.13,32.54,32.54,0,0,0,5.52-4.42,3.55,3.55,0,0,1,2.21-.73Z"/><path d="M1483,540.52a66.08,66.08,0,0,1-3.86,22.26,50.55,50.55,0,0,1-10.86,17.47,48.26,48.26,0,0,1-16.92,11.41,61.33,61.33,0,0,1-43.6,0A47.47,47.47,0,0,1,1391,580.25a50.55,50.55,0,0,1-10.86-17.47,66.14,66.14,0,0,1,0-44.53A50.64,50.64,0,0,1,1391,500.78a49.24,49.24,0,0,1,16.74-11.41,61.44,61.44,0,0,1,43.6,0,48.26,48.26,0,0,1,16.92,11.41,50.64,50.64,0,0,1,10.86,17.47A66.1,66.1,0,0,1,1483,540.52Zm-15.08,0a53.32,53.32,0,0,0-2.76-17.85,37.66,37.66,0,0,0-7.73-13.43,32.9,32.9,0,0,0-12.14-8.46,44.59,44.59,0,0,0-31.65,0,34.53,34.53,0,0,0-12.14,8.46,37.63,37.63,0,0,0-7.72,13.43,58.3,58.3,0,0,0-2.76,17.85,48.69,48.69,0,0,0,2.76,17.84,37.63,37.63,0,0,0,7.72,13.43,35.16,35.16,0,0,0,12.14,8.46,44.59,44.59,0,0,0,31.65,0,34,34,0,0,0,12.14-8.28,37.66,37.66,0,0,0,7.73-13.43A50.69,50.69,0,0,0,1467.92,540.52Z"/><path d="M1608.84,485.32V595.71h-13.06V514.58a24,24,0,0,1,.18-3.5c.18-1.29.18-2.58.37-3.68l-37.9,69a5.79,5.79,0,0,1-5.33,3.5h-2.21a5.62,5.62,0,0,1-5.34-3.5L1506.92,507a51.61,51.61,0,0,1,.37,7.55v81.13h-13.07V485.32h11a9.05,9.05,0,0,1,3.13.37,4,4,0,0,1,2,2.21l37.9,67.89c.55,1.28,1.29,2.57,1.84,3.86s1.11,2.76,1.66,4.05c.55-1.48,1.1-2.76,1.65-4.05a38.66,38.66,0,0,1,1.84-3.86l37.35-67.89a4.68,4.68,0,0,1,2-2.21,8.59,8.59,0,0,1,3.13-.37Z"/><path d="M387.81,595.71l.37-110.39H427c30,0,48,19.14,47.28,56.12-.55,35.32-19.32,54.27-47.46,54.27Zm36.61-25.39c8.83-.74,19.87-4.42,19.87-29.44s-13.06-30.35-20.23-30.54c-.92,0-5.52,0-6.44.19v59.79Z"/><path d="M474.65,601.41a81.59,81.59,0,0,1-115.17-8.09c-29.43-34-25.94-85.74,8.1-115.17A81.62,81.62,0,0,1,475,601h39.73c33.3-51,19-119.21-32-152.69s-119.39-19-152.69,32-18.95,119.21,32,152.69a110.35,110.35,0,0,0,112.59,4.79Z"/><path d="M514.75,625.69a15.09,15.09,0,1,1-15.08-15.08h0a15,15,0,0,1,15.08,15.08h0"/></g></svg>
