<?xml version="1.0" encoding="UTF-8"?>
<!-- Generator: Adobe Illustrator 25.1.0, SVG Export Plug-In . SVG Version: 6.00 Build 0)  -->
<svg xmlns="http://www.w3.org/2000/svg" xmlns:xlink="http://www.w3.org/1999/xlink" version="1.1" id="Livello_1" x="0px" y="0px" viewBox="0 0 800 747.7" style="enable-background:new 0 0 800 747.7;" xml:space="preserve">
<style type="text/css">
	.st0{fill:none;stroke:#000000;stroke-width:2;stroke-linecap:round;stroke-linejoin:round;}
</style>
<path class="st0" d="M324.9,590.7c0.6,18.9-0.4,95.5-0.4,118.3"></path>
<path class="st0" d="M362,558.5c0,19.5-1.4,38.9-2.6,58.3c-0.6,9.7-1.3,19.4-1.7,29.1c-0.3,6.2-1.2,13.1,2.1,18.7  c1.4,2.3,3.4,4.3,5.7,5.7c8,5,18.7,4.8,27.7,7.3c4.5,1.2,13.2,0.5,13,7.8"></path>
<path class="st0" d="M590.4,355.9c8.4-3.6,16.7-7.8,24.9-11.9c8.5-4.2,16.9-9.1,26.1-11.3c4.7-1.1,10.8-1.9,15.3,0.3  c4.3,2.1,4.7,7.2,2.2,10.8s-7.1,5.3-10.9,7.3c-14,7.3-25.7,12-40,18.8c-14.9,7.1-34.9,13.9-47.4,25c-5.3,4.8-9,11-10.9,17.9"></path>
<path class="st0" d="M407.9,449.2c-8.3,6.3-13.9,15.3-15.9,25.5"></path>
<path class="st0" d="M125.2,296.8c4.2-1.8,8.5-3.2,12.9-4.2c5.9-1.3,10.4,0.7,11.5,5.5c0.8,3.4-2.9,3.8-5.3,4  c-4.1,0.5-8.1,1.3-12.1,2.5c-8,2.6-15.5,6.3-22.4,11.1c-5.9,4.1-11.5,8.5-16.7,13.4c-6.7,6-13.6,12-21.5,16.3  c-14.3,7.8-31.1,8-40.7-7c-37.9-59.5,57.5-80.8,96.5-92.5c38.2-11.4,81.3-35.2,86.7-79c0.3-2.6,0.5-5.2,0.5-7.8  c0.5-37.1-28.2-68.9-66.7-62.1c-16.7,3.1-32,11.3-43.8,23.6c-12.9,13.6-20.6,33.1-16.7,51.9c3,14.7,14.9,25.1,30.8,24.3  c11.9-0.6,22.6-8.3,29.8-17.3c18.9-23.6,21.4-60,7.4-86.3C131.1,47.7,67,57.1,29.9,82.7"></path>
<path class="st0" d="M167.3,302.5L167.3,302.5c2.5,1.8,4.7,3.9,7.2,5.5c2.1,1.3,5.4,3,2.8,5.7s-7.1,2.1-10.3,1.1  c-4.4-1.3-7.9-4-11.3-7c-2.4-2-4.6-4.1-6.9-6.3"></path>
<path class="st0" d="M412.5,378.7c2.7,9.4,6.1,18.5,10.3,27.3c2.8,5.8,7.4,10.6,12.2,14.8c4,3.4,8.5,6.1,12.1,9.9  c5.2,5.4,5.2,12.9,6.4,19.9c0.3,1.7,0.3,4-1.8,4.2c-6.7,0.9-8.4-10.8-9.8-15.8"></path>
<path class="st0" d="M410.6,459.9c1,3.5,2.7,7.5,6.9,6.2c1.2-0.3,2.1-1.1,2.7-2.2c1.1-2.1,0-4.5-0.6-6.6c-0.9-2.9-1.7-5.8-2.6-8.6  s-1-7.4-4.8-8c-2-0.3-4.1,0.6-4.6,2.4c-0.5,2.2-0.4,4.4,0.3,6.5c0.8,2.8,1.4,5.6,2.1,8.4C410.2,458.6,410.4,459.2,410.6,459.9z"></path>
<path class="st0" d="M420.6,462.7L420.6,462.7c1.4,1.5,3.6,2.1,5.5,1.4c1.2-0.3,2.1-1.1,2.7-2.2c1-2.1,0-4.5-0.6-6.6  c-0.9-2.9-1.7-5.8-2.6-8.6s-1.6-7.4-5.1-7.9c-1.8-0.2-3.5,0.9-4,2.6c-0.8,2.3-0.3,4.4,0.4,6.7c0.8,2.7,1.6,5.5,2.6,9"></path>
<path class="st0" d="M429.3,460.7c1.4,1.4,3.5,2,5.5,1.3c1.2-0.3,2.1-1.1,2.7-2.2c1.1-2.1,0-4.5-0.6-6.6c-0.9-2.9-1.7-5.8-2.6-8.6  s-1.6-7.4-5.1-7.9c-1.8-0.2-3.5,0.9-4,2.6c-0.8,2.3-0.3,4.4,0.4,6.7c0.8,2.7,1.6,5.5,2.6,9"></path>
<path class="st0" d="M437.8,458.6c1.4,1.4,3.5,2,5.5,1.3c1.2-0.3,2.1-1.1,2.7-2.2c1-2.1,0-4.5-0.6-6.6c-0.9-2.9-1.7-5.8-2.6-8.6  s-1.6-7.4-5.1-7.9c-1.8-0.2-3.5,0.9-4,2.6c-0.8,2.3-0.3,4.4,0.4,6.7c0.8,2.7,1.6,5.5,2.6,9"></path>
<path class="st0" d="M363.2,423.1c0.3,23.9,1.3,47.7,1.3,71.6c0,23.6-2.7,47.1-2.7,70.6"></path>
<path class="st0" d="M363.7,519.8c-0.5,12.3-2.5,24.8-8.6,34.8c-10.4,17.2-25.4,30.8-39.3,45.2c-14.7,15.2-29,30.9-41.8,47.7  c-7.5,9.9,5.3,22.5,10.8,31.4c2.9,4.7,6.9,9,8.5,14.4c1.8,5.9-1.5,14.1-8.2,13.9c-7.4-0.1-13.2-6.9-18.7-10.9  c-9.9-7.1-19-15.1-28.7-22.5c-4.9-3.8-11.1-8.1-13.1-14.5c-2.3-7.4,6-16.1,10.1-20.8c11.6-13,25.2-28.5,37.3-41.1  c16.3-17,30.9-33.3,38.9-56c12.2-34.8,7.1-76.1-12.8-107.1c-38.5-60.2-129.6-62.3-181.3-18.6c-50.9,43.1-49.4,136.6,8.6,174  c10.7,6.9,22.8,11,35.5,12c29.3,2.3,68-18.6,73.2-49c6.1-35.3-30.6-50.1-56.2-26.5c-35.8,33-19.2,88.5,4.4,122.4  c13.4,19.2,31.3,35.2,52.3,45.6c39,19.2,85,19.3,126.3,8.6c20-5.1,39.2-12.9,57.1-23c21-11.9,40.7-26.9,56.3-45.4  c27.1-32.1,32.6-79.2,29-119.7c-5.2-58.4-36.2-113.7-92.2-136.5c-35-14.3-73.6-11.5-110.6-11.5H205c-3.8,0-6.9-3.1-6.9-6.9  c0-0.5,0.1-1,0.2-1.5L218,271c0.6-2.7-1.1-5.5-3.9-6.1c-0.4-0.1-0.8-0.1-1.1-0.1h-3.1c-2.4,0-4.5,1.7-5,4l-18.4,81.1  c-0.7,2.9-3.3,5-6.3,5h-66.5c-2.7,0-4.9,2.2-4.9,4.9v0.8c0,2.7,2.2,4.9,4.9,4.9c0,0,0,0,0,0h74.5c3.3,0,6-2.7,6-6v-5  c0-3.5-2.8-6.3-6.3-6.3c0,0,0,0,0,0h-79.8c-3.3,0-5.9,2.6-5.9,5.9v5.2c0,4.4-3.6,8-8,8H61c-15.2,0-28.1-11.9-28.3-27.1  c-0.2-12.1,7.5-18.2,17.6-23.9c10.9-6.1,23.4-8.1,35.1-12s21.6-10.7,31.9-17.2c15.4-9.8,30.1-7.3,45.1,0.2  c5.4,2.7,11.3,4.8,16.7,7.3c1.1,0.5,2.8,0.8,3.6,1.8c2,2.7-2.7,5.4-4.6,6c-2.8,0.7-5.6,0.9-8.4,0.5c-1.9-0.2-3.8-0.6-5.6-1.1  c-6.7-2.1-12.7-6-19.1-8.9"></path>
<path class="st0" d="M563.4,589.1c15.2-1.1,28,11.9,26.6,26.8c-1.3,13.9-14.2,24.5-25.2,31.6c-14.5,9.5-32.5,18.2-36.4,36.8  c-3.2,15.2,6.1,35.5,23.6,35.1c12.8-0.2,20.5-11.2,23.6-22.4c2.6-9.4,4.6-23.8-4.7-30.2c-2.3-1.6-5.2-1.9-7.7-0.8  c-10.8,4.7-10.9,21.4-8.6,30.8c2.8,11.4,10.4,22.9,22.5,25.5c22.8,4.9,39.7-26.7,34.9-45.9c-1.5-5.9-7.1-12.7-13.8-10.1  c-7.6,2.9-9.8,13-9.5,20.3c0.4,8.1,3,16,7.6,22.8c0.5,0.7,0.9,1.3,1.4,2c2.7,3.7,6.1,6.8,10.1,9c4.4,2.2,9.5,2.8,14.3,1.5  c3-0.8,5.8-2.1,8.2-3.9c2.6-1.9,4.9-4.1,6.9-6.6c2.1-2.6,3.8-5.5,5.3-8.5c1.5-3,2.6-6.2,3.4-9.5c0.8-3.1,1.2-6.3,1.3-9.6  c0.1-3-0.2-5.9-1-8.8c-1.7-5.9-7.5-12.5-14.2-9.7c-8.4,3.6-9.6,15.1-8.6,22.9c1.7,13.4,10.4,30.9,25.9,31.2  c12.1,0.2,19.6-10.8,21.4-21.7c3-17.2-10.4-28.9-14.9-44.5c-0.8-2.9-1-6.7,1.2-9.1c2.8-3.2,8-2.3,11.8-1.7  c11.3,1.9,27.2,3.4,33.9-8.5c2-3.6,3.7-8.6,1.5-12.5c-1.7-3-5.2-2.9-8.1-2.3c-3.5,0.7-7,1.8-10.5,2.6c-7.1,1.7-14.3,3-21.6,3.9  c-7,0.8-15.1,0.7-21.2-3.3c-5.5-3.6-9.4-10.6-7.9-17.2c0.8-3.3,3.2-4.9,6.5-4.4c6.8,1.1,8.2,9.2,8,14.9c-0.9,30.7-33.2,40-58.1,37.8  c-35-3-66.7-23.3-86.1-52.3c-23.9-35.8-19.7-79.1-33.5-118.4c-3.9-11.1-9.6-21.6-17.9-30.1c-2.9-3-6.2-5.5-9.9-7.3"></path>
<circle class="st0" cx="701.8" cy="613.6" r="4.6"></circle>
<polyline class="st0" points="467.6,336.2 467.6,214 647.5,214 647.5,331.7 "></polyline>
<path class="st0" d="M658.6,148.7c-8.9,21.7-33.8,32.1-55.5,23.2c-0.8-0.3-1.5-0.7-2.3-1"></path>
<path class="st0" d="M397.6,244.6c4.8,0,9.6-0.5,14.3,0.5c2.4,0.5,4.3,1.2,4.3,4c-0.1,3.8-3.7,4.4-6.8,4.7  c-4.2,0.4-17.3,1.5-28.6,2.2"></path>
<path class="st0" d="M398.9,254.6c4.9-0.2,9.3-1.5,13.8,0.1c2.1,0.6,3.6,2.5,3.6,4.7c-0.1,3.2-3.1,4.3-5.8,4.5c-4.2,0.4-19.7,2-29,3  "></path>
<path class="st0" d="M380.7,244.5c7.8-0.1,10.2,0.3,15,0.2c4.2-0.1,9.2-0.3,13.4-0.1c3.4,0.1,7.8-0.3,7.4-4.8  c-0.4-4.9-8.3-5.1-11.7-5.3c-4.4-0.2-8.9-0.2-13.3-0.1c-6,0.1-12.4-0.6-18.2,1.1c-12.1,3.6-17.8,16.4-23.9,26.3  c-15.6,25.6-38.2,47.9-47.4,77c-16.6,52.5,37.3,110.6,88.2,73.2c3.7-2.7,7.1-5.9,10.1-9.5c26.5-32.3,14.8-85.4,1-115.1"></path>
<path class="st0" d="M380.7,278.3c0.3,4.3,3.7,7.7,8,8l27.1,1.9c4.7,0.3,8.8-3.2,9.2-8c0,0,0,0,0,0l4.6-67.6c0.3-4.7-3.3-8.8-8-9.2  l-27.1-1.9c-2.6-0.2-5.1,0.8-6.9,2.7l0,0c-1.4,1.4-2.2,3.3-2.3,5.3l-1.7,24.7"></path>
<path class="st0" d="M392.8,208.3l7.5,0.5c0.4,0,0.6,0.3,0.6,0.7l-1,14.2c0,0.4-0.3,0.6-0.7,0.6l-7.5-0.5c-0.4,0-0.6-0.3-0.6-0.7  l1-14.2C392.2,208.5,392.5,208.3,392.8,208.3z"></path>
<path class="st0" d="M351.1,143.7c3.2,9.4,21.5,9.2,25.1-1.1"></path>
<path class="st0" d="M428.9,193.3c5.9-2.5,11.5,2.3,11.6,8.7"></path>
<path class="st0" d="M424.7,176.2c14.9-5,32.4,9.1,29.4,27.1"></path>
<path class="st0" d="M426.5,185c12.1-3.7,22.7,7.5,21.2,18.1"></path>
<path class="st0" d="M424,168c9.6-2.3,19.4-0.9,26.8,5.8c7.9,7.1,12.6,18.9,10.5,28.8"></path>
<path class="st0" d="M395,265.6c4-0.4,15.3-3.2,17.4,1.9c1.7,4-2.5,5.5-5.3,6.3c-8.4,2.4-17.5,1.6-25.9,4.2  c-17.8,5.5-19.8,22.5-27.6,36.8c-16.8,30.6-63.2,49.3-91.4,22.4c-23.2-22.1-19.9-56.7,0.3-79.3c31.8-35.6,80.2-66.7,76.5-120.9  c-0.8-11.8-4.7-25.8-15-32.8c-8.4-5.7-25.1-4.2-25,8.6c0.1,10.4,9.5,17.3,18.8,19.6c21.8,5.3,52.9-6.7,55.9-31.4  c2.3-19.2-12.1-37.4-27.5-47c-18.6-11.6-47-13.8-64.2,1.6c-17.6,15.8-12.8,48.2,10.6,55.8c9.8,3.2,20.8,1,29.4-4.5  c16-10.1,25.4-28,43.3-35.6c15.2-6.5,35.2-3.7,42.5,13.8c7.3,17.8-2.3,35.2-11.5,49.5c-17.3,27.1-31.4,64-12.3,93.9"></path>
<path class="st0" d="M408,449.8c-4-18.3-10-36.1-26.4-47.7c-26-18.4-62.9-13.5-87.2,4c-19.1,13.7-31.7,34.6-35,57.9  c-5.4,39.2,16.1,74.5,50.6,92.2c39.2,20.1,84.6,15.1,121.4-7.8c34.8-21.6,62.7-58.5,66.2-100.1c3-36.3-16.9-82.5-49.5-101  c-0.6-0.4-1.2-0.8-1.6-1.4c-1.5-2-1.5-4.6,0-6.6c12.7-17.1,39.8,10.3,53.5,16.1c23.5,10,45.7,4.7,66.4-8.9c4.9-3.3,9.5-7,13.9-11  c5-4.4,10-9,15.1-13.3c5-4.4,10.4-8.4,16-12c8-4.9,26.6-12.2,31.8,0.4c2.1,5.1-1.3,6.9-5.2,9.4c-21.5,13.9-41.8,29.8-60.5,47.3  c-14.7,13.7-27.6,31-28.9,51.7c-1.6,24-2.2,50.8,15.5,69.4c24.4,25.6,48.2,17.9,102.9,17c23.9-0.4,51.3,1.6,70.3-16.2  c29.1-27.2,3-66.4-14.8-91.8c-23.7-33.7-43-72.1-48.1-113.4c-8.3-67.4,37.4-115.4,60-174.1c10.4-26.9,1.4-60.1-27-73.1  c-6.4-3-13.5-4.2-20.5-3.4c-6.5,0.8-12.6,3.2-18,7c-11.4,7.9-20,21.1-22,35.2c-1.7,12.1,2.5,30.9,17.2,33.1c1.9,0.3,3.9,0.2,5.8-0.2  c23.3-5.1,22.5-37.1,10.7-53.7c-4.8-6.6-10.9-12.3-17.8-16.6c-10.2-6.5-22.2-10.6-34.1-10.3c-6.4,0.1-12.7,1.7-18.4,4.7  c-19.2,10.1-31.7,33.7-27.8,56c4.5,26.4,32.7,35.3,41.2,7c5.4-17.7-2.6-38.8-14.7-52.1c-22.6-24.8-60.9-26.6-85.7-4  c-12.6,11.5-19.8,27.8-19.8,44.8c0,29.8,23.1,56.7,52.6,61.2c24.6,3.7,46.5-10.1,68.3-18.9c53.9-21.8,119.4-0.1,143.8,54.1  c6.3,13.9,9.5,29,9.5,44.3c0,63.5-55.6,104.9-104.4,135.1c-41.1,25.4-96.1,60.1-97.8,114.3c-0.4,12.4,2.3,24.7,6.8,36.1  c10,25.2,38.5,48.8,66.9,50.4c29.8,1.7,57.2-20.4,69.3-46.6c6.6-14.2,9.1-30.3,6-45.6c-3.3-16.5-14.2-40.4-35.1-36.3  c-12.6,2.4-21.5,13.2-26.1,24.9C647,499.7,682.1,570.5,733,561.3c12.2-2.4,23.3-8.5,32-17.4"></path>
<polygon class="st0" points="507.2,243.6 497.7,229.5 488.1,243.6 494.4,243.6 494.4,276.7 500.9,276.7 500.9,243.6 "></polygon>
<polygon class="st0" points="534.1,243.6 524.6,229.5 515,243.6 521.3,243.6 521.3,276.7 527.8,276.7 527.8,243.6 "></polygon>
<rect x="486.2" y="282.1" class="st0" width="49.8" height="6.5"></rect>
</svg>
